<?xml version="1.0" encoding="utf-8" standalone="no"?>
<!DOCTYPE svg PUBLIC "-//W3C//DTD SVG 1.1//EN"
  "http://www.w3.org/Graphics/SVG/1.1/DTD/svg11.dtd">
<!-- Created with matplotlib (http://matplotlib.org/) -->
<svg height="345pt" version="1.1" viewBox="0 0 460 345" width="460pt" xmlns="http://www.w3.org/2000/svg" xmlns:xlink="http://www.w3.org/1999/xlink">
 <defs>
  <style type="text/css">
*{stroke-linecap:butt;stroke-linejoin:round;}
  </style>
 </defs>
 <g id="figure_1">
  <g id="patch_1">
   <path d="M 0 345.6 
L 460.8 345.6 
L 460.8 0 
L 0 0 
z
" style="fill:#ffffff;"/>
  </g>
  <g id="axes_1">
   <g id="patch_2">
    <path d="M 57.6 293.76 
L 414.72 293.76 
L 414.72 41.472 
L 57.6 41.472 
z
" style="fill:#ffffff;"/>
   </g>
   <g id="patch_3">
    <path clip-path="url(#p14e67d9109)" d="M 57.6 270.057873 
L 445.172093 270.057873 
L 445.172093 222.251835 
L 57.6 222.251835 
z
" style="fill:url(#h899c65ee12);opacity:0.5;stroke:#1b8ece;stroke-linejoin:miter;"/>
   </g>
   <g id="matplotlib.axis_1">
    <g id="xtick_1">
     <g id="line2d_1">
      <defs>
       <path d="M 0 0 
L 0 3.5 
" id="m620a0212b0" style="stroke:#000000;stroke-width:0.8;"/>
      </defs>
      <g>
       <use style="stroke:#000000;stroke-width:0.8;" x="57.6" xlink:href="#m620a0212b0" y="293.76"/>
      </g>
     </g>
     <g id="text_1">
      <!-- 0 -->
      <defs>
       <path d="M 31.78125 66.40625 
Q 24.171875 66.40625 20.328125 58.90625 
Q 16.5 51.421875 16.5 36.375 
Q 16.5 21.390625 20.328125 13.890625 
Q 24.171875 6.390625 31.78125 6.390625 
Q 39.453125 6.390625 43.28125 13.890625 
Q 47.125 21.390625 47.125 36.375 
Q 47.125 51.421875 43.28125 58.90625 
Q 39.453125 66.40625 31.78125 66.40625 
z
M 31.78125 74.21875 
Q 44.046875 74.21875 50.515625 64.515625 
Q 56.984375 54.828125 56.984375 36.375 
Q 56.984375 17.96875 50.515625 8.265625 
Q 44.046875 -1.421875 31.78125 -1.421875 
Q 19.53125 -1.421875 13.0625 8.265625 
Q 6.59375 17.96875 6.59375 36.375 
Q 6.59375 54.828125 13.0625 64.515625 
Q 19.53125 74.21875 31.78125 74.21875 
z
" id="DejaVuSans-30"/>
      </defs>
      <g transform="translate(54.41875 308.358437)scale(0.1 -0.1)">
       <use xlink:href="#DejaVuSans-30"/>
      </g>
     </g>
    </g>
    <g id="xtick_2">
     <g id="line2d_2">
      <g>
       <use style="stroke:#000000;stroke-width:0.8;" x="112.967442" xlink:href="#m620a0212b0" y="293.76"/>
      </g>
     </g>
     <g id="text_2">
      <!-- 20 -->
      <defs>
       <path d="M 19.1875 8.296875 
L 53.609375 8.296875 
L 53.609375 0 
L 7.328125 0 
L 7.328125 8.296875 
Q 12.9375 14.109375 22.625 23.890625 
Q 32.328125 33.6875 34.8125 36.53125 
Q 39.546875 41.84375 41.421875 45.53125 
Q 43.3125 49.21875 43.3125 52.78125 
Q 43.3125 58.59375 39.234375 62.25 
Q 35.15625 65.921875 28.609375 65.921875 
Q 23.96875 65.921875 18.8125 64.3125 
Q 13.671875 62.703125 7.8125 59.421875 
L 7.8125 69.390625 
Q 13.765625 71.78125 18.9375 73 
Q 24.125 74.21875 28.421875 74.21875 
Q 39.75 74.21875 46.484375 68.546875 
Q 53.21875 62.890625 53.21875 53.421875 
Q 53.21875 48.921875 51.53125 44.890625 
Q 49.859375 40.875 45.40625 35.40625 
Q 44.1875 33.984375 37.640625 27.21875 
Q 31.109375 20.453125 19.1875 8.296875 
z
" id="DejaVuSans-32"/>
      </defs>
      <g transform="translate(106.604942 308.358437)scale(0.1 -0.1)">
       <use xlink:href="#DejaVuSans-32"/>
       <use x="63.623047" xlink:href="#DejaVuSans-30"/>
      </g>
     </g>
    </g>
    <g id="xtick_3">
     <g id="line2d_3">
      <g>
       <use style="stroke:#000000;stroke-width:0.8;" x="168.334884" xlink:href="#m620a0212b0" y="293.76"/>
      </g>
     </g>
     <g id="text_3">
      <!-- 40 -->
      <defs>
       <path d="M 37.796875 64.3125 
L 12.890625 25.390625 
L 37.796875 25.390625 
z
M 35.203125 72.90625 
L 47.609375 72.90625 
L 47.609375 25.390625 
L 58.015625 25.390625 
L 58.015625 17.1875 
L 47.609375 17.1875 
L 47.609375 0 
L 37.796875 0 
L 37.796875 17.1875 
L 4.890625 17.1875 
L 4.890625 26.703125 
z
" id="DejaVuSans-34"/>
      </defs>
      <g transform="translate(161.972384 308.358437)scale(0.1 -0.1)">
       <use xlink:href="#DejaVuSans-34"/>
       <use x="63.623047" xlink:href="#DejaVuSans-30"/>
      </g>
     </g>
    </g>
    <g id="xtick_4">
     <g id="line2d_4">
      <g>
       <use style="stroke:#000000;stroke-width:0.8;" x="223.702326" xlink:href="#m620a0212b0" y="293.76"/>
      </g>
     </g>
     <g id="text_4">
      <!-- 60 -->
      <defs>
       <path d="M 33.015625 40.375 
Q 26.375 40.375 22.484375 35.828125 
Q 18.609375 31.296875 18.609375 23.390625 
Q 18.609375 15.53125 22.484375 10.953125 
Q 26.375 6.390625 33.015625 6.390625 
Q 39.65625 6.390625 43.53125 10.953125 
Q 47.40625 15.53125 47.40625 23.390625 
Q 47.40625 31.296875 43.53125 35.828125 
Q 39.65625 40.375 33.015625 40.375 
z
M 52.59375 71.296875 
L 52.59375 62.3125 
Q 48.875 64.0625 45.09375 64.984375 
Q 41.3125 65.921875 37.59375 65.921875 
Q 27.828125 65.921875 22.671875 59.328125 
Q 17.53125 52.734375 16.796875 39.40625 
Q 19.671875 43.65625 24.015625 45.921875 
Q 28.375 48.1875 33.59375 48.1875 
Q 44.578125 48.1875 50.953125 41.515625 
Q 57.328125 34.859375 57.328125 23.390625 
Q 57.328125 12.15625 50.6875 5.359375 
Q 44.046875 -1.421875 33.015625 -1.421875 
Q 20.359375 -1.421875 13.671875 8.265625 
Q 6.984375 17.96875 6.984375 36.375 
Q 6.984375 53.65625 15.1875 63.9375 
Q 23.390625 74.21875 37.203125 74.21875 
Q 40.921875 74.21875 44.703125 73.484375 
Q 48.484375 72.75 52.59375 71.296875 
z
" id="DejaVuSans-36"/>
      </defs>
      <g transform="translate(217.339826 308.358437)scale(0.1 -0.1)">
       <use xlink:href="#DejaVuSans-36"/>
       <use x="63.623047" xlink:href="#DejaVuSans-30"/>
      </g>
     </g>
    </g>
    <g id="xtick_5">
     <g id="line2d_5">
      <g>
       <use style="stroke:#000000;stroke-width:0.8;" x="279.069767" xlink:href="#m620a0212b0" y="293.76"/>
      </g>
     </g>
     <g id="text_5">
      <!-- 80 -->
      <defs>
       <path d="M 31.78125 34.625 
Q 24.75 34.625 20.71875 30.859375 
Q 16.703125 27.09375 16.703125 20.515625 
Q 16.703125 13.921875 20.71875 10.15625 
Q 24.75 6.390625 31.78125 6.390625 
Q 38.8125 6.390625 42.859375 10.171875 
Q 46.921875 13.96875 46.921875 20.515625 
Q 46.921875 27.09375 42.890625 30.859375 
Q 38.875 34.625 31.78125 34.625 
z
M 21.921875 38.8125 
Q 15.578125 40.375 12.03125 44.71875 
Q 8.5 49.078125 8.5 55.328125 
Q 8.5 64.0625 14.71875 69.140625 
Q 20.953125 74.21875 31.78125 74.21875 
Q 42.671875 74.21875 48.875 69.140625 
Q 55.078125 64.0625 55.078125 55.328125 
Q 55.078125 49.078125 51.53125 44.71875 
Q 48 40.375 41.703125 38.8125 
Q 48.828125 37.15625 52.796875 32.3125 
Q 56.78125 27.484375 56.78125 20.515625 
Q 56.78125 9.90625 50.3125 4.234375 
Q 43.84375 -1.421875 31.78125 -1.421875 
Q 19.734375 -1.421875 13.25 4.234375 
Q 6.78125 9.90625 6.78125 20.515625 
Q 6.78125 27.484375 10.78125 32.3125 
Q 14.796875 37.15625 21.921875 38.8125 
z
M 18.3125 54.390625 
Q 18.3125 48.734375 21.84375 45.5625 
Q 25.390625 42.390625 31.78125 42.390625 
Q 38.140625 42.390625 41.71875 45.5625 
Q 45.3125 48.734375 45.3125 54.390625 
Q 45.3125 60.0625 41.71875 63.234375 
Q 38.140625 66.40625 31.78125 66.40625 
Q 25.390625 66.40625 21.84375 63.234375 
Q 18.3125 60.0625 18.3125 54.390625 
z
" id="DejaVuSans-38"/>
      </defs>
      <g transform="translate(272.707267 308.358437)scale(0.1 -0.1)">
       <use xlink:href="#DejaVuSans-38"/>
       <use x="63.623047" xlink:href="#DejaVuSans-30"/>
      </g>
     </g>
    </g>
    <g id="xtick_6">
     <g id="line2d_6">
      <g>
       <use style="stroke:#000000;stroke-width:0.8;" x="334.437209" xlink:href="#m620a0212b0" y="293.76"/>
      </g>
     </g>
     <g id="text_6">
      <!-- 100 -->
      <defs>
       <path d="M 12.40625 8.296875 
L 28.515625 8.296875 
L 28.515625 63.921875 
L 10.984375 60.40625 
L 10.984375 69.390625 
L 28.421875 72.90625 
L 38.28125 72.90625 
L 38.28125 8.296875 
L 54.390625 8.296875 
L 54.390625 0 
L 12.40625 0 
z
" id="DejaVuSans-31"/>
      </defs>
      <g transform="translate(324.893459 308.358437)scale(0.1 -0.1)">
       <use xlink:href="#DejaVuSans-31"/>
       <use x="63.623047" xlink:href="#DejaVuSans-30"/>
       <use x="127.246094" xlink:href="#DejaVuSans-30"/>
      </g>
     </g>
    </g>
    <g id="xtick_7">
     <g id="line2d_7">
      <g>
       <use style="stroke:#000000;stroke-width:0.8;" x="389.804651" xlink:href="#m620a0212b0" y="293.76"/>
      </g>
     </g>
     <g id="text_7">
      <!-- 120 -->
      <g transform="translate(380.260901 308.358437)scale(0.1 -0.1)">
       <use xlink:href="#DejaVuSans-31"/>
       <use x="63.623047" xlink:href="#DejaVuSans-32"/>
       <use x="127.246094" xlink:href="#DejaVuSans-30"/>
      </g>
     </g>
    </g>
    <g id="text_8">
     <!-- Press count -->
     <defs>
      <path d="M 13.8125 28.078125 
L 13.8125 0 
L 8.984375 0 
L 8.984375 70.015625 
L 25.875 70.015625 
Q 36.671875 70.015625 42.375 65.015625 
Q 48.09375 60.015625 48.09375 50.390625 
Q 48.09375 40.625 41.71875 34.34375 
Q 35.359375 28.078125 23.875 28.078125 
z
M 13.8125 65.578125 
L 13.8125 32.515625 
L 23.78125 32.515625 
Q 33.25 32.515625 38.171875 37.03125 
Q 43.109375 41.546875 43.109375 49.8125 
Q 43.109375 65.578125 25 65.578125 
z
" id="SegoeUI-Light-50"/>
      <path d="M 31.59375 45.3125 
Q 29.34375 46.921875 26.3125 46.921875 
Q 20.40625 46.921875 16.40625 40.8125 
Q 12.40625 34.71875 12.40625 23.484375 
L 12.40625 0 
L 8.015625 0 
L 8.015625 50 
L 12.40625 50 
L 12.40625 38.921875 
L 12.59375 38.921875 
Q 14.3125 44.625 18.015625 47.796875 
Q 21.734375 50.984375 26.609375 50.984375 
Q 29.390625 50.984375 31.59375 50.09375 
z
" id="SegoeUI-Light-72"/>
      <path d="M 9.078125 24.8125 
Q 9.078125 14.5 13.84375 8.6875 
Q 18.609375 2.875 26.90625 2.875 
Q 35.296875 2.875 43.3125 9.078125 
L 43.3125 4.296875 
Q 35.546875 -1.21875 25.984375 -1.21875 
Q 16.3125 -1.21875 10.34375 5.703125 
Q 4.390625 12.640625 4.390625 25.296875 
Q 4.390625 36.234375 10.609375 43.71875 
Q 16.84375 51.21875 26.8125 51.21875 
Q 36.140625 51.21875 41.109375 44.671875 
Q 46.09375 38.140625 46.09375 26.8125 
L 46.09375 24.8125 
z
M 41.40625 28.90625 
Q 41.109375 37.546875 37.25 42.328125 
Q 33.40625 47.125 26.609375 47.125 
Q 19.578125 47.125 14.96875 42.40625 
Q 10.359375 37.703125 9.28125 28.90625 
z
" id="SegoeUI-Light-65"/>
      <path d="M 5.421875 2.203125 
L 5.421875 7.625 
Q 7.953125 5.421875 11.5625 4.140625 
Q 15.1875 2.875 17.828125 2.875 
Q 29.59375 2.875 29.59375 12.5 
Q 29.59375 15.828125 27 18.171875 
Q 24.421875 20.515625 18.609375 23 
Q 11.421875 26.125 8.515625 29.46875 
Q 5.609375 32.8125 5.609375 37.59375 
Q 5.609375 43.703125 10.265625 47.453125 
Q 14.9375 51.21875 21.78125 51.21875 
Q 28.21875 51.21875 32.8125 48.578125 
L 32.8125 43.5 
Q 27.25 47.125 21.296875 47.125 
Q 16.359375 47.125 13.328125 44.5625 
Q 10.296875 42 10.296875 37.890625 
Q 10.296875 34.328125 12.203125 32.109375 
Q 14.109375 29.890625 20.609375 27 
Q 28.421875 23.484375 31.34375 20.484375 
Q 34.28125 17.484375 34.28125 12.5 
Q 34.28125 6.546875 29.8125 2.65625 
Q 25.34375 -1.21875 17.484375 -1.21875 
Q 10.25 -1.21875 5.421875 2.203125 
z
" id="SegoeUI-Light-73"/>
      <path id="SegoeUI-Light-20"/>
      <path d="M 40.375 2.203125 
Q 34.8125 -1.21875 27.09375 -1.21875 
Q 16.890625 -1.21875 10.640625 5.78125 
Q 4.390625 12.796875 4.390625 24.125 
Q 4.390625 36.03125 11.421875 43.625 
Q 18.453125 51.21875 29.5 51.21875 
Q 35.203125 51.21875 40.578125 48.875 
L 40.578125 43.796875 
Q 35.203125 47.125 28.8125 47.125 
Q 20.015625 47.125 14.546875 40.796875 
Q 9.078125 34.46875 9.078125 24.421875 
Q 9.078125 14.703125 14.078125 8.78125 
Q 19.09375 2.875 27.296875 2.875 
Q 34.8125 2.875 40.375 6.890625 
z
" id="SegoeUI-Light-63"/>
      <path d="M 28.078125 -1.21875 
Q 17.140625 -1.21875 10.765625 5.984375 
Q 4.390625 13.1875 4.390625 24.703125 
Q 4.390625 37.15625 11.046875 44.1875 
Q 17.71875 51.21875 28.609375 51.21875 
Q 39.3125 51.21875 45.5 44.234375 
Q 51.703125 37.25 51.703125 24.90625 
Q 51.703125 13.234375 45.375 6 
Q 39.0625 -1.21875 28.078125 -1.21875 
z
M 28.421875 47.125 
Q 19.578125 47.125 14.328125 41.15625 
Q 9.078125 35.203125 9.078125 24.609375 
Q 9.078125 14.796875 14.203125 8.828125 
Q 19.34375 2.875 28.21875 2.875 
Q 37.25 2.875 42.125 8.734375 
Q 47.015625 14.59375 47.015625 25 
Q 47.015625 35.6875 42.15625 41.40625 
Q 37.3125 47.125 28.421875 47.125 
z
" id="SegoeUI-Light-6f"/>
      <path d="M 41.015625 0 
L 41.015625 9.078125 
L 40.828125 9.078125 
Q 35.59375 -1.21875 24.703125 -1.21875 
Q 6.984375 -1.21875 6.984375 21.09375 
L 6.984375 50 
L 11.53125 50 
L 11.53125 22.21875 
Q 11.53125 12.0625 14.875 7.46875 
Q 18.21875 2.875 25.390625 2.875 
Q 32.375 2.875 36.6875 8 
Q 41.015625 13.140625 41.015625 21.6875 
L 41.015625 50 
L 45.515625 50 
L 45.515625 0 
z
" id="SegoeUI-Light-75"/>
      <path d="M 42 0 
L 42 29.109375 
Q 42 47.125 29 47.125 
Q 21.78125 47.125 17.140625 41.828125 
Q 12.5 36.53125 12.5 28.71875 
L 12.5 0 
L 8.015625 0 
L 8.015625 50 
L 12.5 50 
L 12.5 40.921875 
L 12.703125 40.921875 
Q 18.171875 51.21875 29.78125 51.21875 
Q 37.890625 51.21875 42.1875 45.828125 
Q 46.484375 40.4375 46.484375 30.421875 
L 46.484375 0 
z
" id="SegoeUI-Light-6e"/>
      <path d="M 27.78125 0.6875 
Q 24.265625 -0.984375 21.1875 -0.984375 
Q 10.109375 -0.984375 10.109375 12.3125 
L 10.109375 45.90625 
L 1.125 45.90625 
L 1.125 50 
L 10.109375 50 
L 10.109375 62.984375 
Q 11.1875 63.375 12.359375 63.765625 
Q 13.53125 64.109375 14.59375 64.5 
L 14.59375 50 
L 27.78125 50 
L 27.78125 45.90625 
L 14.59375 45.90625 
L 14.59375 12.890625 
Q 14.59375 7.71875 16.234375 5.390625 
Q 17.875 3.078125 21.78125 3.078125 
Q 24.5625 3.078125 27.78125 4.890625 
z
" id="SegoeUI-Light-74"/>
     </defs>
     <g transform="translate(212.155312 321.84125)scale(0.1 -0.1)">
      <use xlink:href="#SegoeUI-Light-50"/>
      <use x="54.394531" xlink:href="#SegoeUI-Light-72"/>
      <use x="87.371094" xlink:href="#SegoeUI-Light-65"/>
      <use x="137.859375" xlink:href="#SegoeUI-Light-73"/>
      <use x="176.677734" xlink:href="#SegoeUI-Light-73"/>
      <use x="215.496094" xlink:href="#SegoeUI-Light-20"/>
      <use x="242.888672" xlink:href="#SegoeUI-Light-63"/>
      <use x="287.273438" xlink:href="#SegoeUI-Light-6f"/>
      <use x="343.376953" xlink:href="#SegoeUI-Light-75"/>
      <use x="396.892578" xlink:href="#SegoeUI-Light-6e"/>
      <use x="450.408203" xlink:href="#SegoeUI-Light-74"/>
     </g>
    </g>
   </g>
   <g id="matplotlib.axis_2">
    <g id="ytick_1">
     <g id="line2d_8">
      <defs>
       <path d="M 0 0 
L -3.5 0 
" id="m472172c60f" style="stroke:#000000;stroke-width:0.8;"/>
      </defs>
      <g>
       <use style="stroke:#000000;stroke-width:0.8;" x="57.6" xlink:href="#m472172c60f" y="287.110698"/>
      </g>
     </g>
     <g id="text_9">
      <!-- 0 -->
      <g transform="translate(44.2375 290.909917)scale(0.1 -0.1)">
       <use xlink:href="#DejaVuSans-30"/>
      </g>
     </g>
    </g>
    <g id="ytick_2">
     <g id="line2d_9">
      <g>
       <use style="stroke:#000000;stroke-width:0.8;" x="57.6" xlink:href="#m472172c60f" y="238.927352"/>
      </g>
     </g>
     <g id="text_10">
      <!-- 100 -->
      <g transform="translate(31.5125 242.726571)scale(0.1 -0.1)">
       <use xlink:href="#DejaVuSans-31"/>
       <use x="63.623047" xlink:href="#DejaVuSans-30"/>
       <use x="127.246094" xlink:href="#DejaVuSans-30"/>
      </g>
     </g>
    </g>
    <g id="ytick_3">
     <g id="line2d_10">
      <g>
       <use style="stroke:#000000;stroke-width:0.8;" x="57.6" xlink:href="#m472172c60f" y="190.744006"/>
      </g>
     </g>
     <g id="text_11">
      <!-- 200 -->
      <g transform="translate(31.5125 194.543225)scale(0.1 -0.1)">
       <use xlink:href="#DejaVuSans-32"/>
       <use x="63.623047" xlink:href="#DejaVuSans-30"/>
       <use x="127.246094" xlink:href="#DejaVuSans-30"/>
      </g>
     </g>
    </g>
    <g id="ytick_4">
     <g id="line2d_11">
      <g>
       <use style="stroke:#000000;stroke-width:0.8;" x="57.6" xlink:href="#m472172c60f" y="142.56066"/>
      </g>
     </g>
     <g id="text_12">
      <!-- 300 -->
      <defs>
       <path d="M 40.578125 39.3125 
Q 47.65625 37.796875 51.625 33 
Q 55.609375 28.21875 55.609375 21.1875 
Q 55.609375 10.40625 48.1875 4.484375 
Q 40.765625 -1.421875 27.09375 -1.421875 
Q 22.515625 -1.421875 17.65625 -0.515625 
Q 12.796875 0.390625 7.625 2.203125 
L 7.625 11.71875 
Q 11.71875 9.328125 16.59375 8.109375 
Q 21.484375 6.890625 26.8125 6.890625 
Q 36.078125 6.890625 40.9375 10.546875 
Q 45.796875 14.203125 45.796875 21.1875 
Q 45.796875 27.640625 41.28125 31.265625 
Q 36.765625 34.90625 28.71875 34.90625 
L 20.21875 34.90625 
L 20.21875 43.015625 
L 29.109375 43.015625 
Q 36.375 43.015625 40.234375 45.921875 
Q 44.09375 48.828125 44.09375 54.296875 
Q 44.09375 59.90625 40.109375 62.90625 
Q 36.140625 65.921875 28.71875 65.921875 
Q 24.65625 65.921875 20.015625 65.03125 
Q 15.375 64.15625 9.8125 62.3125 
L 9.8125 71.09375 
Q 15.4375 72.65625 20.34375 73.4375 
Q 25.25 74.21875 29.59375 74.21875 
Q 40.828125 74.21875 47.359375 69.109375 
Q 53.90625 64.015625 53.90625 55.328125 
Q 53.90625 49.265625 50.4375 45.09375 
Q 46.96875 40.921875 40.578125 39.3125 
z
" id="DejaVuSans-33"/>
      </defs>
      <g transform="translate(31.5125 146.359879)scale(0.1 -0.1)">
       <use xlink:href="#DejaVuSans-33"/>
       <use x="63.623047" xlink:href="#DejaVuSans-30"/>
       <use x="127.246094" xlink:href="#DejaVuSans-30"/>
      </g>
     </g>
    </g>
    <g id="ytick_5">
     <g id="line2d_12">
      <g>
       <use style="stroke:#000000;stroke-width:0.8;" x="57.6" xlink:href="#m472172c60f" y="94.377314"/>
      </g>
     </g>
     <g id="text_13">
      <!-- 400 -->
      <g transform="translate(31.5125 98.176533)scale(0.1 -0.1)">
       <use xlink:href="#DejaVuSans-34"/>
       <use x="63.623047" xlink:href="#DejaVuSans-30"/>
       <use x="127.246094" xlink:href="#DejaVuSans-30"/>
      </g>
     </g>
    </g>
    <g id="ytick_6">
     <g id="line2d_13">
      <g>
       <use style="stroke:#000000;stroke-width:0.8;" x="57.6" xlink:href="#m472172c60f" y="46.193968"/>
      </g>
     </g>
     <g id="text_14">
      <!-- 500 -->
      <defs>
       <path d="M 10.796875 72.90625 
L 49.515625 72.90625 
L 49.515625 64.59375 
L 19.828125 64.59375 
L 19.828125 46.734375 
Q 21.96875 47.46875 24.109375 47.828125 
Q 26.265625 48.1875 28.421875 48.1875 
Q 40.625 48.1875 47.75 41.5 
Q 54.890625 34.8125 54.890625 23.390625 
Q 54.890625 11.625 47.5625 5.09375 
Q 40.234375 -1.421875 26.90625 -1.421875 
Q 22.3125 -1.421875 17.546875 -0.640625 
Q 12.796875 0.140625 7.71875 1.703125 
L 7.71875 11.625 
Q 12.109375 9.234375 16.796875 8.0625 
Q 21.484375 6.890625 26.703125 6.890625 
Q 35.15625 6.890625 40.078125 11.328125 
Q 45.015625 15.765625 45.015625 23.390625 
Q 45.015625 31 40.078125 35.4375 
Q 35.15625 39.890625 26.703125 39.890625 
Q 22.75 39.890625 18.8125 39.015625 
Q 14.890625 38.140625 10.796875 36.28125 
z
" id="DejaVuSans-35"/>
      </defs>
      <g transform="translate(31.5125 49.993187)scale(0.1 -0.1)">
       <use xlink:href="#DejaVuSans-35"/>
       <use x="63.623047" xlink:href="#DejaVuSans-30"/>
       <use x="127.246094" xlink:href="#DejaVuSans-30"/>
      </g>
     </g>
    </g>
    <g id="text_15">
     <!-- dwell time -->
     <defs>
      <path d="M 43.5 0 
L 43.5 9.078125 
L 43.3125 9.078125 
Q 40.875 4.34375 36.078125 1.5625 
Q 31.296875 -1.21875 25.296875 -1.21875 
Q 16.0625 -1.21875 10.21875 5.515625 
Q 4.390625 12.25 4.390625 24.125 
Q 4.390625 36.234375 10.765625 43.71875 
Q 17.140625 51.21875 27.296875 51.21875 
Q 38.53125 51.21875 43.3125 42 
L 43.5 42 
L 43.5 74.03125 
L 48 74.03125 
L 48 0 
z
M 43.5 30.421875 
Q 43.5 37.40625 39.078125 42.265625 
Q 34.671875 47.125 27.203125 47.125 
Q 19.34375 47.125 14.203125 41.09375 
Q 9.078125 35.0625 9.078125 24.515625 
Q 9.078125 14.15625 13.6875 8.515625 
Q 18.3125 2.875 25.59375 2.875 
Q 34.125 2.875 38.8125 8.171875 
Q 43.5 13.484375 43.5 21.09375 
z
" id="SegoeUI-Light-64"/>
      <path d="M 50.390625 0 
L 46.1875 0 
L 35.296875 37.703125 
Q 34.859375 39.265625 34.515625 41.890625 
L 34.28125 41.890625 
Q 34.1875 40.765625 33.296875 37.796875 
L 21.09375 0 
L 16.890625 0 
L 1.8125 50 
L 6.78125 50 
L 18.40625 10.109375 
Q 18.84375 8.546875 19.09375 5.90625 
L 19.484375 5.90625 
Q 19.578125 7.328125 20.40625 10.109375 
L 33.109375 50 
L 36.1875 50 
L 47.515625 10.109375 
Q 47.90625 8.6875 48.1875 5.90625 
L 48.578125 5.90625 
Q 48.578125 7.328125 49.421875 10.109375 
L 61.28125 50 
L 65.921875 50 
z
" id="SegoeUI-Light-77"/>
      <path d="M 8.015625 0 
L 8.015625 74.03125 
L 12.5 74.03125 
L 12.5 0 
z
" id="SegoeUI-Light-6c"/>
      <path d="M 10.203125 62.59375 
Q 8.734375 62.59375 7.609375 63.671875 
Q 6.5 64.75 6.5 66.40625 
Q 6.5 68.015625 7.640625 69.015625 
Q 8.796875 70.015625 10.203125 70.015625 
Q 11.71875 70.015625 12.859375 69.03125 
Q 14.015625 68.0625 14.015625 66.40625 
Q 14.015625 64.84375 12.890625 63.71875 
Q 11.765625 62.59375 10.203125 62.59375 
z
M 8.015625 0 
L 8.015625 50 
L 12.5 50 
L 12.5 0 
z
" id="SegoeUI-Light-69"/>
      <path d="M 70.703125 0 
L 70.703125 30.078125 
Q 70.703125 39.5 67.75 43.3125 
Q 64.796875 47.125 58.40625 47.125 
Q 52.484375 47.125 48.1875 42.046875 
Q 43.890625 36.96875 43.890625 29.296875 
L 43.890625 0 
L 39.40625 0 
L 39.40625 30.421875 
Q 39.40625 47.125 26.703125 47.125 
Q 20.609375 47.125 16.546875 42.015625 
Q 12.5 36.921875 12.5 28.8125 
L 12.5 0 
L 8.015625 0 
L 8.015625 50 
L 12.5 50 
L 12.5 41.703125 
L 12.703125 41.703125 
Q 17.921875 51.21875 27.984375 51.21875 
Q 33.453125 51.21875 37.328125 48.0625 
Q 41.21875 44.921875 42.578125 39.796875 
Q 44.921875 45.21875 49.28125 48.21875 
Q 53.65625 51.21875 58.796875 51.21875 
Q 75.203125 51.21875 75.203125 30.90625 
L 75.203125 0 
z
" id="SegoeUI-Light-6d"/>
     </defs>
     <g transform="translate(25.2125 188.887875)rotate(-90)scale(0.1 -0.1)">
      <use xlink:href="#SegoeUI-Light-64"/>
      <use x="56.005859" xlink:href="#SegoeUI-Light-77"/>
      <use x="123.681641" xlink:href="#SegoeUI-Light-65"/>
      <use x="174.169922" xlink:href="#SegoeUI-Light-6c"/>
      <use x="194.677734" xlink:href="#SegoeUI-Light-6c"/>
      <use x="215.185547" xlink:href="#SegoeUI-Light-20"/>
      <use x="242.578125" xlink:href="#SegoeUI-Light-74"/>
      <use x="272.265625" xlink:href="#SegoeUI-Light-69"/>
      <use x="292.773438" xlink:href="#SegoeUI-Light-6d"/>
      <use x="374.951172" xlink:href="#SegoeUI-Light-65"/>
     </g>
    </g>
   </g>
   <g id="line2d_14">
    <path clip-path="url(#p14e67d9109)" d="M 57.6 272.655694 
L 60.368372 52.939636 
L 63.136744 253.382356 
L 65.905116 256.75519 
L 68.673488 224.472348 
L 71.44186 282.292364 
L 74.210233 235.072684 
L 76.978605 256.273357 
L 79.746977 250.009522 
L 82.515349 260.609858 
L 85.283721 267.355526 
L 88.052093 242.300186 
L 90.820465 222.545015 
L 93.588837 248.082188 
L 96.357209 247.118521 
L 99.125581 252.900523 
L 101.893953 255.791523 
L 104.662326 250.009522 
L 107.430698 250.973189 
L 110.19907 213.390179 
L 112.967442 229.290683 
L 115.735814 232.663517 
L 118.504186 238.927352 
L 124.04093 238.927352 
L 126.809302 239.891019 
L 129.577674 251.936856 
L 132.346047 232.663517 
L 135.114419 246.154854 
L 137.882791 256.75519 
L 140.651163 248.564021 
L 143.419535 250.491355 
L 146.187907 248.564021 
L 148.956279 248.082188 
L 151.724651 251.936856 
L 154.493023 225.917849 
L 157.261395 253.382356 
L 160.029767 256.75519 
L 162.79814 222.063181 
L 165.566512 247.118521 
L 168.334884 227.845183 
L 171.103256 246.636688 
L 173.871628 257.237024 
L 176.64 247.118521 
L 179.408372 261.091691 
L 182.176744 239.891019 
L 184.945116 253.382356 
L 187.713488 248.564021 
L 190.48186 257.237024 
L 193.250233 258.200691 
L 196.018605 254.827856 
L 198.786977 249.527688 
L 201.555349 235.554518 
L 204.323721 254.827856 
L 207.092093 216.28118 
L 209.860465 250.009522 
L 212.628837 251.936856 
L 215.397209 254.346023 
L 218.165581 259.646191 
L 220.933953 249.045855 
L 223.702326 258.682524 
L 226.470698 263.982692 
L 229.23907 238.927352 
L 232.007442 258.200691 
L 234.775814 147.378995 
L 237.544186 249.527688 
L 240.312558 242.300186 
L 243.08093 263.500859 
L 245.849302 254.346023 
L 248.617674 246.636688 
L 251.386047 262.055358 
L 254.154419 232.663517 
L 256.922791 259.164358 
L 259.691163 241.818353 
L 262.459535 276.992196 
L 265.227907 227.845183 
L 267.996279 248.564021 
L 270.764651 260.128024 
L 273.533023 258.200691 
L 276.301395 260.609858 
L 279.069767 269.28286 
L 281.83814 262.537192 
L 284.606512 251.455022 
L 287.374884 266.391859 
L 290.143256 226.399682 
L 292.911628 256.75519 
L 295.68 174.361668 
L 298.448372 235.554518 
L 301.216744 213.390179 
L 303.985116 227.845183 
L 306.753488 237.000018 
L 309.52186 243.745687 
L 312.290233 229.290683 
L 315.058605 247.600354 
L 317.826977 247.118521 
L 320.595349 253.382356 
L 323.363721 251.455022 
L 326.132093 226.399682 
L 328.900465 263.982692 
L 331.668837 238.445519 
L 334.437209 258.682524 
L 337.205581 247.118521 
L 339.973953 259.646191 
L 342.742326 242.300186 
L 345.510698 258.200691 
L 348.27907 235.554518 
L 351.047442 256.75519 
L 353.815814 247.118521 
L 356.584186 254.827856 
L 359.352558 243.745687 
L 362.12093 245.191187 
L 364.889302 251.455022 
L 367.657674 247.118521 
L 370.426047 262.537192 
L 373.194419 243.263853 
L 375.962791 254.827856 
L 378.731163 254.346023 
L 381.499535 248.564021 
L 384.267907 261.573525 
L 387.036279 266.873693 
L 389.804651 265.428193 
L 392.573023 237.481852 
L 395.341395 253.864189 
L 398.109767 254.346023 
L 400.87814 256.75519 
L 403.646512 231.218017 
L 406.414884 270.728361 
L 409.183256 253.382356 
L 411.951628 253.382356 
L 414.72 265.910026 
L 414.72 265.910026 
" style="fill:none;stroke:#165ea9;stroke-linecap:square;stroke-width:1.5;"/>
    <defs>
     <path d="M 0 3 
C 0.795609 3 1.55874 2.683901 2.12132 2.12132 
C 2.683901 1.55874 3 0.795609 3 0 
C 3 -0.795609 2.683901 -1.55874 2.12132 -2.12132 
C 1.55874 -2.683901 0.795609 -3 0 -3 
C -0.795609 -3 -1.55874 -2.683901 -2.12132 -2.12132 
C -2.683901 -1.55874 -3 -0.795609 -3 0 
C -3 0.795609 -2.683901 1.55874 -2.12132 2.12132 
C -1.55874 2.683901 -0.795609 3 0 3 
z
" id="m5eb05bdc03" style="stroke:#165ea9;"/>
    </defs>
    <g clip-path="url(#p14e67d9109)">
     <use style="fill:#165ea9;stroke:#165ea9;" x="57.6" xlink:href="#m5eb05bdc03" y="272.655694"/>
     <use style="fill:#165ea9;stroke:#165ea9;" x="60.368372" xlink:href="#m5eb05bdc03" y="52.939636"/>
     <use style="fill:#165ea9;stroke:#165ea9;" x="63.136744" xlink:href="#m5eb05bdc03" y="253.382356"/>
     <use style="fill:#165ea9;stroke:#165ea9;" x="65.905116" xlink:href="#m5eb05bdc03" y="256.75519"/>
     <use style="fill:#165ea9;stroke:#165ea9;" x="68.673488" xlink:href="#m5eb05bdc03" y="224.472348"/>
     <use style="fill:#165ea9;stroke:#165ea9;" x="71.44186" xlink:href="#m5eb05bdc03" y="282.292364"/>
     <use style="fill:#165ea9;stroke:#165ea9;" x="74.210233" xlink:href="#m5eb05bdc03" y="235.072684"/>
     <use style="fill:#165ea9;stroke:#165ea9;" x="76.978605" xlink:href="#m5eb05bdc03" y="256.273357"/>
     <use style="fill:#165ea9;stroke:#165ea9;" x="79.746977" xlink:href="#m5eb05bdc03" y="250.009522"/>
     <use style="fill:#165ea9;stroke:#165ea9;" x="82.515349" xlink:href="#m5eb05bdc03" y="260.609858"/>
     <use style="fill:#165ea9;stroke:#165ea9;" x="85.283721" xlink:href="#m5eb05bdc03" y="267.355526"/>
     <use style="fill:#165ea9;stroke:#165ea9;" x="88.052093" xlink:href="#m5eb05bdc03" y="242.300186"/>
     <use style="fill:#165ea9;stroke:#165ea9;" x="90.820465" xlink:href="#m5eb05bdc03" y="222.545015"/>
     <use style="fill:#165ea9;stroke:#165ea9;" x="93.588837" xlink:href="#m5eb05bdc03" y="248.082188"/>
     <use style="fill:#165ea9;stroke:#165ea9;" x="96.357209" xlink:href="#m5eb05bdc03" y="247.118521"/>
     <use style="fill:#165ea9;stroke:#165ea9;" x="99.125581" xlink:href="#m5eb05bdc03" y="252.900523"/>
     <use style="fill:#165ea9;stroke:#165ea9;" x="101.893953" xlink:href="#m5eb05bdc03" y="255.791523"/>
     <use style="fill:#165ea9;stroke:#165ea9;" x="104.662326" xlink:href="#m5eb05bdc03" y="250.009522"/>
     <use style="fill:#165ea9;stroke:#165ea9;" x="107.430698" xlink:href="#m5eb05bdc03" y="250.973189"/>
     <use style="fill:#165ea9;stroke:#165ea9;" x="110.19907" xlink:href="#m5eb05bdc03" y="213.390179"/>
     <use style="fill:#165ea9;stroke:#165ea9;" x="112.967442" xlink:href="#m5eb05bdc03" y="229.290683"/>
     <use style="fill:#165ea9;stroke:#165ea9;" x="115.735814" xlink:href="#m5eb05bdc03" y="232.663517"/>
     <use style="fill:#165ea9;stroke:#165ea9;" x="118.504186" xlink:href="#m5eb05bdc03" y="238.927352"/>
     <use style="fill:#165ea9;stroke:#165ea9;" x="121.272558" xlink:href="#m5eb05bdc03" y="238.927352"/>
     <use style="fill:#165ea9;stroke:#165ea9;" x="124.04093" xlink:href="#m5eb05bdc03" y="238.927352"/>
     <use style="fill:#165ea9;stroke:#165ea9;" x="126.809302" xlink:href="#m5eb05bdc03" y="239.891019"/>
     <use style="fill:#165ea9;stroke:#165ea9;" x="129.577674" xlink:href="#m5eb05bdc03" y="251.936856"/>
     <use style="fill:#165ea9;stroke:#165ea9;" x="132.346047" xlink:href="#m5eb05bdc03" y="232.663517"/>
     <use style="fill:#165ea9;stroke:#165ea9;" x="135.114419" xlink:href="#m5eb05bdc03" y="246.154854"/>
     <use style="fill:#165ea9;stroke:#165ea9;" x="137.882791" xlink:href="#m5eb05bdc03" y="256.75519"/>
     <use style="fill:#165ea9;stroke:#165ea9;" x="140.651163" xlink:href="#m5eb05bdc03" y="248.564021"/>
     <use style="fill:#165ea9;stroke:#165ea9;" x="143.419535" xlink:href="#m5eb05bdc03" y="250.491355"/>
     <use style="fill:#165ea9;stroke:#165ea9;" x="146.187907" xlink:href="#m5eb05bdc03" y="248.564021"/>
     <use style="fill:#165ea9;stroke:#165ea9;" x="148.956279" xlink:href="#m5eb05bdc03" y="248.082188"/>
     <use style="fill:#165ea9;stroke:#165ea9;" x="151.724651" xlink:href="#m5eb05bdc03" y="251.936856"/>
     <use style="fill:#165ea9;stroke:#165ea9;" x="154.493023" xlink:href="#m5eb05bdc03" y="225.917849"/>
     <use style="fill:#165ea9;stroke:#165ea9;" x="157.261395" xlink:href="#m5eb05bdc03" y="253.382356"/>
     <use style="fill:#165ea9;stroke:#165ea9;" x="160.029767" xlink:href="#m5eb05bdc03" y="256.75519"/>
     <use style="fill:#165ea9;stroke:#165ea9;" x="162.79814" xlink:href="#m5eb05bdc03" y="222.063181"/>
     <use style="fill:#165ea9;stroke:#165ea9;" x="165.566512" xlink:href="#m5eb05bdc03" y="247.118521"/>
     <use style="fill:#165ea9;stroke:#165ea9;" x="168.334884" xlink:href="#m5eb05bdc03" y="227.845183"/>
     <use style="fill:#165ea9;stroke:#165ea9;" x="171.103256" xlink:href="#m5eb05bdc03" y="246.636688"/>
     <use style="fill:#165ea9;stroke:#165ea9;" x="173.871628" xlink:href="#m5eb05bdc03" y="257.237024"/>
     <use style="fill:#165ea9;stroke:#165ea9;" x="176.64" xlink:href="#m5eb05bdc03" y="247.118521"/>
     <use style="fill:#165ea9;stroke:#165ea9;" x="179.408372" xlink:href="#m5eb05bdc03" y="261.091691"/>
     <use style="fill:#165ea9;stroke:#165ea9;" x="182.176744" xlink:href="#m5eb05bdc03" y="239.891019"/>
     <use style="fill:#165ea9;stroke:#165ea9;" x="184.945116" xlink:href="#m5eb05bdc03" y="253.382356"/>
     <use style="fill:#165ea9;stroke:#165ea9;" x="187.713488" xlink:href="#m5eb05bdc03" y="248.564021"/>
     <use style="fill:#165ea9;stroke:#165ea9;" x="190.48186" xlink:href="#m5eb05bdc03" y="257.237024"/>
     <use style="fill:#165ea9;stroke:#165ea9;" x="193.250233" xlink:href="#m5eb05bdc03" y="258.200691"/>
     <use style="fill:#165ea9;stroke:#165ea9;" x="196.018605" xlink:href="#m5eb05bdc03" y="254.827856"/>
     <use style="fill:#165ea9;stroke:#165ea9;" x="198.786977" xlink:href="#m5eb05bdc03" y="249.527688"/>
     <use style="fill:#165ea9;stroke:#165ea9;" x="201.555349" xlink:href="#m5eb05bdc03" y="235.554518"/>
     <use style="fill:#165ea9;stroke:#165ea9;" x="204.323721" xlink:href="#m5eb05bdc03" y="254.827856"/>
     <use style="fill:#165ea9;stroke:#165ea9;" x="207.092093" xlink:href="#m5eb05bdc03" y="216.28118"/>
     <use style="fill:#165ea9;stroke:#165ea9;" x="209.860465" xlink:href="#m5eb05bdc03" y="250.009522"/>
     <use style="fill:#165ea9;stroke:#165ea9;" x="212.628837" xlink:href="#m5eb05bdc03" y="251.936856"/>
     <use style="fill:#165ea9;stroke:#165ea9;" x="215.397209" xlink:href="#m5eb05bdc03" y="254.346023"/>
     <use style="fill:#165ea9;stroke:#165ea9;" x="218.165581" xlink:href="#m5eb05bdc03" y="259.646191"/>
     <use style="fill:#165ea9;stroke:#165ea9;" x="220.933953" xlink:href="#m5eb05bdc03" y="249.045855"/>
     <use style="fill:#165ea9;stroke:#165ea9;" x="223.702326" xlink:href="#m5eb05bdc03" y="258.682524"/>
     <use style="fill:#165ea9;stroke:#165ea9;" x="226.470698" xlink:href="#m5eb05bdc03" y="263.982692"/>
     <use style="fill:#165ea9;stroke:#165ea9;" x="229.23907" xlink:href="#m5eb05bdc03" y="238.927352"/>
     <use style="fill:#165ea9;stroke:#165ea9;" x="232.007442" xlink:href="#m5eb05bdc03" y="258.200691"/>
     <use style="fill:#165ea9;stroke:#165ea9;" x="234.775814" xlink:href="#m5eb05bdc03" y="147.378995"/>
     <use style="fill:#165ea9;stroke:#165ea9;" x="237.544186" xlink:href="#m5eb05bdc03" y="249.527688"/>
     <use style="fill:#165ea9;stroke:#165ea9;" x="240.312558" xlink:href="#m5eb05bdc03" y="242.300186"/>
     <use style="fill:#165ea9;stroke:#165ea9;" x="243.08093" xlink:href="#m5eb05bdc03" y="263.500859"/>
     <use style="fill:#165ea9;stroke:#165ea9;" x="245.849302" xlink:href="#m5eb05bdc03" y="254.346023"/>
     <use style="fill:#165ea9;stroke:#165ea9;" x="248.617674" xlink:href="#m5eb05bdc03" y="246.636688"/>
     <use style="fill:#165ea9;stroke:#165ea9;" x="251.386047" xlink:href="#m5eb05bdc03" y="262.055358"/>
     <use style="fill:#165ea9;stroke:#165ea9;" x="254.154419" xlink:href="#m5eb05bdc03" y="232.663517"/>
     <use style="fill:#165ea9;stroke:#165ea9;" x="256.922791" xlink:href="#m5eb05bdc03" y="259.164358"/>
     <use style="fill:#165ea9;stroke:#165ea9;" x="259.691163" xlink:href="#m5eb05bdc03" y="241.818353"/>
     <use style="fill:#165ea9;stroke:#165ea9;" x="262.459535" xlink:href="#m5eb05bdc03" y="276.992196"/>
     <use style="fill:#165ea9;stroke:#165ea9;" x="265.227907" xlink:href="#m5eb05bdc03" y="227.845183"/>
     <use style="fill:#165ea9;stroke:#165ea9;" x="267.996279" xlink:href="#m5eb05bdc03" y="248.564021"/>
     <use style="fill:#165ea9;stroke:#165ea9;" x="270.764651" xlink:href="#m5eb05bdc03" y="260.128024"/>
     <use style="fill:#165ea9;stroke:#165ea9;" x="273.533023" xlink:href="#m5eb05bdc03" y="258.200691"/>
     <use style="fill:#165ea9;stroke:#165ea9;" x="276.301395" xlink:href="#m5eb05bdc03" y="260.609858"/>
     <use style="fill:#165ea9;stroke:#165ea9;" x="279.069767" xlink:href="#m5eb05bdc03" y="269.28286"/>
     <use style="fill:#165ea9;stroke:#165ea9;" x="281.83814" xlink:href="#m5eb05bdc03" y="262.537192"/>
     <use style="fill:#165ea9;stroke:#165ea9;" x="284.606512" xlink:href="#m5eb05bdc03" y="251.455022"/>
     <use style="fill:#165ea9;stroke:#165ea9;" x="287.374884" xlink:href="#m5eb05bdc03" y="266.391859"/>
     <use style="fill:#165ea9;stroke:#165ea9;" x="290.143256" xlink:href="#m5eb05bdc03" y="226.399682"/>
     <use style="fill:#165ea9;stroke:#165ea9;" x="292.911628" xlink:href="#m5eb05bdc03" y="256.75519"/>
     <use style="fill:#165ea9;stroke:#165ea9;" x="295.68" xlink:href="#m5eb05bdc03" y="174.361668"/>
     <use style="fill:#165ea9;stroke:#165ea9;" x="298.448372" xlink:href="#m5eb05bdc03" y="235.554518"/>
     <use style="fill:#165ea9;stroke:#165ea9;" x="301.216744" xlink:href="#m5eb05bdc03" y="213.390179"/>
     <use style="fill:#165ea9;stroke:#165ea9;" x="303.985116" xlink:href="#m5eb05bdc03" y="227.845183"/>
     <use style="fill:#165ea9;stroke:#165ea9;" x="306.753488" xlink:href="#m5eb05bdc03" y="237.000018"/>
     <use style="fill:#165ea9;stroke:#165ea9;" x="309.52186" xlink:href="#m5eb05bdc03" y="243.745687"/>
     <use style="fill:#165ea9;stroke:#165ea9;" x="312.290233" xlink:href="#m5eb05bdc03" y="229.290683"/>
     <use style="fill:#165ea9;stroke:#165ea9;" x="315.058605" xlink:href="#m5eb05bdc03" y="247.600354"/>
     <use style="fill:#165ea9;stroke:#165ea9;" x="317.826977" xlink:href="#m5eb05bdc03" y="247.118521"/>
     <use style="fill:#165ea9;stroke:#165ea9;" x="320.595349" xlink:href="#m5eb05bdc03" y="253.382356"/>
     <use style="fill:#165ea9;stroke:#165ea9;" x="323.363721" xlink:href="#m5eb05bdc03" y="251.455022"/>
     <use style="fill:#165ea9;stroke:#165ea9;" x="326.132093" xlink:href="#m5eb05bdc03" y="226.399682"/>
     <use style="fill:#165ea9;stroke:#165ea9;" x="328.900465" xlink:href="#m5eb05bdc03" y="263.982692"/>
     <use style="fill:#165ea9;stroke:#165ea9;" x="331.668837" xlink:href="#m5eb05bdc03" y="238.445519"/>
     <use style="fill:#165ea9;stroke:#165ea9;" x="334.437209" xlink:href="#m5eb05bdc03" y="258.682524"/>
     <use style="fill:#165ea9;stroke:#165ea9;" x="337.205581" xlink:href="#m5eb05bdc03" y="247.118521"/>
     <use style="fill:#165ea9;stroke:#165ea9;" x="339.973953" xlink:href="#m5eb05bdc03" y="259.646191"/>
     <use style="fill:#165ea9;stroke:#165ea9;" x="342.742326" xlink:href="#m5eb05bdc03" y="242.300186"/>
     <use style="fill:#165ea9;stroke:#165ea9;" x="345.510698" xlink:href="#m5eb05bdc03" y="258.200691"/>
     <use style="fill:#165ea9;stroke:#165ea9;" x="348.27907" xlink:href="#m5eb05bdc03" y="235.554518"/>
     <use style="fill:#165ea9;stroke:#165ea9;" x="351.047442" xlink:href="#m5eb05bdc03" y="256.75519"/>
     <use style="fill:#165ea9;stroke:#165ea9;" x="353.815814" xlink:href="#m5eb05bdc03" y="247.118521"/>
     <use style="fill:#165ea9;stroke:#165ea9;" x="356.584186" xlink:href="#m5eb05bdc03" y="254.827856"/>
     <use style="fill:#165ea9;stroke:#165ea9;" x="359.352558" xlink:href="#m5eb05bdc03" y="243.745687"/>
     <use style="fill:#165ea9;stroke:#165ea9;" x="362.12093" xlink:href="#m5eb05bdc03" y="245.191187"/>
     <use style="fill:#165ea9;stroke:#165ea9;" x="364.889302" xlink:href="#m5eb05bdc03" y="251.455022"/>
     <use style="fill:#165ea9;stroke:#165ea9;" x="367.657674" xlink:href="#m5eb05bdc03" y="247.118521"/>
     <use style="fill:#165ea9;stroke:#165ea9;" x="370.426047" xlink:href="#m5eb05bdc03" y="262.537192"/>
     <use style="fill:#165ea9;stroke:#165ea9;" x="373.194419" xlink:href="#m5eb05bdc03" y="243.263853"/>
     <use style="fill:#165ea9;stroke:#165ea9;" x="375.962791" xlink:href="#m5eb05bdc03" y="254.827856"/>
     <use style="fill:#165ea9;stroke:#165ea9;" x="378.731163" xlink:href="#m5eb05bdc03" y="254.346023"/>
     <use style="fill:#165ea9;stroke:#165ea9;" x="381.499535" xlink:href="#m5eb05bdc03" y="248.564021"/>
     <use style="fill:#165ea9;stroke:#165ea9;" x="384.267907" xlink:href="#m5eb05bdc03" y="261.573525"/>
     <use style="fill:#165ea9;stroke:#165ea9;" x="387.036279" xlink:href="#m5eb05bdc03" y="266.873693"/>
     <use style="fill:#165ea9;stroke:#165ea9;" x="389.804651" xlink:href="#m5eb05bdc03" y="265.428193"/>
     <use style="fill:#165ea9;stroke:#165ea9;" x="392.573023" xlink:href="#m5eb05bdc03" y="237.481852"/>
     <use style="fill:#165ea9;stroke:#165ea9;" x="395.341395" xlink:href="#m5eb05bdc03" y="253.864189"/>
     <use style="fill:#165ea9;stroke:#165ea9;" x="398.109767" xlink:href="#m5eb05bdc03" y="254.346023"/>
     <use style="fill:#165ea9;stroke:#165ea9;" x="400.87814" xlink:href="#m5eb05bdc03" y="256.75519"/>
     <use style="fill:#165ea9;stroke:#165ea9;" x="403.646512" xlink:href="#m5eb05bdc03" y="231.218017"/>
     <use style="fill:#165ea9;stroke:#165ea9;" x="406.414884" xlink:href="#m5eb05bdc03" y="270.728361"/>
     <use style="fill:#165ea9;stroke:#165ea9;" x="409.183256" xlink:href="#m5eb05bdc03" y="253.382356"/>
     <use style="fill:#165ea9;stroke:#165ea9;" x="411.951628" xlink:href="#m5eb05bdc03" y="253.382356"/>
     <use style="fill:#165ea9;stroke:#165ea9;" x="414.72" xlink:href="#m5eb05bdc03" y="265.910026"/>
    </g>
   </g>
   <g id="line2d_15">
    <path clip-path="url(#p14e67d9109)" d="M 57.6 246.154854 
L 414.72 246.154854 
L 414.72 246.154854 
" style="fill:none;stroke:#165ea9;stroke-linecap:square;stroke-width:2;"/>
   </g>
   <g id="patch_4">
    <path d="M 57.6 293.76 
L 57.6 41.472 
" style="fill:none;stroke:#000000;stroke-linecap:square;stroke-linejoin:miter;stroke-width:0.8;"/>
   </g>
   <g id="patch_5">
    <path d="M 414.72 293.76 
L 414.72 41.472 
" style="fill:none;stroke:#000000;stroke-linecap:square;stroke-linejoin:miter;stroke-width:0.8;"/>
   </g>
   <g id="patch_6">
    <path d="M 57.6 293.76 
L 414.72 293.76 
" style="fill:none;stroke:#000000;stroke-linecap:square;stroke-linejoin:miter;stroke-width:0.8;"/>
   </g>
   <g id="patch_7">
    <path d="M 57.6 41.472 
L 414.72 41.472 
" style="fill:none;stroke:#000000;stroke-linecap:square;stroke-linejoin:miter;stroke-width:0.8;"/>
   </g>
   <g id="text_16">
    <!-- Dwell time chart -->
    <defs>
     <path d="M 8.015625 0 
L 8.015625 70.015625 
L 32.8125 70.015625 
Q 70.125 70.015625 70.125 35.890625 
Q 70.125 19.53125 59.9375 9.765625 
Q 49.75 0 32.8125 0 
z
M 23.78125 57.171875 
L 23.78125 12.796875 
L 31.59375 12.796875 
Q 41.84375 12.796875 47.671875 18.9375 
Q 53.515625 25.09375 53.515625 35.6875 
Q 53.515625 45.703125 47.71875 51.4375 
Q 41.9375 57.171875 31.5 57.171875 
z
" id="SegoeUI-Bold-44"/>
     <path d="M 78.90625 50 
L 64.5 0 
L 48.296875 0 
L 40.921875 29.296875 
Q 40.1875 32.234375 40.09375 35.6875 
L 39.796875 35.6875 
Q 39.453125 31.890625 38.8125 29.5 
L 30.90625 0 
L 14.890625 0 
L 0.78125 50 
L 16.5 50 
L 23.390625 17.390625 
Q 23.875 15.09375 24.125 11.8125 
L 24.421875 11.8125 
Q 24.65625 15.234375 25.296875 17.578125 
L 33.890625 50 
L 48.578125 50 
L 56.296875 17.390625 
Q 56.59375 16.15625 56.984375 11.71875 
L 57.328125 11.71875 
Q 57.5625 14.546875 58.109375 17.390625 
L 64.59375 50 
z
" id="SegoeUI-Bold-77"/>
     <path d="M 51.421875 20.609375 
L 18.796875 20.609375 
Q 19.578125 9.71875 32.515625 9.71875 
Q 40.765625 9.71875 47.015625 13.625 
L 47.015625 2.484375 
Q 40.09375 -1.21875 29 -1.21875 
Q 16.890625 -1.21875 10.203125 5.484375 
Q 3.515625 12.203125 3.515625 24.21875 
Q 3.515625 36.671875 10.734375 43.9375 
Q 17.96875 51.21875 28.515625 51.21875 
Q 39.453125 51.21875 45.4375 44.71875 
Q 51.421875 38.234375 51.421875 27.09375 
z
M 37.109375 30.078125 
Q 37.109375 40.828125 28.421875 40.828125 
Q 24.703125 40.828125 21.984375 37.75 
Q 19.28125 34.671875 18.703125 30.078125 
z
" id="SegoeUI-Bold-65"/>
     <path d="M 21.921875 0 
L 6.5 0 
L 6.5 74.03125 
L 21.921875 74.03125 
z
" id="SegoeUI-Bold-6c"/>
     <path id="SegoeUI-Bold-20"/>
     <path d="M 36.71875 0.59375 
Q 33.296875 -1.21875 26.421875 -1.21875 
Q 10.109375 -1.21875 10.109375 15.71875 
L 10.109375 38.625 
L 2 38.625 
L 2 50 
L 10.109375 50 
L 10.109375 60.796875 
L 25.484375 65.1875 
L 25.484375 50 
L 36.71875 50 
L 36.71875 38.625 
L 25.484375 38.625 
L 25.484375 18.40625 
Q 25.484375 10.59375 31.6875 10.59375 
Q 34.125 10.59375 36.71875 12.015625 
z
" id="SegoeUI-Bold-74"/>
     <path d="M 14.3125 57.90625 
Q 10.40625 57.90625 7.90625 60.21875 
Q 5.421875 62.546875 5.421875 65.921875 
Q 5.421875 69.390625 7.90625 71.578125 
Q 10.40625 73.78125 14.3125 73.78125 
Q 18.265625 73.78125 20.71875 71.578125 
Q 23.1875 69.390625 23.1875 65.921875 
Q 23.1875 62.40625 20.71875 60.15625 
Q 18.265625 57.90625 14.3125 57.90625 
z
M 21.921875 0 
L 6.5 0 
L 6.5 50 
L 21.921875 50 
z
" id="SegoeUI-Bold-69"/>
     <path d="M 85.890625 0 
L 70.515625 0 
L 70.515625 28.515625 
Q 70.515625 39.40625 62.5 39.40625 
Q 58.6875 39.40625 56.296875 36.125 
Q 53.90625 32.859375 53.90625 27.984375 
L 53.90625 0 
L 38.484375 0 
L 38.484375 28.8125 
Q 38.484375 39.40625 30.609375 39.40625 
Q 26.65625 39.40625 24.28125 36.28125 
Q 21.921875 33.15625 21.921875 27.78125 
L 21.921875 0 
L 6.5 0 
L 6.5 50 
L 21.921875 50 
L 21.921875 42.1875 
L 22.125 42.1875 
Q 24.515625 46.1875 28.828125 48.703125 
Q 33.15625 51.21875 38.28125 51.21875 
Q 48.875 51.21875 52.78125 41.890625 
Q 58.5 51.21875 69.578125 51.21875 
Q 85.890625 51.21875 85.890625 31.109375 
z
" id="SegoeUI-Bold-6d"/>
     <path d="M 44.390625 1.8125 
Q 39.15625 -1.21875 29.296875 -1.21875 
Q 17.78125 -1.21875 10.640625 5.765625 
Q 3.515625 12.75 3.515625 23.78125 
Q 3.515625 36.53125 11.15625 43.875 
Q 18.796875 51.21875 31.59375 51.21875 
Q 40.4375 51.21875 44.390625 48.875 
L 44.390625 35.796875 
Q 39.546875 39.40625 33.59375 39.40625 
Q 26.953125 39.40625 23.0625 35.515625 
Q 19.1875 31.640625 19.1875 24.8125 
Q 19.1875 18.171875 22.890625 14.375 
Q 26.609375 10.59375 33.109375 10.59375 
Q 38.875 10.59375 44.390625 14.203125 
z
" id="SegoeUI-Bold-63"/>
     <path d="M 54.5 0 
L 39.109375 0 
L 39.109375 28.421875 
Q 39.109375 39.40625 31.109375 39.40625 
Q 27 39.40625 24.453125 36.328125 
Q 21.921875 33.25 21.921875 28.515625 
L 21.921875 0 
L 6.5 0 
L 6.5 74.03125 
L 21.921875 74.03125 
L 21.921875 42.578125 
L 22.125 42.578125 
Q 27.78125 51.21875 37.5 51.21875 
Q 54.5 51.21875 54.5 30.71875 
z
" id="SegoeUI-Bold-68"/>
     <path d="M 48.09375 0 
L 33.5 0 
L 33.5 7.171875 
L 33.296875 7.171875 
Q 28.265625 -1.21875 18.40625 -1.21875 
Q 11.140625 -1.21875 6.953125 2.90625 
Q 2.78125 7.03125 2.78125 13.921875 
Q 2.78125 28.46875 20.015625 30.71875 
L 33.59375 32.515625 
Q 33.59375 40.71875 24.703125 40.71875 
Q 15.765625 40.71875 7.71875 35.40625 
L 7.71875 47.015625 
Q 10.9375 48.6875 16.53125 49.953125 
Q 22.125 51.21875 26.703125 51.21875 
Q 48.09375 51.21875 48.09375 29.890625 
z
M 33.59375 20.3125 
L 33.59375 23.6875 
L 24.515625 22.515625 
Q 17 21.53125 17 15.71875 
Q 17 13.09375 18.828125 11.40625 
Q 20.65625 9.71875 23.78125 9.71875 
Q 28.125 9.71875 30.859375 12.71875 
Q 33.59375 15.71875 33.59375 20.3125 
z
" id="SegoeUI-Bold-61"/>
     <path d="M 39.109375 36.078125 
Q 36.328125 37.59375 32.625 37.59375 
Q 27.59375 37.59375 24.75 33.90625 
Q 21.921875 30.21875 21.921875 23.875 
L 21.921875 0 
L 6.5 0 
L 6.5 50 
L 21.921875 50 
L 21.921875 40.71875 
L 22.125 40.71875 
Q 25.78125 50.875 35.296875 50.875 
Q 37.75 50.875 39.109375 50.296875 
z
" id="SegoeUI-Bold-72"/>
    </defs>
    <g transform="translate(197.488125 25.38048)scale(0.1 -0.1)">
     <use xlink:href="#SegoeUI-Bold-44"/>
     <use x="73.730469" xlink:href="#SegoeUI-Bold-77"/>
     <use x="153.466797" xlink:href="#SegoeUI-Bold-65"/>
     <use x="207.568359" xlink:href="#SegoeUI-Bold-6c"/>
     <use x="235.986328" xlink:href="#SegoeUI-Bold-6c"/>
     <use x="264.404297" xlink:href="#SegoeUI-Bold-20"/>
     <use x="291.992188" xlink:href="#SegoeUI-Bold-74"/>
     <use x="330.908203" xlink:href="#SegoeUI-Bold-69"/>
     <use x="359.326172" xlink:href="#SegoeUI-Bold-6d"/>
     <use x="450.927734" xlink:href="#SegoeUI-Bold-65"/>
     <use x="505.029297" xlink:href="#SegoeUI-Bold-20"/>
     <use x="532.617188" xlink:href="#SegoeUI-Bold-63"/>
     <use x="580.615234" xlink:href="#SegoeUI-Bold-68"/>
     <use x="640.820312" xlink:href="#SegoeUI-Bold-61"/>
     <use x="694.628906" xlink:href="#SegoeUI-Bold-72"/>
     <use x="734.455078" xlink:href="#SegoeUI-Bold-74"/>
    </g>
   </g>
   <g id="legend_1">
    <g id="patch_8">
     <path d="M 306.259063 288.76 
L 407.72 288.76 
Q 409.72 288.76 409.72 286.76 
L 409.72 243.55375 
Q 409.72 241.55375 407.72 241.55375 
L 306.259063 241.55375 
Q 304.259063 241.55375 304.259063 243.55375 
L 304.259063 286.76 
Q 304.259063 288.76 306.259063 288.76 
z
" style="fill:#ffffff;opacity:0.5;stroke:#cccccc;stroke-linejoin:miter;"/>
    </g>
    <g id="line2d_16">
     <path d="M 308.259063 249.456875 
L 328.259063 249.456875 
" style="fill:none;stroke:#165ea9;stroke-linecap:square;stroke-width:1.5;"/>
    </g>
    <g id="line2d_17">
     <g>
      <use style="fill:#165ea9;stroke:#165ea9;" x="318.259063" xlink:href="#m5eb05bdc03" y="249.456875"/>
     </g>
    </g>
    <g id="text_17">
     <!-- Parameter value -->
     <defs>
      <path d="M 15.578125 27.25 
L 15.578125 0 
L 9.078125 0 
L 9.078125 70.015625 
L 27.15625 70.015625 
Q 32.671875 70.015625 36.90625 68.640625 
Q 41.15625 67.28125 44.078125 64.6875 
Q 47.015625 62.109375 48.53125 58.34375 
Q 50.046875 54.59375 50.046875 49.75 
Q 50.046875 44.875 48.328125 40.75 
Q 46.625 36.625 43.421875 33.609375 
Q 40.234375 30.609375 35.640625 28.921875 
Q 31.0625 27.25 25.25 27.25 
z
M 15.578125 64.0625 
L 15.578125 33.203125 
L 24.859375 33.203125 
Q 33.890625 33.203125 38.578125 37.40625 
Q 43.265625 41.609375 43.265625 49.265625 
Q 43.265625 64.0625 25.984375 64.0625 
z
" id="SegoeUI-Semilight-50"/>
      <path d="M 36.859375 0 
L 36.859375 8.890625 
L 36.671875 8.890625 
Q 34.234375 4.109375 30 1.46875 
Q 25.78125 -1.171875 20.453125 -1.171875 
Q 16.84375 -1.171875 13.9375 -0.140625 
Q 11.03125 0.875 9 2.75 
Q 6.984375 4.640625 5.875 7.265625 
Q 4.78125 9.90625 4.78125 13.09375 
Q 4.78125 19.875 8.984375 23.90625 
Q 13.1875 27.9375 21.6875 29.15625 
L 36.859375 31.34375 
Q 36.859375 45.75 25.6875 45.75 
Q 16.9375 45.75 9.46875 39.359375 
L 9.46875 46.1875 
Q 11.03125 47.3125 13 48.21875 
Q 14.984375 49.125 17.1875 49.78125 
Q 19.390625 50.4375 21.703125 50.796875 
Q 24.03125 51.171875 26.21875 51.171875 
Q 34.578125 51.171875 38.84375 46.484375 
Q 43.109375 41.796875 43.109375 32.515625 
L 43.109375 0 
z
M 23.96875 24.265625 
Q 20.609375 23.78125 18.21875 23.046875 
Q 15.828125 22.3125 14.265625 21.0625 
Q 12.703125 19.828125 11.96875 17.984375 
Q 11.234375 16.15625 11.234375 13.484375 
Q 11.234375 11.46875 11.9375 9.765625 
Q 12.640625 8.0625 13.984375 6.8125 
Q 15.328125 5.5625 17.25 4.875 
Q 19.1875 4.203125 21.625 4.203125 
Q 24.953125 4.203125 27.734375 5.46875 
Q 30.515625 6.734375 32.546875 8.984375 
Q 34.578125 11.234375 35.71875 14.359375 
Q 36.859375 17.484375 36.859375 21.140625 
L 36.859375 26.078125 
z
" id="SegoeUI-Semilight-61"/>
      <path d="M 32.859375 43.609375 
Q 30.671875 45.21875 27.203125 45.21875 
Q 24.703125 45.21875 22.796875 44.265625 
Q 20.90625 43.3125 19.453125 41.703125 
Q 18.015625 40.09375 17.015625 37.96875 
Q 16.015625 35.84375 15.40625 33.546875 
Q 14.796875 31.25 14.53125 28.90625 
Q 14.265625 26.5625 14.265625 24.46875 
L 14.265625 0 
L 8.0625 0 
L 8.0625 50 
L 14.265625 50 
L 14.265625 39.3125 
L 14.453125 39.3125 
Q 15.328125 42.046875 16.671875 44.21875 
Q 18.015625 46.390625 19.765625 47.875 
Q 21.53125 49.359375 23.609375 50.140625 
Q 25.6875 50.921875 27.984375 50.921875 
Q 29.5 50.921875 30.6875 50.71875 
Q 31.890625 50.53125 32.859375 50.140625 
z
" id="SegoeUI-Semilight-72"/>
      <path d="M 70.90625 0 
L 70.90625 29.390625 
Q 70.90625 33.890625 70.21875 36.984375 
Q 69.53125 40.09375 68.09375 42.046875 
Q 66.65625 44 64.421875 44.875 
Q 62.203125 45.75 59.125 45.75 
Q 56.390625 45.75 53.953125 44.453125 
Q 51.515625 43.171875 49.6875 40.890625 
Q 47.859375 38.625 46.796875 35.546875 
Q 45.75 32.46875 45.75 28.90625 
L 45.75 0 
L 39.5 0 
L 39.5 30.03125 
Q 39.5 45.75 27.4375 45.75 
Q 24.65625 45.75 22.265625 44.5 
Q 19.875 43.265625 18.09375 41.015625 
Q 16.3125 38.765625 15.3125 35.609375 
Q 14.3125 32.46875 14.3125 28.65625 
L 14.3125 0 
L 8.0625 0 
L 8.0625 50 
L 14.3125 50 
L 14.3125 41.890625 
L 14.5 41.890625 
Q 19.78125 51.171875 29.890625 51.171875 
Q 32.515625 51.171875 34.859375 50.359375 
Q 37.203125 49.5625 39.0625 48.125 
Q 40.921875 46.6875 42.265625 44.671875 
Q 43.609375 42.671875 44.28125 40.28125 
Q 46.921875 45.609375 51.140625 48.390625 
Q 55.375 51.171875 60.6875 51.171875 
Q 77.15625 51.171875 77.15625 30.859375 
L 77.15625 0 
z
" id="SegoeUI-Semilight-6d"/>
      <path d="M 11.03125 23.875 
Q 11.078125 19.28125 12.25 15.625 
Q 13.421875 11.96875 15.625 9.421875 
Q 17.828125 6.890625 20.96875 5.546875 
Q 24.125 4.203125 28.078125 4.203125 
Q 36.53125 4.203125 44.046875 10.109375 
L 44.046875 3.953125 
Q 36.859375 -1.171875 26.65625 -1.171875 
Q 21.625 -1.171875 17.515625 0.578125 
Q 13.421875 2.34375 10.546875 5.6875 
Q 7.671875 9.03125 6.109375 13.90625 
Q 4.546875 18.796875 4.546875 25.046875 
Q 4.546875 30.671875 6.25 35.453125 
Q 7.953125 40.234375 10.984375 43.71875 
Q 14.015625 47.21875 18.15625 49.1875 
Q 22.3125 51.171875 27.25 51.171875 
Q 32.078125 51.171875 35.78125 49.484375 
Q 39.5 47.796875 42.015625 44.671875 
Q 44.53125 41.546875 45.84375 37.046875 
Q 47.171875 32.5625 47.171875 27 
L 47.171875 23.875 
z
M 40.71875 29.34375 
Q 40.578125 37.15625 37.015625 41.453125 
Q 33.453125 45.75 27.09375 45.75 
Q 23.921875 45.75 21.203125 44.625 
Q 18.5 43.5 16.453125 41.375 
Q 14.40625 39.265625 13.0625 36.203125 
Q 11.71875 33.15625 11.1875 29.34375 
z
" id="SegoeUI-Semilight-65"/>
      <path d="M 29.546875 0.59375 
Q 26.3125 -1.03125 22.515625 -1.03125 
Q 10.40625 -1.03125 10.40625 12.9375 
L 10.40625 44.53125 
L 1.609375 44.53125 
L 1.609375 50 
L 10.40625 50 
L 10.40625 62.59375 
L 16.65625 64.65625 
L 16.65625 50 
L 29.546875 50 
L 29.546875 44.53125 
L 16.65625 44.53125 
L 16.65625 13.921875 
Q 16.65625 8.84375 18.3125 6.59375 
Q 19.96875 4.34375 23.921875 4.34375 
Q 26.859375 4.34375 29.546875 6.109375 
z
" id="SegoeUI-Semilight-74"/>
      <path id="SegoeUI-Semilight-20"/>
      <path d="M 25.875 0 
L 19.921875 0 
L 0.78125 50 
L 7.671875 50 
L 21.484375 11.921875 
Q 22.75 8.453125 23.09375 5.8125 
L 23.296875 5.8125 
Q 23.875 9.328125 24.8125 11.71875 
L 39.109375 50 
L 45.796875 50 
z
" id="SegoeUI-Semilight-76"/>
      <path d="M 8.0625 0 
L 8.0625 74.03125 
L 14.3125 74.03125 
L 14.3125 0 
z
" id="SegoeUI-Semilight-6c"/>
      <path d="M 40.765625 0 
L 40.765625 8.5 
L 40.578125 8.5 
Q 35.5 -1.171875 24.8125 -1.171875 
Q 6.984375 -1.171875 6.984375 20.609375 
L 6.984375 50 
L 13.234375 50 
L 13.234375 21.78125 
Q 13.234375 12.796875 16.421875 8.5 
Q 19.625 4.203125 26.21875 4.203125 
Q 29.4375 4.203125 32.09375 5.4375 
Q 34.765625 6.6875 36.6875 8.953125 
Q 38.625 11.234375 39.6875 14.40625 
Q 40.765625 17.578125 40.765625 21.4375 
L 40.765625 50 
L 47.015625 50 
L 47.015625 0 
z
" id="SegoeUI-Semilight-75"/>
     </defs>
     <g transform="translate(336.259063 252.956875)scale(0.1 -0.1)">
      <use xlink:href="#SegoeUI-Semilight-50"/>
      <use x="55.128906" xlink:href="#SegoeUI-Semilight-61"/>
      <use x="105.226562" xlink:href="#SegoeUI-Semilight-72"/>
      <use x="139.113281" xlink:href="#SegoeUI-Semilight-61"/>
      <use x="189.210938" xlink:href="#SegoeUI-Semilight-6d"/>
      <use x="273.341797" xlink:href="#SegoeUI-Semilight-65"/>
      <use x="324.708984" xlink:href="#SegoeUI-Semilight-74"/>
      <use x="356.496094" xlink:href="#SegoeUI-Semilight-65"/>
      <use x="407.863281" xlink:href="#SegoeUI-Semilight-72"/>
      <use x="441.75" xlink:href="#SegoeUI-Semilight-20"/>
      <use x="469.142578" xlink:href="#SegoeUI-Semilight-76"/>
      <use x="515.708984" xlink:href="#SegoeUI-Semilight-61"/>
      <use x="565.806641" xlink:href="#SegoeUI-Semilight-6c"/>
      <use x="588.169922" xlink:href="#SegoeUI-Semilight-75"/>
      <use x="643.248047" xlink:href="#SegoeUI-Semilight-65"/>
     </g>
    </g>
    <g id="line2d_18">
     <path d="M 308.259063 264.16 
L 328.259063 264.16 
" style="fill:none;stroke:#165ea9;stroke-linecap:square;stroke-width:2;"/>
    </g>
    <g id="line2d_19"/>
    <g id="text_18">
     <!-- Average -->
     <defs>
      <path d="M 54.4375 0 
L 46.734375 20.703125 
L 16.703125 20.703125 
L 9.1875 0 
L 1.953125 0 
L 28.609375 70.015625 
L 35.15625 70.015625 
L 61.671875 0 
z
M 33.109375 57.765625 
Q 32.765625 58.6875 32.390625 59.90625 
Q 32.03125 61.140625 31.78125 62.703125 
L 31.59375 62.703125 
Q 31.296875 61.140625 30.921875 59.90625 
Q 30.5625 58.6875 30.21875 57.765625 
L 18.890625 26.609375 
L 44.53125 26.609375 
z
" id="SegoeUI-Semilight-41"/>
      <path d="M 49.359375 3.859375 
Q 49.359375 -10.0625 43.03125 -16.765625 
Q 36.71875 -23.484375 23.53125 -23.484375 
Q 15.328125 -23.484375 8.015625 -19.828125 
L 8.015625 -13.484375 
Q 16.15625 -18.015625 23.53125 -18.015625 
Q 43.109375 -18.015625 43.109375 2.6875 
L 43.109375 8.6875 
L 42.921875 8.6875 
Q 37.15625 -1.171875 25.34375 -1.171875 
Q 20.703125 -1.171875 16.859375 0.53125 
Q 13.03125 2.25 10.296875 5.46875 
Q 7.5625 8.6875 6.046875 13.296875 
Q 4.546875 17.921875 4.546875 23.734375 
Q 4.546875 29.890625 6.15625 34.9375 
Q 7.765625 39.984375 10.734375 43.59375 
Q 13.71875 47.21875 17.9375 49.1875 
Q 22.171875 51.171875 27.4375 51.171875 
Q 38.03125 51.171875 42.921875 42.578125 
L 43.109375 42.578125 
L 43.109375 50 
L 49.359375 50 
z
M 43.109375 30.375 
Q 43.109375 33.5 41.984375 36.28125 
Q 40.875 39.0625 38.859375 41.15625 
Q 36.859375 43.265625 34.09375 44.5 
Q 31.34375 45.75 28.03125 45.75 
Q 24.125 45.75 20.96875 44.234375 
Q 17.828125 42.71875 15.59375 39.9375 
Q 13.375 37.15625 12.171875 33.171875 
Q 10.984375 29.203125 10.984375 24.21875 
Q 10.984375 19.625 12.109375 15.90625 
Q 13.234375 12.203125 15.28125 9.609375 
Q 17.328125 7.03125 20.234375 5.609375 
Q 23.140625 4.203125 26.703125 4.203125 
Q 30.421875 4.203125 33.4375 5.546875 
Q 36.46875 6.890625 38.609375 9.25 
Q 40.765625 11.625 41.9375 14.8125 
Q 43.109375 18.015625 43.109375 21.734375 
z
" id="SegoeUI-Semilight-67"/>
     </defs>
     <g transform="translate(336.259063 267.66)scale(0.1 -0.1)">
      <use xlink:href="#SegoeUI-Semilight-41"/>
      <use x="63.591797" xlink:href="#SegoeUI-Semilight-76"/>
      <use x="110.173828" xlink:href="#SegoeUI-Semilight-65"/>
      <use x="161.541016" xlink:href="#SegoeUI-Semilight-72"/>
      <use x="195.427734" xlink:href="#SegoeUI-Semilight-61"/>
      <use x="245.525391" xlink:href="#SegoeUI-Semilight-67"/>
      <use x="302.947266" xlink:href="#SegoeUI-Semilight-65"/>
     </g>
    </g>
    <g id="patch_9">
     <path d="M 308.259063 282.411562 
L 328.259063 282.411562 
L 328.259063 275.411562 
L 308.259063 275.411562 
z
" style="fill:url(#hbcfee2909e);opacity:0.5;stroke:#1b8ece;stroke-linejoin:miter;"/>
    </g>
    <g id="text_19">
     <!-- Deviation range -->
     <defs>
      <path d="M 9.078125 0 
L 9.078125 70.015625 
L 27.484375 70.015625 
Q 45.453125 70.015625 54.625 61.390625 
Q 63.8125 52.78125 63.8125 35.9375 
Q 63.8125 27.828125 61.25 21.1875 
Q 58.6875 14.546875 53.859375 9.828125 
Q 49.03125 5.125 42.140625 2.5625 
Q 35.25 0 26.609375 0 
z
M 15.578125 64.0625 
L 15.578125 5.90625 
L 26.3125 5.90625 
Q 33.546875 5.90625 39.234375 7.859375 
Q 44.921875 9.8125 48.875 13.59375 
Q 52.828125 17.390625 54.90625 22.953125 
Q 56.984375 28.515625 56.984375 35.75 
Q 56.984375 64.0625 27.046875 64.0625 
z
" id="SegoeUI-Semilight-44"/>
      <path d="M 11.140625 62.640625 
Q 9.328125 62.640625 8 63.90625 
Q 6.6875 65.1875 6.6875 67.140625 
Q 6.6875 69.046875 8 70.28125 
Q 9.328125 71.53125 11.140625 71.53125 
Q 12.0625 71.53125 12.890625 71.21875 
Q 13.71875 70.90625 14.328125 70.3125 
Q 14.9375 69.734375 15.296875 68.921875 
Q 15.671875 68.109375 15.671875 67.140625 
Q 15.671875 66.21875 15.328125 65.375 
Q 14.984375 64.546875 14.34375 63.9375 
Q 13.71875 63.328125 12.90625 62.984375 
Q 12.109375 62.640625 11.140625 62.640625 
z
M 8.0625 0 
L 8.0625 50 
L 14.3125 50 
L 14.3125 0 
z
" id="SegoeUI-Semilight-69"/>
      <path d="M 28.515625 -1.171875 
Q 22.953125 -1.171875 18.53125 0.6875 
Q 14.109375 2.546875 10.984375 5.9375 
Q 7.859375 9.328125 6.203125 14.0625 
Q 4.546875 18.796875 4.546875 24.5625 
Q 4.546875 30.8125 6.296875 35.734375 
Q 8.0625 40.671875 11.296875 44.109375 
Q 14.546875 47.5625 19.140625 49.359375 
Q 23.734375 51.171875 29.390625 51.171875 
Q 34.8125 51.171875 39.15625 49.390625 
Q 43.5 47.609375 46.53125 44.234375 
Q 49.5625 40.875 51.171875 36.03125 
Q 52.78125 31.203125 52.78125 25.046875 
Q 52.78125 19.1875 51.09375 14.375 
Q 49.421875 9.578125 46.296875 6.109375 
Q 43.171875 2.640625 38.671875 0.734375 
Q 34.1875 -1.171875 28.515625 -1.171875 
z
M 29 45.75 
Q 24.90625 45.75 21.578125 44.328125 
Q 18.265625 42.921875 15.890625 40.203125 
Q 13.53125 37.5 12.25 33.5625 
Q 10.984375 29.640625 10.984375 24.65625 
Q 10.984375 19.96875 12.25 16.203125 
Q 13.53125 12.453125 15.84375 9.765625 
Q 18.171875 7.078125 21.484375 5.640625 
Q 24.8125 4.203125 28.90625 4.203125 
Q 33.109375 4.203125 36.328125 5.59375 
Q 39.546875 6.984375 41.796875 9.640625 
Q 44.046875 12.3125 45.1875 16.15625 
Q 46.34375 20.015625 46.34375 24.953125 
Q 46.34375 35.0625 41.84375 40.40625 
Q 37.359375 45.75 29 45.75 
z
" id="SegoeUI-Semilight-6f"/>
      <path d="M 41.796875 0 
L 41.796875 28.8125 
Q 41.796875 45.75 29.5 45.75 
Q 26.21875 45.75 23.4375 44.453125 
Q 20.65625 43.171875 18.625 40.875 
Q 16.609375 38.578125 15.453125 35.421875 
Q 14.3125 32.28125 14.3125 28.609375 
L 14.3125 0 
L 8.0625 0 
L 8.0625 50 
L 14.3125 50 
L 14.3125 41.3125 
L 14.5 41.3125 
Q 20.0625 51.171875 31.25 51.171875 
Q 39.453125 51.171875 43.75 45.84375 
Q 48.046875 40.53125 48.046875 30.46875 
L 48.046875 0 
z
" id="SegoeUI-Semilight-6e"/>
     </defs>
     <g transform="translate(336.259063 282.411562)scale(0.1 -0.1)">
      <use xlink:href="#SegoeUI-Semilight-44"/>
      <use x="68.75" xlink:href="#SegoeUI-Semilight-65"/>
      <use x="120.117188" xlink:href="#SegoeUI-Semilight-76"/>
      <use x="166.699219" xlink:href="#SegoeUI-Semilight-69"/>
      <use x="189.0625" xlink:href="#SegoeUI-Semilight-61"/>
      <use x="239.160156" xlink:href="#SegoeUI-Semilight-74"/>
      <use x="270.947266" xlink:href="#SegoeUI-Semilight-69"/>
      <use x="293.310547" xlink:href="#SegoeUI-Semilight-6f"/>
      <use x="350.634766" xlink:href="#SegoeUI-Semilight-6e"/>
      <use x="405.664062" xlink:href="#SegoeUI-Semilight-20"/>
      <use x="433.056641" xlink:href="#SegoeUI-Semilight-72"/>
      <use x="466.943359" xlink:href="#SegoeUI-Semilight-61"/>
      <use x="517.041016" xlink:href="#SegoeUI-Semilight-6e"/>
      <use x="572.070312" xlink:href="#SegoeUI-Semilight-67"/>
      <use x="629.492188" xlink:href="#SegoeUI-Semilight-65"/>
     </g>
    </g>
   </g>
  </g>
 </g>
 <defs>
  <clipPath id="p14e67d9109">
   <rect height="252.288" width="357.12" x="57.6" y="41.472"/>
  </clipPath>
 </defs>
 <defs>
  <pattern height="72" id="h899c65ee12" patternUnits="userSpaceOnUse" width="72" x="0" y="0">
   <rect fill="#1b8ece" height="73" width="73" x="0" y="0"/>
   <path d="M -36 36 
L 36 108 
M -30 30 
L 42 102 
M -24 24 
L 48 96 
M -18 18 
L 54 90 
M -12 12 
L 60 84 
M -6 6 
L 66 78 
M 0 0 
L 72 72 
M 6 -6 
L 78 66 
M 12 -12 
L 84 60 
M 18 -18 
L 90 54 
M 24 -24 
L 96 48 
M 30 -30 
L 102 42 
M 36 -36 
L 108 36 
" style="fill:#1b8ece;stroke:#1b8ece;stroke-linecap:butt;stroke-linejoin:miter;stroke-width:1.0;"/>
  </pattern>
  <pattern height="72" id="hbcfee2909e" patternUnits="userSpaceOnUse" width="72" x="0" y="0">
   <rect fill="#1b8ece" height="73" width="73" x="0" y="0"/>
   <path d="M -36 36 
L 36 108 
M -30 30 
L 42 102 
M -24 24 
L 48 96 
M -18 18 
L 54 90 
M -12 12 
L 60 84 
M -6 6 
L 66 78 
M 0 0 
L 72 72 
M 6 -6 
L 78 66 
M 12 -12 
L 84 60 
M 18 -18 
L 90 54 
M 24 -24 
L 96 48 
M 30 -30 
L 102 42 
M 36 -36 
L 108 36 
" style="fill:#000000;stroke:#000000;stroke-linecap:butt;stroke-linejoin:miter;stroke-width:1.0;"/>
  </pattern>
 </defs>
</svg>
