<?xml version="1.0" encoding="utf-8" standalone="no"?>
<!DOCTYPE svg PUBLIC "-//W3C//DTD SVG 1.1//EN"
  "http://www.w3.org/Graphics/SVG/1.1/DTD/svg11.dtd">
<!-- Created with matplotlib (http://matplotlib.org/) -->
<svg height="288pt" version="1.1" viewBox="0 0 504 288" width="504pt" xmlns="http://www.w3.org/2000/svg" xmlns:xlink="http://www.w3.org/1999/xlink">
 <defs>
  <style type="text/css">
*{stroke-linecap:butt;stroke-linejoin:round;}
  </style>
 </defs>
 <g id="figure_1">
  <g id="patch_1">
   <path d="M 0 288 
L 504 288 
L 504 0 
L 0 0 
z
" style="fill:#ffffff;"/>
  </g>
  <g id="axes_1">
   <g id="patch_2">
    <path d="M 63 244.8 
L 453.6 244.8 
L 453.6 34.56 
L 63 34.56 
z
" style="fill:#ffffff;"/>
   </g>
   <g id="matplotlib.axis_1">
    <g id="xtick_1">
     <g id="line2d_1">
      <defs>
       <path d="M 0 0 
L 0 3.5 
" id="mc57be93427" style="stroke:#000000;stroke-width:0.8;"/>
      </defs>
      <g>
       <use style="stroke:#000000;stroke-width:0.8;" x="73.765747" xlink:href="#mc57be93427" y="244.8"/>
      </g>
     </g>
     <g id="text_1">
      <!-- 1 second -->
      <defs>
       <path d="M 20.796875 0 
L 20.796875 62.59375 
Q 19.09375 61.140625 16.96875 59.765625 
Q 14.84375 58.40625 12.625 57.203125 
Q 10.40625 56 8.171875 55.046875 
Q 5.953125 54.109375 4.046875 53.46875 
L 4.046875 58.984375 
Q 9.8125 60.84375 15.0625 64.078125 
Q 20.3125 67.328125 25.25 71.578125 
L 27.046875 71.578125 
L 27.046875 0 
z
" id="SegoeUI-Semilight-31"/>
       <path id="SegoeUI-Semilight-20"/>
       <path d="M 5.21875 8.984375 
Q 6.640625 7.859375 8.296875 6.984375 
Q 9.96875 6.109375 11.71875 5.46875 
Q 13.484375 4.828125 15.265625 4.515625 
Q 17.046875 4.203125 18.65625 4.203125 
Q 29.78125 4.203125 29.78125 12.546875 
Q 29.78125 14.453125 29 15.84375 
Q 28.21875 17.234375 26.75 18.375 
Q 25.296875 19.53125 23.234375 20.5 
Q 21.1875 21.484375 18.609375 22.5625 
Q 15.140625 23.96875 12.640625 25.4375 
Q 10.15625 26.90625 8.546875 28.640625 
Q 6.9375 30.375 6.15625 32.4375 
Q 5.375 34.515625 5.375 37.15625 
Q 5.375 40.484375 6.8125 43.0625 
Q 8.25 45.65625 10.6875 47.453125 
Q 13.140625 49.265625 16.328125 50.21875 
Q 19.53125 51.171875 23.046875 51.171875 
Q 29.546875 51.171875 34.375 48.734375 
L 34.375 42.140625 
Q 28.765625 45.75 22.265625 45.75 
Q 19.921875 45.75 17.984375 45.15625 
Q 16.0625 44.578125 14.6875 43.5 
Q 13.328125 42.4375 12.5625 40.9375 
Q 11.8125 39.453125 11.8125 37.640625 
Q 11.8125 35.796875 12.390625 34.40625 
Q 12.984375 33.015625 14.234375 31.890625 
Q 15.484375 30.765625 17.453125 29.734375 
Q 19.4375 28.71875 22.265625 27.546875 
Q 25.875 26.078125 28.515625 24.625 
Q 31.15625 23.1875 32.859375 21.5 
Q 34.578125 19.828125 35.40625 17.75 
Q 36.234375 15.671875 36.234375 12.9375 
Q 36.234375 9.578125 34.84375 6.9375 
Q 33.453125 4.296875 30.984375 2.484375 
Q 28.515625 0.6875 25.1875 -0.234375 
Q 21.875 -1.171875 17.96875 -1.171875 
Q 10.40625 -1.171875 5.21875 2 
z
" id="SegoeUI-Semilight-73"/>
       <path d="M 11.03125 23.875 
Q 11.078125 19.28125 12.25 15.625 
Q 13.421875 11.96875 15.625 9.421875 
Q 17.828125 6.890625 20.96875 5.546875 
Q 24.125 4.203125 28.078125 4.203125 
Q 36.53125 4.203125 44.046875 10.109375 
L 44.046875 3.953125 
Q 36.859375 -1.171875 26.65625 -1.171875 
Q 21.625 -1.171875 17.515625 0.578125 
Q 13.421875 2.34375 10.546875 5.6875 
Q 7.671875 9.03125 6.109375 13.90625 
Q 4.546875 18.796875 4.546875 25.046875 
Q 4.546875 30.671875 6.25 35.453125 
Q 7.953125 40.234375 10.984375 43.71875 
Q 14.015625 47.21875 18.15625 49.1875 
Q 22.3125 51.171875 27.25 51.171875 
Q 32.078125 51.171875 35.78125 49.484375 
Q 39.5 47.796875 42.015625 44.671875 
Q 44.53125 41.546875 45.84375 37.046875 
Q 47.171875 32.5625 47.171875 27 
L 47.171875 23.875 
z
M 40.71875 29.34375 
Q 40.578125 37.15625 37.015625 41.453125 
Q 33.453125 45.75 27.09375 45.75 
Q 23.921875 45.75 21.203125 44.625 
Q 18.5 43.5 16.453125 41.375 
Q 14.40625 39.265625 13.0625 36.203125 
Q 11.71875 33.15625 11.1875 29.34375 
z
" id="SegoeUI-Semilight-65"/>
       <path d="M 41.3125 2.25 
Q 35.75 -1.125 27.828125 -1.21875 
Q 22.46875 -1.265625 18.171875 0.640625 
Q 13.875 2.546875 10.84375 5.9375 
Q 7.8125 9.328125 6.203125 13.9375 
Q 4.59375 18.5625 4.59375 23.96875 
Q 4.59375 29.59375 6.296875 34.546875 
Q 8.015625 39.5 11.28125 43.1875 
Q 14.546875 46.875 19.28125 49.015625 
Q 24.03125 51.171875 30.125 51.171875 
Q 36.328125 51.171875 41.453125 48.78125 
L 41.453125 42.140625 
Q 35.984375 45.75 29.640625 45.75 
Q 25.203125 45.75 21.734375 44.0625 
Q 18.265625 42.390625 15.890625 39.484375 
Q 13.53125 36.578125 12.28125 32.6875 
Q 11.03125 28.8125 11.03125 24.46875 
Q 11.03125 20.453125 12.078125 16.796875 
Q 13.140625 13.140625 15.3125 10.328125 
Q 17.484375 7.515625 20.796875 5.859375 
Q 24.125 4.203125 28.609375 4.203125 
Q 35.640625 4.203125 41.3125 8.40625 
z
" id="SegoeUI-Semilight-63"/>
       <path d="M 28.515625 -1.171875 
Q 22.953125 -1.171875 18.53125 0.6875 
Q 14.109375 2.546875 10.984375 5.9375 
Q 7.859375 9.328125 6.203125 14.0625 
Q 4.546875 18.796875 4.546875 24.5625 
Q 4.546875 30.8125 6.296875 35.734375 
Q 8.0625 40.671875 11.296875 44.109375 
Q 14.546875 47.5625 19.140625 49.359375 
Q 23.734375 51.171875 29.390625 51.171875 
Q 34.8125 51.171875 39.15625 49.390625 
Q 43.5 47.609375 46.53125 44.234375 
Q 49.5625 40.875 51.171875 36.03125 
Q 52.78125 31.203125 52.78125 25.046875 
Q 52.78125 19.1875 51.09375 14.375 
Q 49.421875 9.578125 46.296875 6.109375 
Q 43.171875 2.640625 38.671875 0.734375 
Q 34.1875 -1.171875 28.515625 -1.171875 
z
M 29 45.75 
Q 24.90625 45.75 21.578125 44.328125 
Q 18.265625 42.921875 15.890625 40.203125 
Q 13.53125 37.5 12.25 33.5625 
Q 10.984375 29.640625 10.984375 24.65625 
Q 10.984375 19.96875 12.25 16.203125 
Q 13.53125 12.453125 15.84375 9.765625 
Q 18.171875 7.078125 21.484375 5.640625 
Q 24.8125 4.203125 28.90625 4.203125 
Q 33.109375 4.203125 36.328125 5.59375 
Q 39.546875 6.984375 41.796875 9.640625 
Q 44.046875 12.3125 45.1875 16.15625 
Q 46.34375 20.015625 46.34375 24.953125 
Q 46.34375 35.0625 41.84375 40.40625 
Q 37.359375 45.75 29 45.75 
z
" id="SegoeUI-Semilight-6f"/>
       <path d="M 41.796875 0 
L 41.796875 28.8125 
Q 41.796875 45.75 29.5 45.75 
Q 26.21875 45.75 23.4375 44.453125 
Q 20.65625 43.171875 18.625 40.875 
Q 16.609375 38.578125 15.453125 35.421875 
Q 14.3125 32.28125 14.3125 28.609375 
L 14.3125 0 
L 8.0625 0 
L 8.0625 50 
L 14.3125 50 
L 14.3125 41.3125 
L 14.5 41.3125 
Q 20.0625 51.171875 31.25 51.171875 
Q 39.453125 51.171875 43.75 45.84375 
Q 48.046875 40.53125 48.046875 30.46875 
L 48.046875 0 
z
" id="SegoeUI-Semilight-6e"/>
       <path d="M 43.109375 0 
L 43.109375 8.796875 
L 42.921875 8.796875 
Q 40.4375 4.046875 35.8125 1.4375 
Q 31.203125 -1.171875 25.34375 -1.171875 
Q 20.65625 -1.171875 16.8125 0.5625 
Q 12.984375 2.296875 10.25 5.5625 
Q 7.515625 8.84375 6.03125 13.46875 
Q 4.546875 18.109375 4.546875 23.96875 
Q 4.546875 30.03125 6.171875 35.03125 
Q 7.8125 40.046875 10.8125 43.625 
Q 13.8125 47.21875 18.03125 49.1875 
Q 22.265625 51.171875 27.4375 51.171875 
Q 38.234375 51.171875 42.921875 42.53125 
L 43.109375 42.53125 
L 43.109375 74.03125 
L 49.359375 74.03125 
L 49.359375 0 
z
M 43.109375 30.171875 
Q 43.109375 33.453125 41.984375 36.28125 
Q 40.875 39.109375 38.859375 41.203125 
Q 36.859375 43.3125 34.046875 44.53125 
Q 31.25 45.75 27.875 45.75 
Q 24.171875 45.75 21.046875 44.28125 
Q 17.921875 42.828125 15.703125 40.0625 
Q 13.484375 37.3125 12.234375 33.34375 
Q 10.984375 29.390625 10.984375 24.359375 
Q 10.984375 19.625 12.109375 15.859375 
Q 13.234375 12.109375 15.3125 9.515625 
Q 17.390625 6.9375 20.265625 5.5625 
Q 23.140625 4.203125 26.65625 4.203125 
Q 30.46875 4.203125 33.515625 5.5625 
Q 36.578125 6.9375 38.703125 9.328125 
Q 40.828125 11.71875 41.96875 14.9375 
Q 43.109375 18.171875 43.109375 21.828125 
z
" id="SegoeUI-Semilight-64"/>
      </defs>
      <g transform="translate(58.888247 257.7225)scale(0.08 -0.08)">
       <use xlink:href="#SegoeUI-Semilight-31"/>
       <use x="37.5" xlink:href="#SegoeUI-Semilight-20"/>
       <use x="64.892578" xlink:href="#SegoeUI-Semilight-73"/>
       <use x="105.517578" xlink:href="#SegoeUI-Semilight-65"/>
       <use x="156.884766" xlink:href="#SegoeUI-Semilight-63"/>
       <use x="202.148438" xlink:href="#SegoeUI-Semilight-6f"/>
       <use x="259.472656" xlink:href="#SegoeUI-Semilight-6e"/>
       <use x="314.501953" xlink:href="#SegoeUI-Semilight-64"/>
      </g>
     </g>
    </g>
    <g id="xtick_2">
     <g id="line2d_2">
      <g>
       <use style="stroke:#000000;stroke-width:0.8;" x="133.943237" xlink:href="#mc57be93427" y="244.8"/>
      </g>
     </g>
     <g id="text_2">
      <!-- 2 second -->
      <defs>
       <path d="M 38.625 52.046875 
Q 38.625 55.375 37.625 57.9375 
Q 36.625 60.5 34.8125 62.234375 
Q 33.015625 63.96875 30.46875 64.84375 
Q 27.9375 65.71875 24.859375 65.71875 
Q 20.171875 65.71875 15.84375 63.5 
Q 11.53125 61.28125 7.71875 57.5625 
L 7.71875 64.5 
Q 11.421875 67.671875 15.8125 69.421875 
Q 20.21875 71.1875 25.734375 71.1875 
Q 26.609375 71.1875 27.40625 71.09375 
Q 28.21875 71 29 70.796875 
Q 32.625 70.40625 35.578125 68.96875 
Q 38.53125 67.53125 40.625 65.234375 
Q 42.71875 62.9375 43.859375 59.78125 
Q 45.015625 56.640625 45.015625 52.78125 
Q 45.015625 48.296875 43.84375 44.71875 
Q 42.671875 41.15625 40.5 38.15625 
Q 38.328125 35.15625 35.28125 32.484375 
Q 32.234375 29.828125 28.46875 27.15625 
Q 24.265625 24.125 21.265625 21.796875 
Q 18.265625 19.484375 16.28125 17.375 
Q 14.3125 15.28125 13.28125 13.171875 
Q 12.25 11.078125 11.96875 8.5 
Q 11.71875 7.8125 11.640625 7.125 
Q 11.578125 6.453125 11.578125 5.609375 
L 46.4375 5.609375 
L 46.4375 0 
L 4.984375 0 
L 4.984375 3.375 
Q 4.984375 8.0625 6.078125 11.5 
Q 7.171875 14.9375 9.515625 17.9375 
Q 11.859375 20.953125 15.515625 23.921875 
Q 19.1875 26.90625 24.3125 30.609375 
Q 27.78125 33.15625 30.46875 35.515625 
Q 33.15625 37.890625 34.953125 40.40625 
Q 36.765625 42.921875 37.6875 45.75 
Q 38.625 48.578125 38.625 52.046875 
z
" id="SegoeUI-Semilight-32"/>
      </defs>
      <g transform="translate(118.458237 257.7225)scale(0.08 -0.08)">
       <use xlink:href="#SegoeUI-Semilight-32"/>
       <use x="52.685547" xlink:href="#SegoeUI-Semilight-20"/>
       <use x="80.078125" xlink:href="#SegoeUI-Semilight-73"/>
       <use x="120.703125" xlink:href="#SegoeUI-Semilight-65"/>
       <use x="172.070312" xlink:href="#SegoeUI-Semilight-63"/>
       <use x="217.333984" xlink:href="#SegoeUI-Semilight-6f"/>
       <use x="274.658203" xlink:href="#SegoeUI-Semilight-6e"/>
       <use x="329.6875" xlink:href="#SegoeUI-Semilight-64"/>
      </g>
     </g>
    </g>
    <g id="xtick_3">
     <g id="line2d_3">
      <g>
       <use style="stroke:#000000;stroke-width:0.8;" x="194.120712" xlink:href="#mc57be93427" y="244.8"/>
      </g>
     </g>
     <g id="text_3">
      <!-- 3 second -->
      <defs>
       <path d="M 6 9.421875 
Q 13.578125 4.203125 21.625 4.203125 
Q 24.953125 4.203125 28.03125 5.03125 
Q 31.109375 5.859375 33.46875 7.640625 
Q 35.84375 9.421875 37.25 12.171875 
Q 38.671875 14.9375 38.671875 18.796875 
Q 38.671875 26.125 33.515625 29.828125 
Q 28.375 33.546875 18.359375 33.546875 
L 12.796875 33.546875 
L 12.796875 38.96875 
L 17.921875 38.96875 
Q 27 38.96875 31.59375 42.546875 
Q 36.1875 46.140625 36.1875 53.03125 
Q 36.1875 59.234375 32.78125 62.46875 
Q 29.390625 65.71875 22.609375 65.71875 
Q 15.578125 65.71875 8.734375 60.9375 
L 8.734375 67.234375 
Q 16.0625 71.1875 23.921875 71.1875 
Q 27.640625 71.1875 31.046875 70.15625 
Q 34.46875 69.140625 37.03125 67.0625 
Q 39.59375 64.984375 41.125 61.890625 
Q 42.671875 58.796875 42.671875 54.640625 
Q 42.671875 40.625 28.8125 36.71875 
L 28.8125 36.53125 
Q 32.234375 36.140625 35.203125 34.84375 
Q 38.1875 33.546875 40.375 31.375 
Q 42.578125 29.203125 43.84375 26.1875 
Q 45.125 23.1875 45.125 19.484375 
Q 45.125 14.5 43.265625 10.640625 
Q 41.40625 6.78125 38.1875 4.140625 
Q 34.96875 1.515625 30.640625 0.140625 
Q 26.3125 -1.21875 21.4375 -1.21875 
Q 12.546875 -1.21875 6 2.546875 
z
" id="SegoeUI-Semilight-33"/>
      </defs>
      <g transform="translate(178.635712 257.7225)scale(0.08 -0.08)">
       <use xlink:href="#SegoeUI-Semilight-33"/>
       <use x="52.685547" xlink:href="#SegoeUI-Semilight-20"/>
       <use x="80.078125" xlink:href="#SegoeUI-Semilight-73"/>
       <use x="120.703125" xlink:href="#SegoeUI-Semilight-65"/>
       <use x="172.070312" xlink:href="#SegoeUI-Semilight-63"/>
       <use x="217.333984" xlink:href="#SegoeUI-Semilight-6f"/>
       <use x="274.658203" xlink:href="#SegoeUI-Semilight-6e"/>
       <use x="329.6875" xlink:href="#SegoeUI-Semilight-64"/>
      </g>
     </g>
    </g>
    <g id="xtick_4">
     <g id="line2d_4">
      <g>
       <use style="stroke:#000000;stroke-width:0.8;" x="254.298203" xlink:href="#mc57be93427" y="244.8"/>
      </g>
     </g>
     <g id="text_4">
      <!-- 4 second -->
      <defs>
       <path d="M 41.796875 70.015625 
L 41.796875 23.046875 
L 52.734375 23.046875 
L 52.734375 17.390625 
L 41.796875 17.390625 
L 41.796875 0 
L 35.59375 0 
L 35.59375 17.390625 
L 2.4375 17.390625 
L 2.4375 23.046875 
Q 7.078125 28.328125 11.84375 34.296875 
Q 16.609375 40.28125 20.953125 46.453125 
Q 25.296875 52.640625 28.953125 58.671875 
Q 32.625 64.703125 35.109375 70.015625 
z
M 35.59375 23.046875 
L 35.59375 60.015625 
Q 31.984375 53.765625 28.421875 48.359375 
Q 24.859375 42.96875 21.515625 38.34375 
Q 18.171875 33.734375 15.109375 29.921875 
Q 12.0625 26.125 9.515625 23.046875 
z
" id="SegoeUI-Semilight-34"/>
      </defs>
      <g transform="translate(238.725078 257.7225)scale(0.08 -0.08)">
       <use xlink:href="#SegoeUI-Semilight-34"/>
       <use x="54.882812" xlink:href="#SegoeUI-Semilight-20"/>
       <use x="82.275391" xlink:href="#SegoeUI-Semilight-73"/>
       <use x="122.900391" xlink:href="#SegoeUI-Semilight-65"/>
       <use x="174.267578" xlink:href="#SegoeUI-Semilight-63"/>
       <use x="219.53125" xlink:href="#SegoeUI-Semilight-6f"/>
       <use x="276.855469" xlink:href="#SegoeUI-Semilight-6e"/>
       <use x="331.884766" xlink:href="#SegoeUI-Semilight-64"/>
      </g>
     </g>
    </g>
    <g id="xtick_5">
     <g id="line2d_5">
      <g>
       <use style="stroke:#000000;stroke-width:0.8;" x="314.475677" xlink:href="#mc57be93427" y="244.8"/>
      </g>
     </g>
     <g id="text_5">
      <!-- 5 second -->
      <defs>
       <path d="M 7.8125 8.40625 
Q 14.796875 4.203125 21.78125 4.203125 
Q 25.78125 4.203125 29 5.375 
Q 32.234375 6.546875 34.5 8.6875 
Q 36.765625 10.84375 37.984375 13.859375 
Q 39.203125 16.890625 39.203125 20.5625 
Q 39.203125 28.265625 34.46875 32.3125 
Q 29.734375 36.375 20.515625 36.375 
Q 16.796875 36.375 9.859375 35.796875 
L 12.015625 70.015625 
L 42.53125 70.015625 
L 42.53125 64.359375 
L 17.328125 64.359375 
L 15.875 41.65625 
Q 20.125 41.9375 22.609375 41.9375 
Q 28.171875 41.9375 32.4375 40.5 
Q 36.71875 39.0625 39.640625 36.375 
Q 42.578125 33.6875 44.09375 29.828125 
Q 45.609375 25.984375 45.609375 21.09375 
Q 45.609375 16.109375 44 12 
Q 42.390625 7.90625 39.3125 4.96875 
Q 36.234375 2.046875 31.734375 0.4375 
Q 27.25 -1.171875 21.53125 -1.171875 
Q 12.890625 -1.171875 7.8125 1.5625 
z
" id="SegoeUI-Semilight-35"/>
      </defs>
      <g transform="translate(298.990677 257.7225)scale(0.08 -0.08)">
       <use xlink:href="#SegoeUI-Semilight-35"/>
       <use x="52.685547" xlink:href="#SegoeUI-Semilight-20"/>
       <use x="80.078125" xlink:href="#SegoeUI-Semilight-73"/>
       <use x="120.703125" xlink:href="#SegoeUI-Semilight-65"/>
       <use x="172.070312" xlink:href="#SegoeUI-Semilight-63"/>
       <use x="217.333984" xlink:href="#SegoeUI-Semilight-6f"/>
       <use x="274.658203" xlink:href="#SegoeUI-Semilight-6e"/>
       <use x="329.6875" xlink:href="#SegoeUI-Semilight-64"/>
      </g>
     </g>
    </g>
    <g id="xtick_6">
     <g id="line2d_6">
      <g>
       <use style="stroke:#000000;stroke-width:0.8;" x="374.653168" xlink:href="#mc57be93427" y="244.8"/>
      </g>
     </g>
     <g id="text_6">
      <!-- 6 second -->
      <defs>
       <path d="M 48.640625 22.21875 
Q 48.640625 17.09375 47.046875 12.796875 
Q 45.453125 8.5 42.59375 5.390625 
Q 39.75 2.296875 35.8125 0.53125 
Q 31.890625 -1.21875 27.203125 -1.21875 
Q 22.125 -1.21875 18.140625 0.90625 
Q 14.15625 3.03125 11.390625 7.125 
Q 8.640625 11.234375 7.171875 17.1875 
Q 5.71875 23.140625 5.71875 30.765625 
Q 5.71875 39.890625 7.640625 47.359375 
Q 9.578125 54.828125 13.1875 60.125 
Q 16.796875 65.4375 21.9375 68.3125 
Q 27.09375 71.1875 33.59375 71.1875 
Q 40.09375 71.1875 44.484375 69.34375 
L 44.484375 63.140625 
Q 39.359375 65.71875 33.640625 65.71875 
Q 28.71875 65.71875 24.734375 63.390625 
Q 20.75 61.078125 17.96875 56.828125 
Q 15.1875 52.59375 13.671875 46.65625 
Q 12.15625 40.71875 12.15625 33.546875 
L 12.359375 33.546875 
Q 17.390625 43.796875 29.109375 43.796875 
Q 33.546875 43.796875 37.125 42.1875 
Q 40.71875 40.578125 43.28125 37.6875 
Q 45.84375 34.8125 47.234375 30.859375 
Q 48.640625 26.90625 48.640625 22.21875 
z
M 42.1875 21.234375 
Q 42.1875 25.09375 41.1875 28.265625 
Q 40.1875 31.453125 38.328125 33.671875 
Q 36.46875 35.890625 33.78125 37.109375 
Q 31.109375 38.328125 27.6875 38.328125 
Q 24.46875 38.328125 21.703125 37.0625 
Q 18.953125 35.796875 16.9375 33.640625 
Q 14.9375 31.5 13.8125 28.703125 
Q 12.703125 25.921875 12.703125 22.90625 
Q 12.703125 19.09375 13.765625 15.703125 
Q 14.84375 12.3125 16.796875 9.765625 
Q 18.75 7.234375 21.484375 5.734375 
Q 24.21875 4.25 27.546875 4.25 
Q 30.765625 4.25 33.453125 5.515625 
Q 36.140625 6.78125 38.0625 9.046875 
Q 39.984375 11.328125 41.078125 14.421875 
Q 42.1875 17.53125 42.1875 21.234375 
z
" id="SegoeUI-Semilight-36"/>
      </defs>
      <g transform="translate(359.168168 257.7225)scale(0.08 -0.08)">
       <use xlink:href="#SegoeUI-Semilight-36"/>
       <use x="52.685547" xlink:href="#SegoeUI-Semilight-20"/>
       <use x="80.078125" xlink:href="#SegoeUI-Semilight-73"/>
       <use x="120.703125" xlink:href="#SegoeUI-Semilight-65"/>
       <use x="172.070312" xlink:href="#SegoeUI-Semilight-63"/>
       <use x="217.333984" xlink:href="#SegoeUI-Semilight-6f"/>
       <use x="274.658203" xlink:href="#SegoeUI-Semilight-6e"/>
       <use x="329.6875" xlink:href="#SegoeUI-Semilight-64"/>
      </g>
     </g>
    </g>
    <g id="xtick_7">
     <g id="line2d_7">
      <g>
       <use style="stroke:#000000;stroke-width:0.8;" x="434.830658" xlink:href="#mc57be93427" y="244.8"/>
      </g>
     </g>
     <g id="text_7">
      <!-- 7 second -->
      <defs>
       <path d="M 47.078125 67.390625 
Q 43.3125 60.59375 40.109375 54.53125 
Q 36.921875 48.484375 34.25 42.859375 
Q 31.59375 37.25 29.4375 31.96875 
Q 27.296875 26.703125 25.609375 21.484375 
Q 23.921875 16.265625 22.671875 10.9375 
Q 21.4375 5.609375 20.5625 0 
L 13.96875 0 
Q 15.140625 7.625 17.53125 15.625 
Q 19.921875 23.640625 23.234375 31.78125 
Q 26.5625 39.9375 30.6875 48.140625 
Q 34.8125 56.34375 39.359375 64.359375 
L 3.421875 64.359375 
L 3.421875 70.015625 
L 47.078125 70.015625 
z
" id="SegoeUI-Semilight-37"/>
      </defs>
      <g transform="translate(419.433783 257.7225)scale(0.08 -0.08)">
       <use xlink:href="#SegoeUI-Semilight-37"/>
       <use x="50.488281" xlink:href="#SegoeUI-Semilight-20"/>
       <use x="77.880859" xlink:href="#SegoeUI-Semilight-73"/>
       <use x="118.505859" xlink:href="#SegoeUI-Semilight-65"/>
       <use x="169.873047" xlink:href="#SegoeUI-Semilight-63"/>
       <use x="215.136719" xlink:href="#SegoeUI-Semilight-6f"/>
       <use x="272.460938" xlink:href="#SegoeUI-Semilight-6e"/>
       <use x="327.490234" xlink:href="#SegoeUI-Semilight-64"/>
      </g>
     </g>
    </g>
    <g id="text_8">
     <!-- Time passed -->
     <defs>
      <path d="M 27.984375 65.578125 
L 27.984375 0 
L 23.1875 0 
L 23.1875 65.578125 
L 2.984375 65.578125 
L 2.984375 70.015625 
L 48.1875 70.015625 
L 48.1875 65.578125 
z
" id="SegoeUI-Light-54"/>
      <path d="M 10.203125 62.59375 
Q 8.734375 62.59375 7.609375 63.671875 
Q 6.5 64.75 6.5 66.40625 
Q 6.5 68.015625 7.640625 69.015625 
Q 8.796875 70.015625 10.203125 70.015625 
Q 11.71875 70.015625 12.859375 69.03125 
Q 14.015625 68.0625 14.015625 66.40625 
Q 14.015625 64.84375 12.890625 63.71875 
Q 11.765625 62.59375 10.203125 62.59375 
z
M 8.015625 0 
L 8.015625 50 
L 12.5 50 
L 12.5 0 
z
" id="SegoeUI-Light-69"/>
      <path d="M 70.703125 0 
L 70.703125 30.078125 
Q 70.703125 39.5 67.75 43.3125 
Q 64.796875 47.125 58.40625 47.125 
Q 52.484375 47.125 48.1875 42.046875 
Q 43.890625 36.96875 43.890625 29.296875 
L 43.890625 0 
L 39.40625 0 
L 39.40625 30.421875 
Q 39.40625 47.125 26.703125 47.125 
Q 20.609375 47.125 16.546875 42.015625 
Q 12.5 36.921875 12.5 28.8125 
L 12.5 0 
L 8.015625 0 
L 8.015625 50 
L 12.5 50 
L 12.5 41.703125 
L 12.703125 41.703125 
Q 17.921875 51.21875 27.984375 51.21875 
Q 33.453125 51.21875 37.328125 48.0625 
Q 41.21875 44.921875 42.578125 39.796875 
Q 44.921875 45.21875 49.28125 48.21875 
Q 53.65625 51.21875 58.796875 51.21875 
Q 75.203125 51.21875 75.203125 30.90625 
L 75.203125 0 
z
" id="SegoeUI-Light-6d"/>
      <path d="M 9.078125 24.8125 
Q 9.078125 14.5 13.84375 8.6875 
Q 18.609375 2.875 26.90625 2.875 
Q 35.296875 2.875 43.3125 9.078125 
L 43.3125 4.296875 
Q 35.546875 -1.21875 25.984375 -1.21875 
Q 16.3125 -1.21875 10.34375 5.703125 
Q 4.390625 12.640625 4.390625 25.296875 
Q 4.390625 36.234375 10.609375 43.71875 
Q 16.84375 51.21875 26.8125 51.21875 
Q 36.140625 51.21875 41.109375 44.671875 
Q 46.09375 38.140625 46.09375 26.8125 
L 46.09375 24.8125 
z
M 41.40625 28.90625 
Q 41.109375 37.546875 37.25 42.328125 
Q 33.40625 47.125 26.609375 47.125 
Q 19.578125 47.125 14.96875 42.40625 
Q 10.359375 37.703125 9.28125 28.90625 
z
" id="SegoeUI-Light-65"/>
      <path id="SegoeUI-Light-20"/>
      <path d="M 12.703125 8.890625 
L 12.5 8.890625 
L 12.5 -23 
L 8.015625 -23 
L 8.015625 50 
L 12.5 50 
L 12.5 39.703125 
L 12.703125 39.703125 
Q 15.375 45.21875 20.375 48.21875 
Q 25.390625 51.21875 31.390625 51.21875 
Q 40.921875 51.21875 46.265625 44.65625 
Q 51.609375 38.09375 51.609375 26.8125 
Q 51.609375 14.265625 45.484375 6.515625 
Q 39.359375 -1.21875 29.296875 -1.21875 
Q 18.0625 -1.21875 12.703125 8.890625 
z
M 12.5 27.484375 
L 12.5 21.1875 
Q 12.5 13.671875 17.234375 8.265625 
Q 21.96875 2.875 29.6875 2.875 
Q 37.359375 2.875 42.140625 9.4375 
Q 46.921875 16.015625 46.921875 26.703125 
Q 46.921875 36.078125 42.53125 41.59375 
Q 38.140625 47.125 30.8125 47.125 
Q 22.078125 47.125 17.28125 41.265625 
Q 12.5 35.40625 12.5 27.484375 
z
" id="SegoeUI-Light-70"/>
      <path d="M 37.890625 0 
L 37.890625 10.015625 
L 37.703125 10.015625 
Q 35.296875 4.890625 30.734375 1.828125 
Q 26.171875 -1.21875 20.609375 -1.21875 
Q 13.484375 -1.21875 9.328125 2.78125 
Q 5.171875 6.78125 5.171875 12.890625 
Q 5.171875 25.984375 22.515625 28.71875 
L 37.890625 31 
Q 37.890625 47.125 25.78125 47.125 
Q 17.53125 47.125 9.71875 40.484375 
L 9.71875 45.90625 
Q 12.5 48.09375 17.25 49.65625 
Q 22.015625 51.21875 26.21875 51.21875 
Q 33.9375 51.21875 38.15625 46.4375 
Q 42.390625 41.65625 42.390625 32.515625 
L 42.390625 0 
z
M 24.125 24.90625 
Q 16.265625 23.78125 13.078125 21.265625 
Q 9.90625 18.75 9.90625 13.09375 
Q 9.90625 8.640625 12.859375 5.75 
Q 15.828125 2.875 21.09375 2.875 
Q 28.328125 2.875 33.109375 8.21875 
Q 37.890625 13.578125 37.890625 22.015625 
L 37.890625 26.90625 
z
" id="SegoeUI-Light-61"/>
      <path d="M 5.421875 2.203125 
L 5.421875 7.625 
Q 7.953125 5.421875 11.5625 4.140625 
Q 15.1875 2.875 17.828125 2.875 
Q 29.59375 2.875 29.59375 12.5 
Q 29.59375 15.828125 27 18.171875 
Q 24.421875 20.515625 18.609375 23 
Q 11.421875 26.125 8.515625 29.46875 
Q 5.609375 32.8125 5.609375 37.59375 
Q 5.609375 43.703125 10.265625 47.453125 
Q 14.9375 51.21875 21.78125 51.21875 
Q 28.21875 51.21875 32.8125 48.578125 
L 32.8125 43.5 
Q 27.25 47.125 21.296875 47.125 
Q 16.359375 47.125 13.328125 44.5625 
Q 10.296875 42 10.296875 37.890625 
Q 10.296875 34.328125 12.203125 32.109375 
Q 14.109375 29.890625 20.609375 27 
Q 28.421875 23.484375 31.34375 20.484375 
Q 34.28125 17.484375 34.28125 12.5 
Q 34.28125 6.546875 29.8125 2.65625 
Q 25.34375 -1.21875 17.484375 -1.21875 
Q 10.25 -1.21875 5.421875 2.203125 
z
" id="SegoeUI-Light-73"/>
      <path d="M 43.5 0 
L 43.5 9.078125 
L 43.3125 9.078125 
Q 40.875 4.34375 36.078125 1.5625 
Q 31.296875 -1.21875 25.296875 -1.21875 
Q 16.0625 -1.21875 10.21875 5.515625 
Q 4.390625 12.25 4.390625 24.125 
Q 4.390625 36.234375 10.765625 43.71875 
Q 17.140625 51.21875 27.296875 51.21875 
Q 38.53125 51.21875 43.3125 42 
L 43.5 42 
L 43.5 74.03125 
L 48 74.03125 
L 48 0 
z
M 43.5 30.421875 
Q 43.5 37.40625 39.078125 42.265625 
Q 34.671875 47.125 27.203125 47.125 
Q 19.34375 47.125 14.203125 41.09375 
Q 9.078125 35.0625 9.078125 24.515625 
Q 9.078125 14.15625 13.6875 8.515625 
Q 18.3125 2.875 25.59375 2.875 
Q 34.125 2.875 38.8125 8.171875 
Q 43.5 13.484375 43.5 21.09375 
z
" id="SegoeUI-Light-64"/>
     </defs>
     <g transform="translate(227.026875 272.44625)scale(0.12 -0.12)">
      <use xlink:href="#SegoeUI-Light-54"/>
      <use x="51.123047" xlink:href="#SegoeUI-Light-69"/>
      <use x="71.630859" xlink:href="#SegoeUI-Light-6d"/>
      <use x="153.808594" xlink:href="#SegoeUI-Light-65"/>
      <use x="204.296875" xlink:href="#SegoeUI-Light-20"/>
      <use x="231.689453" xlink:href="#SegoeUI-Light-70"/>
      <use x="287.695312" xlink:href="#SegoeUI-Light-61"/>
      <use x="337.109375" xlink:href="#SegoeUI-Light-73"/>
      <use x="375.927734" xlink:href="#SegoeUI-Light-73"/>
      <use x="414.746094" xlink:href="#SegoeUI-Light-65"/>
      <use x="465.234375" xlink:href="#SegoeUI-Light-64"/>
     </g>
    </g>
   </g>
   <g id="matplotlib.axis_2">
    <g id="ytick_1">
     <g id="line2d_8">
      <defs>
       <path d="M 0 0 
L -3.5 0 
" id="m21749d4593" style="stroke:#000000;stroke-width:0.8;"/>
      </defs>
      <g>
       <use style="stroke:#000000;stroke-width:0.8;" x="63" xlink:href="#m21749d4593" y="227.28"/>
      </g>
     </g>
     <g id="text_9">
      <!-- down -->
      <defs>
       <path d="M 53.21875 0 
L 46.96875 0 
L 36.375 36.71875 
Q 35.890625 38.421875 35.59375 41.15625 
L 35.40625 41.15625 
Q 35.296875 40.4375 35.078125 39.359375 
Q 34.859375 38.28125 34.375 36.8125 
L 22.703125 0 
L 16.609375 0 
L 1.46875 50 
L 8.15625 50 
L 19.140625 11.234375 
Q 19.625 9.515625 19.828125 6.890625 
L 20.21875 6.890625 
Q 20.3125 7.765625 20.53125 8.890625 
Q 20.75 10.015625 21.140625 11.28125 
L 33.25 50 
L 38.421875 50 
L 49.265625 11.1875 
Q 49.703125 9.515625 50 6.84375 
L 50.390625 6.84375 
Q 50.34375 7.671875 50.578125 8.765625 
Q 50.828125 9.859375 51.21875 11.1875 
L 62.203125 50 
L 68.5 50 
z
" id="SegoeUI-Semilight-77"/>
      </defs>
      <g transform="translate(27.23 231.721875)scale(0.12 -0.12)">
       <use xlink:href="#SegoeUI-Semilight-64"/>
       <use x="57.421875" xlink:href="#SegoeUI-Semilight-6f"/>
       <use x="114.746094" xlink:href="#SegoeUI-Semilight-77"/>
       <use x="184.716797" xlink:href="#SegoeUI-Semilight-6e"/>
      </g>
     </g>
    </g>
    <g id="ytick_2">
     <g id="line2d_9">
      <g>
       <use style="stroke:#000000;stroke-width:0.8;" x="63" xlink:href="#m21749d4593" y="192.24"/>
      </g>
     </g>
    </g>
    <g id="ytick_3">
     <g id="line2d_10">
      <g>
       <use style="stroke:#000000;stroke-width:0.8;" x="63" xlink:href="#m21749d4593" y="157.2"/>
      </g>
     </g>
    </g>
    <g id="ytick_4">
     <g id="line2d_11">
      <g>
       <use style="stroke:#000000;stroke-width:0.8;" x="63" xlink:href="#m21749d4593" y="122.16"/>
      </g>
     </g>
    </g>
    <g id="ytick_5">
     <g id="line2d_12">
      <g>
       <use style="stroke:#000000;stroke-width:0.8;" x="63" xlink:href="#m21749d4593" y="87.12"/>
      </g>
     </g>
    </g>
    <g id="ytick_6">
     <g id="line2d_13">
      <g>
       <use style="stroke:#000000;stroke-width:0.8;" x="63" xlink:href="#m21749d4593" y="52.08"/>
      </g>
     </g>
     <g id="text_10">
      <!-- up -->
      <defs>
       <path d="M 40.765625 0 
L 40.765625 8.5 
L 40.578125 8.5 
Q 35.5 -1.171875 24.8125 -1.171875 
Q 6.984375 -1.171875 6.984375 20.609375 
L 6.984375 50 
L 13.234375 50 
L 13.234375 21.78125 
Q 13.234375 12.796875 16.421875 8.5 
Q 19.625 4.203125 26.21875 4.203125 
Q 29.4375 4.203125 32.09375 5.4375 
Q 34.765625 6.6875 36.6875 8.953125 
Q 38.625 11.234375 39.6875 14.40625 
Q 40.765625 17.578125 40.765625 21.4375 
L 40.765625 50 
L 47.015625 50 
L 47.015625 0 
z
" id="SegoeUI-Semilight-75"/>
       <path d="M 14.3125 8.0625 
L 14.3125 -23 
L 8.0625 -23 
L 8.0625 50 
L 14.3125 50 
L 14.3125 40.4375 
L 14.5 40.4375 
Q 17.28125 45.65625 21.9375 48.40625 
Q 26.609375 51.171875 32.46875 51.171875 
Q 37.25 51.171875 41.03125 49.4375 
Q 44.828125 47.703125 47.4375 44.53125 
Q 50.046875 41.359375 51.4375 36.8125 
Q 52.828125 32.28125 52.828125 26.609375 
Q 52.828125 20.40625 51.265625 15.296875 
Q 49.703125 10.203125 46.765625 6.53125 
Q 43.84375 2.875 39.671875 0.84375 
Q 35.5 -1.171875 30.28125 -1.171875 
Q 19.734375 -1.171875 14.5 8.0625 
z
M 14.3125 20.796875 
Q 14.3125 17.390625 15.453125 14.375 
Q 16.609375 11.375 18.65625 9.109375 
Q 20.703125 6.84375 23.609375 5.515625 
Q 26.515625 4.203125 30.03125 4.203125 
Q 33.796875 4.203125 36.8125 5.78125 
Q 39.84375 7.375 41.96875 10.296875 
Q 44.09375 13.234375 45.234375 17.375 
Q 46.390625 21.53125 46.390625 26.65625 
Q 46.390625 31.0625 45.3125 34.59375 
Q 44.234375 38.140625 42.25 40.625 
Q 40.28125 43.109375 37.46875 44.421875 
Q 34.671875 45.75 31.203125 45.75 
Q 27.296875 45.75 24.171875 44.3125 
Q 21.046875 42.875 18.84375 40.375 
Q 16.65625 37.890625 15.484375 34.546875 
Q 14.3125 31.203125 14.3125 27.4375 
z
" id="SegoeUI-Semilight-70"/>
      </defs>
      <g transform="translate(42.505625 56.521875)scale(0.12 -0.12)">
       <use xlink:href="#SegoeUI-Semilight-75"/>
       <use x="55.078125" xlink:href="#SegoeUI-Semilight-70"/>
      </g>
     </g>
    </g>
    <g id="text_11">
     <!-- Button state -->
     <defs>
      <path d="M 8.984375 0 
L 8.984375 70.015625 
L 27.390625 70.015625 
Q 35.640625 70.015625 40.515625 65.578125 
Q 45.40625 61.140625 45.40625 53.8125 
Q 45.40625 47.703125 42.15625 43.234375 
Q 38.921875 38.765625 33.109375 36.921875 
L 33.109375 36.71875 
Q 40.375 36.03125 44.578125 31.515625 
Q 48.78125 27 48.78125 20.015625 
Q 48.78125 11.1875 43.0625 5.59375 
Q 37.359375 0 27.78125 0 
z
M 13.8125 65.578125 
L 13.8125 38.484375 
L 23.578125 38.484375 
Q 31.203125 38.484375 35.78125 42.390625 
Q 40.375 46.296875 40.375 52.984375 
Q 40.375 65.578125 25.484375 65.578125 
z
M 13.8125 34.078125 
L 13.8125 4.390625 
L 26.8125 4.390625 
Q 35.0625 4.390625 39.421875 8.34375 
Q 43.796875 12.3125 43.796875 19.578125 
Q 43.796875 34.078125 24.125 34.078125 
z
" id="SegoeUI-Light-42"/>
      <path d="M 41.015625 0 
L 41.015625 9.078125 
L 40.828125 9.078125 
Q 35.59375 -1.21875 24.703125 -1.21875 
Q 6.984375 -1.21875 6.984375 21.09375 
L 6.984375 50 
L 11.53125 50 
L 11.53125 22.21875 
Q 11.53125 12.0625 14.875 7.46875 
Q 18.21875 2.875 25.390625 2.875 
Q 32.375 2.875 36.6875 8 
Q 41.015625 13.140625 41.015625 21.6875 
L 41.015625 50 
L 45.515625 50 
L 45.515625 0 
z
" id="SegoeUI-Light-75"/>
      <path d="M 27.78125 0.6875 
Q 24.265625 -0.984375 21.1875 -0.984375 
Q 10.109375 -0.984375 10.109375 12.3125 
L 10.109375 45.90625 
L 1.125 45.90625 
L 1.125 50 
L 10.109375 50 
L 10.109375 62.984375 
Q 11.1875 63.375 12.359375 63.765625 
Q 13.53125 64.109375 14.59375 64.5 
L 14.59375 50 
L 27.78125 50 
L 27.78125 45.90625 
L 14.59375 45.90625 
L 14.59375 12.890625 
Q 14.59375 7.71875 16.234375 5.390625 
Q 17.875 3.078125 21.78125 3.078125 
Q 24.5625 3.078125 27.78125 4.890625 
z
" id="SegoeUI-Light-74"/>
      <path d="M 28.078125 -1.21875 
Q 17.140625 -1.21875 10.765625 5.984375 
Q 4.390625 13.1875 4.390625 24.703125 
Q 4.390625 37.15625 11.046875 44.1875 
Q 17.71875 51.21875 28.609375 51.21875 
Q 39.3125 51.21875 45.5 44.234375 
Q 51.703125 37.25 51.703125 24.90625 
Q 51.703125 13.234375 45.375 6 
Q 39.0625 -1.21875 28.078125 -1.21875 
z
M 28.421875 47.125 
Q 19.578125 47.125 14.328125 41.15625 
Q 9.078125 35.203125 9.078125 24.609375 
Q 9.078125 14.796875 14.203125 8.828125 
Q 19.34375 2.875 28.21875 2.875 
Q 37.25 2.875 42.125 8.734375 
Q 47.015625 14.59375 47.015625 25 
Q 47.015625 35.6875 42.15625 41.40625 
Q 37.3125 47.125 28.421875 47.125 
z
" id="SegoeUI-Light-6f"/>
      <path d="M 42 0 
L 42 29.109375 
Q 42 47.125 29 47.125 
Q 21.78125 47.125 17.140625 41.828125 
Q 12.5 36.53125 12.5 28.71875 
L 12.5 0 
L 8.015625 0 
L 8.015625 50 
L 12.5 50 
L 12.5 40.921875 
L 12.703125 40.921875 
Q 18.171875 51.21875 29.78125 51.21875 
Q 37.890625 51.21875 42.1875 45.828125 
Q 46.484375 40.4375 46.484375 30.421875 
L 46.484375 0 
z
" id="SegoeUI-Light-6e"/>
     </defs>
     <g transform="translate(20.47 169.823438)rotate(-90)scale(0.12 -0.12)">
      <use xlink:href="#SegoeUI-Light-42"/>
      <use x="54.394531" xlink:href="#SegoeUI-Light-75"/>
      <use x="107.910156" xlink:href="#SegoeUI-Light-74"/>
      <use x="137.597656" xlink:href="#SegoeUI-Light-74"/>
      <use x="167.285156" xlink:href="#SegoeUI-Light-6f"/>
      <use x="223.388672" xlink:href="#SegoeUI-Light-6e"/>
      <use x="276.904297" xlink:href="#SegoeUI-Light-20"/>
      <use x="304.296875" xlink:href="#SegoeUI-Light-73"/>
      <use x="343.115234" xlink:href="#SegoeUI-Light-74"/>
      <use x="372.802734" xlink:href="#SegoeUI-Light-61"/>
      <use x="422.216797" xlink:href="#SegoeUI-Light-74"/>
      <use x="451.904297" xlink:href="#SegoeUI-Light-65"/>
     </g>
    </g>
   </g>
   <g id="LineCollection_1">
    <path clip-path="url(#p0d2ce37904)" d="M 95.550003 52.08 
L 95.550003 227.28 
" style="fill:none;stroke:#0000ff;stroke-width:1.5;"/>
    <path clip-path="url(#p0d2ce37904)" d="M 95.550003 227.28 
L 100.725266 227.28 
" style="fill:none;stroke:#ff0000;stroke-width:1.5;"/>
    <path clip-path="url(#p0d2ce37904)" d="M 100.725266 227.28 
L 100.725266 52.08 
" style="fill:none;stroke:#0000ff;stroke-width:1.5;"/>
    <path clip-path="url(#p0d2ce37904)" d="M 100.725266 52.08 
L 135.568024 52.08 
" style="fill:none;stroke:#00ff00;stroke-width:1.5;"/>
    <path clip-path="url(#p0d2ce37904)" d="M 135.568024 52.08 
L 135.568024 227.28 
" style="fill:none;stroke:#0000ff;stroke-width:1.5;"/>
    <path clip-path="url(#p0d2ce37904)" d="M 135.568024 227.28 
L 139.840622 227.28 
" style="fill:none;stroke:#ff0000;stroke-width:1.5;"/>
    <path clip-path="url(#p0d2ce37904)" d="M 139.840622 227.28 
L 139.840622 52.08 
" style="fill:none;stroke:#0000ff;stroke-width:1.5;"/>
    <path clip-path="url(#p0d2ce37904)" d="M 139.840622 52.08 
L 173.840897 52.08 
" style="fill:none;stroke:#00ff00;stroke-width:1.5;"/>
    <path clip-path="url(#p0d2ce37904)" d="M 173.840897 52.08 
L 173.840897 227.28 
" style="fill:none;stroke:#0000ff;stroke-width:1.5;"/>
    <path clip-path="url(#p0d2ce37904)" d="M 173.840897 227.28 
L 177.150665 227.28 
" style="fill:none;stroke:#ff0000;stroke-width:1.5;"/>
    <path clip-path="url(#p0d2ce37904)" d="M 177.150665 227.28 
L 177.150665 52.08 
" style="fill:none;stroke:#0000ff;stroke-width:1.5;"/>
    <path clip-path="url(#p0d2ce37904)" d="M 177.150665 52.08 
L 216.506744 52.08 
" style="fill:none;stroke:#00ff00;stroke-width:1.5;"/>
    <path clip-path="url(#p0d2ce37904)" d="M 216.506744 52.08 
L 216.506744 227.28 
" style="fill:none;stroke:#0000ff;stroke-width:1.5;"/>
    <path clip-path="url(#p0d2ce37904)" d="M 216.506744 227.28 
L 222.404129 227.28 
" style="fill:none;stroke:#ff0000;stroke-width:1.5;"/>
    <path clip-path="url(#p0d2ce37904)" d="M 222.404129 227.28 
L 222.404129 52.08 
" style="fill:none;stroke:#0000ff;stroke-width:1.5;"/>
    <path clip-path="url(#p0d2ce37904)" d="M 222.404129 52.08 
L 246.896362 52.08 
" style="fill:none;stroke:#00ff00;stroke-width:1.5;"/>
    <path clip-path="url(#p0d2ce37904)" d="M 246.896362 52.08 
L 246.896362 227.28 
" style="fill:none;stroke:#0000ff;stroke-width:1.5;"/>
    <path clip-path="url(#p0d2ce37904)" d="M 246.896362 227.28 
L 252.372513 227.28 
" style="fill:none;stroke:#ff0000;stroke-width:1.5;"/>
    <path clip-path="url(#p0d2ce37904)" d="M 252.372513 227.28 
L 252.372513 52.08 
" style="fill:none;stroke:#0000ff;stroke-width:1.5;"/>
    <path clip-path="url(#p0d2ce37904)" d="M 252.372513 52.08 
L 277.466537 52.08 
" style="fill:none;stroke:#00ff00;stroke-width:1.5;"/>
    <path clip-path="url(#p0d2ce37904)" d="M 277.466537 52.08 
L 277.466537 227.28 
" style="fill:none;stroke:#0000ff;stroke-width:1.5;"/>
    <path clip-path="url(#p0d2ce37904)" d="M 277.466537 227.28 
L 282.280731 227.28 
" style="fill:none;stroke:#ff0000;stroke-width:1.5;"/>
    <path clip-path="url(#p0d2ce37904)" d="M 282.280731 227.28 
L 282.280731 52.08 
" style="fill:none;stroke:#0000ff;stroke-width:1.5;"/>
    <path clip-path="url(#p0d2ce37904)" d="M 282.280731 52.08 
L 337.042236 52.08 
" style="fill:none;stroke:#00ff00;stroke-width:1.5;"/>
    <path clip-path="url(#p0d2ce37904)" d="M 337.042236 52.08 
L 337.042236 227.28 
" style="fill:none;stroke:#0000ff;stroke-width:1.5;"/>
    <path clip-path="url(#p0d2ce37904)" d="M 337.042236 227.28 
L 343.240524 227.28 
" style="fill:none;stroke:#ff0000;stroke-width:1.5;"/>
    <path clip-path="url(#p0d2ce37904)" d="M 343.240524 227.28 
L 343.240524 52.08 
" style="fill:none;stroke:#0000ff;stroke-width:1.5;"/>
    <path clip-path="url(#p0d2ce37904)" d="M 343.240524 52.08 
L 372.727493 52.08 
" style="fill:none;stroke:#00ff00;stroke-width:1.5;"/>
    <path clip-path="url(#p0d2ce37904)" d="M 372.727493 52.08 
L 372.727493 227.28 
" style="fill:none;stroke:#0000ff;stroke-width:1.5;"/>
    <path clip-path="url(#p0d2ce37904)" d="M 372.727493 227.28 
L 377.962921 227.28 
" style="fill:none;stroke:#ff0000;stroke-width:1.5;"/>
    <path clip-path="url(#p0d2ce37904)" d="M 377.962921 227.28 
L 377.962921 52.08 
" style="fill:none;stroke:#0000ff;stroke-width:1.5;"/>
    <path clip-path="url(#p0d2ce37904)" d="M 377.962921 52.08 
L 421.050003 52.08 
" style="fill:none;stroke:#00ff00;stroke-width:1.5;"/>
    <path clip-path="url(#p0d2ce37904)" d="M 421.050003 52.08 
L 421.050003 227.28 
" style="fill:none;stroke:#0000ff;stroke-width:1.5;"/>
   </g>
   <g id="patch_3">
    <path d="M 63 244.8 
L 63 34.56 
" style="fill:none;stroke:#000000;stroke-linecap:square;stroke-linejoin:miter;stroke-width:0.8;"/>
   </g>
   <g id="patch_4">
    <path d="M 453.6 244.8 
L 453.6 34.56 
" style="fill:none;stroke:#000000;stroke-linecap:square;stroke-linejoin:miter;stroke-width:0.8;"/>
   </g>
   <g id="patch_5">
    <path d="M 63 244.8 
L 453.600006 244.8 
" style="fill:none;stroke:#000000;stroke-linecap:square;stroke-linejoin:miter;stroke-width:0.8;"/>
   </g>
   <g id="patch_6">
    <path d="M 63 34.56 
L 453.600006 34.56 
" style="fill:none;stroke:#000000;stroke-linecap:square;stroke-linejoin:miter;stroke-width:0.8;"/>
   </g>
   <g id="patch_7">
    <path d="M 95.550003 227.28 
Q 95.550003 227.28 95.550003 227.28 
L 95.550003 227.28 
Q 95.550003 227.28 95.550003 227.28 
Q 95.550003 227.28 95.550003 227.28 
L 95.550003 227.28 
Q 95.550003 227.28 95.550003 227.28 
L 95.550003 227.28 
z
" style="stroke:#000000;stroke-linecap:round;"/>
   </g>
   <g id="text_12">
    <!-- $x_0$ -->
    <defs>
     <path d="M 60.015625 54.6875 
L 34.90625 27.875 
L 50.296875 0 
L 39.984375 0 
L 28.421875 21.6875 
L 8.296875 0 
L -2.59375 0 
L 24.3125 28.8125 
L 10.015625 54.6875 
L 20.3125 54.6875 
L 30.8125 34.90625 
L 49.125 54.6875 
z
" id="DejaVuSans-Oblique-78"/>
     <path d="M 31.78125 66.40625 
Q 24.171875 66.40625 20.328125 58.90625 
Q 16.5 51.421875 16.5 36.375 
Q 16.5 21.390625 20.328125 13.890625 
Q 24.171875 6.390625 31.78125 6.390625 
Q 39.453125 6.390625 43.28125 13.890625 
Q 47.125 21.390625 47.125 36.375 
Q 47.125 51.421875 43.28125 58.90625 
Q 39.453125 66.40625 31.78125 66.40625 
z
M 31.78125 74.21875 
Q 44.046875 74.21875 50.515625 64.515625 
Q 56.984375 54.828125 56.984375 36.375 
Q 56.984375 17.96875 50.515625 8.265625 
Q 44.046875 -1.421875 31.78125 -1.421875 
Q 19.53125 -1.421875 13.0625 8.265625 
Q 6.59375 17.96875 6.59375 36.375 
Q 6.59375 54.828125 13.0625 64.515625 
Q 19.53125 74.21875 31.78125 74.21875 
z
" id="DejaVuSans-30"/>
    </defs>
    <g transform="translate(84.850003 234.878438)scale(0.1 -0.1)">
     <use transform="translate(0 0.3125)" xlink:href="#DejaVuSans-Oblique-78"/>
     <use transform="translate(59.179688 -16.09375)scale(0.7)" xlink:href="#DejaVuSans-30"/>
    </g>
   </g>
   <g id="patch_8">
    <path d="M 100.725266 227.28 
Q 100.725266 227.28 100.725266 227.28 
L 100.725266 227.28 
Q 100.725266 227.28 100.725266 227.28 
Q 100.725266 227.28 100.725266 227.28 
L 100.725266 227.28 
Q 100.725266 227.28 100.725266 227.28 
L 100.725266 227.28 
z
" style="stroke:#000000;stroke-linecap:round;"/>
   </g>
   <g id="text_13">
    <!-- $y_0$ -->
    <defs>
     <path d="M 24.8125 -5.078125 
Q 18.5625 -15.578125 14.625 -18.1875 
Q 10.6875 -20.796875 4.59375 -20.796875 
L -2.484375 -20.796875 
L -0.984375 -13.28125 
L 4.203125 -13.28125 
Q 7.953125 -13.28125 10.59375 -11.234375 
Q 13.234375 -9.1875 16.5 -3.21875 
L 19.28125 2 
L 7.171875 54.6875 
L 16.703125 54.6875 
L 25.78125 12.796875 
L 50.875 54.6875 
L 60.296875 54.6875 
z
" id="DejaVuSans-Oblique-79"/>
    </defs>
    <g transform="translate(100.725266 234.858125)scale(0.1 -0.1)">
     <use transform="translate(0 0.3125)" xlink:href="#DejaVuSans-Oblique-79"/>
     <use transform="translate(59.179688 -16.09375)scale(0.7)" xlink:href="#DejaVuSans-30"/>
    </g>
   </g>
   <g id="text_14">
    <!-- $x_1$ -->
    <defs>
     <path d="M 12.40625 8.296875 
L 28.515625 8.296875 
L 28.515625 63.921875 
L 10.984375 60.40625 
L 10.984375 69.390625 
L 28.421875 72.90625 
L 38.28125 72.90625 
L 38.28125 8.296875 
L 54.390625 8.296875 
L 54.390625 0 
L 12.40625 0 
z
" id="DejaVuSans-31"/>
    </defs>
    <g transform="translate(124.868024 234.878438)scale(0.1 -0.1)">
     <use transform="translate(0 0.3125)" xlink:href="#DejaVuSans-Oblique-78"/>
     <use transform="translate(59.179688 -16.09375)scale(0.7)" xlink:href="#DejaVuSans-31"/>
    </g>
   </g>
   <g id="patch_9">
    <path d="M 139.840622 227.28 
Q 139.840622 227.28 139.840622 227.28 
L 139.840622 227.28 
Q 139.840622 227.28 139.840622 227.28 
Q 139.840622 227.28 139.840622 227.28 
L 139.840622 227.28 
Q 139.840622 227.28 139.840622 227.28 
L 139.840622 227.28 
z
" style="stroke:#000000;stroke-linecap:round;"/>
   </g>
   <g id="text_15">
    <!-- $y_1$ -->
    <g transform="translate(139.840622 234.858125)scale(0.1 -0.1)">
     <use transform="translate(0 0.3125)" xlink:href="#DejaVuSans-Oblique-79"/>
     <use transform="translate(59.179688 -16.09375)scale(0.7)" xlink:href="#DejaVuSans-31"/>
    </g>
   </g>
   <g id="text_16">
    <!-- $x_2$ -->
    <defs>
     <path d="M 19.1875 8.296875 
L 53.609375 8.296875 
L 53.609375 0 
L 7.328125 0 
L 7.328125 8.296875 
Q 12.9375 14.109375 22.625 23.890625 
Q 32.328125 33.6875 34.8125 36.53125 
Q 39.546875 41.84375 41.421875 45.53125 
Q 43.3125 49.21875 43.3125 52.78125 
Q 43.3125 58.59375 39.234375 62.25 
Q 35.15625 65.921875 28.609375 65.921875 
Q 23.96875 65.921875 18.8125 64.3125 
Q 13.671875 62.703125 7.8125 59.421875 
L 7.8125 69.390625 
Q 13.765625 71.78125 18.9375 73 
Q 24.125 74.21875 28.421875 74.21875 
Q 39.75 74.21875 46.484375 68.546875 
Q 53.21875 62.890625 53.21875 53.421875 
Q 53.21875 48.921875 51.53125 44.890625 
Q 49.859375 40.875 45.40625 35.40625 
Q 44.1875 33.984375 37.640625 27.21875 
Q 31.109375 20.453125 19.1875 8.296875 
z
" id="DejaVuSans-32"/>
    </defs>
    <g transform="translate(163.140897 234.878438)scale(0.1 -0.1)">
     <use transform="translate(0 0.3125)" xlink:href="#DejaVuSans-Oblique-78"/>
     <use transform="translate(59.179688 -16.09375)scale(0.7)" xlink:href="#DejaVuSans-32"/>
    </g>
   </g>
   <g id="patch_10">
    <path d="M 177.150665 227.28 
Q 177.150665 227.28 177.150665 227.28 
L 177.150665 227.28 
Q 177.150665 227.28 177.150665 227.28 
Q 177.150665 227.28 177.150665 227.28 
L 177.150665 227.28 
Q 177.150665 227.28 177.150665 227.28 
L 177.150665 227.28 
z
" style="stroke:#000000;stroke-linecap:round;"/>
   </g>
   <g id="text_17">
    <!-- $y_2$ -->
    <g transform="translate(177.150665 234.858125)scale(0.1 -0.1)">
     <use transform="translate(0 0.3125)" xlink:href="#DejaVuSans-Oblique-79"/>
     <use transform="translate(59.179688 -16.09375)scale(0.7)" xlink:href="#DejaVuSans-32"/>
    </g>
   </g>
   <g id="text_18">
    <!-- $x_3$ -->
    <defs>
     <path d="M 40.578125 39.3125 
Q 47.65625 37.796875 51.625 33 
Q 55.609375 28.21875 55.609375 21.1875 
Q 55.609375 10.40625 48.1875 4.484375 
Q 40.765625 -1.421875 27.09375 -1.421875 
Q 22.515625 -1.421875 17.65625 -0.515625 
Q 12.796875 0.390625 7.625 2.203125 
L 7.625 11.71875 
Q 11.71875 9.328125 16.59375 8.109375 
Q 21.484375 6.890625 26.8125 6.890625 
Q 36.078125 6.890625 40.9375 10.546875 
Q 45.796875 14.203125 45.796875 21.1875 
Q 45.796875 27.640625 41.28125 31.265625 
Q 36.765625 34.90625 28.71875 34.90625 
L 20.21875 34.90625 
L 20.21875 43.015625 
L 29.109375 43.015625 
Q 36.375 43.015625 40.234375 45.921875 
Q 44.09375 48.828125 44.09375 54.296875 
Q 44.09375 59.90625 40.109375 62.90625 
Q 36.140625 65.921875 28.71875 65.921875 
Q 24.65625 65.921875 20.015625 65.03125 
Q 15.375 64.15625 9.8125 62.3125 
L 9.8125 71.09375 
Q 15.4375 72.65625 20.34375 73.4375 
Q 25.25 74.21875 29.59375 74.21875 
Q 40.828125 74.21875 47.359375 69.109375 
Q 53.90625 64.015625 53.90625 55.328125 
Q 53.90625 49.265625 50.4375 45.09375 
Q 46.96875 40.921875 40.578125 39.3125 
z
" id="DejaVuSans-33"/>
    </defs>
    <g transform="translate(205.806744 234.878438)scale(0.1 -0.1)">
     <use transform="translate(0 0.3125)" xlink:href="#DejaVuSans-Oblique-78"/>
     <use transform="translate(59.179688 -16.09375)scale(0.7)" xlink:href="#DejaVuSans-33"/>
    </g>
   </g>
   <g id="patch_11">
    <path d="M 222.404129 227.28 
Q 222.404129 227.28 222.404129 227.28 
L 222.404129 227.28 
Q 222.404129 227.28 222.404129 227.28 
Q 222.404129 227.28 222.404129 227.28 
L 222.404129 227.28 
Q 222.404129 227.28 222.404129 227.28 
L 222.404129 227.28 
z
" style="stroke:#000000;stroke-linecap:round;"/>
   </g>
   <g id="text_19">
    <!-- $y_3$ -->
    <g transform="translate(222.404129 234.858125)scale(0.1 -0.1)">
     <use transform="translate(0 0.3125)" xlink:href="#DejaVuSans-Oblique-79"/>
     <use transform="translate(59.179688 -16.09375)scale(0.7)" xlink:href="#DejaVuSans-33"/>
    </g>
   </g>
   <g id="text_20">
    <!-- $x_4$ -->
    <defs>
     <path d="M 37.796875 64.3125 
L 12.890625 25.390625 
L 37.796875 25.390625 
z
M 35.203125 72.90625 
L 47.609375 72.90625 
L 47.609375 25.390625 
L 58.015625 25.390625 
L 58.015625 17.1875 
L 47.609375 17.1875 
L 47.609375 0 
L 37.796875 0 
L 37.796875 17.1875 
L 4.890625 17.1875 
L 4.890625 26.703125 
z
" id="DejaVuSans-34"/>
    </defs>
    <g transform="translate(236.196362 234.878438)scale(0.1 -0.1)">
     <use transform="translate(0 0.3125)" xlink:href="#DejaVuSans-Oblique-78"/>
     <use transform="translate(59.179688 -16.09375)scale(0.7)" xlink:href="#DejaVuSans-34"/>
    </g>
   </g>
   <g id="patch_12">
    <path d="M 252.372513 227.28 
Q 252.372513 227.28 252.372513 227.28 
L 252.372513 227.28 
Q 252.372513 227.28 252.372513 227.28 
Q 252.372513 227.28 252.372513 227.28 
L 252.372513 227.28 
Q 252.372513 227.28 252.372513 227.28 
L 252.372513 227.28 
z
" style="stroke:#000000;stroke-linecap:round;"/>
   </g>
   <g id="text_21">
    <!-- $y_4$ -->
    <g transform="translate(252.372513 234.858125)scale(0.1 -0.1)">
     <use transform="translate(0 0.3125)" xlink:href="#DejaVuSans-Oblique-79"/>
     <use transform="translate(59.179688 -16.09375)scale(0.7)" xlink:href="#DejaVuSans-34"/>
    </g>
   </g>
   <g id="text_22">
    <!-- $x_5$ -->
    <defs>
     <path d="M 10.796875 72.90625 
L 49.515625 72.90625 
L 49.515625 64.59375 
L 19.828125 64.59375 
L 19.828125 46.734375 
Q 21.96875 47.46875 24.109375 47.828125 
Q 26.265625 48.1875 28.421875 48.1875 
Q 40.625 48.1875 47.75 41.5 
Q 54.890625 34.8125 54.890625 23.390625 
Q 54.890625 11.625 47.5625 5.09375 
Q 40.234375 -1.421875 26.90625 -1.421875 
Q 22.3125 -1.421875 17.546875 -0.640625 
Q 12.796875 0.140625 7.71875 1.703125 
L 7.71875 11.625 
Q 12.109375 9.234375 16.796875 8.0625 
Q 21.484375 6.890625 26.703125 6.890625 
Q 35.15625 6.890625 40.078125 11.328125 
Q 45.015625 15.765625 45.015625 23.390625 
Q 45.015625 31 40.078125 35.4375 
Q 35.15625 39.890625 26.703125 39.890625 
Q 22.75 39.890625 18.8125 39.015625 
Q 14.890625 38.140625 10.796875 36.28125 
z
" id="DejaVuSans-35"/>
    </defs>
    <g transform="translate(266.766537 234.878438)scale(0.1 -0.1)">
     <use transform="translate(0 0.3125)" xlink:href="#DejaVuSans-Oblique-78"/>
     <use transform="translate(59.179688 -16.09375)scale(0.7)" xlink:href="#DejaVuSans-35"/>
    </g>
   </g>
   <g id="patch_13">
    <path d="M 282.280731 227.28 
Q 282.280731 227.28 282.280731 227.28 
L 282.280731 227.28 
Q 282.280731 227.28 282.280731 227.28 
Q 282.280731 227.28 282.280731 227.28 
L 282.280731 227.28 
Q 282.280731 227.28 282.280731 227.28 
L 282.280731 227.28 
z
" style="stroke:#000000;stroke-linecap:round;"/>
   </g>
   <g id="text_23">
    <!-- $y_5$ -->
    <g transform="translate(282.280731 234.858125)scale(0.1 -0.1)">
     <use transform="translate(0 0.3125)" xlink:href="#DejaVuSans-Oblique-79"/>
     <use transform="translate(59.179688 -16.09375)scale(0.7)" xlink:href="#DejaVuSans-35"/>
    </g>
   </g>
   <g id="text_24">
    <!-- $x_6$ -->
    <defs>
     <path d="M 33.015625 40.375 
Q 26.375 40.375 22.484375 35.828125 
Q 18.609375 31.296875 18.609375 23.390625 
Q 18.609375 15.53125 22.484375 10.953125 
Q 26.375 6.390625 33.015625 6.390625 
Q 39.65625 6.390625 43.53125 10.953125 
Q 47.40625 15.53125 47.40625 23.390625 
Q 47.40625 31.296875 43.53125 35.828125 
Q 39.65625 40.375 33.015625 40.375 
z
M 52.59375 71.296875 
L 52.59375 62.3125 
Q 48.875 64.0625 45.09375 64.984375 
Q 41.3125 65.921875 37.59375 65.921875 
Q 27.828125 65.921875 22.671875 59.328125 
Q 17.53125 52.734375 16.796875 39.40625 
Q 19.671875 43.65625 24.015625 45.921875 
Q 28.375 48.1875 33.59375 48.1875 
Q 44.578125 48.1875 50.953125 41.515625 
Q 57.328125 34.859375 57.328125 23.390625 
Q 57.328125 12.15625 50.6875 5.359375 
Q 44.046875 -1.421875 33.015625 -1.421875 
Q 20.359375 -1.421875 13.671875 8.265625 
Q 6.984375 17.96875 6.984375 36.375 
Q 6.984375 53.65625 15.1875 63.9375 
Q 23.390625 74.21875 37.203125 74.21875 
Q 40.921875 74.21875 44.703125 73.484375 
Q 48.484375 72.75 52.59375 71.296875 
z
" id="DejaVuSans-36"/>
    </defs>
    <g transform="translate(326.342236 234.878438)scale(0.1 -0.1)">
     <use transform="translate(0 0.3125)" xlink:href="#DejaVuSans-Oblique-78"/>
     <use transform="translate(59.179688 -16.09375)scale(0.7)" xlink:href="#DejaVuSans-36"/>
    </g>
   </g>
   <g id="patch_14">
    <path d="M 343.240524 227.28 
Q 343.240524 227.28 343.240524 227.28 
L 343.240524 227.28 
Q 343.240524 227.28 343.240524 227.28 
Q 343.240524 227.28 343.240524 227.28 
L 343.240524 227.28 
Q 343.240524 227.28 343.240524 227.28 
L 343.240524 227.28 
z
" style="stroke:#000000;stroke-linecap:round;"/>
   </g>
   <g id="text_25">
    <!-- $y_6$ -->
    <g transform="translate(343.240524 234.858125)scale(0.1 -0.1)">
     <use transform="translate(0 0.3125)" xlink:href="#DejaVuSans-Oblique-79"/>
     <use transform="translate(59.179688 -16.09375)scale(0.7)" xlink:href="#DejaVuSans-36"/>
    </g>
   </g>
   <g id="text_26">
    <!-- $x_7$ -->
    <defs>
     <path d="M 8.203125 72.90625 
L 55.078125 72.90625 
L 55.078125 68.703125 
L 28.609375 0 
L 18.3125 0 
L 43.21875 64.59375 
L 8.203125 64.59375 
z
" id="DejaVuSans-37"/>
    </defs>
    <g transform="translate(362.027493 234.878438)scale(0.1 -0.1)">
     <use transform="translate(0 0.3125)" xlink:href="#DejaVuSans-Oblique-78"/>
     <use transform="translate(59.179688 -16.09375)scale(0.7)" xlink:href="#DejaVuSans-37"/>
    </g>
   </g>
   <g id="patch_15">
    <path d="M 377.962921 227.28 
Q 377.962921 227.28 377.962921 227.28 
L 377.962921 227.28 
Q 377.962921 227.28 377.962921 227.28 
Q 377.962921 227.28 377.962921 227.28 
L 377.962921 227.28 
Q 377.962921 227.28 377.962921 227.28 
L 377.962921 227.28 
z
" style="stroke:#000000;stroke-linecap:round;"/>
   </g>
   <g id="text_27">
    <!-- $y_7$ -->
    <g transform="translate(377.962921 234.858125)scale(0.1 -0.1)">
     <use transform="translate(0 0.3125)" xlink:href="#DejaVuSans-Oblique-79"/>
     <use transform="translate(59.179688 -16.09375)scale(0.7)" xlink:href="#DejaVuSans-37"/>
    </g>
   </g>
   <g id="text_28">
    <!-- $x_8$ -->
    <defs>
     <path d="M 31.78125 34.625 
Q 24.75 34.625 20.71875 30.859375 
Q 16.703125 27.09375 16.703125 20.515625 
Q 16.703125 13.921875 20.71875 10.15625 
Q 24.75 6.390625 31.78125 6.390625 
Q 38.8125 6.390625 42.859375 10.171875 
Q 46.921875 13.96875 46.921875 20.515625 
Q 46.921875 27.09375 42.890625 30.859375 
Q 38.875 34.625 31.78125 34.625 
z
M 21.921875 38.8125 
Q 15.578125 40.375 12.03125 44.71875 
Q 8.5 49.078125 8.5 55.328125 
Q 8.5 64.0625 14.71875 69.140625 
Q 20.953125 74.21875 31.78125 74.21875 
Q 42.671875 74.21875 48.875 69.140625 
Q 55.078125 64.0625 55.078125 55.328125 
Q 55.078125 49.078125 51.53125 44.71875 
Q 48 40.375 41.703125 38.8125 
Q 48.828125 37.15625 52.796875 32.3125 
Q 56.78125 27.484375 56.78125 20.515625 
Q 56.78125 9.90625 50.3125 4.234375 
Q 43.84375 -1.421875 31.78125 -1.421875 
Q 19.734375 -1.421875 13.25 4.234375 
Q 6.78125 9.90625 6.78125 20.515625 
Q 6.78125 27.484375 10.78125 32.3125 
Q 14.796875 37.15625 21.921875 38.8125 
z
M 18.3125 54.390625 
Q 18.3125 48.734375 21.84375 45.5625 
Q 25.390625 42.390625 31.78125 42.390625 
Q 38.140625 42.390625 41.71875 45.5625 
Q 45.3125 48.734375 45.3125 54.390625 
Q 45.3125 60.0625 41.71875 63.234375 
Q 38.140625 66.40625 31.78125 66.40625 
Q 25.390625 66.40625 21.84375 63.234375 
Q 18.3125 60.0625 18.3125 54.390625 
z
" id="DejaVuSans-38"/>
    </defs>
    <g transform="translate(410.350003 234.878438)scale(0.1 -0.1)">
     <use transform="translate(0 0.3125)" xlink:href="#DejaVuSans-Oblique-78"/>
     <use transform="translate(59.179688 -16.09375)scale(0.7)" xlink:href="#DejaVuSans-38"/>
    </g>
   </g>
   <g id="text_29">
    <!-- Dwell &amp; Flight time chart -->
    <defs>
     <path d="M 8.015625 0 
L 8.015625 70.015625 
L 32.8125 70.015625 
Q 70.125 70.015625 70.125 35.890625 
Q 70.125 19.53125 59.9375 9.765625 
Q 49.75 0 32.8125 0 
z
M 23.78125 57.171875 
L 23.78125 12.796875 
L 31.59375 12.796875 
Q 41.84375 12.796875 47.671875 18.9375 
Q 53.515625 25.09375 53.515625 35.6875 
Q 53.515625 45.703125 47.71875 51.4375 
Q 41.9375 57.171875 31.5 57.171875 
z
" id="SegoeUI-Bold-44"/>
     <path d="M 78.90625 50 
L 64.5 0 
L 48.296875 0 
L 40.921875 29.296875 
Q 40.1875 32.234375 40.09375 35.6875 
L 39.796875 35.6875 
Q 39.453125 31.890625 38.8125 29.5 
L 30.90625 0 
L 14.890625 0 
L 0.78125 50 
L 16.5 50 
L 23.390625 17.390625 
Q 23.875 15.09375 24.125 11.8125 
L 24.421875 11.8125 
Q 24.65625 15.234375 25.296875 17.578125 
L 33.890625 50 
L 48.578125 50 
L 56.296875 17.390625 
Q 56.59375 16.15625 56.984375 11.71875 
L 57.328125 11.71875 
Q 57.5625 14.546875 58.109375 17.390625 
L 64.59375 50 
z
" id="SegoeUI-Bold-77"/>
     <path d="M 51.421875 20.609375 
L 18.796875 20.609375 
Q 19.578125 9.71875 32.515625 9.71875 
Q 40.765625 9.71875 47.015625 13.625 
L 47.015625 2.484375 
Q 40.09375 -1.21875 29 -1.21875 
Q 16.890625 -1.21875 10.203125 5.484375 
Q 3.515625 12.203125 3.515625 24.21875 
Q 3.515625 36.671875 10.734375 43.9375 
Q 17.96875 51.21875 28.515625 51.21875 
Q 39.453125 51.21875 45.4375 44.71875 
Q 51.421875 38.234375 51.421875 27.09375 
z
M 37.109375 30.078125 
Q 37.109375 40.828125 28.421875 40.828125 
Q 24.703125 40.828125 21.984375 37.75 
Q 19.28125 34.671875 18.703125 30.078125 
z
" id="SegoeUI-Bold-65"/>
     <path d="M 21.921875 0 
L 6.5 0 
L 6.5 74.03125 
L 21.921875 74.03125 
z
" id="SegoeUI-Bold-6c"/>
     <path id="SegoeUI-Bold-20"/>
     <path d="M 72.21875 -1.125 
Q 69.625 -1.125 67.296875 -0.4375 
Q 64.984375 0.25 62.90625 1.421875 
Q 60.84375 2.59375 58.984375 4.171875 
Q 57.125 5.765625 55.46875 7.5625 
Q 53.65625 6.109375 51.109375 4.546875 
Q 48.578125 2.984375 45.375 1.734375 
Q 42.1875 0.484375 38.328125 -0.3125 
Q 34.46875 -1.125 30.078125 -1.125 
Q 24.359375 -1.125 19.5 0.234375 
Q 14.65625 1.609375 11.140625 4.3125 
Q 7.625 7.03125 5.640625 11.03125 
Q 3.65625 15.046875 3.65625 20.3125 
Q 3.65625 24.46875 5.140625 27.703125 
Q 6.640625 30.953125 9.03125 33.390625 
Q 11.421875 35.84375 14.453125 37.59375 
Q 17.484375 39.359375 20.609375 40.53125 
Q 19.09375 41.703125 17.546875 43.234375 
Q 16.015625 44.78125 14.796875 46.609375 
Q 13.578125 48.4375 12.8125 50.578125 
Q 12.0625 52.734375 12.0625 55.125 
Q 12.0625 58.984375 13.625 61.953125 
Q 15.1875 64.9375 17.984375 66.984375 
Q 20.796875 69.046875 24.703125 70.109375 
Q 28.609375 71.1875 33.296875 71.1875 
Q 37.796875 71.1875 41.53125 70.0625 
Q 45.265625 68.953125 47.953125 66.9375 
Q 50.640625 64.9375 52.09375 62.125 
Q 53.5625 59.328125 53.5625 55.953125 
Q 53.5625 50.53125 50.3125 46.546875 
Q 47.078125 42.578125 41.15625 40.09375 
Q 43.5 39.015625 45.640625 37.640625 
Q 47.796875 36.28125 49.84375 34.515625 
Q 51.90625 32.765625 53.859375 30.546875 
Q 55.8125 28.328125 57.71875 25.4375 
Q 61.71875 30.46875 63.453125 36.15625 
Q 65.1875 41.84375 65.1875 48 
Q 65.1875 49.859375 64.96875 51.5625 
Q 64.75 53.265625 64.265625 54.734375 
L 77.390625 54.734375 
Q 77.9375 53.171875 78.171875 51.703125 
Q 78.421875 50.25 78.421875 48.25 
Q 78.421875 43.5 77.421875 39 
Q 76.421875 34.515625 74.609375 30.40625 
Q 72.796875 26.3125 70.234375 22.65625 
Q 67.671875 19 64.59375 15.828125 
Q 67 13.328125 69.53125 11.984375 
Q 72.078125 10.640625 74.3125 10.640625 
Q 76.65625 10.640625 79.09375 11.15625 
Q 81.546875 11.671875 83.34375 12.59375 
L 83.34375 0.984375 
Q 80.671875 -0.09375 78.046875 -0.609375 
Q 75.4375 -1.125 72.21875 -1.125 
z
M 30.859375 10.546875 
Q 33.734375 10.546875 36.265625 11.109375 
Q 38.8125 11.671875 41.0625 12.59375 
Q 43.3125 13.53125 45.234375 14.75 
Q 47.171875 15.96875 48.78125 17.28125 
Q 46.296875 21.1875 43.84375 23.890625 
Q 41.40625 26.609375 39.015625 28.53125 
Q 36.625 30.46875 34.25 31.78125 
Q 31.890625 33.109375 29.5 34.1875 
Q 27.484375 33.203125 25.65625 32 
Q 23.828125 30.8125 22.40625 29.21875 
Q 21 27.640625 20.140625 25.609375 
Q 19.28125 23.578125 19.28125 20.953125 
Q 19.28125 18.609375 20.109375 16.703125 
Q 20.953125 14.796875 22.484375 13.421875 
Q 24.03125 12.0625 26.140625 11.296875 
Q 28.265625 10.546875 30.859375 10.546875 
z
M 39.890625 54.890625 
Q 39.890625 56.296875 39.34375 57.421875 
Q 38.8125 58.546875 37.890625 59.296875 
Q 36.96875 60.0625 35.796875 60.46875 
Q 34.625 60.890625 33.296875 60.890625 
Q 31.6875 60.890625 30.34375 60.390625 
Q 29 59.90625 28 59.078125 
Q 27 58.25 26.453125 57.09375 
Q 25.921875 55.953125 25.921875 54.640625 
Q 25.921875 51.90625 27.625 49.609375 
Q 29.34375 47.3125 31.890625 45.90625 
Q 33.5 46.484375 34.9375 47.265625 
Q 36.375 48.046875 37.46875 49.125 
Q 38.578125 50.203125 39.234375 51.609375 
Q 39.890625 53.03125 39.890625 54.890625 
z
" id="SegoeUI-Bold-26"/>
     <path d="M 48.484375 57.171875 
L 23.78125 57.171875 
L 23.78125 39.984375 
L 46.484375 39.984375 
L 46.484375 27.203125 
L 23.78125 27.203125 
L 23.78125 0 
L 8.015625 0 
L 8.015625 70.015625 
L 48.484375 70.015625 
z
" id="SegoeUI-Bold-46"/>
     <path d="M 14.3125 57.90625 
Q 10.40625 57.90625 7.90625 60.21875 
Q 5.421875 62.546875 5.421875 65.921875 
Q 5.421875 69.390625 7.90625 71.578125 
Q 10.40625 73.78125 14.3125 73.78125 
Q 18.265625 73.78125 20.71875 71.578125 
Q 23.1875 69.390625 23.1875 65.921875 
Q 23.1875 62.40625 20.71875 60.15625 
Q 18.265625 57.90625 14.3125 57.90625 
z
M 21.921875 0 
L 6.5 0 
L 6.5 50 
L 21.921875 50 
z
" id="SegoeUI-Bold-69"/>
     <path d="M 55.515625 5.71875 
Q 55.515625 -8.203125 47.453125 -15.84375 
Q 39.40625 -23.484375 24.125 -23.484375 
Q 14.015625 -23.484375 8.109375 -20.609375 
L 8.109375 -7.625 
Q 15.828125 -12.109375 23.6875 -12.109375 
Q 31.5 -12.109375 35.796875 -7.984375 
Q 40.09375 -3.859375 40.09375 3.21875 
L 40.09375 7.171875 
L 39.890625 7.171875 
Q 34.625 -1.21875 24.3125 -1.21875 
Q 14.75 -1.21875 9.125 5.515625 
Q 3.515625 12.25 3.515625 23.578125 
Q 3.515625 36.28125 9.765625 43.75 
Q 16.015625 51.21875 26.21875 51.21875 
Q 35.359375 51.21875 39.890625 44.1875 
L 40.09375 44.1875 
L 40.09375 50 
L 55.515625 50 
z
M 40.28125 24.03125 
L 40.28125 27.984375 
Q 40.28125 32.71875 37.46875 36.0625 
Q 34.671875 39.40625 30.171875 39.40625 
Q 25.046875 39.40625 22.109375 35.390625 
Q 19.1875 31.390625 19.1875 24.125 
Q 19.1875 17.875 21.96875 14.234375 
Q 24.75 10.59375 29.59375 10.59375 
Q 34.375 10.59375 37.328125 14.28125 
Q 40.28125 17.96875 40.28125 24.03125 
z
" id="SegoeUI-Bold-67"/>
     <path d="M 54.5 0 
L 39.109375 0 
L 39.109375 28.421875 
Q 39.109375 39.40625 31.109375 39.40625 
Q 27 39.40625 24.453125 36.328125 
Q 21.921875 33.25 21.921875 28.515625 
L 21.921875 0 
L 6.5 0 
L 6.5 74.03125 
L 21.921875 74.03125 
L 21.921875 42.578125 
L 22.125 42.578125 
Q 27.78125 51.21875 37.5 51.21875 
Q 54.5 51.21875 54.5 30.71875 
z
" id="SegoeUI-Bold-68"/>
     <path d="M 36.71875 0.59375 
Q 33.296875 -1.21875 26.421875 -1.21875 
Q 10.109375 -1.21875 10.109375 15.71875 
L 10.109375 38.625 
L 2 38.625 
L 2 50 
L 10.109375 50 
L 10.109375 60.796875 
L 25.484375 65.1875 
L 25.484375 50 
L 36.71875 50 
L 36.71875 38.625 
L 25.484375 38.625 
L 25.484375 18.40625 
Q 25.484375 10.59375 31.6875 10.59375 
Q 34.125 10.59375 36.71875 12.015625 
z
" id="SegoeUI-Bold-74"/>
     <path d="M 85.890625 0 
L 70.515625 0 
L 70.515625 28.515625 
Q 70.515625 39.40625 62.5 39.40625 
Q 58.6875 39.40625 56.296875 36.125 
Q 53.90625 32.859375 53.90625 27.984375 
L 53.90625 0 
L 38.484375 0 
L 38.484375 28.8125 
Q 38.484375 39.40625 30.609375 39.40625 
Q 26.65625 39.40625 24.28125 36.28125 
Q 21.921875 33.15625 21.921875 27.78125 
L 21.921875 0 
L 6.5 0 
L 6.5 50 
L 21.921875 50 
L 21.921875 42.1875 
L 22.125 42.1875 
Q 24.515625 46.1875 28.828125 48.703125 
Q 33.15625 51.21875 38.28125 51.21875 
Q 48.875 51.21875 52.78125 41.890625 
Q 58.5 51.21875 69.578125 51.21875 
Q 85.890625 51.21875 85.890625 31.109375 
z
" id="SegoeUI-Bold-6d"/>
     <path d="M 44.390625 1.8125 
Q 39.15625 -1.21875 29.296875 -1.21875 
Q 17.78125 -1.21875 10.640625 5.765625 
Q 3.515625 12.75 3.515625 23.78125 
Q 3.515625 36.53125 11.15625 43.875 
Q 18.796875 51.21875 31.59375 51.21875 
Q 40.4375 51.21875 44.390625 48.875 
L 44.390625 35.796875 
Q 39.546875 39.40625 33.59375 39.40625 
Q 26.953125 39.40625 23.0625 35.515625 
Q 19.1875 31.640625 19.1875 24.8125 
Q 19.1875 18.171875 22.890625 14.375 
Q 26.609375 10.59375 33.109375 10.59375 
Q 38.875 10.59375 44.390625 14.203125 
z
" id="SegoeUI-Bold-63"/>
     <path d="M 48.09375 0 
L 33.5 0 
L 33.5 7.171875 
L 33.296875 7.171875 
Q 28.265625 -1.21875 18.40625 -1.21875 
Q 11.140625 -1.21875 6.953125 2.90625 
Q 2.78125 7.03125 2.78125 13.921875 
Q 2.78125 28.46875 20.015625 30.71875 
L 33.59375 32.515625 
Q 33.59375 40.71875 24.703125 40.71875 
Q 15.765625 40.71875 7.71875 35.40625 
L 7.71875 47.015625 
Q 10.9375 48.6875 16.53125 49.953125 
Q 22.125 51.21875 26.703125 51.21875 
Q 48.09375 51.21875 48.09375 29.890625 
z
M 33.59375 20.3125 
L 33.59375 23.6875 
L 24.515625 22.515625 
Q 17 21.53125 17 15.71875 
Q 17 13.09375 18.828125 11.40625 
Q 20.65625 9.71875 23.78125 9.71875 
Q 28.125 9.71875 30.859375 12.71875 
Q 33.59375 15.71875 33.59375 20.3125 
z
" id="SegoeUI-Bold-61"/>
     <path d="M 39.109375 36.078125 
Q 36.328125 37.59375 32.625 37.59375 
Q 27.59375 37.59375 24.75 33.90625 
Q 21.921875 30.21875 21.921875 23.875 
L 21.921875 0 
L 6.5 0 
L 6.5 50 
L 21.921875 50 
L 21.921875 40.71875 
L 22.125 40.71875 
Q 25.78125 50.875 35.296875 50.875 
Q 37.75 50.875 39.109375 50.296875 
z
" id="SegoeUI-Bold-72"/>
    </defs>
    <g transform="translate(199.125781 20.1504)scale(0.1 -0.1)">
     <use xlink:href="#SegoeUI-Bold-44"/>
     <use x="73.730469" xlink:href="#SegoeUI-Bold-77"/>
     <use x="153.466797" xlink:href="#SegoeUI-Bold-65"/>
     <use x="207.568359" xlink:href="#SegoeUI-Bold-6c"/>
     <use x="235.986328" xlink:href="#SegoeUI-Bold-6c"/>
     <use x="264.404297" xlink:href="#SegoeUI-Bold-20"/>
     <use x="291.992188" xlink:href="#SegoeUI-Bold-26"/>
     <use x="376.953125" xlink:href="#SegoeUI-Bold-20"/>
     <use x="404.541016" xlink:href="#SegoeUI-Bold-46"/>
     <use x="456.542969" xlink:href="#SegoeUI-Bold-6c"/>
     <use x="484.960938" xlink:href="#SegoeUI-Bold-69"/>
     <use x="513.378906" xlink:href="#SegoeUI-Bold-67"/>
     <use x="575.292969" xlink:href="#SegoeUI-Bold-68"/>
     <use x="635.498047" xlink:href="#SegoeUI-Bold-74"/>
     <use x="674.414062" xlink:href="#SegoeUI-Bold-20"/>
     <use x="702.001953" xlink:href="#SegoeUI-Bold-74"/>
     <use x="740.917969" xlink:href="#SegoeUI-Bold-69"/>
     <use x="769.335938" xlink:href="#SegoeUI-Bold-6d"/>
     <use x="860.9375" xlink:href="#SegoeUI-Bold-65"/>
     <use x="915.039062" xlink:href="#SegoeUI-Bold-20"/>
     <use x="942.626953" xlink:href="#SegoeUI-Bold-63"/>
     <use x="990.625" xlink:href="#SegoeUI-Bold-68"/>
     <use x="1050.830078" xlink:href="#SegoeUI-Bold-61"/>
     <use x="1104.638672" xlink:href="#SegoeUI-Bold-72"/>
     <use x="1144.464844" xlink:href="#SegoeUI-Bold-74"/>
    </g>
   </g>
  </g>
 </g>
 <defs>
  <clipPath id="p0d2ce37904">
   <rect height="210.24" width="390.6" x="63" y="34.56"/>
  </clipPath>
 </defs>
</svg>
