<?xml version="1.0" encoding="utf-8"?>
<!-- Generator: Adobe Illustrator 19.2.0, SVG Export Plug-In . SVG Version: 6.00 Build 0)  -->
<svg version="1.1" id="Layer_1" xmlns="http://www.w3.org/2000/svg" xmlns:xlink="http://www.w3.org/1999/xlink" x="0px" y="0px"
	 viewBox="0 0 460 345" style="enable-background:new 0 0 460 345;" xml:space="preserve">
<style type="text/css">
	.st0{fill:none;}
	.st1{fill:#1B8ECE;}
	.st2{fill:#1B8ECE;stroke:#1B8ECE;}
	.st3{fill:url(#hd14bc082be);stroke:#000000;stroke-miterlimit:10;}
	.st4{fill:#FFFFFF;}
	.st5{opacity:0.5;clip-path:url(#SVGID_2_);fill:none;stroke:#1B8ECE;enable-background:new    ;}
	.st6{stroke:#000000;stroke-width:0.8;stroke-linejoin:round;}
	.st7{opacity:0.5;fill:url(#hd14bc082be);}
	.st8{clip-path:url(#SVGID_4_);fill:none;stroke:#165EA9;stroke-width:2;stroke-linecap:square;stroke-linejoin:round;}
	.st9{fill:none;stroke:#000000;stroke-width:0.8;stroke-linecap:square;}
	.st10{opacity:0.5;fill:#FFFFFF;stroke:#CCCCCC;enable-background:new    ;}
	.st11{fill:none;stroke:#165EA9;stroke-width:1.5;stroke-linecap:square;stroke-linejoin:round;}
	.st12{fill:#165EA9;stroke:#165EA9;stroke-linejoin:round;}
	.st13{fill:none;stroke:#165EA9;stroke-width:2;stroke-linecap:square;stroke-linejoin:round;}
	.st14{opacity:0.5;fill:none;stroke:#1B8ECE;enable-background:new    ;}
	.st15{clip-path:url(#SVGID_6_);fill:none;stroke:#165EA9;stroke-width:1.5;stroke-linecap:square;stroke-linejoin:round;}
	.st16{clip-path:url(#SVGID_8_);}
</style>
<pattern  y="345" width="72" height="72" patternUnits="userSpaceOnUse" id="hd14bc082be" viewBox="36.4 -108.4 72 72" style="overflow:visible;">
	<g>
		<rect x="36.4" y="-108.4" class="st0" width="72" height="72"/>
		<rect x="36.4" y="-109.4" class="st1" width="73" height="73"/>
		<path class="st2" d="M0.4-72.4l72-72 M6.4-66.4l72-72 M12.4-60.4l72-72 M18.4-54.4l72-72 M24.4-48.4l72-72 M30.4-42.4l72-72
			 M36.4-36.4l72-72 M42.4-30.4l72-72 M48.4-24.4l72-72 M54.4-18.4l72-72 M60.4-12.4l72-72 M66.4-6.4l72-72 M72.4-0.4l72-72"/>
	</g>
</pattern>
<rect x="101.9" y="118" class="st3" width="86.1" height="43.8"/>
<g id="figure_1">
	<g id="patch_1">
		<path class="st4" d="M0,345.6h460.8V0H0V345.6z"/>
	</g>
	<g id="axes_1">
		<g id="patch_2">
			<path class="st4" d="M57.6,293.8h357.1V41.5H57.6V293.8z"/>
		</g>
		<g id="patch_3">
			<g>
				<defs>
					<rect id="SVGID_1_" x="57.6" y="41.5" width="357.1" height="252.3"/>
				</defs>
				<clipPath id="SVGID_2_">
					<use xlink:href="#SVGID_1_"  style="overflow:visible;"/>
				</clipPath>
				<path class="st5" d="M57.6,221h407.5V95.1H57.6V221z"/>
			</g>
		</g>
		<g id="matplotlib.axis_1">
			<g id="xtick_1">
				<g id="line2d_1">
					<g>
						<g>
							<path id="m166d8f06f7" class="st6" d="M57.6,293.8v3.5"/>
						</g>
					</g>
				</g>
				<g id="text_1">
					<g transform="translate(54.41875 308.358437)scale(0.1 -0.1)">
						<g>
							<path id="DejaVuSans-30" d="M31.8,66.4c-5.1,0-8.9-2.5-11.5-7.5c-2.6-5-3.8-12.5-3.8-22.5c0-10,1.3-17.5,3.8-22.5
								c2.6-5,6.4-7.5,11.5-7.5c5.1,0,8.9,2.5,11.5,7.5c2.6,5,3.8,12.5,3.8,22.5c0,10-1.3,17.5-3.8,22.5
								C40.7,63.9,36.9,66.4,31.8,66.4z M31.8,74.2c8.2,0,14.4-3.2,18.7-9.7c4.3-6.5,6.5-15.8,6.5-28.1c0-12.3-2.2-21.6-6.5-28.1
								C46.2,1.8,40-1.4,31.8-1.4c-8.2,0-14.4,3.2-18.7,9.7c-4.3,6.5-6.5,15.8-6.5,28.1c0,12.3,2.2,21.7,6.5,28.1
								C17.4,71,23.6,74.2,31.8,74.2z"/>
						</g>
					</g>
				</g>
			</g>
			<g id="xtick_2">
				<g id="line2d_2">
					<g>
						<g>
							<path id="m166d8f06f7_1_" class="st6" d="M103.4,293.8v3.5"/>
						</g>
					</g>
				</g>
				<g id="text_2">
					<g transform="translate(97.022115 308.358437)scale(0.1 -0.1)">
						<g>
							<path id="DejaVuSans-31" d="M12.4,8.3h16.1v55.6L11,60.4v9l17.4,3.5h9.9V8.3h16.1V0h-42V8.3z"/>
						</g>
						<g>
							<path id="DejaVuSans-30_1_" d="M95.4,66.4c-5.1,0-8.9-2.5-11.5-7.5c-2.6-5-3.8-12.5-3.8-22.5c0-10,1.3-17.5,3.8-22.5
								c2.6-5,6.4-7.5,11.5-7.5c5.1,0,8.9,2.5,11.5,7.5c2.6,5,3.8,12.5,3.8,22.5c0,10-1.3,17.5-3.8,22.5
								C104.4,63.9,100.5,66.4,95.4,66.4z M95.4,74.2c8.2,0,14.4-3.2,18.7-9.7c4.3-6.5,6.5-15.8,6.5-28.1c0-12.3-2.2-21.6-6.5-28.1
								c-4.3-6.5-10.6-9.7-18.7-9.7c-8.2,0-14.4,3.2-18.7,9.7c-4.3,6.5-6.5,15.8-6.5,28.1c0,12.3,2.2,21.7,6.5,28.1
								C81,71,87.2,74.2,95.4,74.2z"/>
						</g>
					</g>
				</g>
			</g>
			<g id="xtick_3">
				<g id="line2d_3">
					<g>
						<g>
							<path id="m166d8f06f7_2_" class="st6" d="M149.2,293.8v3.5"/>
						</g>
					</g>
				</g>
				<g id="text_3">
					<g transform="translate(142.806731 308.358437)scale(0.1 -0.1)">
						<g>
							<path id="DejaVuSans-32" d="M19.2,8.3h34.4V0H7.3v8.3c3.7,3.9,8.8,9.1,15.3,15.6c6.5,6.5,10.5,10.7,12.2,12.6
								c3.2,3.5,5.4,6.5,6.6,9c1.3,2.5,1.9,4.9,1.9,7.2c0,3.9-1.4,7-4.1,9.5c-2.7,2.4-6.3,3.7-10.6,3.7c-3.1,0-6.4-0.5-9.8-1.6
								c-3.4-1.1-7.1-2.7-11-4.9v10c4,1.6,7.7,2.8,11.1,3.6c3.5,0.8,6.6,1.2,9.5,1.2c7.6,0,13.6-1.9,18.1-5.7
								c4.5-3.8,6.7-8.8,6.7-15.1c0-3-0.6-5.8-1.7-8.5c-1.1-2.7-3.2-5.8-6.1-9.5c-0.8-0.9-3.4-3.7-7.8-8.2
								C33.3,22.7,27.1,16.4,19.2,8.3z"/>
						</g>
						<g>
							<path id="DejaVuSans-30_2_" d="M95.4,66.4c-5.1,0-8.9-2.5-11.5-7.5c-2.6-5-3.8-12.5-3.8-22.5c0-10,1.3-17.5,3.8-22.5
								c2.6-5,6.4-7.5,11.5-7.5c5.1,0,8.9,2.5,11.5,7.5c2.6,5,3.8,12.5,3.8,22.5c0,10-1.3,17.5-3.8,22.5
								C104.4,63.9,100.5,66.4,95.4,66.4z M95.4,74.2c8.2,0,14.4-3.2,18.7-9.7c4.3-6.5,6.5-15.8,6.5-28.1c0-12.3-2.2-21.6-6.5-28.1
								c-4.3-6.5-10.6-9.7-18.7-9.7c-8.2,0-14.4,3.2-18.7,9.7c-4.3,6.5-6.5,15.8-6.5,28.1c0,12.3,2.2,21.7,6.5,28.1
								C81,71,87.2,74.2,95.4,74.2z"/>
						</g>
					</g>
				</g>
			</g>
			<g id="xtick_4">
				<g id="line2d_4">
					<g>
						<g>
							<path id="m166d8f06f7_3_" class="st6" d="M195,293.8v3.5"/>
						</g>
					</g>
				</g>
				<g id="text_4">
					<g transform="translate(188.591346 308.358437)scale(0.1 -0.1)">
						<g>
							<path id="DejaVuSans-33" d="M40.6,39.3c4.7-1,8.4-3.1,11-6.3c2.7-3.2,4-7.1,4-11.8c0-7.2-2.5-12.8-7.4-16.7
								c-4.9-3.9-12-5.9-21.1-5.9c-3.1,0-6.2,0.3-9.4,0.9S11.1,1,7.6,2.2v9.5c2.7-1.6,5.7-2.8,9-3.6c3.3-0.8,6.7-1.2,10.2-1.2
								c6.2,0,10.9,1.2,14.1,3.7s4.9,6,4.9,10.6c0,4.3-1.5,7.7-4.5,10.1c-3,2.4-7.2,3.6-12.6,3.6h-8.5V43h8.9c4.8,0,8.6,1,11.1,2.9
								s3.9,4.7,3.9,8.4c0,3.7-1.3,6.6-4,8.6c-2.6,2-6.4,3-11.4,3c-2.7,0-5.6-0.3-8.7-0.9c-3.1-0.6-6.5-1.5-10.2-2.7v8.8
								c3.8,1,7.3,1.8,10.5,2.3s6.4,0.8,9.2,0.8c7.5,0,13.4-1.7,17.8-5.1c4.4-3.4,6.5-8,6.5-13.8c0-4-1.2-7.5-3.5-10.2
								S44.8,40.4,40.6,39.3z"/>
						</g>
						<g>
							<path id="DejaVuSans-30_3_" d="M95.4,66.4c-5.1,0-8.9-2.5-11.5-7.5c-2.6-5-3.8-12.5-3.8-22.5c0-10,1.3-17.5,3.8-22.5
								c2.6-5,6.4-7.5,11.5-7.5c5.1,0,8.9,2.5,11.5,7.5c2.6,5,3.8,12.5,3.8,22.5c0,10-1.3,17.5-3.8,22.5
								C104.4,63.9,100.5,66.4,95.4,66.4z M95.4,74.2c8.2,0,14.4-3.2,18.7-9.7c4.3-6.5,6.5-15.8,6.5-28.1c0-12.3-2.2-21.6-6.5-28.1
								c-4.3-6.5-10.6-9.7-18.7-9.7c-8.2,0-14.4,3.2-18.7,9.7c-4.3,6.5-6.5,15.8-6.5,28.1c0,12.3,2.2,21.7,6.5,28.1
								C81,71,87.2,74.2,95.4,74.2z"/>
						</g>
					</g>
				</g>
			</g>
			<g id="xtick_5">
				<g id="line2d_5">
					<g>
						<g>
							<path id="m166d8f06f7_4_" class="st6" d="M240.7,293.8v3.5"/>
						</g>
					</g>
				</g>
				<g id="text_5">
					<g transform="translate(234.375962 308.358437)scale(0.1 -0.1)">
						<g>
							<path id="DejaVuSans-34" d="M37.8,64.3L12.9,25.4h24.9V64.3z M35.2,72.9h12.4V25.4H58v-8.2H47.6V0h-9.8v17.2H4.9v9.5
								L35.2,72.9z"/>
						</g>
						<g>
							<path id="DejaVuSans-30_4_" d="M95.4,66.4c-5.1,0-8.9-2.5-11.5-7.5c-2.6-5-3.8-12.5-3.8-22.5c0-10,1.3-17.5,3.8-22.5
								c2.6-5,6.4-7.5,11.5-7.5c5.1,0,8.9,2.5,11.5,7.5c2.6,5,3.8,12.5,3.8,22.5c0,10-1.3,17.5-3.8,22.5
								C104.4,63.9,100.5,66.4,95.4,66.4z M95.4,74.2c8.2,0,14.4-3.2,18.7-9.7c4.3-6.5,6.5-15.8,6.5-28.1c0-12.3-2.2-21.6-6.5-28.1
								c-4.3-6.5-10.6-9.7-18.7-9.7c-8.2,0-14.4,3.2-18.7,9.7c-4.3,6.5-6.5,15.8-6.5,28.1c0,12.3,2.2,21.7,6.5,28.1
								C81,71,87.2,74.2,95.4,74.2z"/>
						</g>
					</g>
				</g>
			</g>
			<g id="xtick_6">
				<g id="line2d_6">
					<g>
						<g>
							<path id="m166d8f06f7_5_" class="st6" d="M286.5,293.8v3.5"/>
						</g>
					</g>
				</g>
				<g id="text_6">
					<g transform="translate(280.160577 308.358437)scale(0.1 -0.1)">
						<g>
							<path id="DejaVuSans-35" d="M10.8,72.9h38.7v-8.3H19.8V46.7c1.4,0.5,2.9,0.9,4.3,1.1c1.4,0.2,2.9,0.4,4.3,0.4
								c8.1,0,14.6-2.2,19.3-6.7c4.8-4.5,7.1-10.5,7.1-18.1c0-7.8-2.4-13.9-7.3-18.3c-4.9-4.3-11.8-6.5-20.7-6.5
								c-3.1,0-6.2,0.3-9.4,0.8c-3.2,0.5-6.4,1.3-9.8,2.3v9.9c2.9-1.6,6-2.8,9.1-3.6s6.4-1.2,9.9-1.2c5.6,0,10.1,1.5,13.4,4.4
								c3.3,3,4.9,7,4.9,12.1c0,5.1-1.6,9.1-4.9,12c-3.3,3-7.7,4.5-13.4,4.5c-2.6,0-5.3-0.3-7.9-0.9c-2.6-0.6-5.3-1.5-8-2.7V72.9z"
								/>
						</g>
						<g>
							<path id="DejaVuSans-30_5_" d="M95.4,66.4c-5.1,0-8.9-2.5-11.5-7.5c-2.6-5-3.8-12.5-3.8-22.5c0-10,1.3-17.5,3.8-22.5
								c2.6-5,6.4-7.5,11.5-7.5c5.1,0,8.9,2.5,11.5,7.5c2.6,5,3.8,12.5,3.8,22.5c0,10-1.3,17.5-3.8,22.5
								C104.4,63.9,100.5,66.4,95.4,66.4z M95.4,74.2c8.2,0,14.4-3.2,18.7-9.7c4.3-6.5,6.5-15.8,6.5-28.1c0-12.3-2.2-21.6-6.5-28.1
								c-4.3-6.5-10.6-9.7-18.7-9.7c-8.2,0-14.4,3.2-18.7,9.7c-4.3,6.5-6.5,15.8-6.5,28.1c0,12.3,2.2,21.7,6.5,28.1
								C81,71,87.2,74.2,95.4,74.2z"/>
						</g>
					</g>
				</g>
			</g>
			<g id="xtick_7">
				<g id="line2d_7">
					<g>
						<g>
							<path id="m166d8f06f7_6_" class="st6" d="M332.3,293.8v3.5"/>
						</g>
					</g>
				</g>
				<g id="text_7">
					<g transform="translate(325.945192 308.358437)scale(0.1 -0.1)">
						<g>
							<path id="DejaVuSans-36" d="M33,40.4c-4.4,0-7.9-1.5-10.5-4.5c-2.6-3-3.9-7.2-3.9-12.4c0-5.2,1.3-9.4,3.9-12.4
								c2.6-3,6.1-4.6,10.5-4.6s7.9,1.5,10.5,4.6c2.6,3.1,3.9,7.2,3.9,12.4c0,5.3-1.3,9.4-3.9,12.4C40.9,38.9,37.4,40.4,33,40.4z
								 M52.6,71.3v-9c-2.5,1.2-5,2.1-7.5,2.7c-2.5,0.6-5,0.9-7.5,0.9c-6.5,0-11.5-2.2-14.9-6.6c-3.4-4.4-5.4-11-5.9-19.9
								c1.9,2.8,4.3,5,7.2,6.5c2.9,1.5,6.1,2.3,9.6,2.3c7.3,0,13.1-2.2,17.4-6.7c4.2-4.4,6.4-10.5,6.4-18.1c0-7.5-2.2-13.5-6.6-18
								C46.3,0.8,40.4-1.4,33-1.4c-8.4,0-14.9,3.2-19.3,9.7C9.2,14.7,7,24.1,7,36.4c0,11.5,2.7,20.7,8.2,27.6s12.8,10.3,22,10.3
								c2.5,0,5-0.2,7.5-0.7S49.9,72.3,52.6,71.3z"/>
						</g>
						<g>
							<path id="DejaVuSans-30_6_" d="M95.4,66.4c-5.1,0-8.9-2.5-11.5-7.5c-2.6-5-3.8-12.5-3.8-22.5c0-10,1.3-17.5,3.8-22.5
								c2.6-5,6.4-7.5,11.5-7.5c5.1,0,8.9,2.5,11.5,7.5c2.6,5,3.8,12.5,3.8,22.5c0,10-1.3,17.5-3.8,22.5
								C104.4,63.9,100.5,66.4,95.4,66.4z M95.4,74.2c8.2,0,14.4-3.2,18.7-9.7c4.3-6.5,6.5-15.8,6.5-28.1c0-12.3-2.2-21.6-6.5-28.1
								c-4.3-6.5-10.6-9.7-18.7-9.7c-8.2,0-14.4,3.2-18.7,9.7c-4.3,6.5-6.5,15.8-6.5,28.1c0,12.3,2.2,21.7,6.5,28.1
								C81,71,87.2,74.2,95.4,74.2z"/>
						</g>
					</g>
				</g>
			</g>
			<g id="xtick_8">
				<g id="line2d_8">
					<g>
						<g>
							<path id="m166d8f06f7_7_" class="st6" d="M378.1,293.8v3.5"/>
						</g>
					</g>
				</g>
				<g id="text_8">
					<g transform="translate(371.729808 308.358437)scale(0.1 -0.1)">
						<g>
							<path id="DejaVuSans-37" d="M8.2,72.9h46.9v-4.2L28.6,0H18.3l24.9,64.6h-35V72.9z"/>
						</g>
						<g>
							<path id="DejaVuSans-30_7_" d="M95.4,66.4c-5.1,0-8.9-2.5-11.5-7.5c-2.6-5-3.8-12.5-3.8-22.5c0-10,1.3-17.5,3.8-22.5
								c2.6-5,6.4-7.5,11.5-7.5c5.1,0,8.9,2.5,11.5,7.5c2.6,5,3.8,12.5,3.8,22.5c0,10-1.3,17.5-3.8,22.5
								C104.4,63.9,100.5,66.4,95.4,66.4z M95.4,74.2c8.2,0,14.4-3.2,18.7-9.7c4.3-6.5,6.5-15.8,6.5-28.1c0-12.3-2.2-21.6-6.5-28.1
								c-4.3-6.5-10.6-9.7-18.7-9.7c-8.2,0-14.4,3.2-18.7,9.7c-4.3,6.5-6.5,15.8-6.5,28.1c0,12.3,2.2,21.7,6.5,28.1
								C81,71,87.2,74.2,95.4,74.2z"/>
						</g>
					</g>
				</g>
			</g>
			<g id="text_9">
				<g transform="translate(212.155312 321.84125)scale(0.1 -0.1)">
					<g>
						<path id="SegoeUI-Light-50" d="M13.8,28.1V0H9v70h16.9c7.2,0,12.7-1.7,16.5-5c3.8-3.3,5.7-8.2,5.7-14.6c0-6.5-2.1-11.9-6.4-16
							c-4.2-4.2-10.2-6.3-17.8-6.3H13.8z M13.8,65.6V32.5h10c6.3,0,11.1,1.5,14.4,4.5c3.3,3,4.9,7.3,4.9,12.8
							c0,10.5-6,15.8-18.1,15.8H13.8z"/>
					</g>
					<g>
						<path id="SegoeUI-Light-72" d="M86,45.3c-1.5,1.1-3.3,1.6-5.3,1.6c-3.9,0-7.2-2-9.9-6.1c-2.7-4.1-4-9.8-4-17.3V0h-4.4v50h4.4
							V38.9H67c1.1,3.8,3,6.8,5.4,8.9c2.5,2.1,5.3,3.2,8.6,3.2c1.9,0,3.5-0.3,5-0.9V45.3z"/>
					</g>
					<g>
						<path id="SegoeUI-Light-65" d="M96.4,24.8c0-6.9,1.6-12.3,4.8-16.1c3.2-3.9,7.5-5.8,13.1-5.8c5.6,0,11.1,2.1,16.4,6.2V4.3
							c-5.2-3.7-11-5.5-17.3-5.5c-6.4,0-11.7,2.3-15.6,6.9c-4,4.6-6,11.2-6,19.6c0,7.3,2.1,13.4,6.2,18.4c4.2,5,9.6,7.5,16.2,7.5
							c6.2,0,11-2.2,14.3-6.5c3.3-4.4,5-10.3,5-17.9v-2H96.4z M128.8,28.9c-0.2,5.8-1.6,10.2-4.2,13.4c-2.6,3.2-6.1,4.8-10.6,4.8
							c-4.7,0-8.6-1.6-11.6-4.7c-3.1-3.1-5-7.6-5.7-13.5H128.8z"/>
					</g>
					<g>
						<path id="SegoeUI-Light-73" d="M143.3,2.2v5.4c1.7-1.5,3.7-2.6,6.1-3.5c2.4-0.8,4.5-1.3,6.3-1.3c7.8,0,11.8,3.2,11.8,9.6
							c0,2.2-0.9,4.1-2.6,5.7c-1.7,1.6-4.5,3.2-8.4,4.8c-4.8,2.1-8.2,4.2-10.1,6.5s-2.9,4.9-2.9,8.1c0,4.1,1.6,7.4,4.7,9.9
							c3.1,2.5,7,3.8,11.5,3.8c4.3,0,8-0.9,11-2.6v-5.1c-3.7,2.4-7.5,3.6-11.5,3.6c-3.3,0-5.9-0.9-8-2.6c-2-1.7-3-3.9-3-6.7
							c0-2.4,0.6-4.3,1.9-5.8c1.3-1.5,4.1-3.2,8.4-5.1c5.2-2.3,8.8-4.5,10.7-6.5c2-2,2.9-4.7,2.9-8c0-4-1.5-7.3-4.5-9.8
							c-3-2.6-7.1-3.9-12.3-3.9C150.5-1.2,146.5-0.1,143.3,2.2z"/>
					</g>
					<g>
						<path id="SegoeUI-Light-73_1_" d="M182.1,2.2v5.4c1.7-1.5,3.7-2.6,6.1-3.5c2.4-0.8,4.5-1.3,6.3-1.3c7.8,0,11.8,3.2,11.8,9.6
							c0,2.2-0.9,4.1-2.6,5.7c-1.7,1.6-4.5,3.2-8.4,4.8c-4.8,2.1-8.2,4.2-10.1,6.5s-2.9,4.9-2.9,8.1c0,4.1,1.6,7.4,4.7,9.9
							c3.1,2.5,7,3.8,11.5,3.8c4.3,0,8-0.9,11-2.6v-5.1c-3.7,2.4-7.5,3.6-11.5,3.6c-3.3,0-5.9-0.9-8-2.6c-2-1.7-3-3.9-3-6.7
							c0-2.4,0.6-4.3,1.9-5.8c1.3-1.5,4.1-3.2,8.4-5.1c5.2-2.3,8.8-4.5,10.7-6.5c2-2,2.9-4.7,2.9-8c0-4-1.5-7.3-4.5-9.8
							c-3-2.6-7.1-3.9-12.3-3.9C189.3-1.2,185.3-0.1,182.1,2.2z"/>
					</g>
					<g>
						<path id="SegoeUI-Light-20" d="M215.5,0"/>
					</g>
					<g>
						<path id="SegoeUI-Light-63" d="M283.3,2.2c-3.7-2.3-8.1-3.4-13.3-3.4c-6.8,0-12.3,2.3-16.5,7c-4.2,4.7-6.2,10.8-6.2,18.3
							c0,7.9,2.3,14.4,7,19.5s10.7,7.6,18.1,7.6c3.8,0,7.5-0.8,11.1-2.3v-5.1c-3.6,2.2-7.5,3.3-11.8,3.3c-5.9,0-10.6-2.1-14.3-6.3
							c-3.6-4.2-5.5-9.7-5.5-16.4c0-6.5,1.7-11.7,5-15.6c3.3-3.9,7.8-5.9,13.2-5.9c5,0,9.4,1.3,13.1,4V2.2z"/>
					</g>
					<g>
						<path id="SegoeUI-Light-6f" d="M315.4-1.2c-7.3,0-13.1,2.4-17.3,7.2s-6.4,11-6.4,18.7c0,8.3,2.2,14.8,6.7,19.5
							c4.4,4.7,10.3,7,17.6,7c7.1,0,12.8-2.3,16.9-7c4.1-4.7,6.2-11.1,6.2-19.3c0-7.8-2.1-14.1-6.3-18.9
							C328.4,1.2,322.7-1.2,315.4-1.2z M315.7,47.1c-5.9,0-10.6-2-14.1-6c-3.5-4-5.2-9.5-5.2-16.5c0-6.5,1.7-11.8,5.1-15.8
							c3.4-4,8.1-6,14-6c6,0,10.7,2,13.9,5.9c3.3,3.9,4.9,9.3,4.9,16.3c0,7.1-1.6,12.6-4.9,16.4C326.2,45.2,321.6,47.1,315.7,47.1z"
							/>
					</g>
					<g>
						<path id="SegoeUI-Light-75" d="M384.4,0v9.1h-0.2c-3.5-6.9-8.9-10.3-16.1-10.3c-11.8,0-17.7,7.4-17.7,22.3V50h4.5V22.2
							c0-6.8,1.1-11.7,3.3-14.8c2.2-3.1,5.7-4.6,10.5-4.6c4.7,0,8.4,1.7,11.3,5.1c2.9,3.4,4.3,8,4.3,13.7V50h4.5V0H384.4z"/>
					</g>
					<g>
						<path id="SegoeUI-Light-6e" d="M438.9,0v29.1c0,12-4.3,18-13,18c-4.8,0-8.8-1.8-11.9-5.3s-4.6-7.9-4.6-13.1V0h-4.5v50h4.5
							v-9.1h0.2c3.6,6.9,9.3,10.3,17.1,10.3c5.4,0,9.5-1.8,12.4-5.4c2.9-3.6,4.3-8.7,4.3-15.4V0H438.9z"/>
					</g>
					<g>
						<path id="SegoeUI-Light-74" d="M478.2,0.7c-2.3-1.1-4.5-1.7-6.6-1.7c-7.4,0-11.1,4.4-11.1,13.3v33.6h-9V50h9v13
							c0.7,0.3,1.5,0.5,2.2,0.8c0.8,0.2,1.5,0.5,2.2,0.7V50h13.2v-4.1H465v-33c0-3.4,0.5-5.9,1.6-7.5c1.1-1.5,2.9-2.3,5.5-2.3
							c1.9,0,3.9,0.6,6,1.8V0.7z"/>
					</g>
				</g>
			</g>
		</g>
		<rect x="57.4" y="95.3" class="st7" width="357.3" height="125.6"/>
		<g id="matplotlib.axis_2">
			<g id="ytick_1">
				<g id="line2d_9">
					<g>
						<g>
							<path id="m9811bf5a48" class="st6" d="M57.6,261h-3.5"/>
						</g>
					</g>
				</g>
				<g id="text_10">
					<g transform="translate(44.2375 264.784283)scale(0.1 -0.1)">
						<g>
							<path id="DejaVuSans-30_8_" d="M31.8,66.4c-5.1,0-8.9-2.5-11.5-7.5c-2.6-5-3.8-12.5-3.8-22.5c0-10,1.3-17.5,3.8-22.5
								c2.6-5,6.4-7.5,11.5-7.5c5.1,0,8.9,2.5,11.5,7.5c2.6,5,3.8,12.5,3.8,22.5c0,10-1.3,17.5-3.8,22.5
								C40.7,63.9,36.9,66.4,31.8,66.4z M31.8,74.2c8.2,0,14.4-3.2,18.7-9.7c4.3-6.5,6.5-15.8,6.5-28.1c0-12.3-2.2-21.6-6.5-28.1
								C46.2,1.8,40-1.4,31.8-1.4c-8.2,0-14.4,3.2-18.7,9.7c-4.3,6.5-6.5,15.8-6.5,28.1c0,12.3,2.2,21.7,6.5,28.1
								C17.4,71,23.6,74.2,31.8,74.2z"/>
						</g>
					</g>
				</g>
			</g>
			<g id="ytick_2">
				<g id="line2d_10">
					<g>
						<g>
							<path id="m9811bf5a48_1_" class="st6" d="M57.6,213.1h-3.5"/>
						</g>
					</g>
				</g>
				<g id="text_11">
					<g transform="translate(31.5125 216.902712)scale(0.1 -0.1)">
						<g>
							<path id="DejaVuSans-32_1_" d="M19.2,8.3h34.4V0H7.3v8.3c3.7,3.9,8.8,9.1,15.3,15.6c6.5,6.5,10.5,10.7,12.2,12.6
								c3.2,3.5,5.4,6.5,6.6,9c1.3,2.5,1.9,4.9,1.9,7.2c0,3.9-1.4,7-4.1,9.5c-2.7,2.4-6.3,3.7-10.6,3.7c-3.1,0-6.4-0.5-9.8-1.6
								c-3.4-1.1-7.1-2.7-11-4.9v10c4,1.6,7.7,2.8,11.1,3.6c3.5,0.8,6.6,1.2,9.5,1.2c7.6,0,13.6-1.9,18.1-5.7
								c4.5-3.8,6.7-8.8,6.7-15.1c0-3-0.6-5.8-1.7-8.5c-1.1-2.7-3.2-5.8-6.1-9.5c-0.8-0.9-3.4-3.7-7.8-8.2
								C33.3,22.7,27.1,16.4,19.2,8.3z"/>
						</g>
						<g>
							<path id="DejaVuSans-30_9_" d="M95.4,66.4c-5.1,0-8.9-2.5-11.5-7.5c-2.6-5-3.8-12.5-3.8-22.5c0-10,1.3-17.5,3.8-22.5
								c2.6-5,6.4-7.5,11.5-7.5c5.1,0,8.9,2.5,11.5,7.5c2.6,5,3.8,12.5,3.8,22.5c0,10-1.3,17.5-3.8,22.5
								C104.4,63.9,100.5,66.4,95.4,66.4z M95.4,74.2c8.2,0,14.4-3.2,18.7-9.7c4.3-6.5,6.5-15.8,6.5-28.1c0-12.3-2.2-21.6-6.5-28.1
								c-4.3-6.5-10.6-9.7-18.7-9.7c-8.2,0-14.4,3.2-18.7,9.7c-4.3,6.5-6.5,15.8-6.5,28.1c0,12.3,2.2,21.7,6.5,28.1
								C81,71,87.2,74.2,95.4,74.2z"/>
						</g>
						<g>
							<path id="DejaVuSans-30_10_" d="M159,66.4c-5.1,0-8.9-2.5-11.5-7.5c-2.6-5-3.8-12.5-3.8-22.5c0-10,1.3-17.5,3.8-22.5
								c2.6-5,6.4-7.5,11.5-7.5c5.1,0,8.9,2.5,11.5,7.5c2.6,5,3.8,12.5,3.8,22.5c0,10-1.3,17.5-3.8,22.5
								C168,63.9,164.1,66.4,159,66.4z M159,74.2c8.2,0,14.4-3.2,18.7-9.7c4.3-6.5,6.5-15.8,6.5-28.1c0-12.3-2.2-21.6-6.5-28.1
								c-4.3-6.5-10.6-9.7-18.7-9.7c-8.2,0-14.4,3.2-18.7,9.7c-4.3,6.5-6.5,15.8-6.5,28.1c0,12.3,2.2,21.7,6.5,28.1
								C144.6,71,150.9,74.2,159,74.2z"/>
						</g>
					</g>
				</g>
			</g>
			<g id="ytick_3">
				<g id="line2d_11">
					<g>
						<g>
							<path id="m9811bf5a48_2_" class="st6" d="M57.6,165.2h-3.5"/>
						</g>
					</g>
				</g>
				<g id="text_12">
					<g transform="translate(31.5125 169.02114)scale(0.1 -0.1)">
						<g>
							<path id="DejaVuSans-34_1_" d="M37.8,64.3L12.9,25.4h24.9V64.3z M35.2,72.9h12.4V25.4H58v-8.2H47.6V0h-9.8v17.2H4.9v9.5
								L35.2,72.9z"/>
						</g>
						<g>
							<path id="DejaVuSans-30_11_" d="M95.4,66.4c-5.1,0-8.9-2.5-11.5-7.5c-2.6-5-3.8-12.5-3.8-22.5c0-10,1.3-17.5,3.8-22.5
								c2.6-5,6.4-7.5,11.5-7.5c5.1,0,8.9,2.5,11.5,7.5c2.6,5,3.8,12.5,3.8,22.5c0,10-1.3,17.5-3.8,22.5
								C104.4,63.9,100.5,66.4,95.4,66.4z M95.4,74.2c8.2,0,14.4-3.2,18.7-9.7c4.3-6.5,6.5-15.8,6.5-28.1c0-12.3-2.2-21.6-6.5-28.1
								c-4.3-6.5-10.6-9.7-18.7-9.7c-8.2,0-14.4,3.2-18.7,9.7c-4.3,6.5-6.5,15.8-6.5,28.1c0,12.3,2.2,21.7,6.5,28.1
								C81,71,87.2,74.2,95.4,74.2z"/>
						</g>
						<g>
							<path id="DejaVuSans-30_12_" d="M159,66.4c-5.1,0-8.9-2.5-11.5-7.5c-2.6-5-3.8-12.5-3.8-22.5c0-10,1.3-17.5,3.8-22.5
								c2.6-5,6.4-7.5,11.5-7.5c5.1,0,8.9,2.5,11.5,7.5c2.6,5,3.8,12.5,3.8,22.5c0,10-1.3,17.5-3.8,22.5
								C168,63.9,164.1,66.4,159,66.4z M159,74.2c8.2,0,14.4-3.2,18.7-9.7c4.3-6.5,6.5-15.8,6.5-28.1c0-12.3-2.2-21.6-6.5-28.1
								c-4.3-6.5-10.6-9.7-18.7-9.7c-8.2,0-14.4,3.2-18.7,9.7c-4.3,6.5-6.5,15.8-6.5,28.1c0,12.3,2.2,21.7,6.5,28.1
								C144.6,71,150.9,74.2,159,74.2z"/>
						</g>
					</g>
				</g>
			</g>
			<g id="ytick_4">
				<g id="line2d_12">
					<g>
						<g>
							<path id="m9811bf5a48_3_" class="st6" d="M57.6,117.3h-3.5"/>
						</g>
					</g>
				</g>
				<g id="text_13">
					<g transform="translate(31.5125 121.139569)scale(0.1 -0.1)">
						<g>
							<path id="DejaVuSans-36_1_" d="M33,40.4c-4.4,0-7.9-1.5-10.5-4.5c-2.6-3-3.9-7.2-3.9-12.4c0-5.2,1.3-9.4,3.9-12.4
								c2.6-3,6.1-4.6,10.5-4.6s7.9,1.5,10.5,4.6c2.6,3.1,3.9,7.2,3.9,12.4c0,5.3-1.3,9.4-3.9,12.4C40.9,38.9,37.4,40.4,33,40.4z
								 M52.6,71.3v-9c-2.5,1.2-5,2.1-7.5,2.7c-2.5,0.6-5,0.9-7.5,0.9c-6.5,0-11.5-2.2-14.9-6.6c-3.4-4.4-5.4-11-5.9-19.9
								c1.9,2.8,4.3,5,7.2,6.5c2.9,1.5,6.1,2.3,9.6,2.3c7.3,0,13.1-2.2,17.4-6.7c4.2-4.4,6.4-10.5,6.4-18.1c0-7.5-2.2-13.5-6.6-18
								C46.3,0.8,40.4-1.4,33-1.4c-8.4,0-14.9,3.2-19.3,9.7C9.2,14.7,7,24.1,7,36.4c0,11.5,2.7,20.7,8.2,27.6s12.8,10.3,22,10.3
								c2.5,0,5-0.2,7.5-0.7S49.9,72.3,52.6,71.3z"/>
						</g>
						<g>
							<path id="DejaVuSans-30_13_" d="M95.4,66.4c-5.1,0-8.9-2.5-11.5-7.5c-2.6-5-3.8-12.5-3.8-22.5c0-10,1.3-17.5,3.8-22.5
								c2.6-5,6.4-7.5,11.5-7.5c5.1,0,8.9,2.5,11.5,7.5c2.6,5,3.8,12.5,3.8,22.5c0,10-1.3,17.5-3.8,22.5
								C104.4,63.9,100.5,66.4,95.4,66.4z M95.4,74.2c8.2,0,14.4-3.2,18.7-9.7c4.3-6.5,6.5-15.8,6.5-28.1c0-12.3-2.2-21.6-6.5-28.1
								c-4.3-6.5-10.6-9.7-18.7-9.7c-8.2,0-14.4,3.2-18.7,9.7c-4.3,6.5-6.5,15.8-6.5,28.1c0,12.3,2.2,21.7,6.5,28.1
								C81,71,87.2,74.2,95.4,74.2z"/>
						</g>
						<g>
							<path id="DejaVuSans-30_14_" d="M159,66.4c-5.1,0-8.9-2.5-11.5-7.5c-2.6-5-3.8-12.5-3.8-22.5c0-10,1.3-17.5,3.8-22.5
								c2.6-5,6.4-7.5,11.5-7.5c5.1,0,8.9,2.5,11.5,7.5c2.6,5,3.8,12.5,3.8,22.5c0,10-1.3,17.5-3.8,22.5
								C168,63.9,164.1,66.4,159,66.4z M159,74.2c8.2,0,14.4-3.2,18.7-9.7c4.3-6.5,6.5-15.8,6.5-28.1c0-12.3-2.2-21.6-6.5-28.1
								c-4.3-6.5-10.6-9.7-18.7-9.7c-8.2,0-14.4,3.2-18.7,9.7c-4.3,6.5-6.5,15.8-6.5,28.1c0,12.3,2.2,21.7,6.5,28.1
								C144.6,71,150.9,74.2,159,74.2z"/>
						</g>
					</g>
				</g>
			</g>
			<g id="ytick_5">
				<g id="line2d_13">
					<g>
						<g>
							<path id="m9811bf5a48_4_" class="st6" d="M57.6,69.5h-3.5"/>
						</g>
					</g>
				</g>
				<g id="text_14">
					<g transform="translate(31.5125 73.257997)scale(0.1 -0.1)">
						<g>
							<path id="DejaVuSans-38" d="M31.8,34.6c-4.7,0-8.4-1.3-11.1-3.8c-2.7-2.5-4-6-4-10.3c0-4.4,1.3-7.8,4-10.4
								c2.7-2.5,6.4-3.8,11.1-3.8s8.4,1.3,11.1,3.8c2.7,2.5,4.1,6,4.1,10.3c0,4.4-1.3,7.8-4,10.3C40.2,33.4,36.5,34.6,31.8,34.6z
								 M21.9,38.8c-4.2,1-7.5,3-9.9,5.9c-2.4,2.9-3.5,6.4-3.5,10.6c0,5.8,2.1,10.4,6.2,13.8c4.2,3.4,9.8,5.1,17.1,5.1
								c7.3,0,13-1.7,17.1-5.1s6.2-8,6.2-13.8c0-4.2-1.2-7.7-3.5-10.6c-2.4-2.9-5.6-4.9-9.8-5.9c4.8-1.1,8.4-3.3,11.1-6.5
								c2.7-3.2,4-7.2,4-11.8c0-7.1-2.2-12.5-6.5-16.3C46,0.5,39.8-1.4,31.8-1.4c-8,0-14.2,1.9-18.5,5.7C8.9,8,6.8,13.4,6.8,20.5
								c0,4.6,1.3,8.6,4,11.8C13.5,35.5,17.2,37.7,21.9,38.8z M18.3,54.4c0-3.8,1.2-6.7,3.5-8.8c2.4-2.1,5.7-3.2,9.9-3.2
								c4.2,0,7.6,1.1,9.9,3.2c2.4,2.1,3.6,5.1,3.6,8.8c0,3.8-1.2,6.7-3.6,8.8c-2.4,2.1-5.7,3.2-9.9,3.2c-4.3,0-7.6-1.1-9.9-3.2
								C19.5,61.1,18.3,58.2,18.3,54.4z"/>
						</g>
						<g>
							<path id="DejaVuSans-30_15_" d="M95.4,66.4c-5.1,0-8.9-2.5-11.5-7.5c-2.6-5-3.8-12.5-3.8-22.5c0-10,1.3-17.5,3.8-22.5
								c2.6-5,6.4-7.5,11.5-7.5c5.1,0,8.9,2.5,11.5,7.5c2.6,5,3.8,12.5,3.8,22.5c0,10-1.3,17.5-3.8,22.5
								C104.4,63.9,100.5,66.4,95.4,66.4z M95.4,74.2c8.2,0,14.4-3.2,18.7-9.7c4.3-6.5,6.5-15.8,6.5-28.1c0-12.3-2.2-21.6-6.5-28.1
								c-4.3-6.5-10.6-9.7-18.7-9.7c-8.2,0-14.4,3.2-18.7,9.7c-4.3,6.5-6.5,15.8-6.5,28.1c0,12.3,2.2,21.7,6.5,28.1
								C81,71,87.2,74.2,95.4,74.2z"/>
						</g>
						<g>
							<path id="DejaVuSans-30_16_" d="M159,66.4c-5.1,0-8.9-2.5-11.5-7.5c-2.6-5-3.8-12.5-3.8-22.5c0-10,1.3-17.5,3.8-22.5
								c2.6-5,6.4-7.5,11.5-7.5c5.1,0,8.9,2.5,11.5,7.5c2.6,5,3.8,12.5,3.8,22.5c0,10-1.3,17.5-3.8,22.5
								C168,63.9,164.1,66.4,159,66.4z M159,74.2c8.2,0,14.4-3.2,18.7-9.7c4.3-6.5,6.5-15.8,6.5-28.1c0-12.3-2.2-21.6-6.5-28.1
								c-4.3-6.5-10.6-9.7-18.7-9.7c-8.2,0-14.4,3.2-18.7,9.7c-4.3,6.5-6.5,15.8-6.5,28.1c0,12.3,2.2,21.7,6.5,28.1
								C144.6,71,150.9,74.2,159,74.2z"/>
						</g>
					</g>
				</g>
			</g>
			<g id="text_15">
				<g transform="translate(25.164062 189.464437)rotate(-90)scale(0.1 -0.1)">
					<g>
						<path id="SegoeUI-Light-46" d="M13.8,65.6V37h25.9v-4.4H13.8V0H9v70h32.7v-4.4H13.8z"/>
					</g>
					<g>
						<path id="SegoeUI-Light-6c" d="M54.5,0v74H59V0H54.5z"/>
					</g>
					<g>
						<path id="SegoeUI-Light-69" d="M77.2,62.6c-1,0-1.8,0.4-2.6,1.1c-0.7,0.7-1.1,1.6-1.1,2.7c0,1.1,0.4,1.9,1.1,2.6
							c0.8,0.7,1.6,1,2.6,1c1,0,1.9-0.3,2.7-1c0.8-0.6,1.2-1.5,1.2-2.6c0-1-0.4-1.9-1.1-2.7C79.1,63,78.2,62.6,77.2,62.6z M75,0v50
							h4.5V0H75z"/>
					</g>
					<g>
						<path id="SegoeUI-Light-67" d="M135.5,3.7c0-9.4-2.1-16.3-6.2-20.7c-4.1-4.4-10.5-6.5-19.1-6.5c-4.8,0-9.8,1.3-14.9,3.8v4.7
							c5.3-2.9,10.3-4.4,15-4.4c13.8,0,20.7,7.3,20.7,21.9V9h-0.2c-3.9-6.8-9.9-10.2-18-10.2c-6.2,0-11.2,2.2-15.1,6.7
							c-3.9,4.5-5.8,10.7-5.8,18.7c0,8,2.1,14.5,6.3,19.5c4.2,5.1,9.7,7.6,16.6,7.6c7.4,0,12.7-3,16-9.1h0.2V50h4.5V3.7z M131,30.8
							c0,4.4-1.5,8.2-4.5,11.5c-3,3.2-6.8,4.8-11.6,4.8c-5.5,0-9.9-2.1-13.3-6.2c-3.4-4.1-5-9.6-5-16.4c0-6.8,1.5-12.2,4.6-16
							c3.1-3.8,7.1-5.7,12.2-5.7c5.4,0,9.7,1.7,12.8,5.2c3.2,3.5,4.8,7.8,4.8,12.8V30.8z"/>
					</g>
					<g>
						<path id="SegoeUI-Light-68" d="M185.5,0v30c0,5.9-1.1,10.3-3.2,13c-2.1,2.8-5.5,4.1-10,4.1c-4.3,0-8.1-1.7-11.3-5
							c-3.2-3.4-4.9-8.2-4.9-14.4V0h-4.5v74h4.5V41h0.2c3.9,6.8,9.7,10.2,17.2,10.2c5.4,0,9.5-1.7,12.3-5.2c2.8-3.5,4.2-8.5,4.2-15
							V0H185.5z"/>
					</g>
					<g>
						<path id="SegoeUI-Light-74_1_" d="M224.8,0.7c-2.3-1.1-4.5-1.7-6.6-1.7c-7.4,0-11.1,4.4-11.1,13.3v33.6h-9V50h9v13
							c0.7,0.3,1.5,0.5,2.2,0.8c0.8,0.2,1.5,0.5,2.2,0.7V50h13.2v-4.1h-13.2v-33c0-3.4,0.5-5.9,1.6-7.5c1.1-1.5,2.9-2.3,5.5-2.3
							c1.9,0,3.9,0.6,6,1.8V0.7z"/>
					</g>
					<g>
						<path id="SegoeUI-Light-20_1_" d="M226.7,0"/>
					</g>
					<g>
						<path id="SegoeUI-Light-74_2_" d="M281.9,0.7c-2.3-1.1-4.5-1.7-6.6-1.7c-7.4,0-11.1,4.4-11.1,13.3v33.6h-9V50h9v13
							c0.7,0.3,1.5,0.5,2.2,0.8c0.8,0.2,1.5,0.5,2.2,0.7V50h13.2v-4.1h-13.2v-33c0-3.4,0.5-5.9,1.6-7.5c1.1-1.5,2.9-2.3,5.5-2.3
							c1.9,0,3.9,0.6,6,1.8V0.7z"/>
					</g>
					<g>
						<path id="SegoeUI-Light-69_1_" d="M294,62.6c-1,0-1.8,0.4-2.6,1.1c-0.7,0.7-1.1,1.6-1.1,2.7c0,1.1,0.4,1.9,1.1,2.6
							c0.8,0.7,1.6,1,2.6,1c1,0,1.9-0.3,2.7-1c0.8-0.6,1.2-1.5,1.2-2.6c0-1-0.4-1.9-1.1-2.7C295.9,63,295,62.6,294,62.6z M291.8,0
							v50h4.5V0H291.8z"/>
					</g>
					<g>
						<path id="SegoeUI-Light-6d" d="M375,0v30.1c0,6.3-1,10.7-3,13.2s-5.1,3.8-9.3,3.8c-3.9,0-7.4-1.7-10.2-5.1
							c-2.9-3.4-4.3-7.6-4.3-12.8V0h-4.5v30.4c0,11.1-4.2,16.7-12.7,16.7c-4.1,0-7.4-1.7-10.2-5.1c-2.7-3.4-4-7.8-4-13.2V0h-4.5v50
							h4.5v-8.3h0.2c3.5,6.3,8.6,9.5,15.3,9.5c3.6,0,6.8-1.1,9.3-3.2c2.6-2.1,4.3-4.8,5.2-8.3c1.6,3.6,3.8,6.4,6.7,8.4
							c2.9,2,6.1,3,9.5,3c10.9,0,16.4-6.8,16.4-20.3V0H375z"/>
					</g>
					<g>
						<path id="SegoeUI-Light-65_1_" d="M395.6,24.8c0-6.9,1.6-12.3,4.8-16.1c3.2-3.9,7.5-5.8,13.1-5.8c5.6,0,11.1,2.1,16.4,6.2V4.3
							c-5.2-3.7-11-5.5-17.3-5.5c-6.4,0-11.7,2.3-15.6,6.9c-4,4.6-6,11.2-6,19.6c0,7.3,2.1,13.4,6.2,18.4c4.2,5,9.6,7.5,16.2,7.5
							c6.2,0,11-2.2,14.3-6.5c3.3-4.4,5-10.3,5-17.9v-2H395.6z M427.9,28.9c-0.2,5.8-1.6,10.2-4.2,13.4c-2.6,3.2-6.1,4.8-10.6,4.8
							c-4.7,0-8.6-1.6-11.6-4.7c-3.1-3.1-5-7.6-5.7-13.5H427.9z"/>
					</g>
				</g>
			</g>
		</g>
		<g id="line2d_15">
			<g>
				<defs>
					<rect id="SVGID_3_" x="57.6" y="41.5" width="357.1" height="252.3"/>
				</defs>
				<clipPath id="SVGID_4_">
					<use xlink:href="#SVGID_3_"  style="overflow:visible;"/>
				</clipPath>
				<path class="st8" d="M57.6,158h4.6h4.6h4.6h4.6h4.6h4.6h4.6h4.6h4.6h4.6h4.6h4.6h4.6h4.6h4.6h4.6h4.6h4.6h4.6h4.6h4.6h4.6h4.6
					h4.6h4.6h4.6h4.6h4.6h4.6h4.6h4.6h4.6h4.6h4.6h4.6h4.6h4.6h4.6h4.6h4.6h4.6h4.6h4.6h4.6h4.6h4.6h4.6h4.6h4.6h4.6h4.6h4.6h4.6
					h4.6h4.6h4.6h4.6h4.6h4.6h4.6h4.6h4.6h4.6h4.6h4.6h4.6h4.6h4.6h4.6h4.6h4.6h4.6h4.6h4.6h4.6h4.6h4.6h4.6"/>
			</g>
		</g>
		<g id="patch_4">
			<path class="st9" d="M57.6,293.8V41.5"/>
		</g>
		<g id="patch_5">
			<path class="st9" d="M414.7,293.8V41.5"/>
		</g>
		<g id="patch_6">
			<path class="st9" d="M57.6,293.8h357.1"/>
		</g>
		<g id="patch_7">
			<path class="st9" d="M57.6,41.5h357.1"/>
		</g>
		<g id="text_16">
			<g transform="translate(197.214687 25.38048)scale(0.1 -0.1)">
				<g>
					<path id="SegoeUI-Bold-46" d="M48.5,57.2H23.8V40h22.7V27.2H23.8V0H8v70h40.5V57.2z"/>
				</g>
				<g>
					<path id="SegoeUI-Bold-6c" d="M73.9,0H58.5v74h15.4V0z"/>
				</g>
				<g>
					<path id="SegoeUI-Bold-69" d="M94.7,57.9c-2.6,0-4.7,0.8-6.4,2.3c-1.7,1.6-2.5,3.5-2.5,5.7c0,2.3,0.8,4.2,2.5,5.7
						c1.7,1.5,3.8,2.2,6.4,2.2c2.6,0,4.8-0.7,6.4-2.2c1.6-1.5,2.5-3.3,2.5-5.7c0-2.3-0.8-4.3-2.5-5.8C99.5,58.7,97.4,57.9,94.7,57.9
						z M102.3,0H86.9v50h15.4V0z"/>
				</g>
				<g>
					<path id="SegoeUI-Bold-67" d="M164.4,5.7c0-9.3-2.7-16.5-8.1-21.6c-5.4-5.1-13.1-7.6-23.3-7.6c-6.7,0-12.1,1-16,2.9v13
						c5.1-3,10.3-4.5,15.6-4.5c5.2,0,9.2,1.4,12.1,4.1c2.9,2.8,4.3,6.5,4.3,11.2v4h-0.2c-3.5-5.6-8.7-8.4-15.6-8.4
						c-6.4,0-11.4,2.2-15.2,6.7c-3.7,4.5-5.6,10.5-5.6,18.1c0,8.5,2.1,15.2,6.2,20.2c4.2,5,9.7,7.5,16.5,7.5c6.1,0,10.7-2.3,13.7-7
						h0.2V50h15.4V5.7z M149.1,24v4c0,3.2-0.9,5.8-2.8,8.1c-1.9,2.2-4.3,3.3-7.3,3.3c-3.4,0-6.1-1.3-8.1-4C129,32.7,128,29,128,24.1
						c0-4.2,0.9-7.5,2.8-9.9c1.9-2.4,4.4-3.6,7.6-3.6c3.2,0,5.8,1.2,7.7,3.7S149.1,20,149.1,24z"/>
				</g>
				<g>
					<path id="SegoeUI-Bold-68" d="M225.3,0h-15.4v28.4c0,7.3-2.7,11-8,11c-2.7,0-5-1-6.7-3.1c-1.7-2.1-2.5-4.7-2.5-7.8V0h-15.4v74
						h15.4V42.6h0.2c3.8,5.8,8.9,8.6,15.4,8.6c11.3,0,17-6.8,17-20.5V0z"/>
				</g>
				<g>
					<path id="SegoeUI-Bold-74" d="M267.7,0.6c-2.3-1.2-5.7-1.8-10.3-1.8c-10.9,0-16.3,5.6-16.3,16.9v22.9H233V50h8.1v10.8l15.4,4.4
						V50h11.2V38.6h-11.2V18.4c0-5.2,2.1-7.8,6.2-7.8c1.6,0,3.3,0.5,5,1.4V0.6z"/>
				</g>
				<g>
					<path id="SegoeUI-Bold-20" d="M269.9,0"/>
				</g>
				<g>
					<path id="SegoeUI-Bold-74_1_" d="M334.2,0.6c-2.3-1.2-5.7-1.8-10.3-1.8c-10.9,0-16.3,5.6-16.3,16.9v22.9h-8.1V50h8.1v10.8
						l15.4,4.4V50h11.2V38.6h-11.2V18.4c0-5.2,2.1-7.8,6.2-7.8c1.6,0,3.3,0.5,5,1.4V0.6z"/>
				</g>
				<g>
					<path id="SegoeUI-Bold-69_1_" d="M350.7,57.9c-2.6,0-4.7,0.8-6.4,2.3c-1.7,1.6-2.5,3.5-2.5,5.7c0,2.3,0.8,4.2,2.5,5.7
						c1.7,1.5,3.8,2.2,6.4,2.2c2.6,0,4.8-0.7,6.4-2.2c1.6-1.5,2.5-3.3,2.5-5.7c0-2.3-0.8-4.3-2.5-5.8
						C355.5,58.7,353.3,57.9,350.7,57.9z M358.3,0h-15.4v50h15.4V0z"/>
				</g>
				<g>
					<path id="SegoeUI-Bold-6d" d="M450.7,0h-15.4v28.5c0,7.3-2.7,10.9-8,10.9c-2.5,0-4.6-1.1-6.2-3.3c-1.6-2.2-2.4-4.9-2.4-8.1V0
						h-15.4v28.8c0,7.1-2.6,10.6-7.9,10.6c-2.6,0-4.7-1-6.3-3.1c-1.6-2.1-2.4-4.9-2.4-8.5V0h-15.4v50h15.4v-7.8h0.2
						c1.6,2.7,3.8,4.8,6.7,6.5c2.9,1.7,6,2.5,9.5,2.5c7.1,0,11.9-3.1,14.5-9.3c3.8,6.2,9.4,9.3,16.8,9.3c10.9,0,16.3-6.7,16.3-20.1
						V0z"/>
				</g>
				<g>
					<path id="SegoeUI-Bold-65" d="M507.8,20.6h-32.6c0.5-7.3,5.1-10.9,13.7-10.9c5.5,0,10.3,1.3,14.5,3.9V2.5
						c-4.6-2.5-10.6-3.7-18-3.7c-8.1,0-14.3,2.2-18.8,6.7c-4.5,4.5-6.7,10.7-6.7,18.7c0,8.3,2.4,14.9,7.2,19.7
						c4.8,4.9,10.8,7.3,17.8,7.3c7.3,0,12.9-2.2,16.9-6.5c4-4.3,6-10.2,6-17.6V20.6z M493.5,30.1c0,7.2-2.9,10.8-8.7,10.8
						c-2.5,0-4.6-1-6.4-3.1c-1.8-2.1-2.9-4.6-3.3-7.7H493.5z"/>
				</g>
				<g>
					<path id="SegoeUI-Bold-20_1_" d="M510.5,0"/>
				</g>
				<g>
					<path id="SegoeUI-Bold-63" d="M582.5,1.8c-3.5-2-8.5-3-15.1-3c-7.7,0-13.9,2.3-18.7,7c-4.8,4.7-7.1,10.7-7.1,18
						c0,8.5,2.5,15.2,7.6,20.1s11.9,7.3,20.4,7.3c5.9,0,10.2-0.8,12.8-2.3V35.8c-3.2,2.4-6.8,3.6-10.8,3.6c-4.4,0-7.9-1.3-10.5-3.9
						c-2.6-2.6-3.9-6.2-3.9-10.7c0-4.4,1.2-7.9,3.7-10.4c2.5-2.5,5.9-3.8,10.2-3.8c3.8,0,7.6,1.2,11.3,3.6V1.8z"/>
				</g>
				<g>
					<path id="SegoeUI-Bold-68_1_" d="M640.6,0h-15.4v28.4c0,7.3-2.7,11-8,11c-2.7,0-5-1-6.7-3.1c-1.7-2.1-2.5-4.7-2.5-7.8V0h-15.4
						v74H608V42.6h0.2c3.8,5.8,8.9,8.6,15.4,8.6c11.3,0,17-6.8,17-20.5V0z"/>
				</g>
				<g>
					<path id="SegoeUI-Bold-61" d="M694.4,0h-14.6v7.2h-0.2c-3.4-5.6-8.3-8.4-14.9-8.4c-4.8,0-8.7,1.4-11.5,4.1
						c-2.8,2.8-4.2,6.4-4.2,11c0,9.7,5.7,15.3,17.2,16.8l13.6,1.8c0,5.5-3,8.2-8.9,8.2c-6,0-11.6-1.8-17-5.3V47
						c2.1,1.1,5.1,2.1,8.8,2.9c3.7,0.8,7.1,1.3,10.2,1.3c14.3,0,21.4-7.1,21.4-21.3V0z M679.9,20.3v3.4l-9.1-1.2
						c-5-0.7-7.5-2.9-7.5-6.8c0-1.8,0.6-3.2,1.8-4.3s2.9-1.7,5-1.7c2.9,0,5.3,1,7.1,3C679,14.7,679.9,17.3,679.9,20.3z"/>
				</g>
				<g>
					<path id="SegoeUI-Bold-72" d="M739.2,36.1c-1.9,1-4,1.5-6.5,1.5c-3.4,0-6-1.2-7.9-3.7c-1.9-2.5-2.8-5.8-2.8-10V0h-15.4v50H722
						v-9.3h0.2c2.4,6.8,6.8,10.2,13.2,10.2c1.6,0,2.9-0.2,3.8-0.6V36.1z"/>
				</g>
				<g>
					<path id="SegoeUI-Bold-74_2_" d="M776.6,0.6c-2.3-1.2-5.7-1.8-10.3-1.8c-10.9,0-16.3,5.6-16.3,16.9v22.9h-8.1V50h8.1v10.8
						l15.4,4.4V50h11.2V38.6h-11.2V18.4c0-5.2,2.1-7.8,6.2-7.8c1.6,0,3.3,0.5,5,1.4V0.6z"/>
				</g>
			</g>
		</g>
		<g id="legend_1">
			<g id="patch_8">
				<path class="st10" d="M306.3,288.8h101.5c1.3,0,2-0.7,2-2v-43.2c0-1.3-0.7-2-2-2H306.3c-1.3,0-2,0.7-2,2v43.2
					C304.3,288.1,304.9,288.8,306.3,288.8z"/>
			</g>
			<g id="line2d_16">
				<path class="st11" d="M308.3,249.5h20"/>
			</g>
			<g id="line2d_17">
				<g>
					<g>
						<path id="m9143d90ac7_79_" class="st12" d="M318.3,252.5c0.8,0,1.6-0.3,2.1-0.9c0.6-0.6,0.9-1.3,0.9-2.1s-0.3-1.6-0.9-2.1
							c-0.6-0.6-1.3-0.9-2.1-0.9s-1.6,0.3-2.1,0.9c-0.6,0.6-0.9,1.3-0.9,2.1s0.3,1.6,0.9,2.1C316.7,252.1,317.5,252.5,318.3,252.5z"
							/>
					</g>
				</g>
			</g>
			<g id="text_17">
				<g transform="translate(336.259063 252.956875)scale(0.1 -0.1)">
					<g>
						<path id="SegoeUI-Semilight-50" d="M15.6,27.3V0H9.1v70h18.1c3.7,0,6.9-0.5,9.7-1.4c2.8-0.9,5.2-2.2,7.2-4
							c2-1.7,3.4-3.8,4.5-6.3c1-2.5,1.5-5.4,1.5-8.6c0-3.2-0.6-6.2-1.7-9c-1.1-2.8-2.8-5.1-4.9-7.1c-2.1-2-4.7-3.6-7.8-4.7
							c-3.1-1.1-6.5-1.7-10.4-1.7H15.6z M15.6,64.1V33.2h9.3c6,0,10.6,1.4,13.7,4.2s4.7,6.8,4.7,11.9c0,9.9-5.8,14.8-17.3,14.8H15.6
							z"/>
					</g>
					<g>
						<path id="SegoeUI-Semilight-61" d="M92,0v8.9h-0.2c-1.6-3.2-3.8-5.7-6.7-7.4c-2.8-1.8-6-2.6-9.5-2.6c-2.4,0-4.6,0.3-6.5,1
							c-1.9,0.7-3.6,1.6-4.9,2.9C62.8,4,61.7,5.5,61,7.3c-0.7,1.8-1.1,3.7-1.1,5.8c0,4.5,1.4,8.1,4.2,10.8c2.8,2.7,7,4.4,12.7,5.2
							L92,31.3c0,9.6-3.7,14.4-11.2,14.4c-5.8,0-11.2-2.1-16.2-6.4v6.8c1,0.8,2.2,1.4,3.5,2c1.3,0.6,2.7,1.1,4.2,1.6s3,0.8,4.5,1
							c1.6,0.2,3.1,0.4,4.5,0.4c5.6,0,9.8-1.6,12.6-4.7s4.3-7.8,4.3-14V0H92z M79.1,24.3c-2.2-0.3-4.2-0.7-5.8-1.2s-2.9-1.2-4-2
							c-1-0.8-1.8-1.8-2.3-3.1c-0.5-1.2-0.7-2.7-0.7-4.5c0-1.3,0.2-2.6,0.7-3.7s1.2-2.1,2-3c0.9-0.8,2-1.5,3.3-1.9
							c1.3-0.4,2.8-0.7,4.4-0.7c2.2,0,4.3,0.4,6.1,1.3s3.5,2,4.8,3.5s2.4,3.3,3.2,5.4c0.8,2.1,1.1,4.3,1.1,6.8v4.9L79.1,24.3z"/>
					</g>
					<g>
						<path id="SegoeUI-Semilight-72" d="M138.1,43.6c-1.5,1.1-3.3,1.6-5.7,1.6c-1.7,0-3.1-0.3-4.4-1c-1.3-0.6-2.4-1.5-3.3-2.6
							c-1-1.1-1.8-2.3-2.4-3.7s-1.2-2.9-1.6-4.4s-0.7-3.1-0.9-4.6c-0.2-1.6-0.3-3-0.3-4.4V0h-6.2v50h6.2V39.3h0.2
							c0.6,1.8,1.3,3.5,2.2,4.9s1.9,2.7,3.1,3.7c1.2,1,2.5,1.7,3.8,2.3c1.4,0.5,2.8,0.8,4.4,0.8c1,0,1.9-0.1,2.7-0.2
							c0.8-0.1,1.5-0.3,2.2-0.6V43.6z"/>
					</g>
					<g>
						<path id="SegoeUI-Semilight-61_1_" d="M176,0v8.9h-0.2c-1.6-3.2-3.8-5.7-6.7-7.4c-2.8-1.8-6-2.6-9.5-2.6c-2.4,0-4.6,0.3-6.5,1
							c-1.9,0.7-3.6,1.6-4.9,2.9c-1.3,1.3-2.4,2.8-3.1,4.5c-0.7,1.8-1.1,3.7-1.1,5.8c0,4.5,1.4,8.1,4.2,10.8s7,4.4,12.7,5.2
							l15.2,2.2c0,9.6-3.7,14.4-11.2,14.4c-5.8,0-11.2-2.1-16.2-6.4v6.8c1,0.8,2.2,1.4,3.5,2c1.3,0.6,2.7,1.1,4.2,1.6s3,0.8,4.5,1
							c1.6,0.2,3.1,0.4,4.5,0.4c5.6,0,9.8-1.6,12.6-4.7s4.3-7.8,4.3-14V0H176z M163.1,24.3c-2.2-0.3-4.2-0.7-5.8-1.2s-2.9-1.2-4-2
							c-1-0.8-1.8-1.8-2.3-3.1c-0.5-1.2-0.7-2.7-0.7-4.5c0-1.3,0.2-2.6,0.7-3.7s1.2-2.1,2-3s2-1.5,3.3-1.9c1.3-0.4,2.8-0.7,4.4-0.7
							c2.2,0,4.3,0.4,6.1,1.3s3.5,2,4.8,3.5s2.4,3.3,3.2,5.4s1.1,4.3,1.1,6.8v4.9L163.1,24.3z"/>
					</g>
					<g>
						<path id="SegoeUI-Semilight-6d" d="M260.1,0v29.4c0,3-0.2,5.5-0.7,7.6c-0.5,2.1-1.2,3.8-2.1,5.1s-2.2,2.2-3.7,2.8
							c-1.5,0.6-3.2,0.9-5.3,0.9c-1.8,0-3.5-0.4-5.2-1.3c-1.6-0.9-3-2-4.3-3.6c-1.2-1.5-2.2-3.3-2.9-5.3c-0.7-2.1-1-4.3-1-6.6V0
							h-6.2v30c0,10.5-4,15.7-12.1,15.7c-1.9,0-3.6-0.4-5.2-1.2c-1.6-0.8-3-2-4.2-3.5s-2.1-3.3-2.8-5.4c-0.7-2.1-1-4.4-1-7V0h-6.2
							v50h6.2v-8.1h0.2c3.5,6.2,8.7,9.3,15.4,9.3c1.8,0,3.4-0.3,5-0.8c1.6-0.5,3-1.3,4.2-2.2s2.3-2.1,3.2-3.5c0.9-1.3,1.6-2.8,2-4.4
							c1.8,3.6,4,6.3,6.9,8.1c2.8,1.9,6,2.8,9.5,2.8c11,0,16.5-6.8,16.5-20.3V0H260.1z"/>
					</g>
					<g>
						<path id="SegoeUI-Semilight-65" d="M284.4,23.9c0-3.1,0.4-5.8,1.2-8.2s1.9-4.5,3.4-6.2c1.5-1.7,3.2-3,5.3-3.9
							c2.1-0.9,4.5-1.3,7.1-1.3c5.6,0,11,2,16,5.9V4c-4.8-3.4-10.6-5.1-17.4-5.1c-3.4,0-6.4,0.6-9.1,1.8c-2.7,1.2-5.1,2.9-7,5.1
							s-3.4,5-4.4,8.2c-1,3.3-1.6,7-1.6,11.1c0,3.8,0.6,7.2,1.7,10.4s2.7,5.9,4.7,8.3c2,2.3,4.4,4.2,7.2,5.5c2.8,1.3,5.8,2,9.1,2
							c3.2,0,6.1-0.6,8.5-1.7c2.5-1.1,4.6-2.7,6.2-4.8s3-4.6,3.8-7.6c0.9-3,1.3-6.3,1.3-10v-3.1H284.4z M314.1,29.3
							c-0.1,5.2-1.3,9.2-3.7,12.1s-5.7,4.3-9.9,4.3c-2.1,0-4.1-0.4-5.9-1.1c-1.8-0.8-3.4-1.8-4.8-3.2c-1.4-1.4-2.5-3.1-3.4-5.2
							c-0.9-2-1.5-4.3-1.9-6.9H314.1z"/>
					</g>
					<g>
						<path id="SegoeUI-Semilight-74" d="M354.3,0.6c-2.2-1.1-4.5-1.6-7-1.6c-8.1,0-12.1,4.7-12.1,14v31.6h-8.8V50h8.8v12.6l6.2,2.1
							V50h12.9v-5.5h-12.9V13.9c0-3.4,0.6-5.8,1.7-7.3s3-2.2,5.6-2.2c2,0,3.8,0.6,5.6,1.8V0.6z"/>
					</g>
					<g>
						<path id="SegoeUI-Semilight-65_1_" d="M367.5,23.9c0-3.1,0.4-5.8,1.2-8.2s1.9-4.5,3.4-6.2c1.5-1.7,3.2-3,5.3-3.9
							c2.1-0.9,4.5-1.3,7.1-1.3c5.6,0,11,2,16,5.9V4c-4.8-3.4-10.6-5.1-17.4-5.1c-3.4,0-6.4,0.6-9.1,1.8c-2.7,1.2-5.1,2.9-7,5.1
							s-3.4,5-4.4,8.2c-1,3.3-1.6,7-1.6,11.1c0,3.8,0.6,7.2,1.7,10.4s2.7,5.9,4.7,8.3c2,2.3,4.4,4.2,7.2,5.5c2.8,1.3,5.8,2,9.1,2
							c3.2,0,6.1-0.6,8.5-1.7c2.5-1.1,4.6-2.7,6.2-4.8s3-4.6,3.8-7.6c0.9-3,1.3-6.3,1.3-10v-3.1H367.5z M397.2,29.3
							c-0.1,5.2-1.3,9.2-3.7,12.1s-5.7,4.3-9.9,4.3c-2.1,0-4.1-0.4-5.9-1.1c-1.8-0.8-3.4-1.8-4.8-3.2c-1.4-1.4-2.5-3.1-3.4-5.2
							c-0.9-2-1.5-4.3-1.9-6.9H397.2z"/>
					</g>
					<g>
						<path id="SegoeUI-Semilight-72_1_" d="M440.7,43.6c-1.5,1.1-3.3,1.6-5.7,1.6c-1.7,0-3.1-0.3-4.4-1c-1.3-0.6-2.4-1.5-3.3-2.6
							c-1-1.1-1.8-2.3-2.4-3.7s-1.2-2.9-1.6-4.4s-0.7-3.1-0.9-4.6s-0.3-3-0.3-4.4V0h-6.2v50h6.2V39.3h0.2c0.6,1.8,1.3,3.5,2.2,4.9
							s1.9,2.7,3.1,3.7c1.2,1,2.5,1.7,3.8,2.3s2.8,0.8,4.4,0.8c1,0,1.9-0.1,2.7-0.2c0.8-0.1,1.5-0.3,2.2-0.6V43.6z"/>
					</g>
					<g>
						<path id="SegoeUI-Semilight-20" d="M441.8,0"/>
					</g>
					<g>
						<path id="SegoeUI-Semilight-76" d="M495,0h-6l-19.1,50h6.9l13.8-38.1c0.8-2.3,1.4-4.3,1.6-6.1h0.2c0.4,2.3,0.9,4.3,1.5,5.9
							L508.3,50h6.7L495,0z"/>
					</g>
					<g>
						<path id="SegoeUI-Semilight-61_2_" d="M552.6,0v8.9h-0.2c-1.6-3.2-3.8-5.7-6.7-7.4c-2.8-1.8-6-2.6-9.5-2.6
							c-2.4,0-4.6,0.3-6.5,1c-1.9,0.7-3.6,1.6-4.9,2.9c-1.3,1.3-2.4,2.8-3.1,4.5c-0.7,1.8-1.1,3.7-1.1,5.8c0,4.5,1.4,8.1,4.2,10.8
							s7,4.4,12.7,5.2l15.2,2.2c0,9.6-3.7,14.4-11.2,14.4c-5.8,0-11.2-2.1-16.2-6.4v6.8c1,0.8,2.2,1.4,3.5,2
							c1.3,0.6,2.7,1.1,4.2,1.6s3,0.8,4.5,1c1.6,0.2,3.1,0.4,4.5,0.4c5.6,0,9.8-1.6,12.6-4.7s4.3-7.8,4.3-14V0H552.6z M539.7,24.3
							c-2.2-0.3-4.2-0.7-5.8-1.2s-2.9-1.2-4-2c-1-0.8-1.8-1.8-2.3-3.1c-0.5-1.2-0.7-2.7-0.7-4.5c0-1.3,0.2-2.6,0.7-3.7s1.2-2.1,2-3
							s2-1.5,3.3-1.9c1.3-0.4,2.8-0.7,4.4-0.7c2.2,0,4.3,0.4,6.1,1.3s3.5,2,4.8,3.5s2.4,3.3,3.2,5.4s1.1,4.3,1.1,6.8v4.9L539.7,24.3
							z"/>
					</g>
					<g>
						<path id="SegoeUI-Semilight-6c" d="M573.9,0v74h6.2V0H573.9z"/>
					</g>
					<g>
						<path id="SegoeUI-Semilight-75" d="M628.9,0v8.5h-0.2c-3.4-6.4-8.6-9.7-15.8-9.7c-11.9,0-17.8,7.3-17.8,21.8V50h6.2V21.8
							c0-6,1.1-10.4,3.2-13.3c2.1-2.9,5.4-4.3,9.8-4.3c2.1,0,4.1,0.4,5.9,1.2c1.8,0.8,3.3,2,4.6,3.5c1.3,1.5,2.3,3.3,3,5.5
							c0.7,2.1,1.1,4.5,1.1,7V50h6.2V0H628.9z"/>
					</g>
					<g>
						<path id="SegoeUI-Semilight-65_2_" d="M654.3,23.9c0-3.1,0.4-5.8,1.2-8.2s1.9-4.5,3.4-6.2c1.5-1.7,3.2-3,5.3-3.9
							c2.1-0.9,4.5-1.3,7.1-1.3c5.6,0,11,2,16,5.9V4c-4.8-3.4-10.6-5.1-17.4-5.1c-3.4,0-6.4,0.6-9.1,1.8c-2.7,1.2-5.1,2.9-7,5.1
							s-3.4,5-4.4,8.2c-1,3.3-1.6,7-1.6,11.1c0,3.8,0.6,7.2,1.7,10.4s2.7,5.9,4.7,8.3c2,2.3,4.4,4.2,7.2,5.5c2.8,1.3,5.8,2,9.1,2
							c3.2,0,6.1-0.6,8.5-1.7c2.5-1.1,4.6-2.7,6.2-4.8s3-4.6,3.8-7.6c0.9-3,1.3-6.3,1.3-10v-3.1H654.3z M684,29.3
							c-0.1,5.2-1.3,9.2-3.7,12.1s-5.7,4.3-9.9,4.3c-2.1,0-4.1-0.4-5.9-1.1c-1.8-0.8-3.4-1.8-4.8-3.2c-1.4-1.4-2.5-3.1-3.4-5.2
							c-0.9-2-1.5-4.3-1.9-6.9H684z"/>
					</g>
				</g>
			</g>
			<g id="line2d_18">
				<path class="st13" d="M308.3,264.2h20"/>
			</g>
			<g id="line2d_19">
			</g>
			<g id="text_18">
				<g transform="translate(336.259063 267.66)scale(0.1 -0.1)">
					<g>
						<path id="SegoeUI-Semilight-41" d="M54.4,0l-7.7,20.7h-30L9.2,0H2l26.7,70h6.5L61.7,0H54.4z M33.1,57.8
							c-0.2,0.6-0.5,1.3-0.7,2.1c-0.2,0.8-0.4,1.8-0.6,2.8h-0.2c-0.2-1-0.4-2-0.7-2.8c-0.2-0.8-0.5-1.5-0.7-2.1L18.9,26.6h25.6
							L33.1,57.8z"/>
					</g>
					<g>
						<path id="SegoeUI-Semilight-76_1_" d="M89.5,0h-6L64.4,50h6.9l13.8-38.1c0.8-2.3,1.4-4.3,1.6-6.1h0.2c0.4,2.3,0.9,4.3,1.5,5.9
							L102.7,50h6.7L89.5,0z"/>
					</g>
					<g>
						<path id="SegoeUI-Semilight-65_3_" d="M121.2,23.9c0-3.1,0.4-5.8,1.2-8.2s1.9-4.5,3.4-6.2c1.5-1.7,3.2-3,5.3-3.9
							c2.1-0.9,4.5-1.3,7.1-1.3c5.6,0,11,2,16,5.9V4c-4.8-3.4-10.6-5.1-17.4-5.1c-3.4,0-6.4,0.6-9.1,1.8c-2.7,1.2-5.1,2.9-7,5.1
							c-1.9,2.2-3.4,5-4.4,8.2c-1,3.3-1.6,7-1.6,11.1c0,3.8,0.6,7.2,1.7,10.4s2.7,5.9,4.7,8.3c2,2.3,4.4,4.2,7.2,5.5
							c2.8,1.3,5.8,2,9.1,2c3.2,0,6.1-0.6,8.5-1.7c2.5-1.1,4.6-2.7,6.2-4.8s3-4.6,3.8-7.6c0.9-3,1.3-6.3,1.3-10v-3.1H121.2z
							 M150.9,29.3c-0.1,5.2-1.3,9.2-3.7,12.1s-5.7,4.3-9.9,4.3c-2.1,0-4.1-0.4-5.9-1.1c-1.8-0.8-3.4-1.8-4.8-3.2
							c-1.4-1.4-2.5-3.1-3.4-5.2c-0.9-2-1.5-4.3-1.9-6.9H150.9z"/>
					</g>
					<g>
						<path id="SegoeUI-Semilight-72_2_" d="M194.4,43.6c-1.5,1.1-3.3,1.6-5.7,1.6c-1.7,0-3.1-0.3-4.4-1c-1.3-0.6-2.4-1.5-3.3-2.6
							c-1-1.1-1.8-2.3-2.4-3.7s-1.2-2.9-1.6-4.4s-0.7-3.1-0.9-4.6s-0.3-3-0.3-4.4V0h-6.2v50h6.2V39.3h0.2c0.6,1.8,1.3,3.5,2.2,4.9
							s1.9,2.7,3.1,3.7c1.2,1,2.5,1.7,3.8,2.3s2.8,0.8,4.4,0.8c1,0,1.9-0.1,2.7-0.2c0.8-0.1,1.5-0.3,2.2-0.6V43.6z"/>
					</g>
					<g>
						<path id="SegoeUI-Semilight-61_3_" d="M232.3,0v8.9h-0.2c-1.6-3.2-3.8-5.7-6.7-7.4c-2.8-1.8-6-2.6-9.5-2.6
							c-2.4,0-4.6,0.3-6.5,1c-1.9,0.7-3.6,1.6-4.9,2.9c-1.3,1.3-2.4,2.8-3.1,4.5c-0.7,1.8-1.1,3.7-1.1,5.8c0,4.5,1.4,8.1,4.2,10.8
							s7,4.4,12.7,5.2l15.2,2.2c0,9.6-3.7,14.4-11.2,14.4c-5.8,0-11.2-2.1-16.2-6.4v6.8c1,0.8,2.2,1.4,3.5,2
							c1.3,0.6,2.7,1.1,4.2,1.6s3,0.8,4.5,1c1.6,0.2,3.1,0.4,4.5,0.4c5.6,0,9.8-1.6,12.6-4.7s4.3-7.8,4.3-14V0H232.3z M219.4,24.3
							c-2.2-0.3-4.2-0.7-5.8-1.2s-2.9-1.2-4-2c-1-0.8-1.8-1.8-2.3-3.1c-0.5-1.2-0.7-2.7-0.7-4.5c0-1.3,0.2-2.6,0.7-3.7s1.2-2.1,2-3
							s2-1.5,3.3-1.9c1.3-0.4,2.8-0.7,4.4-0.7c2.2,0,4.3,0.4,6.1,1.3s3.5,2,4.8,3.5s2.4,3.3,3.2,5.4s1.1,4.3,1.1,6.8v4.9L219.4,24.3
							z"/>
					</g>
					<g>
						<path id="SegoeUI-Semilight-67" d="M294.9,3.9c0-9.3-2.1-16.2-6.3-20.6c-4.2-4.5-10.7-6.7-19.5-6.7c-5.5,0-10.6,1.2-15.5,3.7
							v6.3c5.4-3,10.6-4.5,15.5-4.5c13.1,0,19.6,6.9,19.6,20.7v6h-0.2c-3.8-6.6-9.7-9.9-17.6-9.9c-3.1,0-5.9,0.6-8.5,1.7
							c-2.6,1.1-4.7,2.8-6.6,4.9c-1.8,2.1-3.2,4.8-4.2,7.8c-1,3.1-1.5,6.6-1.5,10.4c0,4.1,0.5,7.8,1.6,11.2s2.6,6.2,4.6,8.7
							c2,2.4,4.4,4.3,7.2,5.6c2.8,1.3,6,2,9.5,2c7.1,0,12.2-2.9,15.5-8.6h0.2V50h6.2V3.9z M288.6,30.4c0,2.1-0.4,4.1-1.1,5.9
							c-0.7,1.9-1.8,3.5-3.1,4.9c-1.3,1.4-2.9,2.5-4.8,3.3c-1.8,0.8-3.9,1.2-6.1,1.2c-2.6,0-5-0.5-7.1-1.5c-2.1-1-3.9-2.4-5.4-4.3
							c-1.5-1.9-2.6-4.1-3.4-6.8c-0.8-2.6-1.2-5.6-1.2-9c0-3.1,0.4-5.8,1.1-8.3c0.8-2.5,1.8-4.6,3.2-6.3c1.4-1.7,3-3.1,5-4
							c1.9-0.9,4.1-1.4,6.5-1.4c2.5,0,4.7,0.4,6.7,1.3c2,0.9,3.7,2.1,5.2,3.7c1.4,1.6,2.5,3.4,3.3,5.6c0.8,2.1,1.2,4.4,1.2,6.9V30.4
							z"/>
					</g>
					<g>
						<path id="SegoeUI-Semilight-65_4_" d="M314,23.9c0-3.1,0.4-5.8,1.2-8.2s1.9-4.5,3.4-6.2c1.5-1.7,3.2-3,5.3-3.9
							c2.1-0.9,4.5-1.3,7.1-1.3c5.6,0,11,2,16,5.9V4c-4.8-3.4-10.6-5.1-17.4-5.1c-3.4,0-6.4,0.6-9.1,1.8c-2.7,1.2-5.1,2.9-7,5.1
							s-3.4,5-4.4,8.2c-1,3.3-1.6,7-1.6,11.1c0,3.8,0.6,7.2,1.7,10.4s2.7,5.9,4.7,8.3c2,2.3,4.4,4.2,7.2,5.5c2.8,1.3,5.8,2,9.1,2
							c3.2,0,6.1-0.6,8.5-1.7c2.5-1.1,4.6-2.7,6.2-4.8s3-4.6,3.8-7.6c0.9-3,1.3-6.3,1.3-10v-3.1H314z M343.7,29.3
							c-0.1,5.2-1.3,9.2-3.7,12.1s-5.7,4.3-9.9,4.3c-2.1,0-4.1-0.4-5.9-1.1c-1.8-0.8-3.4-1.8-4.8-3.2c-1.4-1.4-2.5-3.1-3.4-5.2
							c-0.9-2-1.5-4.3-1.9-6.9H343.7z"/>
					</g>
				</g>
			</g>
			<g id="patch_9">
				<path class="st14" d="M308.3,282.4h20v-7h-20V282.4z"/>
			</g>
			<g id="text_19">
				<g transform="translate(336.259063 282.411562)scale(0.1 -0.1)">
					<g>
						<path id="SegoeUI-Semilight-44" d="M9.1,0v70h18.4c12,0,21-2.9,27.1-8.6c6.1-5.7,9.2-14.2,9.2-25.5c0-5.4-0.9-10.3-2.6-14.8
							S57.1,13,53.9,9.8c-3.2-3.1-7.1-5.6-11.7-7.3S32.4,0,26.6,0H9.1z M15.6,64.1V5.9h10.7c4.8,0,9.1,0.7,12.9,2s7,3.2,9.6,5.7
							c2.6,2.5,4.6,5.7,6,9.4s2.1,8,2.1,12.8C57,54.6,47,64.1,27,64.1H15.6z"/>
					</g>
					<g>
						<path id="SegoeUI-Semilight-65_5_" d="M79.8,23.9c0-3.1,0.4-5.8,1.2-8.2s1.9-4.5,3.4-6.2c1.5-1.7,3.2-3,5.3-3.9
							c2.1-0.9,4.5-1.3,7.1-1.3c5.6,0,11,2,16,5.9V4c-4.8-3.4-10.6-5.1-17.4-5.1c-3.4,0-6.4,0.6-9.1,1.8c-2.7,1.2-5.1,2.9-7,5.1
							c-1.9,2.2-3.4,5-4.4,8.2c-1,3.3-1.6,7-1.6,11.1c0,3.8,0.6,7.2,1.7,10.4c1.1,3.2,2.7,5.9,4.7,8.3c2,2.3,4.4,4.2,7.2,5.5
							c2.8,1.3,5.8,2,9.1,2c3.2,0,6.1-0.6,8.5-1.7c2.5-1.1,4.6-2.7,6.2-4.8c1.7-2.1,3-4.6,3.8-7.6c0.9-3,1.3-6.3,1.3-10v-3.1H79.8z
							 M109.5,29.3c-0.1,5.2-1.3,9.2-3.7,12.1s-5.7,4.3-9.9,4.3c-2.1,0-4.1-0.4-5.9-1.1c-1.8-0.8-3.4-1.8-4.8-3.2
							c-1.4-1.4-2.5-3.1-3.4-5.2c-0.9-2-1.5-4.3-1.9-6.9H109.5z"/>
					</g>
					<g>
						<path id="SegoeUI-Semilight-76_2_" d="M146,0h-6l-19.1,50h6.9l13.8-38.1c0.8-2.3,1.4-4.3,1.6-6.1h0.2c0.4,2.3,0.9,4.3,1.5,5.9
							L159.2,50h6.7L146,0z"/>
					</g>
					<g>
						<path id="SegoeUI-Semilight-69" d="M177.8,62.6c-1.2,0-2.3,0.4-3.1,1.3c-0.9,0.9-1.3,1.9-1.3,3.2c0,1.3,0.4,2.3,1.3,3.1
							c0.9,0.8,1.9,1.2,3.1,1.2c0.6,0,1.2-0.1,1.8-0.3s1-0.5,1.4-0.9c0.4-0.4,0.7-0.8,1-1.4c0.2-0.5,0.4-1.1,0.4-1.8
							c0-0.6-0.1-1.2-0.3-1.8c-0.2-0.6-0.6-1-1-1.4c-0.4-0.4-0.9-0.7-1.4-1C179.1,62.8,178.5,62.6,177.8,62.6z M174.8,0v50h6.2V0
							H174.8z"/>
					</g>
					<g>
						<path id="SegoeUI-Semilight-61_4_" d="M225.9,0v8.9h-0.2c-1.6-3.2-3.8-5.7-6.7-7.4c-2.8-1.8-6-2.6-9.5-2.6
							c-2.4,0-4.6,0.3-6.5,1c-1.9,0.7-3.6,1.6-4.9,2.9c-1.3,1.3-2.4,2.8-3.1,4.5c-0.7,1.8-1.1,3.7-1.1,5.8c0,4.5,1.4,8.1,4.2,10.8
							s7,4.4,12.7,5.2l15.2,2.2c0,9.6-3.7,14.4-11.2,14.4c-5.8,0-11.2-2.1-16.2-6.4v6.8c1,0.8,2.2,1.4,3.5,2
							c1.3,0.6,2.7,1.1,4.2,1.6s3,0.8,4.5,1c1.6,0.2,3.1,0.4,4.5,0.4c5.6,0,9.8-1.6,12.6-4.7s4.3-7.8,4.3-14V0H225.9z M213,24.3
							c-2.2-0.3-4.2-0.7-5.8-1.2s-2.9-1.2-4-2c-1-0.8-1.8-1.8-2.3-3.1c-0.5-1.2-0.7-2.7-0.7-4.5c0-1.3,0.2-2.6,0.7-3.7s1.2-2.1,2-3
							s2-1.5,3.3-1.9c1.3-0.4,2.8-0.7,4.4-0.7c2.2,0,4.3,0.4,6.1,1.3s3.5,2,4.8,3.5s2.4,3.3,3.2,5.4s1.1,4.3,1.1,6.8v4.9L213,24.3z"
							/>
					</g>
					<g>
						<path id="SegoeUI-Semilight-74_1_" d="M268.7,0.6c-2.2-1.1-4.5-1.6-7-1.6c-8.1,0-12.1,4.7-12.1,14v31.6h-8.8V50h8.8v12.6
							l6.2,2.1V50h12.9v-5.5h-12.9V13.9c0-3.4,0.6-5.8,1.7-7.3s3-2.2,5.6-2.2c2,0,3.8,0.6,5.6,1.8V0.6z"/>
					</g>
					<g>
						<path id="SegoeUI-Semilight-69_1_" d="M282.1,62.6c-1.2,0-2.3,0.4-3.1,1.3c-0.9,0.9-1.3,1.9-1.3,3.2c0,1.3,0.4,2.3,1.3,3.1
							c0.9,0.8,1.9,1.2,3.1,1.2c0.6,0,1.2-0.1,1.8-0.3s1-0.5,1.4-0.9c0.4-0.4,0.7-0.8,1-1.4c0.2-0.5,0.4-1.1,0.4-1.8
							c0-0.6-0.1-1.2-0.3-1.8c-0.2-0.6-0.6-1-1-1.4c-0.4-0.4-0.9-0.7-1.4-1C283.3,62.8,282.7,62.6,282.1,62.6z M279,0v50h6.2V0H279z
							"/>
					</g>
					<g>
						<path id="SegoeUI-Semilight-6f" d="M321.8-1.2c-3.7,0-7,0.6-10,1.9s-5.5,3-7.5,5.2s-3.7,5-4.8,8.1s-1.7,6.7-1.7,10.5
							c0,4.2,0.6,7.9,1.8,11.2c1.2,3.3,2.8,6.1,5,8.4c2.2,2.3,4.8,4.1,7.8,5.2c3.1,1.2,6.5,1.8,10.2,1.8c3.6,0,6.9-0.6,9.8-1.8
							s5.4-2.9,7.4-5.2c2-2.2,3.6-5,4.6-8.2c1.1-3.2,1.6-6.9,1.6-11c0-3.9-0.6-7.5-1.7-10.7c-1.1-3.2-2.7-6-4.8-8.3S335,2,332,0.7
							C329-0.5,325.6-1.2,321.8-1.2z M322.3,45.8c-2.7,0-5.2-0.5-7.4-1.4c-2.2-0.9-4.1-2.3-5.7-4.1c-1.6-1.8-2.8-4-3.6-6.6
							c-0.8-2.6-1.3-5.6-1.3-8.9c0-3.1,0.4-5.9,1.3-8.5c0.9-2.5,2.1-4.6,3.6-6.4c1.6-1.8,3.4-3.2,5.6-4.1c2.2-1,4.7-1.4,7.4-1.4
							c2.8,0,5.3,0.5,7.4,1.4s4,2.3,5.5,4c1.5,1.8,2.6,4,3.4,6.5c0.8,2.6,1.2,5.5,1.2,8.8c0,6.7-1.5,11.9-4.5,15.5
							C332.2,44,327.9,45.8,322.3,45.8z"/>
					</g>
					<g>
						<path id="SegoeUI-Semilight-6e" d="M392.4,0v28.8c0,11.3-4.1,16.9-12.3,16.9c-2.2,0-4.2-0.4-6.1-1.3c-1.9-0.9-3.5-2-4.8-3.6
							c-1.3-1.5-2.4-3.3-3.2-5.5c-0.8-2.1-1.1-4.4-1.1-6.8V0h-6.2v50h6.2v-8.7h0.2c3.7,6.6,9.3,9.9,16.8,9.9c5.5,0,9.6-1.8,12.5-5.3
							c2.9-3.5,4.3-8.7,4.3-15.4V0H392.4z"/>
					</g>
					<g>
						<path id="SegoeUI-Semilight-20_1_" d="M405.7,0"/>
					</g>
					<g>
						<path id="SegoeUI-Semilight-72_3_" d="M465.9,43.6c-1.5,1.1-3.3,1.6-5.7,1.6c-1.7,0-3.1-0.3-4.4-1c-1.3-0.6-2.4-1.5-3.3-2.6
							c-1-1.1-1.8-2.3-2.4-3.7s-1.2-2.9-1.6-4.4s-0.7-3.1-0.9-4.6s-0.3-3-0.3-4.4V0h-6.2v50h6.2V39.3h0.2c0.6,1.8,1.3,3.5,2.2,4.9
							s1.9,2.7,3.1,3.7c1.2,1,2.5,1.7,3.8,2.3s2.8,0.8,4.4,0.8c1,0,1.9-0.1,2.7-0.2c0.8-0.1,1.5-0.3,2.2-0.6V43.6z"/>
					</g>
					<g>
						<path id="SegoeUI-Semilight-61_5_" d="M503.8,0v8.9h-0.2c-1.6-3.2-3.8-5.7-6.7-7.4c-2.8-1.8-6-2.6-9.5-2.6
							c-2.4,0-4.6,0.3-6.5,1c-1.9,0.7-3.6,1.6-4.9,2.9c-1.3,1.3-2.4,2.8-3.1,4.5c-0.7,1.8-1.1,3.7-1.1,5.8c0,4.5,1.4,8.1,4.2,10.8
							s7,4.4,12.7,5.2l15.2,2.2c0,9.6-3.7,14.4-11.2,14.4c-5.8,0-11.2-2.1-16.2-6.4v6.8c1,0.8,2.2,1.4,3.5,2
							c1.3,0.6,2.7,1.1,4.2,1.6s3,0.8,4.5,1c1.6,0.2,3.1,0.4,4.5,0.4c5.6,0,9.8-1.6,12.6-4.7s4.3-7.8,4.3-14V0H503.8z M490.9,24.3
							c-2.2-0.3-4.2-0.7-5.8-1.2s-2.9-1.2-4-2c-1-0.8-1.8-1.8-2.3-3.1c-0.5-1.2-0.7-2.7-0.7-4.5c0-1.3,0.2-2.6,0.7-3.7s1.2-2.1,2-3
							s2-1.5,3.3-1.9c1.3-0.4,2.8-0.7,4.4-0.7c2.2,0,4.3,0.4,6.1,1.3s3.5,2,4.8,3.5c1.4,1.5,2.4,3.3,3.2,5.4
							c0.8,2.1,1.1,4.3,1.1,6.8v4.9L490.9,24.3z"/>
					</g>
					<g>
						<path id="SegoeUI-Semilight-6e_1_" d="M558.8,0v28.8c0,11.3-4.1,16.9-12.3,16.9c-2.2,0-4.2-0.4-6.1-1.3
							c-1.9-0.9-3.5-2-4.8-3.6c-1.3-1.5-2.4-3.3-3.2-5.5c-0.8-2.1-1.1-4.4-1.1-6.8V0h-6.2v50h6.2v-8.7h0.2c3.7,6.6,9.3,9.9,16.8,9.9
							c5.5,0,9.6-1.8,12.5-5.3c2.9-3.5,4.3-8.7,4.3-15.4V0H558.8z"/>
					</g>
					<g>
						<path id="SegoeUI-Semilight-67_1_" d="M621.4,3.9c0-9.3-2.1-16.2-6.3-20.6c-4.2-4.5-10.7-6.7-19.5-6.7
							c-5.5,0-10.6,1.2-15.5,3.7v6.3c5.4-3,10.6-4.5,15.5-4.5c13.1,0,19.6,6.9,19.6,20.7v6H615c-3.8-6.6-9.7-9.9-17.6-9.9
							c-3.1,0-5.9,0.6-8.5,1.7c-2.6,1.1-4.7,2.8-6.6,4.9s-3.2,4.8-4.2,7.8c-1,3.1-1.5,6.6-1.5,10.4c0,4.1,0.5,7.8,1.6,11.2
							s2.6,6.2,4.6,8.7c2,2.4,4.4,4.3,7.2,5.6c2.8,1.3,6,2,9.5,2c7.1,0,12.2-2.9,15.5-8.6h0.2V50h6.2V3.9z M615.2,30.4
							c0,2.1-0.4,4.1-1.1,5.9c-0.7,1.9-1.8,3.5-3.1,4.9c-1.3,1.4-2.9,2.5-4.8,3.3c-1.8,0.8-3.9,1.2-6.1,1.2c-2.6,0-5-0.5-7.1-1.5
							c-2.1-1-3.9-2.4-5.4-4.3c-1.5-1.9-2.6-4.1-3.4-6.8c-0.8-2.6-1.2-5.6-1.2-9c0-3.1,0.4-5.8,1.1-8.3c0.8-2.5,1.8-4.6,3.2-6.3
							c1.4-1.7,3-3.1,5-4c1.9-0.9,4.1-1.4,6.5-1.4c2.5,0,4.7,0.4,6.7,1.3c2,0.9,3.7,2.1,5.2,3.7c1.4,1.6,2.5,3.4,3.3,5.6
							c0.8,2.1,1.2,4.4,1.2,6.9V30.4z"/>
					</g>
					<g>
						<path id="SegoeUI-Semilight-65_6_" d="M640.5,23.9c0-3.1,0.4-5.8,1.2-8.2s1.9-4.5,3.4-6.2c1.5-1.7,3.2-3,5.3-3.9
							c2.1-0.9,4.5-1.3,7.1-1.3c5.6,0,11,2,16,5.9V4c-4.8-3.4-10.6-5.1-17.4-5.1c-3.4,0-6.4,0.6-9.1,1.8c-2.7,1.2-5.1,2.9-7,5.1
							s-3.4,5-4.4,8.2c-1,3.3-1.6,7-1.6,11.1c0,3.8,0.6,7.2,1.7,10.4s2.7,5.9,4.7,8.3c2,2.3,4.4,4.2,7.2,5.5c2.8,1.3,5.8,2,9.1,2
							c3.2,0,6.1-0.6,8.5-1.7c2.5-1.1,4.6-2.7,6.2-4.8s3-4.6,3.8-7.6c0.9-3,1.3-6.3,1.3-10v-3.1H640.5z M670.2,29.3
							c-0.1,5.2-1.3,9.2-3.7,12.1s-5.7,4.3-9.9,4.3c-2.1,0-4.1-0.4-5.9-1.1c-1.8-0.8-3.4-1.8-4.8-3.2c-1.4-1.4-2.5-3.1-3.4-5.2
							c-0.9-2-1.5-4.3-1.9-6.9H670.2z"/>
					</g>
				</g>
			</g>
		</g>
		<g id="line2d_14">
			<g>
				<defs>
					<rect id="SVGID_5_" x="57.6" y="41.5" width="357.1" height="252.3"/>
				</defs>
				<clipPath id="SVGID_6_">
					<use xlink:href="#SVGID_5_"  style="overflow:visible;"/>
				</clipPath>
				<path class="st15" d="M57.6,135.3l4.6,17.7l4.6,125.2l4.6-165.9l4.6,120.2l4.6-161.6L85.1,204l4.6-126.2l4.6,101.5l4.6,41.9
					l4.6-119.9l4.6,92.4l4.6,6.2l4.6-7.7l4.6-110.8l4.6,129.8l4.6,29.7l4.6-7.2L140,56.8l4.6-3.8l4.6,80l4.6,51l4.6-18l4.6-40.9
					l4.6,51.2l4.6-105.3l4.6,124.7l4.6,46l4.6-129.3l4.6-47.6l4.6,97.4l4.6,117.8l4.6-208l4.6,165.4l4.6-70.1l4.6-35.7l4.6-4.5
					l4.6-58.2l4.6,110.1l4.6-74.9l4.6,110.1l4.6,4.5l4.6-6.5l4.6-140.5l4.6,107.3l4.6,53.9l4.6-171.4l4.6,70.1l4.6,150.8l4.6-141
					l4.6,87.1l4.6-139.3l4.6,110.8l4.6,23l4.6-108.2l4.6-9.3l4.6,130l4.6-93.1l4.6-61.5l4.6-3.4l4.6,150.6l4.6-147l4.6,102.9
					l4.6,41.7l4.6-53.1l4.6,13.9l4.6-79.7l4.6-27.1l4.6,87.9l4.6,23.9l4.6,17l4.6-118l4.6-33.5l4.6,80l4.6,50l4.6,26.1l4.6,35.4
					l4.6-144.8l4.6,33"/>
			</g>
			<g>
				<defs>
					<rect id="SVGID_7_" x="57.6" y="41.5" width="357.1" height="252.3"/>
				</defs>
				<clipPath id="SVGID_8_">
					<use xlink:href="#SVGID_7_"  style="overflow:visible;"/>
				</clipPath>
				<g class="st16">
					<g>
						<path id="m9143d90ac7" class="st12" d="M57.6,138.3c0.8,0,1.6-0.3,2.1-0.9c0.6-0.6,0.9-1.3,0.9-2.1s-0.3-1.6-0.9-2.1
							c-0.6-0.6-1.3-0.9-2.1-0.9s-1.6,0.3-2.1,0.9c-0.6,0.6-0.9,1.3-0.9,2.1s0.3,1.6,0.9,2.1C56,138,56.8,138.3,57.6,138.3z"/>
					</g>
					<g>
						<path id="m9143d90ac7_1_" class="st12" d="M62.2,156c0.8,0,1.6-0.3,2.1-0.9c0.6-0.6,0.9-1.3,0.9-2.1s-0.3-1.6-0.9-2.1
							c-0.6-0.6-1.3-0.9-2.1-0.9s-1.6,0.3-2.1,0.9c-0.6,0.6-0.9,1.3-0.9,2.1s0.3,1.6,0.9,2.1C60.6,155.7,61.4,156,62.2,156z"/>
					</g>
					<g>
						<path id="m9143d90ac7_2_" class="st12" d="M66.8,281.2c0.8,0,1.6-0.3,2.1-0.9c0.6-0.6,0.9-1.3,0.9-2.1s-0.3-1.6-0.9-2.1
							c-0.6-0.6-1.3-0.9-2.1-0.9s-1.6,0.3-2.1,0.9c-0.6,0.6-0.9,1.3-0.9,2.1s0.3,1.6,0.9,2.1C65.2,280.9,66,281.2,66.8,281.2z"/>
					</g>
					<g>
						<path id="m9143d90ac7_3_" class="st12" d="M71.3,115.3c0.8,0,1.6-0.3,2.1-0.9c0.6-0.6,0.9-1.3,0.9-2.1s-0.3-1.6-0.9-2.1
							c-0.6-0.6-1.3-0.9-2.1-0.9s-1.6,0.3-2.1,0.9c-0.6,0.6-0.9,1.3-0.9,2.1s0.3,1.6,0.9,2.1C69.8,115,70.5,115.3,71.3,115.3z"/>
					</g>
					<g>
						<path id="m9143d90ac7_4_" class="st12" d="M75.9,235.5c0.8,0,1.6-0.3,2.1-0.9c0.6-0.6,0.9-1.3,0.9-2.1s-0.3-1.6-0.9-2.1
							c-0.6-0.6-1.3-0.9-2.1-0.9s-1.6,0.3-2.1,0.9c-0.6,0.6-0.9,1.3-0.9,2.1s0.3,1.6,0.9,2.1C74.4,235.2,75.1,235.5,75.9,235.5z"/>
					</g>
					<g>
						<path id="m9143d90ac7_5_" class="st12" d="M80.5,73.9c0.8,0,1.6-0.3,2.1-0.9c0.6-0.6,0.9-1.3,0.9-2.1s-0.3-1.6-0.9-2.1
							c-0.6-0.6-1.3-0.9-2.1-0.9s-1.6,0.3-2.1,0.9c-0.6,0.6-0.9,1.3-0.9,2.1s0.3,1.6,0.9,2.1C78.9,73.6,79.7,73.9,80.5,73.9z"/>
					</g>
					<g>
						<path id="m9143d90ac7_6_" class="st12" d="M85.1,207c0.8,0,1.6-0.3,2.1-0.9c0.6-0.6,0.9-1.3,0.9-2.1s-0.3-1.6-0.9-2.1
							c-0.6-0.6-1.3-0.9-2.1-0.9s-1.6,0.3-2.1,0.9c-0.6,0.6-0.9,1.3-0.9,2.1s0.3,1.6,0.9,2.1C83.5,206.7,84.3,207,85.1,207z"/>
					</g>
					<g>
						<path id="m9143d90ac7_7_" class="st12" d="M89.6,80.8c0.8,0,1.6-0.3,2.1-0.9c0.6-0.6,0.9-1.3,0.9-2.1s-0.3-1.6-0.9-2.1
							c-0.6-0.6-1.3-0.9-2.1-0.9s-1.6,0.3-2.1,0.9c-0.6,0.6-0.9,1.3-0.9,2.1s0.3,1.6,0.9,2.1C88.1,80.5,88.9,80.8,89.6,80.8z"/>
					</g>
					<g>
						<path id="m9143d90ac7_8_" class="st12" d="M94.2,182.3c0.8,0,1.6-0.3,2.1-0.9c0.6-0.6,0.9-1.3,0.9-2.1s-0.3-1.6-0.9-2.1
							c-0.6-0.6-1.3-0.9-2.1-0.9s-1.6,0.3-2.1,0.9c-0.6,0.6-0.9,1.3-0.9,2.1s0.3,1.6,0.9,2.1C92.7,182,93.4,182.3,94.2,182.3z"/>
					</g>
					<g>
						<path id="m9143d90ac7_9_" class="st12" d="M98.8,224.2c0.8,0,1.6-0.3,2.1-0.9c0.6-0.6,0.9-1.3,0.9-2.1s-0.3-1.6-0.9-2.1
							c-0.6-0.6-1.3-0.9-2.1-0.9s-1.6,0.3-2.1,0.9c-0.6,0.6-0.9,1.3-0.9,2.1s0.3,1.6,0.9,2.1C97.2,223.9,98,224.2,98.8,224.2z"/>
					</g>
					<g>
						<path id="m9143d90ac7_10_" class="st12" d="M103.4,104.3c0.8,0,1.6-0.3,2.1-0.9c0.6-0.6,0.9-1.3,0.9-2.1s-0.3-1.6-0.9-2.1
							c-0.6-0.6-1.3-0.9-2.1-0.9s-1.6,0.3-2.1,0.9c-0.6,0.6-0.9,1.3-0.9,2.1s0.3,1.6,0.9,2.1C101.8,104,102.6,104.3,103.4,104.3z"/>
					</g>
					<g>
						<path id="m9143d90ac7_11_" class="st12" d="M108,196.7c0.8,0,1.6-0.3,2.1-0.9c0.6-0.6,0.9-1.3,0.9-2.1s-0.3-1.6-0.9-2.1
							c-0.6-0.6-1.3-0.9-2.1-0.9s-1.6,0.3-2.1,0.9c-0.6,0.6-0.9,1.3-0.9,2.1s0.3,1.6,0.9,2.1C106.4,196.4,107.2,196.7,108,196.7z"/>
					</g>
					<g>
						<path id="m9143d90ac7_12_" class="st12" d="M112.5,202.9c0.8,0,1.6-0.3,2.1-0.9c0.6-0.6,0.9-1.3,0.9-2.1s-0.3-1.6-0.9-2.1
							c-0.6-0.6-1.3-0.9-2.1-0.9s-1.6,0.3-2.1,0.9c-0.6,0.6-0.9,1.3-0.9,2.1s0.3,1.6,0.9,2.1C111,202.6,111.7,202.9,112.5,202.9z"/>
					</g>
					<g>
						<path id="m9143d90ac7_13_" class="st12" d="M117.1,195.3c0.8,0,1.6-0.3,2.1-0.9c0.6-0.6,0.9-1.3,0.9-2.1s-0.3-1.6-0.9-2.1
							c-0.6-0.6-1.3-0.9-2.1-0.9s-1.6,0.3-2.1,0.9c-0.6,0.6-0.9,1.3-0.9,2.1s0.3,1.6,0.9,2.1C115.6,195,116.3,195.3,117.1,195.3z"/>
					</g>
					<g>
						<path id="m9143d90ac7_14_" class="st12" d="M121.7,84.4c0.8,0,1.6-0.3,2.1-0.9c0.6-0.6,0.9-1.3,0.9-2.1s-0.3-1.6-0.9-2.1
							c-0.6-0.6-1.3-0.9-2.1-0.9s-1.6,0.3-2.1,0.9c-0.6,0.6-0.9,1.3-0.9,2.1s0.3,1.6,0.9,2.1C120.1,84.1,120.9,84.4,121.7,84.4z"/>
					</g>
					<g>
						<path id="m9143d90ac7_15_" class="st12" d="M126.3,214.2c0.8,0,1.6-0.3,2.1-0.9c0.6-0.6,0.9-1.3,0.9-2.1s-0.3-1.6-0.9-2.1
							c-0.6-0.6-1.3-0.9-2.1-0.9s-1.6,0.3-2.1,0.9c-0.6,0.6-0.9,1.3-0.9,2.1s0.3,1.6,0.9,2.1C124.7,213.9,125.5,214.2,126.3,214.2z"
							/>
					</g>
					<g>
						<path id="m9143d90ac7_16_" class="st12" d="M130.9,243.9c0.8,0,1.6-0.3,2.1-0.9s0.9-1.3,0.9-2.1s-0.3-1.6-0.9-2.1
							s-1.3-0.9-2.1-0.9s-1.6,0.3-2.1,0.9s-0.9,1.3-0.9,2.1s0.3,1.6,0.9,2.1S130.1,243.9,130.9,243.9z"/>
					</g>
					<g>
						<path id="m9143d90ac7_17_" class="st12" d="M135.4,236.7c0.8,0,1.6-0.3,2.1-0.9s0.9-1.3,0.9-2.1s-0.3-1.6-0.9-2.1
							s-1.3-0.9-2.1-0.9s-1.6,0.3-2.1,0.9s-0.9,1.3-0.9,2.1s0.3,1.6,0.9,2.1S134.6,236.7,135.4,236.7z"/>
					</g>
					<g>
						<path id="m9143d90ac7_18_" class="st12" d="M140,59.8c0.8,0,1.6-0.3,2.1-0.9c0.6-0.6,0.9-1.3,0.9-2.1s-0.3-1.6-0.9-2.1
							c-0.6-0.6-1.3-0.9-2.1-0.9s-1.6,0.3-2.1,0.9c-0.6,0.6-0.9,1.3-0.9,2.1s0.3,1.6,0.9,2.1C138.5,59.5,139.2,59.8,140,59.8z"/>
					</g>
					<g>
						<path id="m9143d90ac7_19_" class="st12" d="M144.6,55.9c0.8,0,1.6-0.3,2.1-0.9c0.6-0.6,0.9-1.3,0.9-2.1s-0.3-1.6-0.9-2.1
							c-0.6-0.6-1.3-0.9-2.1-0.9s-1.6,0.3-2.1,0.9c-0.6,0.6-0.9,1.3-0.9,2.1s0.3,1.6,0.9,2.1C143,55.6,143.8,55.9,144.6,55.9z"/>
					</g>
					<g>
						<path id="m9143d90ac7_20_" class="st12" d="M149.2,135.9c0.8,0,1.6-0.3,2.1-0.9s0.9-1.3,0.9-2.1s-0.3-1.6-0.9-2.1
							s-1.3-0.9-2.1-0.9s-1.6,0.3-2.1,0.9s-0.9,1.3-0.9,2.1s0.3,1.6,0.9,2.1S148.4,135.9,149.2,135.9z"/>
					</g>
					<g>
						<path id="m9143d90ac7_21_" class="st12" d="M153.7,186.9c0.8,0,1.6-0.3,2.1-0.9s0.9-1.3,0.9-2.1s-0.3-1.6-0.9-2.1
							s-1.3-0.9-2.1-0.9s-1.6,0.3-2.1,0.9s-0.9,1.3-0.9,2.1s0.3,1.6,0.9,2.1S153,186.9,153.7,186.9z"/>
					</g>
					<g>
						<path id="m9143d90ac7_22_" class="st12" d="M158.3,168.9c0.8,0,1.6-0.3,2.1-0.9s0.9-1.3,0.9-2.1s-0.3-1.6-0.9-2.1
							s-1.3-0.9-2.1-0.9s-1.6,0.3-2.1,0.9s-0.9,1.3-0.9,2.1s0.3,1.6,0.9,2.1S157.5,168.9,158.3,168.9z"/>
					</g>
					<g>
						<path id="m9143d90ac7_23_" class="st12" d="M162.9,128c0.8,0,1.6-0.3,2.1-0.9c0.6-0.6,0.9-1.3,0.9-2.1s-0.3-1.6-0.9-2.1
							c-0.6-0.6-1.3-0.9-2.1-0.9s-1.6,0.3-2.1,0.9c-0.6,0.6-0.9,1.3-0.9,2.1s0.3,1.6,0.9,2.1C161.3,127.7,162.1,128,162.9,128z"/>
					</g>
					<g>
						<path id="m9143d90ac7_24_" class="st12" d="M167.5,179.2c0.8,0,1.6-0.3,2.1-0.9s0.9-1.3,0.9-2.1s-0.3-1.6-0.9-2.1
							s-1.3-0.9-2.1-0.9s-1.6,0.3-2.1,0.9s-0.9,1.3-0.9,2.1s0.3,1.6,0.9,2.1S166.7,179.2,167.5,179.2z"/>
					</g>
					<g>
						<path id="m9143d90ac7_25_" class="st12" d="M172.1,73.9c0.8,0,1.6-0.3,2.1-0.9c0.6-0.6,0.9-1.3,0.9-2.1s-0.3-1.6-0.9-2.1
							c-0.6-0.6-1.3-0.9-2.1-0.9s-1.6,0.3-2.1,0.9c-0.6,0.6-0.9,1.3-0.9,2.1s0.3,1.6,0.9,2.1C170.5,73.6,171.3,73.9,172.1,73.9z"/>
					</g>
					<g>
						<path id="m9143d90ac7_26_" class="st12" d="M176.6,198.6c0.8,0,1.6-0.3,2.1-0.9s0.9-1.3,0.9-2.1s-0.3-1.6-0.9-2.1
							s-1.3-0.9-2.1-0.9s-1.6,0.3-2.1,0.9s-0.9,1.3-0.9,2.1s0.3,1.6,0.9,2.1S175.8,198.6,176.6,198.6z"/>
					</g>
					<g>
						<path id="m9143d90ac7_27_" class="st12" d="M181.2,244.6c0.8,0,1.6-0.3,2.1-0.9s0.9-1.3,0.9-2.1s-0.3-1.6-0.9-2.1
							s-1.3-0.9-2.1-0.9s-1.6,0.3-2.1,0.9s-0.9,1.3-0.9,2.1s0.3,1.6,0.9,2.1S180.4,244.6,181.2,244.6z"/>
					</g>
					<g>
						<path id="m9143d90ac7_28_" class="st12" d="M185.8,115.3c0.8,0,1.6-0.3,2.1-0.9c0.6-0.6,0.9-1.3,0.9-2.1s-0.3-1.6-0.9-2.1
							c-0.6-0.6-1.3-0.9-2.1-0.9s-1.6,0.3-2.1,0.9c-0.6,0.6-0.9,1.3-0.9,2.1s0.3,1.6,0.9,2.1C184.2,115,185,115.3,185.8,115.3z"/>
					</g>
					<g>
						<path id="m9143d90ac7_29_" class="st12" d="M190.4,67.7c0.8,0,1.6-0.3,2.1-0.9c0.6-0.6,0.9-1.3,0.9-2.1s-0.3-1.6-0.9-2.1
							c-0.6-0.6-1.3-0.9-2.1-0.9s-1.6,0.3-2.1,0.9c-0.6,0.6-0.9,1.3-0.9,2.1s0.3,1.6,0.9,2.1C188.8,67.4,189.6,67.7,190.4,67.7z"/>
					</g>
					<g>
						<path id="m9143d90ac7_30_" class="st12" d="M195,165.1c0.8,0,1.6-0.3,2.1-0.9s0.9-1.3,0.9-2.1s-0.3-1.6-0.9-2.1
							s-1.3-0.9-2.1-0.9s-1.6,0.3-2.1,0.9s-0.9,1.3-0.9,2.1s0.3,1.6,0.9,2.1S194.2,165.1,195,165.1z"/>
					</g>
					<g>
						<path id="m9143d90ac7_31_" class="st12" d="M199.5,282.9c0.8,0,1.6-0.3,2.1-0.9c0.6-0.6,0.9-1.3,0.9-2.1s-0.3-1.6-0.9-2.1
							c-0.6-0.6-1.3-0.9-2.1-0.9s-1.6,0.3-2.1,0.9c-0.6,0.6-0.9,1.3-0.9,2.1s0.3,1.6,0.9,2.1C198,282.6,198.7,282.9,199.5,282.9z"/>
					</g>
					<g>
						<path id="m9143d90ac7_32_" class="st12" d="M204.1,74.9c0.8,0,1.6-0.3,2.1-0.9c0.6-0.6,0.9-1.3,0.9-2.1s-0.3-1.6-0.9-2.1
							c-0.6-0.6-1.3-0.9-2.1-0.9s-1.6,0.3-2.1,0.9c-0.6,0.6-0.9,1.3-0.9,2.1s0.3,1.6,0.9,2.1C202.6,74.5,203.3,74.9,204.1,74.9z"/>
					</g>
					<g>
						<path id="m9143d90ac7_33_" class="st12" d="M208.7,240.3c0.8,0,1.6-0.3,2.1-0.9s0.9-1.3,0.9-2.1s-0.3-1.6-0.9-2.1
							s-1.3-0.9-2.1-0.9s-1.6,0.3-2.1,0.9s-0.9,1.3-0.9,2.1s0.3,1.6,0.9,2.1S207.9,240.3,208.7,240.3z"/>
					</g>
					<g>
						<path id="m9143d90ac7_34_" class="st12" d="M213.3,170.1c0.8,0,1.6-0.3,2.1-0.9s0.9-1.3,0.9-2.1s-0.3-1.6-0.9-2.1
							s-1.3-0.9-2.1-0.9s-1.6,0.3-2.1,0.9s-0.9,1.3-0.9,2.1s0.3,1.6,0.9,2.1S212.5,170.1,213.3,170.1z"/>
					</g>
					<g>
						<path id="m9143d90ac7_35_" class="st12" d="M217.8,134.5c0.8,0,1.6-0.3,2.1-0.9s0.9-1.3,0.9-2.1s-0.3-1.6-0.9-2.1
							s-1.3-0.9-2.1-0.9s-1.6,0.3-2.1,0.9s-0.9,1.3-0.9,2.1s0.3,1.6,0.9,2.1S217.1,134.5,217.8,134.5z"/>
					</g>
					<g>
						<path id="m9143d90ac7_36_" class="st12" d="M222.4,129.9c0.8,0,1.6-0.3,2.1-0.9c0.6-0.6,0.9-1.3,0.9-2.1s-0.3-1.6-0.9-2.1
							c-0.6-0.6-1.3-0.9-2.1-0.9s-1.6,0.3-2.1,0.9c-0.6,0.6-0.9,1.3-0.9,2.1s0.3,1.6,0.9,2.1C220.9,129.6,221.6,129.9,222.4,129.9z"
							/>
					</g>
					<g>
						<path id="m9143d90ac7_37_" class="st12" d="M227,71.7c0.8,0,1.6-0.3,2.1-0.9c0.6-0.6,0.9-1.3,0.9-2.1s-0.3-1.6-0.9-2.1
							c-0.6-0.6-1.3-0.9-2.1-0.9s-1.6,0.3-2.1,0.9c-0.6,0.6-0.9,1.3-0.9,2.1s0.3,1.6,0.9,2.1C225.4,71.4,226.2,71.7,227,71.7z"/>
					</g>
					<g>
						<path id="m9143d90ac7_38_" class="st12" d="M231.6,181.9c0.8,0,1.6-0.3,2.1-0.9s0.9-1.3,0.9-2.1s-0.3-1.6-0.9-2.1
							s-1.3-0.9-2.1-0.9s-1.6,0.3-2.1,0.9s-0.9,1.3-0.9,2.1s0.3,1.6,0.9,2.1S230.8,181.9,231.6,181.9z"/>
					</g>
					<g>
						<path id="m9143d90ac7_39_" class="st12" d="M236.2,106.9c0.8,0,1.6-0.3,2.1-0.9c0.6-0.6,0.9-1.3,0.9-2.1s-0.3-1.6-0.9-2.1
							c-0.6-0.6-1.3-0.9-2.1-0.9s-1.6,0.3-2.1,0.9c-0.6,0.6-0.9,1.3-0.9,2.1s0.3,1.6,0.9,2.1C234.6,106.6,235.4,106.9,236.2,106.9z"
							/>
					</g>
					<g>
						<path id="m9143d90ac7_40_" class="st12" d="M240.7,217.1c0.8,0,1.6-0.3,2.1-0.9s0.9-1.3,0.9-2.1s-0.3-1.6-0.9-2.1
							s-1.3-0.9-2.1-0.9s-1.6,0.3-2.1,0.9s-0.9,1.3-0.9,2.1s0.3,1.6,0.9,2.1S239.9,217.1,240.7,217.1z"/>
					</g>
					<g>
						<path id="m9143d90ac7_41_" class="st12" d="M245.3,221.6c0.8,0,1.6-0.3,2.1-0.9s0.9-1.3,0.9-2.1s-0.3-1.6-0.9-2.1
							s-1.3-0.9-2.1-0.9s-1.6,0.3-2.1,0.9s-0.9,1.3-0.9,2.1s0.3,1.6,0.9,2.1S244.5,221.6,245.3,221.6z"/>
					</g>
					<g>
						<path id="m9143d90ac7_42_" class="st12" d="M249.9,215.1c0.8,0,1.6-0.3,2.1-0.9s0.9-1.3,0.9-2.1s-0.3-1.6-0.9-2.1
							s-1.3-0.9-2.1-0.9s-1.6,0.3-2.1,0.9s-0.9,1.3-0.9,2.1s0.3,1.6,0.9,2.1S249.1,215.1,249.9,215.1z"/>
					</g>
					<g>
						<path id="m9143d90ac7_43_" class="st12" d="M254.5,74.6c0.8,0,1.6-0.3,2.1-0.9c0.6-0.6,0.9-1.3,0.9-2.1s-0.3-1.6-0.9-2.1
							c-0.6-0.6-1.3-0.9-2.1-0.9s-1.6,0.3-2.1,0.9c-0.6,0.6-0.9,1.3-0.9,2.1s0.3,1.6,0.9,2.1C252.9,74.3,253.7,74.6,254.5,74.6z"/>
					</g>
					<g>
						<path id="m9143d90ac7_44_" class="st12" d="M259.1,181.9c0.8,0,1.6-0.3,2.1-0.9c0.6-0.6,0.9-1.3,0.9-2.1s-0.3-1.6-0.9-2.1
							c-0.6-0.6-1.3-0.9-2.1-0.9s-1.6,0.3-2.1,0.9c-0.6,0.6-0.9,1.3-0.9,2.1s0.3,1.6,0.9,2.1C257.5,181.6,258.3,181.9,259.1,181.9z"
							/>
					</g>
					<g>
						<path id="m9143d90ac7_45_" class="st12" d="M263.6,235.7c0.8,0,1.6-0.3,2.1-0.9c0.6-0.6,0.9-1.3,0.9-2.1s-0.3-1.6-0.9-2.1
							c-0.6-0.6-1.3-0.9-2.1-0.9s-1.6,0.3-2.1,0.9c-0.6,0.6-0.9,1.3-0.9,2.1s0.3,1.6,0.9,2.1C262.1,235.4,262.8,235.7,263.6,235.7z"
							/>
					</g>
					<g>
						<path id="m9143d90ac7_46_" class="st12" d="M268.2,64.3c0.8,0,1.6-0.3,2.1-0.9c0.6-0.6,0.9-1.3,0.9-2.1s-0.3-1.6-0.9-2.1
							c-0.6-0.6-1.3-0.9-2.1-0.9s-1.6,0.3-2.1,0.9c-0.6,0.6-0.9,1.3-0.9,2.1s0.3,1.6,0.9,2.1C266.7,64,267.4,64.3,268.2,64.3z"/>
					</g>
					<g>
						<path id="m9143d90ac7_47_" class="st12" d="M272.8,134.5c0.8,0,1.6-0.3,2.1-0.9c0.6-0.6,0.9-1.3,0.9-2.1s-0.3-1.6-0.9-2.1
							c-0.6-0.6-1.3-0.9-2.1-0.9s-1.6,0.3-2.1,0.9c-0.6,0.6-0.9,1.3-0.9,2.1s0.3,1.6,0.9,2.1C271.2,134.1,272,134.5,272.8,134.5z"/>
					</g>
					<g>
						<path id="m9143d90ac7_48_" class="st12" d="M277.4,285.3c0.8,0,1.6-0.3,2.1-0.9c0.6-0.6,0.9-1.3,0.9-2.1s-0.3-1.6-0.9-2.1
							c-0.6-0.6-1.3-0.9-2.1-0.9s-1.6,0.3-2.1,0.9c-0.6,0.6-0.9,1.3-0.9,2.1s0.3,1.6,0.9,2.1C275.8,285,276.6,285.3,277.4,285.3z"/>
					</g>
					<g>
						<path id="m9143d90ac7_49_" class="st12" d="M281.9,144.3c0.8,0,1.6-0.3,2.1-0.9c0.6-0.6,0.9-1.3,0.9-2.1s-0.3-1.6-0.9-2.1
							c-0.6-0.6-1.3-0.9-2.1-0.9s-1.6,0.3-2.1,0.9c-0.6,0.6-0.9,1.3-0.9,2.1s0.3,1.6,0.9,2.1C280.4,144,281.1,144.3,281.9,144.3z"/>
					</g>
					<g>
						<path id="m9143d90ac7_50_" class="st12" d="M286.5,231.4c0.8,0,1.6-0.3,2.1-0.9c0.6-0.6,0.9-1.3,0.9-2.1s-0.3-1.6-0.9-2.1
							c-0.6-0.6-1.3-0.9-2.1-0.9s-1.6,0.3-2.1,0.9c-0.6,0.6-0.9,1.3-0.9,2.1s0.3,1.6,0.9,2.1C285,231.1,285.7,231.4,286.5,231.4z"/>
					</g>
					<g>
						<path id="m9143d90ac7_51_" class="st12" d="M291.1,92.1c0.8,0,1.6-0.3,2.1-0.9c0.6-0.6,0.9-1.3,0.9-2.1s-0.3-1.6-0.9-2.1
							c-0.6-0.6-1.3-0.9-2.1-0.9s-1.6,0.3-2.1,0.9c-0.6,0.6-0.9,1.3-0.9,2.1s0.3,1.6,0.9,2.1C289.5,91.8,290.3,92.1,291.1,92.1z"/>
					</g>
					<g>
						<path id="m9143d90ac7_52_" class="st12" d="M295.7,202.9c0.8,0,1.6-0.3,2.1-0.9c0.6-0.6,0.9-1.3,0.9-2.1s-0.3-1.6-0.9-2.1
							c-0.6-0.6-1.3-0.9-2.1-0.9s-1.6,0.3-2.1,0.9c-0.6,0.6-0.9,1.3-0.9,2.1s0.3,1.6,0.9,2.1C294.1,202.6,294.9,202.9,295.7,202.9z"
							/>
					</g>
					<g>
						<path id="m9143d90ac7_53_" class="st12" d="M300.3,225.9c0.8,0,1.6-0.3,2.1-0.9c0.6-0.6,0.9-1.3,0.9-2.1s-0.3-1.6-0.9-2.1
							c-0.6-0.6-1.3-0.9-2.1-0.9s-1.6,0.3-2.1,0.9c-0.6,0.6-0.9,1.3-0.9,2.1s0.3,1.6,0.9,2.1C298.7,225.6,299.5,225.9,300.3,225.9z"
							/>
					</g>
					<g>
						<path id="m9143d90ac7_54_" class="st12" d="M304.8,117.7c0.8,0,1.6-0.3,2.1-0.9c0.6-0.6,0.9-1.3,0.9-2.1s-0.3-1.6-0.9-2.1
							c-0.6-0.6-1.3-0.9-2.1-0.9s-1.6,0.3-2.1,0.9c-0.6,0.6-0.9,1.3-0.9,2.1s0.3,1.6,0.9,2.1C303.3,117.4,304,117.7,304.8,117.7z"/>
					</g>
					<g>
						<path id="m9143d90ac7_55_" class="st12" d="M309.4,108.4c0.8,0,1.6-0.3,2.1-0.9c0.6-0.6,0.9-1.3,0.9-2.1s-0.3-1.6-0.9-2.1
							c-0.6-0.6-1.3-0.9-2.1-0.9s-1.6,0.3-2.1,0.9c-0.6,0.6-0.9,1.3-0.9,2.1s0.3,1.6,0.9,2.1C307.9,108.1,308.6,108.4,309.4,108.4z"
							/>
					</g>
					<g>
						<path id="m9143d90ac7_56_" class="st12" d="M314,238.4c0.8,0,1.6-0.3,2.1-0.9c0.6-0.6,0.9-1.3,0.9-2.1s-0.3-1.6-0.9-2.1
							c-0.6-0.6-1.3-0.9-2.1-0.9s-1.6,0.3-2.1,0.9c-0.6,0.6-0.9,1.3-0.9,2.1s0.3,1.6,0.9,2.1C312.4,238.1,313.2,238.4,314,238.4z"/>
					</g>
					<g>
						<path id="m9143d90ac7_57_" class="st12" d="M318.6,145.2c0.8,0,1.6-0.3,2.1-0.9c0.6-0.6,0.9-1.3,0.9-2.1s-0.3-1.6-0.9-2.1
							c-0.6-0.6-1.3-0.9-2.1-0.9s-1.6,0.3-2.1,0.9c-0.6,0.6-0.9,1.3-0.9,2.1s0.3,1.6,0.9,2.1C317,144.9,317.8,145.2,318.6,145.2z"/>
					</g>
					<g>
						<path id="m9143d90ac7_58_" class="st12" d="M323.2,83.7c0.8,0,1.6-0.3,2.1-0.9c0.6-0.6,0.9-1.3,0.9-2.1s-0.3-1.6-0.9-2.1
							c-0.6-0.6-1.3-0.9-2.1-0.9s-1.6,0.3-2.1,0.9c-0.6,0.6-0.9,1.3-0.9,2.1s0.3,1.6,0.9,2.1C321.6,83.4,322.4,83.7,323.2,83.7z"/>
					</g>
					<g>
						<path id="m9143d90ac7_59_" class="st12" d="M327.7,80.4c0.8,0,1.6-0.3,2.1-0.9c0.6-0.6,0.9-1.3,0.9-2.1s-0.3-1.6-0.9-2.1
							c-0.6-0.6-1.3-0.9-2.1-0.9s-1.6,0.3-2.1,0.9c-0.6,0.6-0.9,1.3-0.9,2.1s0.3,1.6,0.9,2.1C326.2,80,326.9,80.4,327.7,80.4z"/>
					</g>
					<g>
						<path id="m9143d90ac7_60_" class="st12" d="M332.3,230.9c0.8,0,1.6-0.3,2.1-0.9c0.6-0.6,0.9-1.3,0.9-2.1s-0.3-1.6-0.9-2.1
							c-0.6-0.6-1.3-0.9-2.1-0.9s-1.6,0.3-2.1,0.9c-0.6,0.6-0.9,1.3-0.9,2.1s0.3,1.6,0.9,2.1C330.7,230.6,331.5,230.9,332.3,230.9z"
							/>
					</g>
					<g>
						<path id="m9143d90ac7_61_" class="st12" d="M336.9,84c0.8,0,1.6-0.3,2.1-0.9c0.6-0.6,0.9-1.3,0.9-2.1s-0.3-1.6-0.9-2.1
							c-0.6-0.6-1.3-0.9-2.1-0.9s-1.6,0.3-2.1,0.9c-0.6,0.6-0.9,1.3-0.9,2.1s0.3,1.6,0.9,2.1C335.3,83.6,336.1,84,336.9,84z"/>
					</g>
					<g>
						<path id="m9143d90ac7_62_" class="st12" d="M341.5,186.9c0.8,0,1.6-0.3,2.1-0.9c0.6-0.6,0.9-1.3,0.9-2.1s-0.3-1.6-0.9-2.1
							c-0.6-0.6-1.3-0.9-2.1-0.9s-1.6,0.3-2.1,0.9c-0.6,0.6-0.9,1.3-0.9,2.1s0.3,1.6,0.9,2.1C339.9,186.6,340.7,186.9,341.5,186.9z"
							/>
					</g>
					<g>
						<path id="m9143d90ac7_63_" class="st12" d="M346,228.6c0.8,0,1.6-0.3,2.1-0.9c0.6-0.6,0.9-1.3,0.9-2.1s-0.3-1.6-0.9-2.1
							c-0.6-0.6-1.3-0.9-2.1-0.9s-1.6,0.3-2.1,0.9c-0.6,0.6-0.9,1.3-0.9,2.1s0.3,1.6,0.9,2.1C344.5,228.2,345.2,228.6,346,228.6z"/>
					</g>
					<g>
						<path id="m9143d90ac7_64_" class="st12" d="M350.6,175.4c0.8,0,1.6-0.3,2.1-0.9c0.6-0.6,0.9-1.3,0.9-2.1s-0.3-1.6-0.9-2.1
							c-0.6-0.6-1.3-0.9-2.1-0.9s-1.6,0.3-2.1,0.9c-0.6,0.6-0.9,1.3-0.9,2.1s0.3,1.6,0.9,2.1C349.1,175.1,349.8,175.4,350.6,175.4z"
							/>
					</g>
					<g>
						<path id="m9143d90ac7_65_" class="st12" d="M355.2,189.3c0.8,0,1.6-0.3,2.1-0.9c0.6-0.6,0.9-1.3,0.9-2.1s-0.3-1.6-0.9-2.1
							c-0.6-0.6-1.3-0.9-2.1-0.9s-1.6,0.3-2.1,0.9c-0.6,0.6-0.9,1.3-0.9,2.1s0.3,1.6,0.9,2.1C353.6,189,354.4,189.3,355.2,189.3z"/>
					</g>
					<g>
						<path id="m9143d90ac7_66_" class="st12" d="M359.8,109.6c0.8,0,1.6-0.3,2.1-0.9c0.6-0.6,0.9-1.3,0.9-2.1s-0.3-1.6-0.9-2.1
							c-0.6-0.6-1.3-0.9-2.1-0.9s-1.6,0.3-2.1,0.9c-0.6,0.6-0.9,1.3-0.9,2.1s0.3,1.6,0.9,2.1C358.2,109.3,359,109.6,359.8,109.6z"/>
					</g>
					<g>
						<path id="m9143d90ac7_67_" class="st12" d="M364.4,82.5c0.8,0,1.6-0.3,2.1-0.9c0.6-0.6,0.9-1.3,0.9-2.1s-0.3-1.6-0.9-2.1
							c-0.6-0.6-1.3-0.9-2.1-0.9s-1.6,0.3-2.1,0.9c-0.6,0.6-0.9,1.3-0.9,2.1s0.3,1.6,0.9,2.1C362.8,82.2,363.6,82.5,364.4,82.5z"/>
					</g>
					<g>
						<path id="m9143d90ac7_68_" class="st12" d="M368.9,170.4c0.8,0,1.6-0.3,2.1-0.9c0.6-0.6,0.9-1.3,0.9-2.1s-0.3-1.6-0.9-2.1
							c-0.6-0.6-1.3-0.9-2.1-0.9s-1.6,0.3-2.1,0.9c-0.6,0.6-0.9,1.3-0.9,2.1s0.3,1.6,0.9,2.1C367.4,170.1,368.1,170.4,368.9,170.4z"
							/>
					</g>
					<g>
						<path id="m9143d90ac7_69_" class="st12" d="M373.5,194.3c0.8,0,1.6-0.3,2.1-0.9c0.6-0.6,0.9-1.3,0.9-2.1s-0.3-1.6-0.9-2.1
							c-0.6-0.6-1.3-0.9-2.1-0.9s-1.6,0.3-2.1,0.9c-0.6,0.6-0.9,1.3-0.9,2.1s0.3,1.6,0.9,2.1C372,194,372.7,194.3,373.5,194.3z"/>
					</g>
					<g>
						<path id="m9143d90ac7_70_" class="st12" d="M378.1,211.3c0.8,0,1.6-0.3,2.1-0.9c0.6-0.6,0.9-1.3,0.9-2.1s-0.3-1.6-0.9-2.1
							c-0.6-0.6-1.3-0.9-2.1-0.9s-1.6,0.3-2.1,0.9c-0.6,0.6-0.9,1.3-0.9,2.1s0.3,1.6,0.9,2.1C376.5,211,377.3,211.3,378.1,211.3z"/>
					</g>
					<g>
						<path id="m9143d90ac7_71_" class="st12" d="M382.7,93.3c0.8,0,1.6-0.3,2.1-0.9c0.6-0.6,0.9-1.3,0.9-2.1s-0.3-1.6-0.9-2.1
							c-0.6-0.6-1.3-0.9-2.1-0.9s-1.6,0.3-2.1,0.9c-0.6,0.6-0.9,1.3-0.9,2.1s0.3,1.6,0.9,2.1C381.1,93,381.9,93.3,382.7,93.3z"/>
					</g>
					<g>
						<path id="m9143d90ac7_72_" class="st12" d="M387.2,59.8c0.8,0,1.6-0.3,2.1-0.9c0.6-0.6,0.9-1.3,0.9-2.1s-0.3-1.6-0.9-2.1
							c-0.6-0.6-1.3-0.9-2.1-0.9s-1.6,0.3-2.1,0.9c-0.6,0.6-0.9,1.3-0.9,2.1s0.3,1.6,0.9,2.1C385.7,59.5,386.5,59.8,387.2,59.8z"/>
					</g>
					<g>
						<path id="m9143d90ac7_73_" class="st12" d="M391.8,139.7c0.8,0,1.6-0.3,2.1-0.9c0.6-0.6,0.9-1.3,0.9-2.1s-0.3-1.6-0.9-2.1
							c-0.6-0.6-1.3-0.9-2.1-0.9s-1.6,0.3-2.1,0.9c-0.6,0.6-0.9,1.3-0.9,2.1s0.3,1.6,0.9,2.1C390.3,139.4,391,139.7,391.8,139.7z"/>
					</g>
					<g>
						<path id="m9143d90ac7_74_" class="st12" d="M396.4,189.8c0.8,0,1.6-0.3,2.1-0.9c0.6-0.6,0.9-1.3,0.9-2.1s-0.3-1.6-0.9-2.1
							c-0.6-0.6-1.3-0.9-2.1-0.9s-1.6,0.3-2.1,0.9c-0.6,0.6-0.9,1.3-0.9,2.1s0.3,1.6,0.9,2.1C394.8,189.5,395.6,189.8,396.4,189.8z"
							/>
					</g>
					<g>
						<path id="m9143d90ac7_75_" class="st12" d="M401,215.9c0.8,0,1.6-0.3,2.1-0.9c0.6-0.6,0.9-1.3,0.9-2.1s-0.3-1.6-0.9-2.1
							c-0.6-0.6-1.3-0.9-2.1-0.9s-1.6,0.3-2.1,0.9c-0.6,0.6-0.9,1.3-0.9,2.1s0.3,1.6,0.9,2.1C399.4,215.5,400.2,215.9,401,215.9z"/>
					</g>
					<g>
						<path id="m9143d90ac7_76_" class="st12" d="M405.6,251.3c0.8,0,1.6-0.3,2.1-0.9c0.6-0.6,0.9-1.3,0.9-2.1s-0.3-1.6-0.9-2.1
							c-0.6-0.6-1.3-0.9-2.1-0.9s-1.6,0.3-2.1,0.9c-0.6,0.6-0.9,1.3-0.9,2.1s0.3,1.6,0.9,2.1C404,251,404.8,251.3,405.6,251.3z"/>
					</g>
					<g>
						<path id="m9143d90ac7_77_" class="st12" d="M410.1,106.5c0.8,0,1.6-0.3,2.1-0.9c0.6-0.6,0.9-1.3,0.9-2.1s-0.3-1.6-0.9-2.1
							c-0.6-0.6-1.3-0.9-2.1-0.9s-1.6,0.3-2.1,0.9c-0.6,0.6-0.9,1.3-0.9,2.1s0.3,1.6,0.9,2.1C408.6,106.1,409.3,106.5,410.1,106.5z"
							/>
					</g>
					<g>
						<path id="m9143d90ac7_78_" class="st12" d="M414.7,139.5c0.8,0,1.6-0.3,2.1-0.9c0.6-0.6,0.9-1.3,0.9-2.1s-0.3-1.6-0.9-2.1
							c-0.6-0.6-1.3-0.9-2.1-0.9s-1.6,0.3-2.1,0.9c-0.6,0.6-0.9,1.3-0.9,2.1s0.3,1.6,0.9,2.1C413.2,139.2,413.9,139.5,414.7,139.5z"
							/>
					</g>
				</g>
			</g>
		</g>
	</g>
</g>
</svg>
