<?xml version="1.0" encoding="utf-8" standalone="no"?>
<!DOCTYPE svg PUBLIC "-//W3C//DTD SVG 1.1//EN"
  "http://www.w3.org/Graphics/SVG/1.1/DTD/svg11.dtd">
<!-- Created with matplotlib (http://matplotlib.org/) -->
<svg height="216pt" version="1.1" viewBox="0 0 504 216" width="504pt" xmlns="http://www.w3.org/2000/svg" xmlns:xlink="http://www.w3.org/1999/xlink">
 <defs>
  <style type="text/css">
*{stroke-linecap:butt;stroke-linejoin:round;}
  </style>
 </defs>
 <g id="figure_1">
  <g id="patch_1">
   <path d="
M0 216
L504 216
L504 0
L0 0
z
" style="fill:#ffffff;"/>
  </g>
  <g id="axes_1">
   <g id="patch_2">
    <path d="
M63 183.6
L453.6 183.6
L453.6 21.6
L63 21.6
z
" style="fill:#ffffff;"/>
   </g>
   <g id="patch_3">
    <path clip-path="url(#p8dcc4a8cc7)" d="
M63 189.02
L476.454 189.02
L476.454 138.803
L63 138.803
z
" style="fill:url(#hf78fc4a0a7);opacity:0.5;stroke:#ff0000;"/>
   </g>
   <g id="line2d_1">
    <path clip-path="url(#p8dcc4a8cc7)" d="
M63 176.937
L65.0777 175.654
L67.1553 177.651
L69.233 176.793
L71.3106 175.525
L73.3883 176.321
L75.466 164.429
L77.5436 143.257
L79.6213 166.674
L81.6989 150.915
L83.7766 179.821
L85.8543 177.069
L87.9319 178.922
L90.0096 179.097
L92.0872 92.4884
L94.1649 40.8105
L96.2426 163.534
L98.3202 176.097
L100.398 175.288
L102.476 177.561
L104.553 157.687
L106.631 118.974
L108.709 135.547
L110.786 178.546
L112.864 170.838
L114.941 172.503
L117.019 177.193
L119.097 176.952
L121.174 177.237
L123.252 156.933
L125.33 54.0121
L127.407 75.2067
L129.485 166.381
L131.563 169.188
L133.64 165.967
L135.718 173.761
L137.796 176.498
L139.873 163.398
L141.951 106.997
L144.029 138.45
L146.106 167.864
L148.184 176.321
L150.262 176.118
L152.339 179.874
L154.417 179.751
L156.495 165.321
L158.572 166.705
L160.65 174.624
L162.728 176.535
L164.805 171.823
L166.883 178.894
L168.961 150.766
L171.038 133.252
L173.116 173.239
L175.194 162.911
L177.271 169.977
L179.349 177.913
L181.427 179.446
L183.504 169.984
L185.582 158.43
L187.66 130.647
L189.737 168.196
L191.815 174.653
L193.893 176.118
L195.97 175.061
L198.048 170.6
L200.126 173.255
L202.203 179.977
L204.281 171.351
L206.359 177.193
L208.436 176.987
L210.514 175.128
L212.591 179.678
L214.669 171.84
L216.747 173.63
L218.824 178.196
L220.902 173.644
L222.98 179.289
L225.057 180.178
L227.135 174.246
L229.213 173.726
L231.29 178.253
L233.368 176.307
L235.446 180.241
L237.523 179.874
L239.601 177.617
L241.679 177.442
L243.756 177.565
L245.834 162.021
L247.912 174.576
L249.989 177.876
L252.067 169.06
L254.145 131.598
L256.222 139.285
L258.3 172.716
L260.378 169.034
L262.455 165.975
L264.533 174.163
L266.611 178.397
L268.688 179.107
L270.766 150.145
L272.844 24.9432
L274.921 129.732
L276.999 178.982
L279.077 168.741
L281.154 169.526
L283.232 179.813
L285.31 121.086
L287.387 71.3044
L289.465 142.884
L291.543 171.797
L293.62 160.163
L295.698 161.838
L297.776 163.14
L299.853 179.591
L301.931 171.319
L304.009 160.607
L306.086 148.004
L308.164 177.087
L310.241 175.361
L312.319 172.453
L314.397 174.566
L316.474 179.599
L318.552 177.5
L320.63 108.775
L322.707 66.7379
L324.785 154.187
L326.863 171.823
L328.94 167.78
L331.018 177.07
L333.096 171.403
L335.173 177.233
L337.251 163.1
L339.329 150.226
L341.406 146.454
L343.484 151.287
L345.562 173.255
L347.639 176.307
L351.795 174.394
L353.872 179.391
L355.95 178.693
L358.028 162.503
L360.105 169.958
L362.183 173.445
L364.261 176.276
L366.338 180.155
L368.416 180.257
L370.494 177.054
L372.571 174.32
L374.649 155.508
L376.727 171.571
L378.804 168.957
L380.882 156.957
L382.96 172.797
L385.037 172.472
L387.115 179.141
L389.193 177.326
L391.27 174.554
L393.348 179.635
L395.426 175.997
L397.503 179.81
L399.581 143.948
L401.659 128.11
L403.736 165.151
L405.814 169.615
L407.891 174.791
L409.969 179.556
L412.047 174.624
L414.124 155.612
L416.202 159.744
L418.28 176.279
L420.357 177.356
L422.435 176.169
L424.513 152.007
L426.59 123.659
L428.668 142.91
L430.746 176.065
L432.823 178.333
L434.901 179.279
L436.979 174.097
L439.056 154.999
L441.134 174.946
L443.212 159.649
L445.289 168.921
L447.367 162.226
L449.445 170.926
L451.522 171.312
L453.6 175.072
L453.6 175.072" style="fill:none;stroke:#7548fb;stroke-linecap:square;"/>
    <defs>
     <path d="
M0 3
C0.795609 3 1.55874 2.6839 2.12132 2.12132
C2.6839 1.55874 3 0.795609 3 0
C3 -0.795609 2.6839 -1.55874 2.12132 -2.12132
C1.55874 -2.6839 0.795609 -3 0 -3
C-0.795609 -3 -1.55874 -2.6839 -2.12132 -2.12132
C-2.6839 -1.55874 -3 -0.795609 -3 0
C-3 0.795609 -2.6839 1.55874 -2.12132 2.12132
C-1.55874 2.6839 -0.795609 3 0 3
z
" id="m98d2a13c80" style="stroke:#000000;stroke-width:0.5;"/>
    </defs>
    <g clip-path="url(#p8dcc4a8cc7)">
     <use style="fill:#7548fb;stroke:#000000;stroke-width:0.5;" x="63.0" xlink:href="#m98d2a13c80" y="176.937232809"/>
     <use style="fill:#7548fb;stroke:#000000;stroke-width:0.5;" x="65.0776595745" xlink:href="#m98d2a13c80" y="175.654254133"/>
     <use style="fill:#7548fb;stroke:#000000;stroke-width:0.5;" x="67.1553191489" xlink:href="#m98d2a13c80" y="177.651257342"/>
     <use style="fill:#7548fb;stroke:#000000;stroke-width:0.5;" x="69.2329787234" xlink:href="#m98d2a13c80" y="176.792772865"/>
     <use style="fill:#7548fb;stroke:#000000;stroke-width:0.5;" x="71.3106382979" xlink:href="#m98d2a13c80" y="175.525029118"/>
     <use style="fill:#7548fb;stroke:#000000;stroke-width:0.5;" x="73.3882978723" xlink:href="#m98d2a13c80" y="176.320903832"/>
     <use style="fill:#7548fb;stroke:#000000;stroke-width:0.5;" x="75.4659574468" xlink:href="#m98d2a13c80" y="164.429027582"/>
     <use style="fill:#7548fb;stroke:#000000;stroke-width:0.5;" x="77.5436170213" xlink:href="#m98d2a13c80" y="143.257168988"/>
     <use style="fill:#7548fb;stroke:#000000;stroke-width:0.5;" x="79.6212765957" xlink:href="#m98d2a13c80" y="166.674348472"/>
     <use style="fill:#7548fb;stroke:#000000;stroke-width:0.5;" x="81.6989361702" xlink:href="#m98d2a13c80" y="150.915098911"/>
     <use style="fill:#7548fb;stroke:#000000;stroke-width:0.5;" x="83.7765957447" xlink:href="#m98d2a13c80" y="179.821268175"/>
     <use style="fill:#7548fb;stroke:#000000;stroke-width:0.5;" x="85.8542553191" xlink:href="#m98d2a13c80" y="177.068713139"/>
     <use style="fill:#7548fb;stroke:#000000;stroke-width:0.5;" x="87.9319148936" xlink:href="#m98d2a13c80" y="178.922104156"/>
     <use style="fill:#7548fb;stroke:#000000;stroke-width:0.5;" x="90.0095744681" xlink:href="#m98d2a13c80" y="179.096779998"/>
     <use style="fill:#7548fb;stroke:#000000;stroke-width:0.5;" x="92.0872340426" xlink:href="#m98d2a13c80" y="92.4884101488"/>
     <use style="fill:#7548fb;stroke:#000000;stroke-width:0.5;" x="94.164893617" xlink:href="#m98d2a13c80" y="40.8104665686"/>
     <use style="fill:#7548fb;stroke:#000000;stroke-width:0.5;" x="96.2425531915" xlink:href="#m98d2a13c80" y="163.534153131"/>
     <use style="fill:#7548fb;stroke:#000000;stroke-width:0.5;" x="98.320212766" xlink:href="#m98d2a13c80" y="176.096551656"/>
     <use style="fill:#7548fb;stroke:#000000;stroke-width:0.5;" x="100.39787234" xlink:href="#m98d2a13c80" y="175.287984477"/>
     <use style="fill:#7548fb;stroke:#000000;stroke-width:0.5;" x="102.475531915" xlink:href="#m98d2a13c80" y="177.560632604"/>
     <use style="fill:#7548fb;stroke:#000000;stroke-width:0.5;" x="104.553191489" xlink:href="#m98d2a13c80" y="157.687014233"/>
     <use style="fill:#7548fb;stroke:#000000;stroke-width:0.5;" x="106.630851064" xlink:href="#m98d2a13c80" y="118.974448244"/>
     <use style="fill:#7548fb;stroke:#000000;stroke-width:0.5;" x="108.708510638" xlink:href="#m98d2a13c80" y="135.547085598"/>
     <use style="fill:#7548fb;stroke:#000000;stroke-width:0.5;" x="110.786170213" xlink:href="#m98d2a13c80" y="178.546250689"/>
     <use style="fill:#7548fb;stroke:#000000;stroke-width:0.5;" x="112.863829787" xlink:href="#m98d2a13c80" y="170.837686697"/>
     <use style="fill:#7548fb;stroke:#000000;stroke-width:0.5;" x="114.941489362" xlink:href="#m98d2a13c80" y="172.502811355"/>
     <use style="fill:#7548fb;stroke:#000000;stroke-width:0.5;" x="117.019148936" xlink:href="#m98d2a13c80" y="177.192669116"/>
     <use style="fill:#7548fb;stroke:#000000;stroke-width:0.5;" x="119.096808511" xlink:href="#m98d2a13c80" y="176.952135712"/>
     <use style="fill:#7548fb;stroke:#000000;stroke-width:0.5;" x="121.174468085" xlink:href="#m98d2a13c80" y="177.237281335"/>
     <use style="fill:#7548fb;stroke:#000000;stroke-width:0.5;" x="123.25212766" xlink:href="#m98d2a13c80" y="156.932580636"/>
     <use style="fill:#7548fb;stroke:#000000;stroke-width:0.5;" x="125.329787234" xlink:href="#m98d2a13c80" y="54.0120892667"/>
     <use style="fill:#7548fb;stroke:#000000;stroke-width:0.5;" x="127.407446809" xlink:href="#m98d2a13c80" y="75.2066656197"/>
     <use style="fill:#7548fb;stroke:#000000;stroke-width:0.5;" x="129.485106383" xlink:href="#m98d2a13c80" y="166.381171784"/>
     <use style="fill:#7548fb;stroke:#000000;stroke-width:0.5;" x="131.562765957" xlink:href="#m98d2a13c80" y="169.188270477"/>
     <use style="fill:#7548fb;stroke:#000000;stroke-width:0.5;" x="133.640425532" xlink:href="#m98d2a13c80" y="165.967145858"/>
     <use style="fill:#7548fb;stroke:#000000;stroke-width:0.5;" x="135.718085106" xlink:href="#m98d2a13c80" y="173.761344813"/>
     <use style="fill:#7548fb;stroke:#000000;stroke-width:0.5;" x="137.795744681" xlink:href="#m98d2a13c80" y="176.498335083"/>
     <use style="fill:#7548fb;stroke:#000000;stroke-width:0.5;" x="139.873404255" xlink:href="#m98d2a13c80" y="163.39841989"/>
     <use style="fill:#7548fb;stroke:#000000;stroke-width:0.5;" x="141.95106383" xlink:href="#m98d2a13c80" y="106.997311861"/>
     <use style="fill:#7548fb;stroke:#000000;stroke-width:0.5;" x="144.028723404" xlink:href="#m98d2a13c80" y="138.450327121"/>
     <use style="fill:#7548fb;stroke:#000000;stroke-width:0.5;" x="146.106382979" xlink:href="#m98d2a13c80" y="167.864491601"/>
     <use style="fill:#7548fb;stroke:#000000;stroke-width:0.5;" x="148.184042553" xlink:href="#m98d2a13c80" y="176.320903832"/>
     <use style="fill:#7548fb;stroke:#000000;stroke-width:0.5;" x="150.261702128" xlink:href="#m98d2a13c80" y="176.117801868"/>
     <use style="fill:#7548fb;stroke:#000000;stroke-width:0.5;" x="152.339361702" xlink:href="#m98d2a13c80" y="179.873800769"/>
     <use style="fill:#7548fb;stroke:#000000;stroke-width:0.5;" x="154.417021277" xlink:href="#m98d2a13c80" y="179.751095973"/>
     <use style="fill:#7548fb;stroke:#000000;stroke-width:0.5;" x="156.494680851" xlink:href="#m98d2a13c80" y="165.320986514"/>
     <use style="fill:#7548fb;stroke:#000000;stroke-width:0.5;" x="158.572340426" xlink:href="#m98d2a13c80" y="166.705051718"/>
     <use style="fill:#7548fb;stroke:#000000;stroke-width:0.5;" x="160.65" xlink:href="#m98d2a13c80" y="174.624036573"/>
     <use style="fill:#7548fb;stroke:#000000;stroke-width:0.5;" x="162.727659574" xlink:href="#m98d2a13c80" y="176.534812295"/>
     <use style="fill:#7548fb;stroke:#000000;stroke-width:0.5;" x="164.805319149" xlink:href="#m98d2a13c80" y="171.823190851"/>
     <use style="fill:#7548fb;stroke:#000000;stroke-width:0.5;" x="166.882978723" xlink:href="#m98d2a13c80" y="178.893614356"/>
     <use style="fill:#7548fb;stroke:#000000;stroke-width:0.5;" x="168.960638298" xlink:href="#m98d2a13c80" y="150.765822069"/>
     <use style="fill:#7548fb;stroke:#000000;stroke-width:0.5;" x="171.038297872" xlink:href="#m98d2a13c80" y="133.252009859"/>
     <use style="fill:#7548fb;stroke:#000000;stroke-width:0.5;" x="173.115957447" xlink:href="#m98d2a13c80" y="173.238951614"/>
     <use style="fill:#7548fb;stroke:#000000;stroke-width:0.5;" x="175.193617021" xlink:href="#m98d2a13c80" y="162.910837014"/>
     <use style="fill:#7548fb;stroke:#000000;stroke-width:0.5;" x="177.271276596" xlink:href="#m98d2a13c80" y="169.977426514"/>
     <use style="fill:#7548fb;stroke:#000000;stroke-width:0.5;" x="179.34893617" xlink:href="#m98d2a13c80" y="177.912741402"/>
     <use style="fill:#7548fb;stroke:#000000;stroke-width:0.5;" x="181.426595745" xlink:href="#m98d2a13c80" y="179.446422402"/>
     <use style="fill:#7548fb;stroke:#000000;stroke-width:0.5;" x="183.504255319" xlink:href="#m98d2a13c80" y="169.984488315"/>
     <use style="fill:#7548fb;stroke:#000000;stroke-width:0.5;" x="185.581914894" xlink:href="#m98d2a13c80" y="158.430389582"/>
     <use style="fill:#7548fb;stroke:#000000;stroke-width:0.5;" x="187.659574468" xlink:href="#m98d2a13c80" y="130.647039703"/>
     <use style="fill:#7548fb;stroke:#000000;stroke-width:0.5;" x="189.737234043" xlink:href="#m98d2a13c80" y="168.195713132"/>
     <use style="fill:#7548fb;stroke:#000000;stroke-width:0.5;" x="191.814893617" xlink:href="#m98d2a13c80" y="174.653408319"/>
     <use style="fill:#7548fb;stroke:#000000;stroke-width:0.5;" x="193.892553191" xlink:href="#m98d2a13c80" y="176.117801868"/>
     <use style="fill:#7548fb;stroke:#000000;stroke-width:0.5;" x="195.970212766" xlink:href="#m98d2a13c80" y="175.060603807"/>
     <use style="fill:#7548fb;stroke:#000000;stroke-width:0.5;" x="198.04787234" xlink:href="#m98d2a13c80" y="170.599709586"/>
     <use style="fill:#7548fb;stroke:#000000;stroke-width:0.5;" x="200.125531915" xlink:href="#m98d2a13c80" y="173.25469392"/>
     <use style="fill:#7548fb;stroke:#000000;stroke-width:0.5;" x="202.203191489" xlink:href="#m98d2a13c80" y="179.976518908"/>
     <use style="fill:#7548fb;stroke:#000000;stroke-width:0.5;" x="204.280851064" xlink:href="#m98d2a13c80" y="171.35108721"/>
     <use style="fill:#7548fb;stroke:#000000;stroke-width:0.5;" x="206.358510638" xlink:href="#m98d2a13c80" y="177.192669116"/>
     <use style="fill:#7548fb;stroke:#000000;stroke-width:0.5;" x="208.436170213" xlink:href="#m98d2a13c80" y="176.986766115"/>
     <use style="fill:#7548fb;stroke:#000000;stroke-width:0.5;" x="210.513829787" xlink:href="#m98d2a13c80" y="175.128183953"/>
     <use style="fill:#7548fb;stroke:#000000;stroke-width:0.5;" x="212.591489362" xlink:href="#m98d2a13c80" y="179.677776057"/>
     <use style="fill:#7548fb;stroke:#000000;stroke-width:0.5;" x="214.669148936" xlink:href="#m98d2a13c80" y="171.839939304"/>
     <use style="fill:#7548fb;stroke:#000000;stroke-width:0.5;" x="216.746808511" xlink:href="#m98d2a13c80" y="173.630031549"/>
     <use style="fill:#7548fb;stroke:#000000;stroke-width:0.5;" x="218.824468085" xlink:href="#m98d2a13c80" y="178.195863427"/>
     <use style="fill:#7548fb;stroke:#000000;stroke-width:0.5;" x="220.90212766" xlink:href="#m98d2a13c80" y="173.644247053"/>
     <use style="fill:#7548fb;stroke:#000000;stroke-width:0.5;" x="222.979787234" xlink:href="#m98d2a13c80" y="179.289396053"/>
     <use style="fill:#7548fb;stroke:#000000;stroke-width:0.5;" x="225.057446809" xlink:href="#m98d2a13c80" y="180.177819113"/>
     <use style="fill:#7548fb;stroke:#000000;stroke-width:0.5;" x="227.135106383" xlink:href="#m98d2a13c80" y="174.245910892"/>
     <use style="fill:#7548fb;stroke:#000000;stroke-width:0.5;" x="229.212765957" xlink:href="#m98d2a13c80" y="173.726475075"/>
     <use style="fill:#7548fb;stroke:#000000;stroke-width:0.5;" x="231.290425532" xlink:href="#m98d2a13c80" y="178.253132607"/>
     <use style="fill:#7548fb;stroke:#000000;stroke-width:0.5;" x="233.368085106" xlink:href="#m98d2a13c80" y="176.307045993"/>
     <use style="fill:#7548fb;stroke:#000000;stroke-width:0.5;" x="235.445744681" xlink:href="#m98d2a13c80" y="180.241190519"/>
     <use style="fill:#7548fb;stroke:#000000;stroke-width:0.5;" x="237.523404255" xlink:href="#m98d2a13c80" y="179.873800769"/>
     <use style="fill:#7548fb;stroke:#000000;stroke-width:0.5;" x="239.60106383" xlink:href="#m98d2a13c80" y="177.617054255"/>
     <use style="fill:#7548fb;stroke:#000000;stroke-width:0.5;" x="241.678723404" xlink:href="#m98d2a13c80" y="177.441907484"/>
     <use style="fill:#7548fb;stroke:#000000;stroke-width:0.5;" x="243.756382979" xlink:href="#m98d2a13c80" y="177.565138362"/>
     <use style="fill:#7548fb;stroke:#000000;stroke-width:0.5;" x="245.834042553" xlink:href="#m98d2a13c80" y="162.021330795"/>
     <use style="fill:#7548fb;stroke:#000000;stroke-width:0.5;" x="247.911702128" xlink:href="#m98d2a13c80" y="174.576105489"/>
     <use style="fill:#7548fb;stroke:#000000;stroke-width:0.5;" x="249.989361702" xlink:href="#m98d2a13c80" y="177.876375777"/>
     <use style="fill:#7548fb;stroke:#000000;stroke-width:0.5;" x="252.067021277" xlink:href="#m98d2a13c80" y="169.060393904"/>
     <use style="fill:#7548fb;stroke:#000000;stroke-width:0.5;" x="254.144680851" xlink:href="#m98d2a13c80" y="131.597700856"/>
     <use style="fill:#7548fb;stroke:#000000;stroke-width:0.5;" x="256.222340426" xlink:href="#m98d2a13c80" y="139.285376087"/>
     <use style="fill:#7548fb;stroke:#000000;stroke-width:0.5;" x="258.3" xlink:href="#m98d2a13c80" y="172.715703647"/>
     <use style="fill:#7548fb;stroke:#000000;stroke-width:0.5;" x="260.377659574" xlink:href="#m98d2a13c80" y="169.034080849"/>
     <use style="fill:#7548fb;stroke:#000000;stroke-width:0.5;" x="262.455319149" xlink:href="#m98d2a13c80" y="165.975472597"/>
     <use style="fill:#7548fb;stroke:#000000;stroke-width:0.5;" x="264.532978723" xlink:href="#m98d2a13c80" y="174.16290428"/>
     <use style="fill:#7548fb;stroke:#000000;stroke-width:0.5;" x="266.610638298" xlink:href="#m98d2a13c80" y="178.397217209"/>
     <use style="fill:#7548fb;stroke:#000000;stroke-width:0.5;" x="268.688297872" xlink:href="#m98d2a13c80" y="179.107455162"/>
     <use style="fill:#7548fb;stroke:#000000;stroke-width:0.5;" x="270.765957447" xlink:href="#m98d2a13c80" y="150.145192019"/>
     <use style="fill:#7548fb;stroke:#000000;stroke-width:0.5;" x="272.843617021" xlink:href="#m98d2a13c80" y="24.9431538126"/>
     <use style="fill:#7548fb;stroke:#000000;stroke-width:0.5;" x="274.921276596" xlink:href="#m98d2a13c80" y="129.732161238"/>
     <use style="fill:#7548fb;stroke:#000000;stroke-width:0.5;" x="276.99893617" xlink:href="#m98d2a13c80" y="178.981824185"/>
     <use style="fill:#7548fb;stroke:#000000;stroke-width:0.5;" x="279.076595745" xlink:href="#m98d2a13c80" y="168.741467539"/>
     <use style="fill:#7548fb;stroke:#000000;stroke-width:0.5;" x="281.154255319" xlink:href="#m98d2a13c80" y="169.525543327"/>
     <use style="fill:#7548fb;stroke:#000000;stroke-width:0.5;" x="283.231914894" xlink:href="#m98d2a13c80" y="179.8126557"/>
     <use style="fill:#7548fb;stroke:#000000;stroke-width:0.5;" x="285.309574468" xlink:href="#m98d2a13c80" y="121.0859511"/>
     <use style="fill:#7548fb;stroke:#000000;stroke-width:0.5;" x="287.387234043" xlink:href="#m98d2a13c80" y="71.3044164905"/>
     <use style="fill:#7548fb;stroke:#000000;stroke-width:0.5;" x="289.464893617" xlink:href="#m98d2a13c80" y="142.883874206"/>
     <use style="fill:#7548fb;stroke:#000000;stroke-width:0.5;" x="291.542553191" xlink:href="#m98d2a13c80" y="171.79690785"/>
     <use style="fill:#7548fb;stroke:#000000;stroke-width:0.5;" x="293.620212766" xlink:href="#m98d2a13c80" y="160.162692317"/>
     <use style="fill:#7548fb;stroke:#000000;stroke-width:0.5;" x="295.69787234" xlink:href="#m98d2a13c80" y="161.838078162"/>
     <use style="fill:#7548fb;stroke:#000000;stroke-width:0.5;" x="297.775531915" xlink:href="#m98d2a13c80" y="163.139965184"/>
     <use style="fill:#7548fb;stroke:#000000;stroke-width:0.5;" x="299.853191489" xlink:href="#m98d2a13c80" y="179.591491167"/>
     <use style="fill:#7548fb;stroke:#000000;stroke-width:0.5;" x="301.930851064" xlink:href="#m98d2a13c80" y="171.318531197"/>
     <use style="fill:#7548fb;stroke:#000000;stroke-width:0.5;" x="304.008510638" xlink:href="#m98d2a13c80" y="160.607118023"/>
     <use style="fill:#7548fb;stroke:#000000;stroke-width:0.5;" x="306.086170213" xlink:href="#m98d2a13c80" y="148.003850331"/>
     <use style="fill:#7548fb;stroke:#000000;stroke-width:0.5;" x="308.163829787" xlink:href="#m98d2a13c80" y="177.086569708"/>
     <use style="fill:#7548fb;stroke:#000000;stroke-width:0.5;" x="310.241489362" xlink:href="#m98d2a13c80" y="175.360626993"/>
     <use style="fill:#7548fb;stroke:#000000;stroke-width:0.5;" x="312.319148936" xlink:href="#m98d2a13c80" y="172.453083757"/>
     <use style="fill:#7548fb;stroke:#000000;stroke-width:0.5;" x="314.396808511" xlink:href="#m98d2a13c80" y="174.566232961"/>
     <use style="fill:#7548fb;stroke:#000000;stroke-width:0.5;" x="316.474468085" xlink:href="#m98d2a13c80" y="179.599042196"/>
     <use style="fill:#7548fb;stroke:#000000;stroke-width:0.5;" x="318.55212766" xlink:href="#m98d2a13c80" y="177.500001217"/>
     <use style="fill:#7548fb;stroke:#000000;stroke-width:0.5;" x="320.629787234" xlink:href="#m98d2a13c80" y="108.774988063"/>
     <use style="fill:#7548fb;stroke:#000000;stroke-width:0.5;" x="322.707446809" xlink:href="#m98d2a13c80" y="66.7378847415"/>
     <use style="fill:#7548fb;stroke:#000000;stroke-width:0.5;" x="324.785106383" xlink:href="#m98d2a13c80" y="154.186880997"/>
     <use style="fill:#7548fb;stroke:#000000;stroke-width:0.5;" x="326.862765957" xlink:href="#m98d2a13c80" y="171.823190851"/>
     <use style="fill:#7548fb;stroke:#000000;stroke-width:0.5;" x="328.940425532" xlink:href="#m98d2a13c80" y="167.779714953"/>
     <use style="fill:#7548fb;stroke:#000000;stroke-width:0.5;" x="331.018085106" xlink:href="#m98d2a13c80" y="177.069808547"/>
     <use style="fill:#7548fb;stroke:#000000;stroke-width:0.5;" x="333.095744681" xlink:href="#m98d2a13c80" y="171.403322632"/>
     <use style="fill:#7548fb;stroke:#000000;stroke-width:0.5;" x="335.173404255" xlink:href="#m98d2a13c80" y="177.233224902"/>
     <use style="fill:#7548fb;stroke:#000000;stroke-width:0.5;" x="337.25106383" xlink:href="#m98d2a13c80" y="163.100164696"/>
     <use style="fill:#7548fb;stroke:#000000;stroke-width:0.5;" x="339.328723404" xlink:href="#m98d2a13c80" y="150.225652047"/>
     <use style="fill:#7548fb;stroke:#000000;stroke-width:0.5;" x="341.406382979" xlink:href="#m98d2a13c80" y="146.454493226"/>
     <use style="fill:#7548fb;stroke:#000000;stroke-width:0.5;" x="343.484042553" xlink:href="#m98d2a13c80" y="151.287391371"/>
     <use style="fill:#7548fb;stroke:#000000;stroke-width:0.5;" x="345.561702128" xlink:href="#m98d2a13c80" y="173.25469392"/>
     <use style="fill:#7548fb;stroke:#000000;stroke-width:0.5;" x="347.639361702" xlink:href="#m98d2a13c80" y="176.307045993"/>
     <use style="fill:#7548fb;stroke:#000000;stroke-width:0.5;" x="349.717021277" xlink:href="#m98d2a13c80" y="175.381514195"/>
     <use style="fill:#7548fb;stroke:#000000;stroke-width:0.5;" x="351.794680851" xlink:href="#m98d2a13c80" y="174.394277977"/>
     <use style="fill:#7548fb;stroke:#000000;stroke-width:0.5;" x="353.872340426" xlink:href="#m98d2a13c80" y="179.391456042"/>
     <use style="fill:#7548fb;stroke:#000000;stroke-width:0.5;" x="355.95" xlink:href="#m98d2a13c80" y="178.692698793"/>
     <use style="fill:#7548fb;stroke:#000000;stroke-width:0.5;" x="358.027659574" xlink:href="#m98d2a13c80" y="162.503142376"/>
     <use style="fill:#7548fb;stroke:#000000;stroke-width:0.5;" x="360.105319149" xlink:href="#m98d2a13c80" y="169.958088003"/>
     <use style="fill:#7548fb;stroke:#000000;stroke-width:0.5;" x="362.182978723" xlink:href="#m98d2a13c80" y="173.444882473"/>
     <use style="fill:#7548fb;stroke:#000000;stroke-width:0.5;" x="364.260638298" xlink:href="#m98d2a13c80" y="176.276138175"/>
     <use style="fill:#7548fb;stroke:#000000;stroke-width:0.5;" x="366.338297872" xlink:href="#m98d2a13c80" y="180.15479154"/>
     <use style="fill:#7548fb;stroke:#000000;stroke-width:0.5;" x="368.415957447" xlink:href="#m98d2a13c80" y="180.256846187"/>
     <use style="fill:#7548fb;stroke:#000000;stroke-width:0.5;" x="370.493617021" xlink:href="#m98d2a13c80" y="177.053969464"/>
     <use style="fill:#7548fb;stroke:#000000;stroke-width:0.5;" x="372.571276596" xlink:href="#m98d2a13c80" y="174.319637868"/>
     <use style="fill:#7548fb;stroke:#000000;stroke-width:0.5;" x="374.64893617" xlink:href="#m98d2a13c80" y="155.508412623"/>
     <use style="fill:#7548fb;stroke:#000000;stroke-width:0.5;" x="376.726595745" xlink:href="#m98d2a13c80" y="171.57121336"/>
     <use style="fill:#7548fb;stroke:#000000;stroke-width:0.5;" x="378.804255319" xlink:href="#m98d2a13c80" y="168.956932129"/>
     <use style="fill:#7548fb;stroke:#000000;stroke-width:0.5;" x="380.881914894" xlink:href="#m98d2a13c80" y="156.957060588"/>
     <use style="fill:#7548fb;stroke:#000000;stroke-width:0.5;" x="382.959574468" xlink:href="#m98d2a13c80" y="172.797301572"/>
     <use style="fill:#7548fb;stroke:#000000;stroke-width:0.5;" x="385.037234043" xlink:href="#m98d2a13c80" y="172.472150539"/>
     <use style="fill:#7548fb;stroke:#000000;stroke-width:0.5;" x="387.114893617" xlink:href="#m98d2a13c80" y="179.141202866"/>
     <use style="fill:#7548fb;stroke:#000000;stroke-width:0.5;" x="389.192553191" xlink:href="#m98d2a13c80" y="177.326182323"/>
     <use style="fill:#7548fb;stroke:#000000;stroke-width:0.5;" x="391.270212766" xlink:href="#m98d2a13c80" y="174.553765214"/>
     <use style="fill:#7548fb;stroke:#000000;stroke-width:0.5;" x="393.34787234" xlink:href="#m98d2a13c80" y="179.634639907"/>
     <use style="fill:#7548fb;stroke:#000000;stroke-width:0.5;" x="395.425531915" xlink:href="#m98d2a13c80" y="175.997280775"/>
     <use style="fill:#7548fb;stroke:#000000;stroke-width:0.5;" x="397.503191489" xlink:href="#m98d2a13c80" y="179.809945353"/>
     <use style="fill:#7548fb;stroke:#000000;stroke-width:0.5;" x="399.580851064" xlink:href="#m98d2a13c80" y="143.948053681"/>
     <use style="fill:#7548fb;stroke:#000000;stroke-width:0.5;" x="401.658510638" xlink:href="#m98d2a13c80" y="128.109815793"/>
     <use style="fill:#7548fb;stroke:#000000;stroke-width:0.5;" x="403.736170213" xlink:href="#m98d2a13c80" y="165.150865919"/>
     <use style="fill:#7548fb;stroke:#000000;stroke-width:0.5;" x="405.813829787" xlink:href="#m98d2a13c80" y="169.614564796"/>
     <use style="fill:#7548fb;stroke:#000000;stroke-width:0.5;" x="407.891489362" xlink:href="#m98d2a13c80" y="174.790713006"/>
     <use style="fill:#7548fb;stroke:#000000;stroke-width:0.5;" x="409.969148936" xlink:href="#m98d2a13c80" y="179.55596979"/>
     <use style="fill:#7548fb;stroke:#000000;stroke-width:0.5;" x="412.046808511" xlink:href="#m98d2a13c80" y="174.624036573"/>
     <use style="fill:#7548fb;stroke:#000000;stroke-width:0.5;" x="414.124468085" xlink:href="#m98d2a13c80" y="155.611929459"/>
     <use style="fill:#7548fb;stroke:#000000;stroke-width:0.5;" x="416.20212766" xlink:href="#m98d2a13c80" y="159.744337486"/>
     <use style="fill:#7548fb;stroke:#000000;stroke-width:0.5;" x="418.279787234" xlink:href="#m98d2a13c80" y="176.279471966"/>
     <use style="fill:#7548fb;stroke:#000000;stroke-width:0.5;" x="420.357446809" xlink:href="#m98d2a13c80" y="177.356386441"/>
     <use style="fill:#7548fb;stroke:#000000;stroke-width:0.5;" x="422.435106383" xlink:href="#m98d2a13c80" y="176.16932376"/>
     <use style="fill:#7548fb;stroke:#000000;stroke-width:0.5;" x="424.512765957" xlink:href="#m98d2a13c80" y="152.007434211"/>
     <use style="fill:#7548fb;stroke:#000000;stroke-width:0.5;" x="426.590425532" xlink:href="#m98d2a13c80" y="123.658525851"/>
     <use style="fill:#7548fb;stroke:#000000;stroke-width:0.5;" x="428.668085106" xlink:href="#m98d2a13c80" y="142.909933267"/>
     <use style="fill:#7548fb;stroke:#000000;stroke-width:0.5;" x="430.745744681" xlink:href="#m98d2a13c80" y="176.065268273"/>
     <use style="fill:#7548fb;stroke:#000000;stroke-width:0.5;" x="432.823404255" xlink:href="#m98d2a13c80" y="178.333167308"/>
     <use style="fill:#7548fb;stroke:#000000;stroke-width:0.5;" x="434.90106383" xlink:href="#m98d2a13c80" y="179.278717285"/>
     <use style="fill:#7548fb;stroke:#000000;stroke-width:0.5;" x="436.978723404" xlink:href="#m98d2a13c80" y="174.097091871"/>
     <use style="fill:#7548fb;stroke:#000000;stroke-width:0.5;" x="439.056382979" xlink:href="#m98d2a13c80" y="154.999278927"/>
     <use style="fill:#7548fb;stroke:#000000;stroke-width:0.5;" x="441.134042553" xlink:href="#m98d2a13c80" y="174.945563838"/>
     <use style="fill:#7548fb;stroke:#000000;stroke-width:0.5;" x="443.211702128" xlink:href="#m98d2a13c80" y="159.648718733"/>
     <use style="fill:#7548fb;stroke:#000000;stroke-width:0.5;" x="445.289361702" xlink:href="#m98d2a13c80" y="168.921026636"/>
     <use style="fill:#7548fb;stroke:#000000;stroke-width:0.5;" x="447.367021277" xlink:href="#m98d2a13c80" y="162.225590212"/>
     <use style="fill:#7548fb;stroke:#000000;stroke-width:0.5;" x="449.444680851" xlink:href="#m98d2a13c80" y="170.926253427"/>
     <use style="fill:#7548fb;stroke:#000000;stroke-width:0.5;" x="451.522340426" xlink:href="#m98d2a13c80" y="171.311906919"/>
     <use style="fill:#7548fb;stroke:#000000;stroke-width:0.5;" x="453.6" xlink:href="#m98d2a13c80" y="175.071671694"/>
    </g>
   </g>
   <g id="line2d_2">
    <path clip-path="url(#p8dcc4a8cc7)" d="
M63 163.912
L453.6 163.912
L453.6 163.912" style="fill:none;stroke:#7548fb;stroke-linecap:square;stroke-width:2;"/>
   </g>
   <g id="matplotlib.axis_1">
    <g id="xtick_1">
     <g id="line2d_3">
      <defs>
       <path d="
M0 0
L0 -4" id="m93b0483c22" style="stroke:#000000;stroke-width:0.5;"/>
      </defs>
      <g>
       <use style="stroke:#000000;stroke-width:0.5;" x="63.0" xlink:href="#m93b0483c22" y="183.6"/>
      </g>
     </g>
     <g id="line2d_4">
      <defs>
       <path d="
M0 0
L0 4" id="m741efc42ff" style="stroke:#000000;stroke-width:0.5;"/>
      </defs>
      <g>
       <use style="stroke:#000000;stroke-width:0.5;" x="63.0" xlink:href="#m741efc42ff" y="21.6"/>
      </g>
     </g>
     <g id="text_1">
      <!-- 0 -->
      <defs>
       <path d="
M31.7812 66.4062
Q24.1719 66.4062 20.3281 58.9062
Q16.5 51.4219 16.5 36.375
Q16.5 21.3906 20.3281 13.8906
Q24.1719 6.39062 31.7812 6.39062
Q39.4531 6.39062 43.2812 13.8906
Q47.125 21.3906 47.125 36.375
Q47.125 51.4219 43.2812 58.9062
Q39.4531 66.4062 31.7812 66.4062
M31.7812 74.2188
Q44.0469 74.2188 50.5156 64.5156
Q56.9844 54.8281 56.9844 36.375
Q56.9844 17.9688 50.5156 8.26562
Q44.0469 -1.42188 31.7812 -1.42188
Q19.5312 -1.42188 13.0625 8.26562
Q6.59375 17.9688 6.59375 36.375
Q6.59375 54.8281 13.0625 64.5156
Q19.5312 74.2188 31.7812 74.2188" id="BitstreamVeraSans-Roman-30"/>
      </defs>
      <g transform="translate(59.9765625 196.718125)scale(0.12 -0.12)">
       <use xlink:href="#BitstreamVeraSans-Roman-30"/>
      </g>
     </g>
    </g>
    <g id="xtick_2">
     <g id="line2d_5">
      <g>
       <use style="stroke:#000000;stroke-width:0.5;" x="166.882978723" xlink:href="#m93b0483c22" y="183.6"/>
      </g>
     </g>
     <g id="line2d_6">
      <g>
       <use style="stroke:#000000;stroke-width:0.5;" x="166.882978723" xlink:href="#m741efc42ff" y="21.6"/>
      </g>
     </g>
     <g id="text_2">
      <!-- 50 -->
      <defs>
       <path d="
M10.7969 72.9062
L49.5156 72.9062
L49.5156 64.5938
L19.8281 64.5938
L19.8281 46.7344
Q21.9688 47.4688 24.1094 47.8281
Q26.2656 48.1875 28.4219 48.1875
Q40.625 48.1875 47.75 41.5
Q54.8906 34.8125 54.8906 23.3906
Q54.8906 11.625 47.5625 5.09375
Q40.2344 -1.42188 26.9062 -1.42188
Q22.3125 -1.42188 17.5469 -0.640625
Q12.7969 0.140625 7.71875 1.70312
L7.71875 11.625
Q12.1094 9.23438 16.7969 8.0625
Q21.4844 6.89062 26.7031 6.89062
Q35.1562 6.89062 40.0781 11.3281
Q45.0156 15.7656 45.0156 23.3906
Q45.0156 31 40.0781 35.4375
Q35.1562 39.8906 26.7031 39.8906
Q22.75 39.8906 18.8125 39.0156
Q14.8906 38.1406 10.7969 36.2812
z
" id="BitstreamVeraSans-Roman-35"/>
      </defs>
      <g transform="translate(160.109541223 196.718125)scale(0.12 -0.12)">
       <use xlink:href="#BitstreamVeraSans-Roman-35"/>
       <use x="63.623046875" xlink:href="#BitstreamVeraSans-Roman-30"/>
      </g>
     </g>
    </g>
    <g id="xtick_3">
     <g id="line2d_7">
      <g>
       <use style="stroke:#000000;stroke-width:0.5;" x="270.765957447" xlink:href="#m93b0483c22" y="183.6"/>
      </g>
     </g>
     <g id="line2d_8">
      <g>
       <use style="stroke:#000000;stroke-width:0.5;" x="270.765957447" xlink:href="#m741efc42ff" y="21.6"/>
      </g>
     </g>
     <g id="text_3">
      <!-- 100 -->
      <defs>
       <path d="
M12.4062 8.29688
L28.5156 8.29688
L28.5156 63.9219
L10.9844 60.4062
L10.9844 69.3906
L28.4219 72.9062
L38.2812 72.9062
L38.2812 8.29688
L54.3906 8.29688
L54.3906 0
L12.4062 0
z
" id="BitstreamVeraSans-Roman-31"/>
      </defs>
      <g transform="translate(260.370957447 196.718125)scale(0.12 -0.12)">
       <use xlink:href="#BitstreamVeraSans-Roman-31"/>
       <use x="63.623046875" xlink:href="#BitstreamVeraSans-Roman-30"/>
       <use x="127.24609375" xlink:href="#BitstreamVeraSans-Roman-30"/>
      </g>
     </g>
    </g>
    <g id="xtick_4">
     <g id="line2d_9">
      <g>
       <use style="stroke:#000000;stroke-width:0.5;" x="374.64893617" xlink:href="#m93b0483c22" y="183.6"/>
      </g>
     </g>
     <g id="line2d_10">
      <g>
       <use style="stroke:#000000;stroke-width:0.5;" x="374.64893617" xlink:href="#m741efc42ff" y="21.6"/>
      </g>
     </g>
     <g id="text_4">
      <!-- 150 -->
      <g transform="translate(364.25393617 196.718125)scale(0.12 -0.12)">
       <use xlink:href="#BitstreamVeraSans-Roman-31"/>
       <use x="63.623046875" xlink:href="#BitstreamVeraSans-Roman-35"/>
       <use x="127.24609375" xlink:href="#BitstreamVeraSans-Roman-30"/>
      </g>
     </g>
    </g>
    <g id="text_5">
     <!-- Tracking time -->
     <defs>
      <path d="
M17.0938 41.5938
Q21.2031 50.9062 32.5 50.9062
L32.5 39.2031
Q26.2969 39.5938 21.6875 36.25
Q17.0938 32.9062 17.0938 25.2031
L17.0938 0
L6.29688 0
L6.29688 50
L17.0938 50
z
" id="Gilroy-SemiBold-72"/>
      <path d="
M50.5 0
L37.5938 0
L17.0938 23.0938
L17.0938 0
L6.29688 0
L6.29688 70
L17.0938 70
L17.0938 27.9062
L36.5 50
L49.7031 50
L27.7031 25.5
z
" id="Gilroy-SemiBold-6b"/>
      <path d="
M32.5938 51.2969
Q41.2031 51.2969 46.5 45.7969
Q51.7969 40.2969 51.7969 30.7031
L51.7969 0
L41 0
L41 29.5938
Q41 35.2031 38 38.2031
Q35 41.2031 29.7969 41.2031
Q24.0938 41.2031 20.5938 37.6406
Q17.0938 34.0938 17.0938 26.7969
L17.0938 0
L6.29688 0
L6.29688 50
L17.0938 50
L17.0938 43.5938
Q22 51.2969 32.5938 51.2969" id="Gilroy-SemiBold-6e"/>
      <path d="
M34.2031 39.5938
L21.7969 39.5938
L21.7969 15.5938
Q21.7969 12.5 23.1875 11.1406
Q24.5938 9.79688 27.3438 9.64062
Q30.0938 9.5 34.2031 9.70312
L34.2031 0
Q21.7969 -1.5 16.3906 2.14062
Q11 5.79688 11 15.5938
L11 39.5938
L1.79688 39.5938
L1.79688 50
L11 50
L11 60.7969
L21.7969 64
L21.7969 50
L34.2031 50
z
" id="Gilroy-SemiBold-74"/>
      <path id="Gilroy-SemiBold-20"/>
      <path d="
M52.5 70
L52.5 59
L32.7969 59
L32.7969 0
L21.2969 0
L21.2969 59
L1.5 59
L1.5 70
z
" id="Gilroy-SemiBold-54"/>
      <path d="
M29.9062 -1.29688
Q18.5938 -1.29688 11.0469 6.29688
Q3.5 13.9062 3.5 25
Q3.5 36.2031 11.0469 43.75
Q18.5938 51.2969 29.9062 51.2969
Q37.2031 51.2969 43.2031 47.7969
Q49.2031 44.2969 52.2031 38.4062
L42.9062 33
Q41.2031 36.5938 37.75 38.6406
Q34.2969 40.7031 29.7969 40.7031
Q23.2031 40.7031 18.75 36.2031
Q14.2969 31.7031 14.2969 25
Q14.2969 18.2969 18.75 13.7969
Q23.2031 9.29688 29.7969 9.29688
Q34.2031 9.29688 37.75 11.3906
Q41.2969 13.5 43.0938 17
L52.4062 11.7031
Q49.2031 5.70312 43.2031 2.20312
Q37.2031 -1.29688 29.9062 -1.29688" id="Gilroy-SemiBold-63"/>
      <path d="
M14.7969 20.4062
Q16 14.7031 20.2969 11.6406
Q24.5938 8.59375 30.7969 8.59375
Q39.4062 8.59375 43.7031 14.7969
L52.5938 9.59375
Q45.2031 -1.29688 30.7031 -1.29688
Q18.5 -1.29688 11 6.14062
Q3.5 13.5938 3.5 25
Q3.5 36.2031 10.8906 43.75
Q18.2969 51.2969 29.9062 51.2969
Q40.9062 51.2969 47.9531 43.5938
Q55 35.9062 55 24.9062
Q55 23.2031 54.5938 20.4062
z

M14.7031 29.2031
L44.0938 29.2031
Q43 35.2969 39.0469 38.3906
Q35.0938 41.5 29.7969 41.5
Q23.7969 41.5 19.7969 38.2031
Q15.7969 34.9062 14.7031 29.2031" id="Gilroy-SemiBold-65"/>
      <path d="
M46.0938 50
L56.7031 50
L56.7031 2.29688
Q56.7031 -9.09375 49.2031 -15.1875
Q41.7031 -21.2969 31 -21.2969
Q13.7031 -21.2969 7.29688 -9.20312
L16.5938 -3.79688
Q20.5 -11.5 31.2031 -11.5
Q38.2031 -11.5 42.1406 -7.84375
Q46.0938 -4.20312 46.0938 2.29688
L46.0938 8.40625
Q40 -0.296875 28.7031 -0.296875
Q18.0938 -0.296875 10.7969 7.25
Q3.5 14.7969 3.5 25.5
Q3.5 36.2031 10.7969 43.75
Q18.0938 51.2969 28.7031 51.2969
Q40 51.2969 46.0938 42.5938
z

M14.2969 18.7969
Q23.4062 9.79688 30.2031 9.79688
Q37 9.79688 41.5469 14.2969
Q46.0938 18.7969 46.0938 25.5
Q46.0938 32.2031 41.5469 36.7031
Q37 41.2031 30.2031 41.2031
Q23.4062 41.2031 18.8438 36.7031
Q14.2969 32.2031 14.2969 25.5
Q14.2969 18.7969 23.4062 9.79688" id="Gilroy-SemiBold-67"/>
      <path d="
M18.5938 61.5938
Q14.5 57.5 11.7031 57.5
Q8.90625 57.5 6.84375 59.5469
Q4.79688 61.5938 4.79688 64.3906
Q4.79688 67.2031 6.79688 69.25
Q8.79688 71.2969 11.6875 71.2969
Q14.5938 71.2969 16.5938 69.25
Q18.5938 67.2031 18.5938 64.3906
Q18.5938 61.5938 14.5 57.5
M6.29688 0
L6.29688 50
L17.0938 50
L17.0938 0
z
" id="Gilroy-SemiBold-69"/>
      <path d="
M45.9062 50
L56.7031 50
L56.7031 0
L45.9062 0
L45.9062 7.20312
Q39.7969 -1.29688 28.4062 -1.29688
Q18.0938 -1.29688 10.7969 6.34375
Q3.5 14 3.5 25
Q3.5 36.0938 10.7969 43.6875
Q18.0938 51.2969 28.4062 51.2969
Q39.7969 51.2969 45.9062 42.9062
z

M14.2969 18.0938
Q23.2969 9 30.0938 9
Q36.9062 9 41.4062 13.5469
Q45.9062 18.0938 45.9062 25
Q45.9062 31.9062 41.4062 36.4531
Q36.9062 41 30.0938 41
Q23.2969 41 18.7969 36.4531
Q14.2969 31.9062 14.2969 25
Q14.2969 18.0938 23.2969 9" id="Gilroy-SemiBold-61"/>
      <path d="
M60.9062 51.2969
Q69.4062 51.2969 74.5938 45.7969
Q79.7969 40.2969 79.7969 31
L79.7969 0
L69 0
L69 30.2969
Q69 35.5 66.3906 38.3438
Q63.7969 41.2031 59.2969 41.2031
Q54.2969 41.2031 51.3438 37.8906
Q48.4062 34.5938 48.4062 28
L48.4062 0
L37.5938 0
L37.5938 30.2969
Q37.5938 35.5 35.1406 38.3438
Q32.7031 41.2031 28.2031 41.2031
Q23.2969 41.2031 20.1875 37.8438
Q17.0938 34.5 17.0938 28
L17.0938 0
L6.29688 0
L6.29688 50
L17.0938 50
L17.0938 44
Q21.9062 51.2969 31.4062 51.2969
Q41 51.2969 45.5938 43.4062
Q50.5938 51.2969 60.9062 51.2969" id="Gilroy-SemiBold-6d"/>
     </defs>
     <g transform="translate(220.6865625 212.818125)scale(0.12 -0.12)">
      <use xlink:href="#Gilroy-SemiBold-54"/>
      <use x="53.9999847412" xlink:href="#Gilroy-SemiBold-72"/>
      <use x="88.1999816895" xlink:href="#Gilroy-SemiBold-61"/>
      <use x="151.199966431" xlink:href="#Gilroy-SemiBold-63"/>
      <use x="205.399963379" xlink:href="#Gilroy-SemiBold-6b"/>
      <use x="256.89994812" xlink:href="#Gilroy-SemiBold-69"/>
      <use x="280.199935913" xlink:href="#Gilroy-SemiBold-6e"/>
      <use x="337.299926758" xlink:href="#Gilroy-SemiBold-67"/>
      <use x="400.299911499" xlink:href="#Gilroy-SemiBold-20"/>
      <use x="425.29989624" xlink:href="#Gilroy-SemiBold-74"/>
      <use x="463.499893188" xlink:href="#Gilroy-SemiBold-69"/>
      <use x="486.799880981" xlink:href="#Gilroy-SemiBold-6d"/>
      <use x="571.899871826" xlink:href="#Gilroy-SemiBold-65"/>
     </g>
    </g>
   </g>
   <g id="matplotlib.axis_2">
    <g id="ytick_1">
     <g id="line2d_11">
      <defs>
       <path d="
M0 0
L4 0" id="m728421d6d4" style="stroke:#000000;stroke-width:0.5;"/>
      </defs>
      <g>
       <use style="stroke:#000000;stroke-width:0.5;" x="63.0" xlink:href="#m728421d6d4" y="180.346594115"/>
      </g>
     </g>
     <g id="line2d_12">
      <defs>
       <path d="
M0 0
L-4 0" id="mcb0005524f" style="stroke:#000000;stroke-width:0.5;"/>
      </defs>
      <g>
       <use style="stroke:#000000;stroke-width:0.5;" x="453.6" xlink:href="#mcb0005524f" y="180.346594115"/>
      </g>
     </g>
     <g id="text_6">
      <!-- 0 -->
      <g transform="translate(52.953125 183.657844115)scale(0.12 -0.12)">
       <use xlink:href="#BitstreamVeraSans-Roman-30"/>
      </g>
     </g>
    </g>
    <g id="ytick_2">
     <g id="line2d_13">
      <g>
       <use style="stroke:#000000;stroke-width:0.5;" x="63.0" xlink:href="#m728421d6d4" y="146.915055989"/>
      </g>
     </g>
     <g id="line2d_14">
      <g>
       <use style="stroke:#000000;stroke-width:0.5;" x="453.6" xlink:href="#mcb0005524f" y="146.915055989"/>
      </g>
     </g>
     <g id="text_7">
      <!-- 1 -->
      <g transform="translate(53.79125 150.226305989)scale(0.12 -0.12)">
       <use xlink:href="#BitstreamVeraSans-Roman-31"/>
      </g>
     </g>
    </g>
    <g id="ytick_3">
     <g id="line2d_15">
      <g>
       <use style="stroke:#000000;stroke-width:0.5;" x="63.0" xlink:href="#m728421d6d4" y="113.483517862"/>
      </g>
     </g>
     <g id="line2d_16">
      <g>
       <use style="stroke:#000000;stroke-width:0.5;" x="453.6" xlink:href="#mcb0005524f" y="113.483517862"/>
      </g>
     </g>
     <g id="text_8">
      <!-- 2 -->
      <defs>
       <path d="
M19.1875 8.29688
L53.6094 8.29688
L53.6094 0
L7.32812 0
L7.32812 8.29688
Q12.9375 14.1094 22.625 23.8906
Q32.3281 33.6875 34.8125 36.5312
Q39.5469 41.8438 41.4219 45.5312
Q43.3125 49.2188 43.3125 52.7812
Q43.3125 58.5938 39.2344 62.25
Q35.1562 65.9219 28.6094 65.9219
Q23.9688 65.9219 18.8125 64.3125
Q13.6719 62.7031 7.8125 59.4219
L7.8125 69.3906
Q13.7656 71.7812 18.9375 73
Q24.125 74.2188 28.4219 74.2188
Q39.75 74.2188 46.4844 68.5469
Q53.2188 62.8906 53.2188 53.4219
Q53.2188 48.9219 51.5312 44.8906
Q49.8594 40.875 45.4062 35.4062
Q44.1875 33.9844 37.6406 27.2188
Q31.1094 20.4531 19.1875 8.29688" id="BitstreamVeraSans-Roman-32"/>
      </defs>
      <g transform="translate(53.44625 116.794767862)scale(0.12 -0.12)">
       <use xlink:href="#BitstreamVeraSans-Roman-32"/>
      </g>
     </g>
    </g>
    <g id="ytick_4">
     <g id="line2d_17">
      <g>
       <use style="stroke:#000000;stroke-width:0.5;" x="63.0" xlink:href="#m728421d6d4" y="80.051979736"/>
      </g>
     </g>
     <g id="line2d_18">
      <g>
       <use style="stroke:#000000;stroke-width:0.5;" x="453.6" xlink:href="#mcb0005524f" y="80.051979736"/>
      </g>
     </g>
     <g id="text_9">
      <!-- 3 -->
      <defs>
       <path d="
M40.5781 39.3125
Q47.6562 37.7969 51.625 33
Q55.6094 28.2188 55.6094 21.1875
Q55.6094 10.4062 48.1875 4.48438
Q40.7656 -1.42188 27.0938 -1.42188
Q22.5156 -1.42188 17.6562 -0.515625
Q12.7969 0.390625 7.625 2.20312
L7.625 11.7188
Q11.7188 9.32812 16.5938 8.10938
Q21.4844 6.89062 26.8125 6.89062
Q36.0781 6.89062 40.9375 10.5469
Q45.7969 14.2031 45.7969 21.1875
Q45.7969 27.6406 41.2812 31.2656
Q36.7656 34.9062 28.7188 34.9062
L20.2188 34.9062
L20.2188 43.0156
L29.1094 43.0156
Q36.375 43.0156 40.2344 45.9219
Q44.0938 48.8281 44.0938 54.2969
Q44.0938 59.9062 40.1094 62.9062
Q36.1406 65.9219 28.7188 65.9219
Q24.6562 65.9219 20.0156 65.0312
Q15.375 64.1562 9.8125 62.3125
L9.8125 71.0938
Q15.4375 72.6562 20.3438 73.4375
Q25.25 74.2188 29.5938 74.2188
Q40.8281 74.2188 47.3594 69.1094
Q53.9062 64.0156 53.9062 55.3281
Q53.9062 49.2656 50.4375 45.0938
Q46.9688 40.9219 40.5781 39.3125" id="BitstreamVeraSans-Roman-33"/>
      </defs>
      <g transform="translate(53.241875 83.363229736)scale(0.12 -0.12)">
       <use xlink:href="#BitstreamVeraSans-Roman-33"/>
      </g>
     </g>
    </g>
    <g id="ytick_5">
     <g id="line2d_19">
      <g>
       <use style="stroke:#000000;stroke-width:0.5;" x="63.0" xlink:href="#m728421d6d4" y="46.6204416097"/>
      </g>
     </g>
     <g id="line2d_20">
      <g>
       <use style="stroke:#000000;stroke-width:0.5;" x="453.6" xlink:href="#mcb0005524f" y="46.6204416097"/>
      </g>
     </g>
     <g id="text_10">
      <!-- 4 -->
      <defs>
       <path d="
M37.7969 64.3125
L12.8906 25.3906
L37.7969 25.3906
z

M35.2031 72.9062
L47.6094 72.9062
L47.6094 25.3906
L58.0156 25.3906
L58.0156 17.1875
L47.6094 17.1875
L47.6094 0
L37.7969 0
L37.7969 17.1875
L4.89062 17.1875
L4.89062 26.7031
z
" id="BitstreamVeraSans-Roman-34"/>
      </defs>
      <g transform="translate(52.625 49.9316916097)scale(0.12 -0.12)">
       <use xlink:href="#BitstreamVeraSans-Roman-34"/>
      </g>
     </g>
    </g>
    <g id="text_11">
     <!-- mouse speed time -->
     <defs>
      <path d="
M16 36.2031
Q16 33.7031 18.75 32.25
Q21.5 30.7969 25.4531 29.75
Q29.4062 28.7031 33.4062 27.2969
Q37.4062 25.9062 40.1562 22.5469
Q42.9062 19.2031 42.9062 14.0938
Q42.9062 6.90625 37.3438 2.79688
Q31.7969 -1.29688 23.4062 -1.29688
Q16 -1.29688 10.7031 1.79688
Q5.40625 4.90625 3 10.4062
L12.2969 15.7969
Q14.9062 8.59375 23.4062 8.59375
Q31.9062 8.59375 31.9062 14.2031
Q31.9062 16.5938 29.1562 18.0938
Q26.4062 19.5938 22.4531 20.6406
Q18.5 21.7031 14.5 23.0938
Q10.5 24.5 7.75 27.75
Q5 31 5 36
Q5 42.9062 10.25 47.0938
Q15.5 51.2969 23.2969 51.2969
Q29.5 51.2969 34.3438 48.5469
Q39.2031 45.7969 41.7969 40.9062
L32.7031 35.7969
Q30.0938 41.5 23.2969 41.5
Q20.2031 41.5 18.0938 40.1406
Q16 38.7969 16 36.2031" id="Gilroy-SemiBold-73"/>
      <path d="
M34.5938 51.2969
Q44.9062 51.2969 52.2031 43.6406
Q59.5 36 59.5 25
Q59.5 13.9062 52.2031 6.29688
Q44.9062 -1.29688 34.5938 -1.29688
Q23.2031 -1.29688 17.0938 7.09375
L17.0938 -20
L6.29688 -20
L6.29688 50
L17.0938 50
L17.0938 42.7969
Q23.2031 51.2969 34.5938 51.2969
M17.0938 18.0938
Q26.0938 9 32.8906 9
Q39.7031 9 44.2031 13.5469
Q48.7031 18.0938 48.7031 25
Q48.7031 31.9062 44.2031 36.4531
Q39.7031 41 32.8906 41
Q26.0938 41 21.5938 36.4531
Q17.0938 31.9062 17.0938 25
Q17.0938 18.0938 26.0938 9" id="Gilroy-SemiBold-70"/>
      <path d="
M40 50
L50.7969 50
L50.7969 0
L40 0
L40 6.40625
Q35.0938 -1.29688 24.5 -1.29688
Q15.9062 -1.29688 10.5938 4.20312
Q5.29688 9.70312 5.29688 19.2969
L5.29688 50
L16.0938 50
L16.0938 20.4062
Q16.0938 14.7969 19.0938 11.7969
Q22.0938 8.79688 27.2969 8.79688
Q33 8.79688 36.5 12.3438
Q40 15.9062 40 23.2031
z
" id="Gilroy-SemiBold-75"/>
      <path d="
M45.9062 70
L56.7031 70
L56.7031 0
L45.9062 0
L45.9062 7.20312
Q39.7969 -1.29688 28.4062 -1.29688
Q18.0938 -1.29688 10.7969 6.34375
Q3.5 14 3.5 25
Q3.5 36.0938 10.7969 43.6875
Q18.0938 51.2969 28.4062 51.2969
Q39.7969 51.2969 45.9062 42.9062
z

M14.2969 18.0938
Q23.2969 9 30.0938 9
Q36.9062 9 41.4062 13.5469
Q45.9062 18.0938 45.9062 25
Q45.9062 31.9062 41.4062 36.4531
Q36.9062 41 30.0938 41
Q23.2969 41 18.7969 36.4531
Q14.2969 31.9062 14.2969 25
Q14.2969 18.0938 23.2969 9" id="Gilroy-SemiBold-64"/>
      <path d="
M29.9062 -1.29688
Q18.9062 -1.29688 11.2031 6.29688
Q3.5 13.9062 3.5 25
Q3.5 36.0938 11.2031 43.6875
Q18.9062 51.2969 29.9062 51.2969
Q41 51.2969 48.6406 43.6875
Q56.2969 36.0938 56.2969 25
Q56.2969 13.9062 48.6406 6.29688
Q41 -1.29688 29.9062 -1.29688
M14.2969 18.2031
Q23.2969 9.20312 29.8906 9.20312
Q36.5 9.20312 41 13.7031
Q45.5 18.2031 45.5 25
Q45.5 31.7969 41 36.2969
Q36.5 40.7969 29.8906 40.7969
Q23.2969 40.7969 18.7969 36.2969
Q14.2969 31.7969 14.2969 25
Q14.2969 18.2031 23.2969 9.20312" id="Gilroy-SemiBold-6f"/>
     </defs>
     <g transform="translate(45.225 153.3825)rotate(-90.0)scale(0.12 -0.12)">
      <use xlink:href="#Gilroy-SemiBold-6d"/>
      <use x="85.0999908447" xlink:href="#Gilroy-SemiBold-6f"/>
      <use x="144.899978638" xlink:href="#Gilroy-SemiBold-75"/>
      <use x="201.999969482" xlink:href="#Gilroy-SemiBold-73"/>
      <use x="248.099960327" xlink:href="#Gilroy-SemiBold-65"/>
      <use x="306.299957275" xlink:href="#Gilroy-SemiBold-20"/>
      <use x="331.299942017" xlink:href="#Gilroy-SemiBold-73"/>
      <use x="377.399932861" xlink:href="#Gilroy-SemiBold-70"/>
      <use x="440.399917603" xlink:href="#Gilroy-SemiBold-65"/>
      <use x="498.599914551" xlink:href="#Gilroy-SemiBold-65"/>
      <use x="556.799911499" xlink:href="#Gilroy-SemiBold-64"/>
      <use x="619.79989624" xlink:href="#Gilroy-SemiBold-20"/>
      <use x="644.799880981" xlink:href="#Gilroy-SemiBold-74"/>
      <use x="682.99987793" xlink:href="#Gilroy-SemiBold-69"/>
      <use x="706.299865723" xlink:href="#Gilroy-SemiBold-6d"/>
      <use x="791.399856567" xlink:href="#Gilroy-SemiBold-65"/>
     </g>
    </g>
   </g>
   <g id="patch_4">
    <path d="
M63 21.6
L453.6 21.6" style="fill:none;stroke:#000000;"/>
   </g>
   <g id="patch_5">
    <path d="
M453.6 183.6
L453.6 21.6" style="fill:none;stroke:#000000;"/>
   </g>
   <g id="patch_6">
    <path d="
M63 183.6
L453.6 183.6" style="fill:none;stroke:#000000;"/>
   </g>
   <g id="patch_7">
    <path d="
M63 183.6
L63 21.6" style="fill:none;stroke:#000000;"/>
   </g>
   <g id="text_12">
    <!-- Mouse speed chart -->
    <defs>
     <path d="
M29.0938 -1.40625
Q18 -1.40625 10.2031 6.25
Q2.40625 13.9062 2.40625 25
Q2.40625 36.0938 10.2031 43.75
Q18 51.4062 29.0938 51.4062
Q40.2969 51.4062 48.0469 43.75
Q55.7969 36.0938 55.7969 25
Q55.7969 13.9062 48.0469 6.25
Q40.2969 -1.40625 29.0938 -1.40625
M29.0938 14.5938
Q33.5 14.5938 36.3438 17.5
Q39.2031 20.4062 39.2031 25
Q39.2031 29.5938 36.3438 32.5
Q33.5 35.4062 29.0938 35.4062
Q24.7969 35.4062 21.9375 32.5
Q19.0938 29.5938 19.0938 25
Q19.0938 20.4062 21.9375 17.5
Q24.7969 14.5938 29.0938 14.5938" id="Gilroy-Black-6f"/>
     <path id="Gilroy-Black-20"/>
     <path d="
M29 -1.40625
Q17.5938 -1.40625 10 6.1875
Q2.40625 13.7969 2.40625 25
Q2.40625 36.2031 10 43.7969
Q17.5938 51.4062 29 51.4062
Q36.4062 51.4062 42.4531 47.9062
Q48.5 44.4062 51.7969 38.5
L37.5938 30.2969
Q34.9062 35.2031 28.9062 35.2031
Q24.7031 35.2031 21.8906 32.3438
Q19.0938 29.5 19.0938 25
Q19.0938 20.5 21.8906 17.6406
Q24.7031 14.7969 28.9062 14.7969
Q35.0938 14.7969 37.5938 19.7969
L51.7969 11.5938
Q48.5 5.59375 42.4531 2.09375
Q36.4062 -1.40625 29 -1.40625" id="Gilroy-Black-63"/>
     <path d="
M40.0938 70
L56.7031 70
L56.7031 0
L40.0938 0
L40.0938 4.59375
Q35 -1.40625 25.9062 -1.40625
Q15.9062 -1.40625 9.15625 6.14062
Q2.40625 13.7031 2.40625 25
Q2.40625 36.2969 9.15625 43.8438
Q15.9062 51.4062 25.9062 51.4062
Q35 51.4062 40.0938 45.4062
z

M19.0938 20.0938
Q24.9062 14.0938 29.5938 14.0938
Q34.2969 14.0938 37.1875 17.0938
Q40.0938 20.0938 40.0938 25
Q40.0938 29.9062 37.1875 32.9062
Q34.2969 35.9062 29.5938 35.9062
Q24.9062 35.9062 22 32.9062
Q19.0938 29.9062 19.0938 25
Q19.0938 20.0938 24.9062 14.0938" id="Gilroy-Black-64"/>
     <path d="
M19.5938 18.9062
Q22.0938 12.7969 30.7969 12.7969
Q36.2031 12.7969 39.9062 16.2969
L51.9062 7.90625
Q44.5 -1.40625 30.4062 -1.40625
Q17.7031 -1.40625 10.0469 6.04688
Q2.40625 13.5 2.40625 24.9062
Q2.40625 36.2031 9.90625 43.7969
Q17.4062 51.4062 29 51.4062
Q40.2031 51.4062 47.5 43.9062
Q54.7969 36.4062 54.7969 25.0938
Q54.7969 21.7969 54.0938 18.9062
z

M19.4062 30.4062
L38.5938 30.4062
Q36.5938 37.4062 29.2031 37.4062
Q21.5 37.4062 19.4062 30.4062" id="Gilroy-Black-65"/>
     <path d="
M36.5 50
L53.0938 50
L53.0938 0
L36.5 0
L36.5 5
Q32 -1.40625 22.5938 -1.40625
Q14.5 -1.40625 9.34375 4.14062
Q4.20312 9.70312 4.20312 20.0938
L4.20312 50
L20.7969 50
L20.7969 22.2031
Q20.7969 18.2969 22.8438 16.2969
Q24.9062 14.2969 28.2969 14.2969
Q32.2031 14.2969 34.3438 16.6406
Q36.5 19 36.5 23.4062
z
" id="Gilroy-Black-75"/>
     <path d="
M35.7969 34.0938
L25.4062 34.0938
L25.4062 19.5938
Q25.4062 16.2969 27.7969 15.5
Q30.2031 14.7031 35.7969 15
L35.7969 0
Q20.9062 -1.79688 14.8438 2.75
Q8.79688 7.29688 8.79688 19.2031
L8.79688 34.0938
L1.29688 34.0938
L1.29688 50
L8.79688 50
L8.79688 59
L25.4062 64
L25.4062 50
L35.7969 50
z
" id="Gilroy-Black-74"/>
     <path d="
M20.7031 35.4062
Q20.7031 34 23.25 33.0938
Q25.7969 32.2031 29.4375 31.3906
Q33.0938 30.5938 36.75 29.1406
Q40.4062 27.7031 42.9531 24.2031
Q45.5 20.7031 45.5 15.4062
Q45.5 6.79688 39.0938 2.6875
Q32.7031 -1.40625 23.9062 -1.40625
Q7.09375 -1.40625 1.5 10.5
L16 17.7969
Q17.9062 12.2969 23.7969 12.2969
Q28.2969 12.2969 28.2969 15
Q28.2969 16.4062 25.7969 17.2969
Q23.2969 18.2031 19.6875 19.0938
Q16.0938 20 12.5 21.5
Q8.90625 23 6.40625 26.3438
Q3.90625 29.7031 3.90625 34.5938
Q3.90625 42.5938 9.79688 47
Q15.7031 51.4062 24 51.4062
Q38.7969 51.4062 44.5938 39.7969
L30.5938 33.5
Q28.4062 37.7969 24.4062 37.7969
Q20.7031 37.7969 20.7031 35.4062" id="Gilroy-Black-73"/>
     <path d="
M40.0938 50
L56.7031 50
L56.7031 0
L40.0938 0
L40.0938 4.59375
Q35 -1.40625 25.9062 -1.40625
Q15.9062 -1.40625 9.15625 6.14062
Q2.40625 13.7031 2.40625 25
Q2.40625 36.2969 9.15625 43.8438
Q15.9062 51.4062 25.9062 51.4062
Q35 51.4062 40.0938 45.4062
z

M19.0938 20.0938
Q24.9062 14.0938 29.5938 14.0938
Q34.2969 14.0938 37.1875 17.0938
Q40.0938 20.0938 40.0938 25
Q40.0938 29.9062 37.1875 32.9062
Q34.2969 35.9062 29.5938 35.9062
Q24.9062 35.9062 22 32.9062
Q19.0938 29.9062 19.0938 25
Q19.0938 20.0938 24.9062 14.0938" id="Gilroy-Black-61"/>
     <path d="
M35.5938 51.4062
Q45.5938 51.4062 52.3438 43.8438
Q59.0938 36.2969 59.0938 25
Q59.0938 13.7031 52.3438 6.14062
Q45.5938 -1.40625 35.5938 -1.40625
Q26.5 -1.40625 21.4062 4.59375
L21.4062 -20
L4.79688 -20
L4.79688 50
L21.4062 50
L21.4062 45.4062
Q26.5 51.4062 35.5938 51.4062
M21.4062 20.0938
Q27.2031 14.0938 31.8906 14.0938
Q36.5938 14.0938 39.5 17.0938
Q42.4062 20.0938 42.4062 25
Q42.4062 29.9062 39.5 32.9062
Q36.5938 35.9062 31.8906 35.9062
Q27.2031 35.9062 24.2969 32.9062
Q21.4062 29.9062 21.4062 25
Q21.4062 20.0938 27.2031 14.0938" id="Gilroy-Black-70"/>
     <path d="
M76.9062 70
L76.9062 0
L59.0938 0
L59.0938 37.7031
L42.0938 9.59375
L40.2969 9.59375
L23.4062 37.5938
L23.4062 0
L5.5 0
L5.5 70
L23.4062 70
L41.2031 40.0938
L59.0938 70
z
" id="Gilroy-Black-4d"/>
     <path d="
M35.2969 51.4062
Q43.4062 51.4062 48.5469 45.8438
Q53.7031 40.2969 53.7031 29.9062
L53.7031 0
L37.0938 0
L37.0938 27.7969
Q37.0938 31.7031 35.0469 33.7031
Q33 35.7031 29.5938 35.7031
Q25.7031 35.7031 23.5469 33.3438
Q21.4062 31 21.4062 26.5938
L21.4062 0
L4.79688 0
L4.79688 70
L21.4062 70
L21.4062 45
Q25.9062 51.4062 35.2969 51.4062" id="Gilroy-Black-68"/>
     <path d="
M21.4062 40.7031
Q22.7969 45.5938 27 48.2969
Q31.2031 51 36.4062 51
L36.4062 32.5938
Q30.7031 33.5 26.0469 30.5
Q21.4062 27.5 21.4062 20.7031
L21.4062 0
L4.79688 0
L4.79688 50
L21.4062 50
z
" id="Gilroy-Black-72"/>
    </defs>
    <g transform="translate(205.5421875 10.12)scale(0.12 -0.12)">
     <use xlink:href="#Gilroy-Black-4d"/>
     <use x="82.4999847412" xlink:href="#Gilroy-Black-6f"/>
     <use x="140.799972534" xlink:href="#Gilroy-Black-75"/>
     <use x="198.699966431" xlink:href="#Gilroy-Black-73"/>
     <use x="246.199951172" xlink:href="#Gilroy-Black-65"/>
     <use x="303.299942017" xlink:href="#Gilroy-Black-20"/>
     <use x="325.999938965" xlink:href="#Gilroy-Black-73"/>
     <use x="373.499923706" xlink:href="#Gilroy-Black-70"/>
     <use x="434.999908447" xlink:href="#Gilroy-Black-65"/>
     <use x="492.099899292" xlink:href="#Gilroy-Black-65"/>
     <use x="549.199890137" xlink:href="#Gilroy-Black-64"/>
     <use x="610.699874878" xlink:href="#Gilroy-Black-20"/>
     <use x="633.399871826" xlink:href="#Gilroy-Black-63"/>
     <use x="686.199859619" xlink:href="#Gilroy-Black-68"/>
     <use x="744.099853516" xlink:href="#Gilroy-Black-61"/>
     <use x="805.599838257" xlink:href="#Gilroy-Black-72"/>
     <use x="843.499832153" xlink:href="#Gilroy-Black-74"/>
    </g>
   </g>
   <g id="legend_1">
    <g id="patch_8">
     <path d="
M313.32 177.6
L447.6 177.6
L447.6 122.231
L313.32 122.231
L313.32 177.6
z
" style="fill:#ffffff;opacity:0.5;stroke:#000000;"/>
    </g>
    <g id="line2d_21">
     <path d="
M321.72 131.591
L338.52 131.591" style="fill:none;stroke:#7548fb;stroke-linecap:square;"/>
    </g>
    <g id="line2d_22">
     <g>
      <use style="fill:#7548fb;stroke:#000000;stroke-width:0.5;" x="321.72" xlink:href="#m98d2a13c80" y="131.59125"/>
      <use style="fill:#7548fb;stroke:#000000;stroke-width:0.5;" x="338.52" xlink:href="#m98d2a13c80" y="131.59125"/>
     </g>
    </g>
    <g id="text_13">
     <!-- Parameter value -->
     <defs>
      <path d="
M30.0938 51.2031
Q41.2031 51.2031 48.0469 43.3438
Q54.9062 35.5 54.9062 24.7969
Q54.9062 23.7031 54.7031 21.7031
L10.7969 21.7031
Q11.7969 14.0938 17.25 9.64062
Q22.7031 5.20312 30.7031 5.20312
Q36.4062 5.20312 40.5469 7.54688
Q44.7031 9.90625 46.7969 13.7031
L52.5938 10.2969
Q49.2969 5 43.5938 1.89062
Q37.9062 -1.20312 30.5938 -1.20312
Q18.7969 -1.20312 11.3906 6.1875
Q4 13.5938 4 25
Q4 36.2031 11.2969 43.7031
Q18.5938 51.2031 30.0938 51.2031
M30.0938 44.7969
Q22.2969 44.7969 17.0469 40.1406
Q11.7969 35.5 10.7969 28.0938
L48.0938 28.0938
Q47.0938 36 42 40.3906
Q36.9062 44.7969 30.0938 44.7969" id="Gilroy-Regular-65"/>
      <path d="
M43 50
L50 50
L29.5 0
L21.5 0
L1 50
L8 50
L25.5 6.90625
z
" id="Gilroy-Regular-76"/>
      <path d="
M33.5 43.5938
L19.0938 43.5938
L19.0938 13.2969
Q19.0938 9.20312 20.6875 7.45312
Q22.2969 5.70312 25.5 5.64062
Q28.7031 5.59375 33.5 5.79688
L33.5 0
Q23 -1.59375 17.75 1.5
Q12.5 4.59375 12.5 13.2969
L12.5 43.5938
L2 43.5938
L2 50
L12.5 50
L12.5 62
L19.0938 64
L19.0938 50
L33.5 50
z
" id="Gilroy-Regular-74"/>
      <path d="
M42.2031 50
L48.7969 50
L48.7969 0
L42.2031 0
L42.2031 7.79688
Q36.5938 -1.20312 25.4062 -1.20312
Q16.2969 -1.20312 11.0469 4.34375
Q5.79688 9.90625 5.79688 19.2969
L5.79688 50
L12.4062 50
L12.4062 19.2969
Q12.4062 12.5938 15.9531 8.89062
Q19.5 5.20312 26 5.20312
Q33.2031 5.20312 37.7031 9.75
Q42.2031 14.2969 42.2031 23.7969
z
" id="Gilroy-Regular-75"/>
      <path d="
M50 50
L56.5938 50
L56.5938 0
L50 0
L50 9.79688
Q43.0938 -1.20312 29.7969 -1.20312
Q19.0938 -1.20312 11.5469 6.39062
Q4 14 4 25
Q4 36 11.5469 43.5938
Q19.0938 51.2031 29.7969 51.2031
Q43.0938 51.2031 50 40.2031
z

M10.5938 16.7031
Q22 5.20312 30.2969 5.20312
Q38.5938 5.20312 44.2969 10.9531
Q50 16.7031 50 25
Q50 33.2969 44.2969 39.0469
Q38.5938 44.7969 30.2969 44.7969
Q22 44.7969 16.2969 39.0469
Q10.5938 33.2969 10.5938 25
Q10.5938 16.7031 22 5.20312" id="Gilroy-Regular-61"/>
      <path d="
M33 70
Q42.4062 70 48.7031 63.7031
Q55 57.4062 55 48
Q55 38.5938 48.7031 32.2969
Q42.4062 26 33 26
L15 26
L15 0
L8 0
L8 70
z

M33 32.5938
Q39.5 32.5938 43.75 36.9375
Q48 41.2969 48 48
Q48 54.7031 43.75 59.0469
Q39.5 63.4062 33 63.4062
L15 63.4062
L15 32.5938
z
" id="Gilroy-Regular-50"/>
      <path d="
M60.2969 51.2031
Q68.7031 51.2031 73.8438 45.7969
Q79 40.4062 79 31.2031
L79 0
L72.4062 0
L72.4062 31.2031
Q72.4062 37.7031 69.0469 41.25
Q65.7031 44.7969 60.2031 44.7969
Q54 44.7969 50.1406 40.6406
Q46.2969 36.5 46.2969 27.7031
L46.2969 0
L39.7031 0
L39.7031 31.2031
Q39.7031 37.7969 36.5469 41.2969
Q33.4062 44.7969 28 44.7969
Q22 44.7969 17.7969 40.5938
Q13.5938 36.4062 13.5938 27.7031
L13.5938 0
L7 0
L7 50
L13.5938 50
L13.5938 42.7031
Q19 51.2031 28.9062 51.2031
Q39.7031 51.2031 44.0938 42.0938
Q49.5 51.2031 60.2969 51.2031" id="Gilroy-Regular-6d"/>
      <path d="
M7 0
L7 73
L13.5938 73
L13.5938 0
z
" id="Gilroy-Regular-6c"/>
      <path id="Gilroy-Regular-20"/>
      <path d="
M13.5938 41.7031
Q18.2031 50.7969 29.4062 50.7969
L29.4062 44.4062
Q22.5938 44.4062 18.0938 40.4062
Q13.5938 36.4062 13.5938 27.7969
L13.5938 0
L7 0
L7 50
L13.5938 50
z
" id="Gilroy-Regular-72"/>
     </defs>
     <g transform="translate(351.72 135.79125)scale(0.12 -0.12)">
      <use xlink:href="#Gilroy-Regular-50"/>
      <use x="58.9999847412" xlink:href="#Gilroy-Regular-61"/>
      <use x="122.599975586" xlink:href="#Gilroy-Regular-72"/>
      <use x="153.999969482" xlink:href="#Gilroy-Regular-61"/>
      <use x="217.599960327" xlink:href="#Gilroy-Regular-6d"/>
      <use x="302.39994812" xlink:href="#Gilroy-Regular-65"/>
      <use x="360.799942017" xlink:href="#Gilroy-Regular-74"/>
      <use x="398.299926758" xlink:href="#Gilroy-Regular-65"/>
      <use x="456.699920654" xlink:href="#Gilroy-Regular-72"/>
      <use x="488.099914551" xlink:href="#Gilroy-Regular-20"/>
      <use x="513.099899292" xlink:href="#Gilroy-Regular-76"/>
      <use x="564.099884033" xlink:href="#Gilroy-Regular-61"/>
      <use x="627.699874878" xlink:href="#Gilroy-Regular-6c"/>
      <use x="648.299865723" xlink:href="#Gilroy-Regular-75"/>
      <use x="704.099853516" xlink:href="#Gilroy-Regular-65"/>
     </g>
    </g>
    <g id="line2d_23">
     <path d="
M321.72 148.751
L338.52 148.751" style="fill:none;stroke:#7548fb;stroke-linecap:square;stroke-width:2;"/>
    </g>
    <g id="line2d_24"/>
    <g id="text_14">
     <!-- Average -->
     <defs>
      <path d="
M54.5938 0
L48.0938 17.2031
L14.9062 17.2031
L8.40625 0
L1 0
L27.9062 70
L35.0938 70
L62 0
z

M17.4062 23.7969
L45.5938 23.7969
L31.5 61.2969
z
" id="Gilroy-Regular-41"/>
      <path d="
M50 50
L56.5938 50
L56.5938 2
Q56.5938 -8.79688 49.1875 -15
Q41.7969 -21.2031 31.5 -21.2031
Q13.9062 -21.2031 7.79688 -9
L13.5938 -5.70312
Q18.0938 -14.7969 31.5 -14.7969
Q40.0938 -14.7969 45.0469 -10.25
Q50 -5.70312 50 2
L50 9.79688
Q43.0938 -1.20312 29.7969 -1.20312
Q19.0938 -1.20312 11.5469 6.39062
Q4 14 4 25
Q4 36 11.5469 43.5938
Q19.0938 51.2031 29.7969 51.2031
Q43.0938 51.2031 50 40.2031
z

M10.5938 16.7031
Q22 5.20312 30.2969 5.20312
Q38.5938 5.20312 44.2969 10.9531
Q50 16.7031 50 25
Q50 33.2969 44.2969 39.0469
Q38.5938 44.7969 30.2969 44.7969
Q22 44.7969 16.2969 39.0469
Q10.5938 33.2969 10.5938 25
Q10.5938 16.7031 22 5.20312" id="Gilroy-Regular-67"/>
     </defs>
     <g transform="translate(351.72 152.95125)scale(0.12 -0.12)">
      <use xlink:href="#Gilroy-Regular-41"/>
      <use x="62.9999847412" xlink:href="#Gilroy-Regular-76"/>
      <use x="113.999969482" xlink:href="#Gilroy-Regular-65"/>
      <use x="172.399963379" xlink:href="#Gilroy-Regular-72"/>
      <use x="203.799957275" xlink:href="#Gilroy-Regular-61"/>
      <use x="267.39994812" xlink:href="#Gilroy-Regular-67"/>
      <use x="330.999938965" xlink:href="#Gilroy-Regular-65"/>
     </g>
    </g>
    <g id="patch_9">
     <path d="
M318.12 170.256
L342.12 170.256
L342.12 161.856
L318.12 161.856
z
" style="fill:url(#hf78fc4a0a7);opacity:0.5;stroke:#ff0000;"/>
    </g>
    <g id="text_15">
     <!-- Deviation range -->
     <defs>
      <path d="
M30.4062 51.2031
Q39.5 51.2031 44.75 45.6406
Q50 40.0938 50 30.7031
L50 0
L43.4062 0
L43.4062 30.7031
Q43.4062 37.4062 39.8438 41.0938
Q36.2969 44.7969 29.7969 44.7969
Q22.5938 44.7969 18.0938 40.25
Q13.5938 35.7031 13.5938 26.2031
L13.5938 0
L7 0
L7 50
L13.5938 50
L13.5938 42.2031
Q19.2031 51.2031 30.4062 51.2031" id="Gilroy-Regular-6e"/>
      <path d="
M56.5938 13.9062
Q41.2969 -1.20312 30.2969 -1.20312
Q19.2969 -1.20312 11.6406 6.34375
Q4 13.9062 4 25
Q4 36.0938 11.6406 43.6406
Q19.2969 51.2031 30.2969 51.2031
Q41.2969 51.2031 48.9375 43.6406
Q56.5938 36.0938 56.5938 25
Q56.5938 13.9062 41.2969 -1.20312
M10.5938 16.7031
Q22 5.20312 30.2969 5.20312
Q38.5938 5.20312 44.2969 10.9531
Q50 16.7031 50 25
Q50 33.2969 44.2969 39.0469
Q38.5938 44.7969 30.2969 44.7969
Q22 44.7969 16.2969 39.0469
Q10.5938 33.2969 10.5938 25
Q10.5938 16.7031 22 5.20312" id="Gilroy-Regular-6f"/>
      <path d="
M15.0938 63.4062
Q12.2969 60.5938 10.2969 60.5938
Q8.29688 60.5938 6.89062 62
Q5.5 63.4062 5.5 65.4062
Q5.5 67.4062 6.89062 68.7969
Q8.29688 70.2031 10.2969 70.2031
Q12.2969 70.2031 13.6875 68.7969
Q15.0938 67.4062 15.0938 65.4062
Q15.0938 63.4062 12.2969 60.5938
M7 0
L7 50
L13.5938 50
L13.5938 0
z
" id="Gilroy-Regular-69"/>
      <path d="
M35 70
Q49.2969 70 58.6406 59.8438
Q68 49.7031 68 35
Q68 20.2969 58.6406 10.1406
Q49.2969 0 35 0
L8 0
L8 70
z

M35 6.59375
Q46.5 6.59375 53.8438 14.7969
Q61.2031 23 61.2031 35
Q61.2031 47 53.8438 55.2031
Q46.5 63.4062 35 63.4062
L15 63.4062
L15 6.59375
z
" id="Gilroy-Regular-44"/>
     </defs>
     <g transform="translate(351.72 170.255625)scale(0.12 -0.12)">
      <use xlink:href="#Gilroy-Regular-44"/>
      <use x="71.9999847412" xlink:href="#Gilroy-Regular-65"/>
      <use x="130.399978638" xlink:href="#Gilroy-Regular-76"/>
      <use x="181.399963379" xlink:href="#Gilroy-Regular-69"/>
      <use x="201.999954224" xlink:href="#Gilroy-Regular-61"/>
      <use x="265.599945068" xlink:href="#Gilroy-Regular-74"/>
      <use x="303.09992981" xlink:href="#Gilroy-Regular-69"/>
      <use x="323.699920654" xlink:href="#Gilroy-Regular-6f"/>
      <use x="384.299911499" xlink:href="#Gilroy-Regular-6e"/>
      <use x="440.099899292" xlink:href="#Gilroy-Regular-20"/>
      <use x="465.099884033" xlink:href="#Gilroy-Regular-72"/>
      <use x="496.49987793" xlink:href="#Gilroy-Regular-61"/>
      <use x="560.099868774" xlink:href="#Gilroy-Regular-6e"/>
      <use x="615.899856567" xlink:href="#Gilroy-Regular-67"/>
      <use x="679.499847412" xlink:href="#Gilroy-Regular-65"/>
     </g>
    </g>
   </g>
  </g>
 </g>
 <defs>
  <clipPath id="p8dcc4a8cc7">
   <rect height="162.0" width="390.6" x="63.0" y="21.6"/>
  </clipPath>
 </defs>
 <defs>
  <pattern height="72" id="hf78fc4a0a7" patternUnits="userSpaceOnUse" width="72" x="0" y="0">
   <rect fill="#fb7548" height="73" width="73" x="0" y="0"/>
   <path d="
M-36 36
L36 108
M-30 30
L42 102
M-24 24
L48 96
M-18 18
L54 90
M-12 12
L60 84
M-6 6
L66 78
M0 0
L72 72
M6 -6
L78 66
M12 -12
L84 60
M18 -18
L90 54
M24 -24
L96 48
M30 -30
L102 42
M36 -36
L108 36" style="fill:#ff0000;stroke:#ff0000;stroke-linecap:butt;stroke-linejoin:miter;stroke-width:1.0;"/>
  </pattern>
 </defs>
</svg>
