<?xml version="1.0" encoding="utf-8" standalone="no"?>
<!DOCTYPE svg PUBLIC "-//W3C//DTD SVG 1.1//EN"
  "http://www.w3.org/Graphics/SVG/1.1/DTD/svg11.dtd">
<!-- Created with matplotlib (http://matplotlib.org/) -->
<svg height="345pt" version="1.1" viewBox="0 0 460 345" width="460pt" xmlns="http://www.w3.org/2000/svg" xmlns:xlink="http://www.w3.org/1999/xlink">
 <defs>
  <style type="text/css">
*{stroke-linecap:butt;stroke-linejoin:round;}
  </style>
 </defs>
 <g id="figure_1">
  <g id="patch_1">
   <path d="M 0 345.6 
L 460.8 345.6 
L 460.8 0 
L 0 0 
z
" style="fill:#ffffff;"/>
  </g>
  <g id="axes_1">
   <g id="patch_2">
    <path d="M 57.6 293.76 
L 414.72 293.76 
L 414.72 41.472 
L 57.6 41.472 
z
" style="fill:#ffffff;"/>
   </g>
   <g id="patch_3">
    <path clip-path="url(#pa27365fa68)" d="M 57.6 302.200771 
L 435.615319 302.200771 
L 435.615319 223.996438 
L 57.6 223.996438 
z
" style="fill:url(#hb1ffae2679);opacity:0.5;stroke:#1b8ece;stroke-linejoin:miter;"/>
   </g>
   <g id="matplotlib.axis_1">
    <g id="xtick_1">
     <g id="line2d_1">
      <defs>
       <path d="M 0 0 
L 0 3.5 
" id="m6d412ce122" style="stroke:#000000;stroke-width:0.8;"/>
      </defs>
      <g>
       <use style="stroke:#000000;stroke-width:0.8;" x="57.6" xlink:href="#m6d412ce122" y="293.76"/>
      </g>
     </g>
     <g id="text_1">
      <!-- 0 -->
      <defs>
       <path d="M 31.78125 66.40625 
Q 24.171875 66.40625 20.328125 58.90625 
Q 16.5 51.421875 16.5 36.375 
Q 16.5 21.390625 20.328125 13.890625 
Q 24.171875 6.390625 31.78125 6.390625 
Q 39.453125 6.390625 43.28125 13.890625 
Q 47.125 21.390625 47.125 36.375 
Q 47.125 51.421875 43.28125 58.90625 
Q 39.453125 66.40625 31.78125 66.40625 
z
M 31.78125 74.21875 
Q 44.046875 74.21875 50.515625 64.515625 
Q 56.984375 54.828125 56.984375 36.375 
Q 56.984375 17.96875 50.515625 8.265625 
Q 44.046875 -1.421875 31.78125 -1.421875 
Q 19.53125 -1.421875 13.0625 8.265625 
Q 6.59375 17.96875 6.59375 36.375 
Q 6.59375 54.828125 13.0625 64.515625 
Q 19.53125 74.21875 31.78125 74.21875 
z
" id="DejaVuSans-30"/>
      </defs>
      <g transform="translate(54.41875 308.358437)scale(0.1 -0.1)">
       <use xlink:href="#DejaVuSans-30"/>
      </g>
     </g>
    </g>
    <g id="xtick_2">
     <g id="line2d_2">
      <g>
       <use style="stroke:#000000;stroke-width:0.8;" x="105.089362" xlink:href="#m6d412ce122" y="293.76"/>
      </g>
     </g>
     <g id="text_2">
      <!-- 25 -->
      <defs>
       <path d="M 19.1875 8.296875 
L 53.609375 8.296875 
L 53.609375 0 
L 7.328125 0 
L 7.328125 8.296875 
Q 12.9375 14.109375 22.625 23.890625 
Q 32.328125 33.6875 34.8125 36.53125 
Q 39.546875 41.84375 41.421875 45.53125 
Q 43.3125 49.21875 43.3125 52.78125 
Q 43.3125 58.59375 39.234375 62.25 
Q 35.15625 65.921875 28.609375 65.921875 
Q 23.96875 65.921875 18.8125 64.3125 
Q 13.671875 62.703125 7.8125 59.421875 
L 7.8125 69.390625 
Q 13.765625 71.78125 18.9375 73 
Q 24.125 74.21875 28.421875 74.21875 
Q 39.75 74.21875 46.484375 68.546875 
Q 53.21875 62.890625 53.21875 53.421875 
Q 53.21875 48.921875 51.53125 44.890625 
Q 49.859375 40.875 45.40625 35.40625 
Q 44.1875 33.984375 37.640625 27.21875 
Q 31.109375 20.453125 19.1875 8.296875 
z
" id="DejaVuSans-32"/>
       <path d="M 10.796875 72.90625 
L 49.515625 72.90625 
L 49.515625 64.59375 
L 19.828125 64.59375 
L 19.828125 46.734375 
Q 21.96875 47.46875 24.109375 47.828125 
Q 26.265625 48.1875 28.421875 48.1875 
Q 40.625 48.1875 47.75 41.5 
Q 54.890625 34.8125 54.890625 23.390625 
Q 54.890625 11.625 47.5625 5.09375 
Q 40.234375 -1.421875 26.90625 -1.421875 
Q 22.3125 -1.421875 17.546875 -0.640625 
Q 12.796875 0.140625 7.71875 1.703125 
L 7.71875 11.625 
Q 12.109375 9.234375 16.796875 8.0625 
Q 21.484375 6.890625 26.703125 6.890625 
Q 35.15625 6.890625 40.078125 11.328125 
Q 45.015625 15.765625 45.015625 23.390625 
Q 45.015625 31 40.078125 35.4375 
Q 35.15625 39.890625 26.703125 39.890625 
Q 22.75 39.890625 18.8125 39.015625 
Q 14.890625 38.140625 10.796875 36.28125 
z
" id="DejaVuSans-35"/>
      </defs>
      <g transform="translate(98.726862 308.358437)scale(0.1 -0.1)">
       <use xlink:href="#DejaVuSans-32"/>
       <use x="63.623047" xlink:href="#DejaVuSans-35"/>
      </g>
     </g>
    </g>
    <g id="xtick_3">
     <g id="line2d_3">
      <g>
       <use style="stroke:#000000;stroke-width:0.8;" x="152.578723" xlink:href="#m6d412ce122" y="293.76"/>
      </g>
     </g>
     <g id="text_3">
      <!-- 50 -->
      <g transform="translate(146.216223 308.358437)scale(0.1 -0.1)">
       <use xlink:href="#DejaVuSans-35"/>
       <use x="63.623047" xlink:href="#DejaVuSans-30"/>
      </g>
     </g>
    </g>
    <g id="xtick_4">
     <g id="line2d_4">
      <g>
       <use style="stroke:#000000;stroke-width:0.8;" x="200.068085" xlink:href="#m6d412ce122" y="293.76"/>
      </g>
     </g>
     <g id="text_4">
      <!-- 75 -->
      <defs>
       <path d="M 8.203125 72.90625 
L 55.078125 72.90625 
L 55.078125 68.703125 
L 28.609375 0 
L 18.3125 0 
L 43.21875 64.59375 
L 8.203125 64.59375 
z
" id="DejaVuSans-37"/>
      </defs>
      <g transform="translate(193.705585 308.358437)scale(0.1 -0.1)">
       <use xlink:href="#DejaVuSans-37"/>
       <use x="63.623047" xlink:href="#DejaVuSans-35"/>
      </g>
     </g>
    </g>
    <g id="xtick_5">
     <g id="line2d_5">
      <g>
       <use style="stroke:#000000;stroke-width:0.8;" x="247.557447" xlink:href="#m6d412ce122" y="293.76"/>
      </g>
     </g>
     <g id="text_5">
      <!-- 100 -->
      <defs>
       <path d="M 12.40625 8.296875 
L 28.515625 8.296875 
L 28.515625 63.921875 
L 10.984375 60.40625 
L 10.984375 69.390625 
L 28.421875 72.90625 
L 38.28125 72.90625 
L 38.28125 8.296875 
L 54.390625 8.296875 
L 54.390625 0 
L 12.40625 0 
z
" id="DejaVuSans-31"/>
      </defs>
      <g transform="translate(238.013697 308.358437)scale(0.1 -0.1)">
       <use xlink:href="#DejaVuSans-31"/>
       <use x="63.623047" xlink:href="#DejaVuSans-30"/>
       <use x="127.246094" xlink:href="#DejaVuSans-30"/>
      </g>
     </g>
    </g>
    <g id="xtick_6">
     <g id="line2d_6">
      <g>
       <use style="stroke:#000000;stroke-width:0.8;" x="295.046809" xlink:href="#m6d412ce122" y="293.76"/>
      </g>
     </g>
     <g id="text_6">
      <!-- 125 -->
      <g transform="translate(285.503059 308.358437)scale(0.1 -0.1)">
       <use xlink:href="#DejaVuSans-31"/>
       <use x="63.623047" xlink:href="#DejaVuSans-32"/>
       <use x="127.246094" xlink:href="#DejaVuSans-35"/>
      </g>
     </g>
    </g>
    <g id="xtick_7">
     <g id="line2d_7">
      <g>
       <use style="stroke:#000000;stroke-width:0.8;" x="342.53617" xlink:href="#m6d412ce122" y="293.76"/>
      </g>
     </g>
     <g id="text_7">
      <!-- 150 -->
      <g transform="translate(332.99242 308.358437)scale(0.1 -0.1)">
       <use xlink:href="#DejaVuSans-31"/>
       <use x="63.623047" xlink:href="#DejaVuSans-35"/>
       <use x="127.246094" xlink:href="#DejaVuSans-30"/>
      </g>
     </g>
    </g>
    <g id="xtick_8">
     <g id="line2d_8">
      <g>
       <use style="stroke:#000000;stroke-width:0.8;" x="390.025532" xlink:href="#m6d412ce122" y="293.76"/>
      </g>
     </g>
     <g id="text_8">
      <!-- 175 -->
      <g transform="translate(380.481782 308.358437)scale(0.1 -0.1)">
       <use xlink:href="#DejaVuSans-31"/>
       <use x="63.623047" xlink:href="#DejaVuSans-37"/>
       <use x="127.246094" xlink:href="#DejaVuSans-35"/>
      </g>
     </g>
    </g>
    <g id="text_9">
     <!-- Tracking time -->
     <defs>
      <path d="M 27.984375 65.578125 
L 27.984375 0 
L 23.1875 0 
L 23.1875 65.578125 
L 2.984375 65.578125 
L 2.984375 70.015625 
L 48.1875 70.015625 
L 48.1875 65.578125 
z
" id="SegoeUI-Light-54"/>
      <path d="M 31.59375 45.3125 
Q 29.34375 46.921875 26.3125 46.921875 
Q 20.40625 46.921875 16.40625 40.8125 
Q 12.40625 34.71875 12.40625 23.484375 
L 12.40625 0 
L 8.015625 0 
L 8.015625 50 
L 12.40625 50 
L 12.40625 38.921875 
L 12.59375 38.921875 
Q 14.3125 44.625 18.015625 47.796875 
Q 21.734375 50.984375 26.609375 50.984375 
Q 29.390625 50.984375 31.59375 50.09375 
z
" id="SegoeUI-Light-72"/>
      <path d="M 37.890625 0 
L 37.890625 10.015625 
L 37.703125 10.015625 
Q 35.296875 4.890625 30.734375 1.828125 
Q 26.171875 -1.21875 20.609375 -1.21875 
Q 13.484375 -1.21875 9.328125 2.78125 
Q 5.171875 6.78125 5.171875 12.890625 
Q 5.171875 25.984375 22.515625 28.71875 
L 37.890625 31 
Q 37.890625 47.125 25.78125 47.125 
Q 17.53125 47.125 9.71875 40.484375 
L 9.71875 45.90625 
Q 12.5 48.09375 17.25 49.65625 
Q 22.015625 51.21875 26.21875 51.21875 
Q 33.9375 51.21875 38.15625 46.4375 
Q 42.390625 41.65625 42.390625 32.515625 
L 42.390625 0 
z
M 24.125 24.90625 
Q 16.265625 23.78125 13.078125 21.265625 
Q 9.90625 18.75 9.90625 13.09375 
Q 9.90625 8.640625 12.859375 5.75 
Q 15.828125 2.875 21.09375 2.875 
Q 28.328125 2.875 33.109375 8.21875 
Q 37.890625 13.578125 37.890625 22.015625 
L 37.890625 26.90625 
z
" id="SegoeUI-Light-61"/>
      <path d="M 40.375 2.203125 
Q 34.8125 -1.21875 27.09375 -1.21875 
Q 16.890625 -1.21875 10.640625 5.78125 
Q 4.390625 12.796875 4.390625 24.125 
Q 4.390625 36.03125 11.421875 43.625 
Q 18.453125 51.21875 29.5 51.21875 
Q 35.203125 51.21875 40.578125 48.875 
L 40.578125 43.796875 
Q 35.203125 47.125 28.8125 47.125 
Q 20.015625 47.125 14.546875 40.796875 
Q 9.078125 34.46875 9.078125 24.421875 
Q 9.078125 14.703125 14.078125 8.78125 
Q 19.09375 2.875 27.296875 2.875 
Q 34.8125 2.875 40.375 6.890625 
z
" id="SegoeUI-Light-63"/>
      <path d="M 36.625 0 
L 12.703125 24.703125 
L 12.5 24.703125 
L 12.5 0 
L 8.015625 0 
L 8.015625 74.03125 
L 12.5 74.03125 
L 12.5 26.3125 
L 12.703125 26.3125 
L 35.40625 50 
L 41.21875 50 
L 17.484375 25.78125 
L 43.109375 0 
z
" id="SegoeUI-Light-6b"/>
      <path d="M 10.203125 62.59375 
Q 8.734375 62.59375 7.609375 63.671875 
Q 6.5 64.75 6.5 66.40625 
Q 6.5 68.015625 7.640625 69.015625 
Q 8.796875 70.015625 10.203125 70.015625 
Q 11.71875 70.015625 12.859375 69.03125 
Q 14.015625 68.0625 14.015625 66.40625 
Q 14.015625 64.84375 12.890625 63.71875 
Q 11.765625 62.59375 10.203125 62.59375 
z
M 8.015625 0 
L 8.015625 50 
L 12.5 50 
L 12.5 0 
z
" id="SegoeUI-Light-69"/>
      <path d="M 42 0 
L 42 29.109375 
Q 42 47.125 29 47.125 
Q 21.78125 47.125 17.140625 41.828125 
Q 12.5 36.53125 12.5 28.71875 
L 12.5 0 
L 8.015625 0 
L 8.015625 50 
L 12.5 50 
L 12.5 40.921875 
L 12.703125 40.921875 
Q 18.171875 51.21875 29.78125 51.21875 
Q 37.890625 51.21875 42.1875 45.828125 
Q 46.484375 40.4375 46.484375 30.421875 
L 46.484375 0 
z
" id="SegoeUI-Light-6e"/>
      <path d="M 48 3.71875 
Q 48 -10.40625 41.84375 -16.9375 
Q 35.6875 -23.484375 22.703125 -23.484375 
Q 15.484375 -23.484375 7.8125 -19.671875 
L 7.8125 -14.984375 
Q 15.71875 -19.390625 22.796875 -19.390625 
Q 43.5 -19.390625 43.5 2.484375 
L 43.5 8.984375 
L 43.3125 8.984375 
Q 37.40625 -1.21875 25.296875 -1.21875 
Q 16.0625 -1.21875 10.21875 5.46875 
Q 4.390625 12.15625 4.390625 24.125 
Q 4.390625 36.078125 10.6875 43.640625 
Q 17 51.21875 27.296875 51.21875 
Q 38.328125 51.21875 43.3125 42.09375 
L 43.5 42.09375 
L 43.5 50 
L 48 50 
z
M 43.5 30.8125 
Q 43.5 37.453125 39.03125 42.28125 
Q 34.578125 47.125 27.390625 47.125 
Q 19.140625 47.125 14.109375 40.921875 
Q 9.078125 34.71875 9.078125 24.515625 
Q 9.078125 14.265625 13.6875 8.5625 
Q 18.3125 2.875 25.875 2.875 
Q 33.9375 2.875 38.71875 8.09375 
Q 43.5 13.328125 43.5 20.90625 
z
" id="SegoeUI-Light-67"/>
      <path id="SegoeUI-Light-20"/>
      <path d="M 27.78125 0.6875 
Q 24.265625 -0.984375 21.1875 -0.984375 
Q 10.109375 -0.984375 10.109375 12.3125 
L 10.109375 45.90625 
L 1.125 45.90625 
L 1.125 50 
L 10.109375 50 
L 10.109375 62.984375 
Q 11.1875 63.375 12.359375 63.765625 
Q 13.53125 64.109375 14.59375 64.5 
L 14.59375 50 
L 27.78125 50 
L 27.78125 45.90625 
L 14.59375 45.90625 
L 14.59375 12.890625 
Q 14.59375 7.71875 16.234375 5.390625 
Q 17.875 3.078125 21.78125 3.078125 
Q 24.5625 3.078125 27.78125 4.890625 
z
" id="SegoeUI-Light-74"/>
      <path d="M 70.703125 0 
L 70.703125 30.078125 
Q 70.703125 39.5 67.75 43.3125 
Q 64.796875 47.125 58.40625 47.125 
Q 52.484375 47.125 48.1875 42.046875 
Q 43.890625 36.96875 43.890625 29.296875 
L 43.890625 0 
L 39.40625 0 
L 39.40625 30.421875 
Q 39.40625 47.125 26.703125 47.125 
Q 20.609375 47.125 16.546875 42.015625 
Q 12.5 36.921875 12.5 28.8125 
L 12.5 0 
L 8.015625 0 
L 8.015625 50 
L 12.5 50 
L 12.5 41.703125 
L 12.703125 41.703125 
Q 17.921875 51.21875 27.984375 51.21875 
Q 33.453125 51.21875 37.328125 48.0625 
Q 41.21875 44.921875 42.578125 39.796875 
Q 44.921875 45.21875 49.28125 48.21875 
Q 53.65625 51.21875 58.796875 51.21875 
Q 75.203125 51.21875 75.203125 30.90625 
L 75.203125 0 
z
" id="SegoeUI-Light-6d"/>
      <path d="M 9.078125 24.8125 
Q 9.078125 14.5 13.84375 8.6875 
Q 18.609375 2.875 26.90625 2.875 
Q 35.296875 2.875 43.3125 9.078125 
L 43.3125 4.296875 
Q 35.546875 -1.21875 25.984375 -1.21875 
Q 16.3125 -1.21875 10.34375 5.703125 
Q 4.390625 12.640625 4.390625 25.296875 
Q 4.390625 36.234375 10.609375 43.71875 
Q 16.84375 51.21875 26.8125 51.21875 
Q 36.140625 51.21875 41.109375 44.671875 
Q 46.09375 38.140625 46.09375 26.8125 
L 46.09375 24.8125 
z
M 41.40625 28.90625 
Q 41.109375 37.546875 37.25 42.328125 
Q 33.40625 47.125 26.609375 47.125 
Q 19.578125 47.125 14.96875 42.40625 
Q 10.359375 37.703125 9.28125 28.90625 
z
" id="SegoeUI-Light-65"/>
     </defs>
     <g transform="translate(208.038906 321.84125)scale(0.1 -0.1)">
      <use xlink:href="#SegoeUI-Light-54"/>
      <use x="50.919922" xlink:href="#SegoeUI-Light-72"/>
      <use x="83.927734" xlink:href="#SegoeUI-Light-61"/>
      <use x="133.341797" xlink:href="#SegoeUI-Light-63"/>
      <use x="177.726562" xlink:href="#SegoeUI-Light-6b"/>
      <use x="222.111328" xlink:href="#SegoeUI-Light-69"/>
      <use x="242.619141" xlink:href="#SegoeUI-Light-6e"/>
      <use x="296.134766" xlink:href="#SegoeUI-Light-67"/>
      <use x="352.140625" xlink:href="#SegoeUI-Light-20"/>
      <use x="379.533203" xlink:href="#SegoeUI-Light-74"/>
      <use x="409.220703" xlink:href="#SegoeUI-Light-69"/>
      <use x="429.728516" xlink:href="#SegoeUI-Light-6d"/>
      <use x="511.90625" xlink:href="#SegoeUI-Light-65"/>
     </g>
    </g>
   </g>
   <g id="matplotlib.axis_2">
    <g id="ytick_1">
     <g id="line2d_9">
      <defs>
       <path d="M 0 0 
L -3.5 0 
" id="m10d5e743a7" style="stroke:#000000;stroke-width:0.8;"/>
      </defs>
      <g>
       <use style="stroke:#000000;stroke-width:0.8;" x="57.6" xlink:href="#m10d5e743a7" y="288.693363"/>
      </g>
     </g>
     <g id="text_10">
      <!-- 0 -->
      <g transform="translate(44.2375 292.492581)scale(0.1 -0.1)">
       <use xlink:href="#DejaVuSans-30"/>
      </g>
     </g>
    </g>
    <g id="ytick_2">
     <g id="line2d_10">
      <g>
       <use style="stroke:#000000;stroke-width:0.8;" x="57.6" xlink:href="#m10d5e743a7" y="236.629314"/>
      </g>
     </g>
     <g id="text_11">
      <!-- 1 -->
      <g transform="translate(44.2375 240.428533)scale(0.1 -0.1)">
       <use xlink:href="#DejaVuSans-31"/>
      </g>
     </g>
    </g>
    <g id="ytick_3">
     <g id="line2d_11">
      <g>
       <use style="stroke:#000000;stroke-width:0.8;" x="57.6" xlink:href="#m10d5e743a7" y="184.565265"/>
      </g>
     </g>
     <g id="text_12">
      <!-- 2 -->
      <g transform="translate(44.2375 188.364484)scale(0.1 -0.1)">
       <use xlink:href="#DejaVuSans-32"/>
      </g>
     </g>
    </g>
    <g id="ytick_4">
     <g id="line2d_12">
      <g>
       <use style="stroke:#000000;stroke-width:0.8;" x="57.6" xlink:href="#m10d5e743a7" y="132.501216"/>
      </g>
     </g>
     <g id="text_13">
      <!-- 3 -->
      <defs>
       <path d="M 40.578125 39.3125 
Q 47.65625 37.796875 51.625 33 
Q 55.609375 28.21875 55.609375 21.1875 
Q 55.609375 10.40625 48.1875 4.484375 
Q 40.765625 -1.421875 27.09375 -1.421875 
Q 22.515625 -1.421875 17.65625 -0.515625 
Q 12.796875 0.390625 7.625 2.203125 
L 7.625 11.71875 
Q 11.71875 9.328125 16.59375 8.109375 
Q 21.484375 6.890625 26.8125 6.890625 
Q 36.078125 6.890625 40.9375 10.546875 
Q 45.796875 14.203125 45.796875 21.1875 
Q 45.796875 27.640625 41.28125 31.265625 
Q 36.765625 34.90625 28.71875 34.90625 
L 20.21875 34.90625 
L 20.21875 43.015625 
L 29.109375 43.015625 
Q 36.375 43.015625 40.234375 45.921875 
Q 44.09375 48.828125 44.09375 54.296875 
Q 44.09375 59.90625 40.109375 62.90625 
Q 36.140625 65.921875 28.71875 65.921875 
Q 24.65625 65.921875 20.015625 65.03125 
Q 15.375 64.15625 9.8125 62.3125 
L 9.8125 71.09375 
Q 15.4375 72.65625 20.34375 73.4375 
Q 25.25 74.21875 29.59375 74.21875 
Q 40.828125 74.21875 47.359375 69.109375 
Q 53.90625 64.015625 53.90625 55.328125 
Q 53.90625 49.265625 50.4375 45.09375 
Q 46.96875 40.921875 40.578125 39.3125 
z
" id="DejaVuSans-33"/>
      </defs>
      <g transform="translate(44.2375 136.300435)scale(0.1 -0.1)">
       <use xlink:href="#DejaVuSans-33"/>
      </g>
     </g>
    </g>
    <g id="ytick_5">
     <g id="line2d_13">
      <g>
       <use style="stroke:#000000;stroke-width:0.8;" x="57.6" xlink:href="#m10d5e743a7" y="80.437168"/>
      </g>
     </g>
     <g id="text_14">
      <!-- 4 -->
      <defs>
       <path d="M 37.796875 64.3125 
L 12.890625 25.390625 
L 37.796875 25.390625 
z
M 35.203125 72.90625 
L 47.609375 72.90625 
L 47.609375 25.390625 
L 58.015625 25.390625 
L 58.015625 17.1875 
L 47.609375 17.1875 
L 47.609375 0 
L 37.796875 0 
L 37.796875 17.1875 
L 4.890625 17.1875 
L 4.890625 26.703125 
z
" id="DejaVuSans-34"/>
      </defs>
      <g transform="translate(44.2375 84.236386)scale(0.1 -0.1)">
       <use xlink:href="#DejaVuSans-34"/>
      </g>
     </g>
    </g>
    <g id="text_15">
     <!-- mouse speed time -->
     <defs>
      <path d="M 28.078125 -1.21875 
Q 17.140625 -1.21875 10.765625 5.984375 
Q 4.390625 13.1875 4.390625 24.703125 
Q 4.390625 37.15625 11.046875 44.1875 
Q 17.71875 51.21875 28.609375 51.21875 
Q 39.3125 51.21875 45.5 44.234375 
Q 51.703125 37.25 51.703125 24.90625 
Q 51.703125 13.234375 45.375 6 
Q 39.0625 -1.21875 28.078125 -1.21875 
z
M 28.421875 47.125 
Q 19.578125 47.125 14.328125 41.15625 
Q 9.078125 35.203125 9.078125 24.609375 
Q 9.078125 14.796875 14.203125 8.828125 
Q 19.34375 2.875 28.21875 2.875 
Q 37.25 2.875 42.125 8.734375 
Q 47.015625 14.59375 47.015625 25 
Q 47.015625 35.6875 42.15625 41.40625 
Q 37.3125 47.125 28.421875 47.125 
z
" id="SegoeUI-Light-6f"/>
      <path d="M 41.015625 0 
L 41.015625 9.078125 
L 40.828125 9.078125 
Q 35.59375 -1.21875 24.703125 -1.21875 
Q 6.984375 -1.21875 6.984375 21.09375 
L 6.984375 50 
L 11.53125 50 
L 11.53125 22.21875 
Q 11.53125 12.0625 14.875 7.46875 
Q 18.21875 2.875 25.390625 2.875 
Q 32.375 2.875 36.6875 8 
Q 41.015625 13.140625 41.015625 21.6875 
L 41.015625 50 
L 45.515625 50 
L 45.515625 0 
z
" id="SegoeUI-Light-75"/>
      <path d="M 5.421875 2.203125 
L 5.421875 7.625 
Q 7.953125 5.421875 11.5625 4.140625 
Q 15.1875 2.875 17.828125 2.875 
Q 29.59375 2.875 29.59375 12.5 
Q 29.59375 15.828125 27 18.171875 
Q 24.421875 20.515625 18.609375 23 
Q 11.421875 26.125 8.515625 29.46875 
Q 5.609375 32.8125 5.609375 37.59375 
Q 5.609375 43.703125 10.265625 47.453125 
Q 14.9375 51.21875 21.78125 51.21875 
Q 28.21875 51.21875 32.8125 48.578125 
L 32.8125 43.5 
Q 27.25 47.125 21.296875 47.125 
Q 16.359375 47.125 13.328125 44.5625 
Q 10.296875 42 10.296875 37.890625 
Q 10.296875 34.328125 12.203125 32.109375 
Q 14.109375 29.890625 20.609375 27 
Q 28.421875 23.484375 31.34375 20.484375 
Q 34.28125 17.484375 34.28125 12.5 
Q 34.28125 6.546875 29.8125 2.65625 
Q 25.34375 -1.21875 17.484375 -1.21875 
Q 10.25 -1.21875 5.421875 2.203125 
z
" id="SegoeUI-Light-73"/>
      <path d="M 12.703125 8.890625 
L 12.5 8.890625 
L 12.5 -23 
L 8.015625 -23 
L 8.015625 50 
L 12.5 50 
L 12.5 39.703125 
L 12.703125 39.703125 
Q 15.375 45.21875 20.375 48.21875 
Q 25.390625 51.21875 31.390625 51.21875 
Q 40.921875 51.21875 46.265625 44.65625 
Q 51.609375 38.09375 51.609375 26.8125 
Q 51.609375 14.265625 45.484375 6.515625 
Q 39.359375 -1.21875 29.296875 -1.21875 
Q 18.0625 -1.21875 12.703125 8.890625 
z
M 12.5 27.484375 
L 12.5 21.1875 
Q 12.5 13.671875 17.234375 8.265625 
Q 21.96875 2.875 29.6875 2.875 
Q 37.359375 2.875 42.140625 9.4375 
Q 46.921875 16.015625 46.921875 26.703125 
Q 46.921875 36.078125 42.53125 41.59375 
Q 38.140625 47.125 30.8125 47.125 
Q 22.078125 47.125 17.28125 41.265625 
Q 12.5 35.40625 12.5 27.484375 
z
" id="SegoeUI-Light-70"/>
      <path d="M 43.5 0 
L 43.5 9.078125 
L 43.3125 9.078125 
Q 40.875 4.34375 36.078125 1.5625 
Q 31.296875 -1.21875 25.296875 -1.21875 
Q 16.0625 -1.21875 10.21875 5.515625 
Q 4.390625 12.25 4.390625 24.125 
Q 4.390625 36.234375 10.765625 43.71875 
Q 17.140625 51.21875 27.296875 51.21875 
Q 38.53125 51.21875 43.3125 42 
L 43.5 42 
L 43.5 74.03125 
L 48 74.03125 
L 48 0 
z
M 43.5 30.421875 
Q 43.5 37.40625 39.078125 42.265625 
Q 34.671875 47.125 27.203125 47.125 
Q 19.34375 47.125 14.203125 41.09375 
Q 9.078125 35.0625 9.078125 24.515625 
Q 9.078125 14.15625 13.6875 8.515625 
Q 18.3125 2.875 25.59375 2.875 
Q 34.125 2.875 38.8125 8.171875 
Q 43.5 13.484375 43.5 21.09375 
z
" id="SegoeUI-Light-64"/>
     </defs>
     <g transform="translate(37.9375 206.141781)rotate(-90)scale(0.1 -0.1)">
      <use xlink:href="#SegoeUI-Light-6d"/>
      <use x="82.177734" xlink:href="#SegoeUI-Light-6f"/>
      <use x="138.28125" xlink:href="#SegoeUI-Light-75"/>
      <use x="191.796875" xlink:href="#SegoeUI-Light-73"/>
      <use x="230.615234" xlink:href="#SegoeUI-Light-65"/>
      <use x="281.103516" xlink:href="#SegoeUI-Light-20"/>
      <use x="308.496094" xlink:href="#SegoeUI-Light-73"/>
      <use x="347.314453" xlink:href="#SegoeUI-Light-70"/>
      <use x="403.320312" xlink:href="#SegoeUI-Light-65"/>
      <use x="453.808594" xlink:href="#SegoeUI-Light-65"/>
      <use x="504.296875" xlink:href="#SegoeUI-Light-64"/>
      <use x="560.302734" xlink:href="#SegoeUI-Light-20"/>
      <use x="587.695312" xlink:href="#SegoeUI-Light-74"/>
      <use x="617.382812" xlink:href="#SegoeUI-Light-69"/>
      <use x="637.890625" xlink:href="#SegoeUI-Light-6d"/>
      <use x="720.068359" xlink:href="#SegoeUI-Light-65"/>
     </g>
    </g>
   </g>
   <g id="line2d_14">
    <path clip-path="url(#pa27365fa68)" d="M 57.6 283.383851 
L 59.499574 281.385825 
L 61.399149 284.495825 
L 63.298723 283.158878 
L 65.198298 281.184579 
L 67.097872 282.424021 
L 68.997447 263.904406 
L 70.897021 230.932765 
L 72.796596 267.401119 
L 74.69617 242.858714 
L 76.595745 287.875255 
L 78.495319 283.588609 
L 80.394894 286.474957 
L 82.294468 286.746985 
L 84.194043 151.868884 
L 86.093617 71.3891 
L 87.993191 262.510788 
L 89.892766 282.07463 
L 91.79234 280.815421 
L 93.691915 284.354692 
L 95.591489 253.404843 
L 97.491064 193.116474 
L 99.390638 218.925595 
L 101.290213 285.889628 
L 103.189787 273.884824 
L 105.089362 276.477978 
L 106.988936 283.78165 
L 108.888511 283.407059 
L 110.788085 283.851126 
L 112.68766 252.229939 
L 114.587234 91.948427 
L 116.486809 124.955447 
L 118.386383 266.944545 
L 120.285957 271.316133 
L 122.185532 266.299768 
L 124.085106 278.437934 
L 125.984681 282.700341 
L 127.884255 262.299406 
L 129.78383 174.46408 
L 131.683404 223.446909 
L 133.582979 269.254568 
L 135.482553 282.424021 
L 137.382128 282.107723 
L 139.281702 287.957066 
L 141.181277 287.765973 
L 143.080851 265.293483 
L 144.980426 267.448934 
L 146.88 279.781433 
L 148.779574 282.757148 
L 150.679149 275.419583 
L 152.578723 286.430589 
L 154.478298 242.62624 
L 156.377872 215.351397 
L 158.277447 277.624394 
L 160.177021 261.540077 
L 162.076596 272.545112 
L 163.97617 284.903043 
L 165.875745 287.291495 
L 167.775319 272.55611 
L 169.674894 254.562527 
L 171.574468 211.29459 
L 173.474043 269.770391 
L 175.373617 279.827175 
L 177.273191 282.107723 
L 179.172766 280.461314 
L 181.07234 273.514214 
L 182.971915 277.64891 
L 184.871489 288.117032 
L 186.771064 274.68436 
L 188.670638 283.78165 
L 190.570213 283.46099 
L 192.469787 280.566558 
L 194.369362 287.65179 
L 196.268936 275.445665 
L 198.168511 278.233436 
L 200.068085 285.343958 
L 201.96766 278.255574 
L 203.867234 287.046953 
L 205.766809 288.430524 
L 207.666383 279.192565 
L 209.565957 278.383631 
L 211.465532 285.433145 
L 213.365106 282.40244 
L 215.264681 288.529214 
L 217.164255 287.957066 
L 219.06383 284.442559 
L 220.963404 284.169797 
L 222.862979 284.361709 
L 224.762553 260.154819 
L 226.662128 279.706788 
L 228.561702 284.846409 
L 230.461277 271.116987 
L 232.360851 212.775086 
L 234.260426 224.747359 
L 236.16 276.809522 
L 238.059574 271.076009 
L 239.959149 266.312736 
L 241.858723 279.063296 
L 243.758298 285.657533 
L 245.657872 286.76361 
L 247.557447 241.659712 
L 249.457021 46.678405 
L 251.356596 209.869819 
L 253.25617 286.567961 
L 255.155745 270.620312 
L 257.055319 271.841379 
L 258.954894 287.861842 
L 260.854468 196.404788 
L 262.754043 118.878345 
L 264.653617 230.35142 
L 266.553191 275.378651 
L 268.452766 257.2603 
L 270.35234 259.869434 
L 272.251915 261.896906 
L 274.151489 287.517416 
L 276.051064 274.633659 
L 277.950638 257.952418 
L 279.850213 238.32493 
L 281.749787 283.616418 
L 283.649362 280.92855 
L 285.548936 276.400536 
L 287.448511 279.691413 
L 289.348085 287.529175 
L 291.24766 284.260269 
L 293.147234 177.232515 
L 295.046809 111.766733 
L 296.946383 247.953969 
L 298.845957 275.419583 
L 300.745532 269.122543 
L 302.645106 283.590315 
L 304.544681 274.765708 
L 306.444255 283.844809 
L 308.34383 261.834923 
L 310.243404 241.785015 
L 312.142979 235.912064 
L 314.042553 243.438497 
L 315.942128 277.64891 
L 317.841702 282.40244 
L 321.640851 279.423622 
L 323.540426 287.205894 
L 325.44 286.117696 
L 327.339574 260.90516 
L 329.239149 272.514996 
L 331.138723 277.945097 
L 333.038298 282.354306 
L 334.937872 288.394662 
L 336.837447 288.553595 
L 338.737021 283.565648 
L 340.636596 279.307383 
L 342.53617 250.012035 
L 344.435745 275.02717 
L 346.335319 270.955862 
L 348.234894 252.268062 
L 350.134468 276.936598 
L 352.034043 276.430229 
L 353.933617 286.816167 
L 355.833191 283.989575 
L 357.732766 279.671997 
L 359.63234 287.584613 
L 361.531915 281.920032 
L 363.431489 287.857622 
L 365.331064 232.008702 
L 367.230638 207.343286 
L 369.130213 265.028549 
L 371.029787 271.980016 
L 372.929362 280.041004 
L 374.828936 287.462097 
L 376.728511 279.781433 
L 378.628085 250.173245 
L 380.52766 256.608782 
L 382.427234 282.359498 
L 384.326809 284.036612 
L 386.226383 282.18796 
L 388.125957 244.559844 
L 390.025532 200.411144 
L 391.925106 230.392003 
L 393.824681 282.025911 
L 395.724255 285.557786 
L 397.62383 287.030322 
L 399.523404 278.960804 
L 401.422979 249.219144 
L 403.322553 280.282158 
L 405.222128 256.459871 
L 407.121702 270.899945 
L 409.021277 260.472919 
L 410.920851 274.022752 
L 412.820426 274.623343 
L 414.72 280.47855 
L 414.72 280.47855 
" style="fill:none;stroke:#165ea9;stroke-linecap:square;stroke-width:1.5;"/>
    <defs>
     <path d="M 0 3 
C 0.795609 3 1.55874 2.683901 2.12132 2.12132 
C 2.683901 1.55874 3 0.795609 3 0 
C 3 -0.795609 2.683901 -1.55874 2.12132 -2.12132 
C 1.55874 -2.683901 0.795609 -3 0 -3 
C -0.795609 -3 -1.55874 -2.683901 -2.12132 -2.12132 
C -2.683901 -1.55874 -3 -0.795609 -3 0 
C -3 0.795609 -2.683901 1.55874 -2.12132 2.12132 
C -1.55874 2.683901 -0.795609 3 0 3 
z
" id="m41b97e97b2" style="stroke:#165ea9;"/>
    </defs>
    <g clip-path="url(#pa27365fa68)">
     <use style="fill:#165ea9;stroke:#165ea9;" x="57.6" xlink:href="#m41b97e97b2" y="283.383851"/>
     <use style="fill:#165ea9;stroke:#165ea9;" x="59.499574" xlink:href="#m41b97e97b2" y="281.385825"/>
     <use style="fill:#165ea9;stroke:#165ea9;" x="61.399149" xlink:href="#m41b97e97b2" y="284.495825"/>
     <use style="fill:#165ea9;stroke:#165ea9;" x="63.298723" xlink:href="#m41b97e97b2" y="283.158878"/>
     <use style="fill:#165ea9;stroke:#165ea9;" x="65.198298" xlink:href="#m41b97e97b2" y="281.184579"/>
     <use style="fill:#165ea9;stroke:#165ea9;" x="67.097872" xlink:href="#m41b97e97b2" y="282.424021"/>
     <use style="fill:#165ea9;stroke:#165ea9;" x="68.997447" xlink:href="#m41b97e97b2" y="263.904406"/>
     <use style="fill:#165ea9;stroke:#165ea9;" x="70.897021" xlink:href="#m41b97e97b2" y="230.932765"/>
     <use style="fill:#165ea9;stroke:#165ea9;" x="72.796596" xlink:href="#m41b97e97b2" y="267.401119"/>
     <use style="fill:#165ea9;stroke:#165ea9;" x="74.69617" xlink:href="#m41b97e97b2" y="242.858714"/>
     <use style="fill:#165ea9;stroke:#165ea9;" x="76.595745" xlink:href="#m41b97e97b2" y="287.875255"/>
     <use style="fill:#165ea9;stroke:#165ea9;" x="78.495319" xlink:href="#m41b97e97b2" y="283.588609"/>
     <use style="fill:#165ea9;stroke:#165ea9;" x="80.394894" xlink:href="#m41b97e97b2" y="286.474957"/>
     <use style="fill:#165ea9;stroke:#165ea9;" x="82.294468" xlink:href="#m41b97e97b2" y="286.746985"/>
     <use style="fill:#165ea9;stroke:#165ea9;" x="84.194043" xlink:href="#m41b97e97b2" y="151.868884"/>
     <use style="fill:#165ea9;stroke:#165ea9;" x="86.093617" xlink:href="#m41b97e97b2" y="71.3891"/>
     <use style="fill:#165ea9;stroke:#165ea9;" x="87.993191" xlink:href="#m41b97e97b2" y="262.510788"/>
     <use style="fill:#165ea9;stroke:#165ea9;" x="89.892766" xlink:href="#m41b97e97b2" y="282.07463"/>
     <use style="fill:#165ea9;stroke:#165ea9;" x="91.79234" xlink:href="#m41b97e97b2" y="280.815421"/>
     <use style="fill:#165ea9;stroke:#165ea9;" x="93.691915" xlink:href="#m41b97e97b2" y="284.354692"/>
     <use style="fill:#165ea9;stroke:#165ea9;" x="95.591489" xlink:href="#m41b97e97b2" y="253.404843"/>
     <use style="fill:#165ea9;stroke:#165ea9;" x="97.491064" xlink:href="#m41b97e97b2" y="193.116474"/>
     <use style="fill:#165ea9;stroke:#165ea9;" x="99.390638" xlink:href="#m41b97e97b2" y="218.925595"/>
     <use style="fill:#165ea9;stroke:#165ea9;" x="101.290213" xlink:href="#m41b97e97b2" y="285.889628"/>
     <use style="fill:#165ea9;stroke:#165ea9;" x="103.189787" xlink:href="#m41b97e97b2" y="273.884824"/>
     <use style="fill:#165ea9;stroke:#165ea9;" x="105.089362" xlink:href="#m41b97e97b2" y="276.477978"/>
     <use style="fill:#165ea9;stroke:#165ea9;" x="106.988936" xlink:href="#m41b97e97b2" y="283.78165"/>
     <use style="fill:#165ea9;stroke:#165ea9;" x="108.888511" xlink:href="#m41b97e97b2" y="283.407059"/>
     <use style="fill:#165ea9;stroke:#165ea9;" x="110.788085" xlink:href="#m41b97e97b2" y="283.851126"/>
     <use style="fill:#165ea9;stroke:#165ea9;" x="112.68766" xlink:href="#m41b97e97b2" y="252.229939"/>
     <use style="fill:#165ea9;stroke:#165ea9;" x="114.587234" xlink:href="#m41b97e97b2" y="91.948427"/>
     <use style="fill:#165ea9;stroke:#165ea9;" x="116.486809" xlink:href="#m41b97e97b2" y="124.955447"/>
     <use style="fill:#165ea9;stroke:#165ea9;" x="118.386383" xlink:href="#m41b97e97b2" y="266.944545"/>
     <use style="fill:#165ea9;stroke:#165ea9;" x="120.285957" xlink:href="#m41b97e97b2" y="271.316133"/>
     <use style="fill:#165ea9;stroke:#165ea9;" x="122.185532" xlink:href="#m41b97e97b2" y="266.299768"/>
     <use style="fill:#165ea9;stroke:#165ea9;" x="124.085106" xlink:href="#m41b97e97b2" y="278.437934"/>
     <use style="fill:#165ea9;stroke:#165ea9;" x="125.984681" xlink:href="#m41b97e97b2" y="282.700341"/>
     <use style="fill:#165ea9;stroke:#165ea9;" x="127.884255" xlink:href="#m41b97e97b2" y="262.299406"/>
     <use style="fill:#165ea9;stroke:#165ea9;" x="129.78383" xlink:href="#m41b97e97b2" y="174.46408"/>
     <use style="fill:#165ea9;stroke:#165ea9;" x="131.683404" xlink:href="#m41b97e97b2" y="223.446909"/>
     <use style="fill:#165ea9;stroke:#165ea9;" x="133.582979" xlink:href="#m41b97e97b2" y="269.254568"/>
     <use style="fill:#165ea9;stroke:#165ea9;" x="135.482553" xlink:href="#m41b97e97b2" y="282.424021"/>
     <use style="fill:#165ea9;stroke:#165ea9;" x="137.382128" xlink:href="#m41b97e97b2" y="282.107723"/>
     <use style="fill:#165ea9;stroke:#165ea9;" x="139.281702" xlink:href="#m41b97e97b2" y="287.957066"/>
     <use style="fill:#165ea9;stroke:#165ea9;" x="141.181277" xlink:href="#m41b97e97b2" y="287.765973"/>
     <use style="fill:#165ea9;stroke:#165ea9;" x="143.080851" xlink:href="#m41b97e97b2" y="265.293483"/>
     <use style="fill:#165ea9;stroke:#165ea9;" x="144.980426" xlink:href="#m41b97e97b2" y="267.448934"/>
     <use style="fill:#165ea9;stroke:#165ea9;" x="146.88" xlink:href="#m41b97e97b2" y="279.781433"/>
     <use style="fill:#165ea9;stroke:#165ea9;" x="148.779574" xlink:href="#m41b97e97b2" y="282.757148"/>
     <use style="fill:#165ea9;stroke:#165ea9;" x="150.679149" xlink:href="#m41b97e97b2" y="275.419583"/>
     <use style="fill:#165ea9;stroke:#165ea9;" x="152.578723" xlink:href="#m41b97e97b2" y="286.430589"/>
     <use style="fill:#165ea9;stroke:#165ea9;" x="154.478298" xlink:href="#m41b97e97b2" y="242.62624"/>
     <use style="fill:#165ea9;stroke:#165ea9;" x="156.377872" xlink:href="#m41b97e97b2" y="215.351397"/>
     <use style="fill:#165ea9;stroke:#165ea9;" x="158.277447" xlink:href="#m41b97e97b2" y="277.624394"/>
     <use style="fill:#165ea9;stroke:#165ea9;" x="160.177021" xlink:href="#m41b97e97b2" y="261.540077"/>
     <use style="fill:#165ea9;stroke:#165ea9;" x="162.076596" xlink:href="#m41b97e97b2" y="272.545112"/>
     <use style="fill:#165ea9;stroke:#165ea9;" x="163.97617" xlink:href="#m41b97e97b2" y="284.903043"/>
     <use style="fill:#165ea9;stroke:#165ea9;" x="165.875745" xlink:href="#m41b97e97b2" y="287.291495"/>
     <use style="fill:#165ea9;stroke:#165ea9;" x="167.775319" xlink:href="#m41b97e97b2" y="272.55611"/>
     <use style="fill:#165ea9;stroke:#165ea9;" x="169.674894" xlink:href="#m41b97e97b2" y="254.562527"/>
     <use style="fill:#165ea9;stroke:#165ea9;" x="171.574468" xlink:href="#m41b97e97b2" y="211.29459"/>
     <use style="fill:#165ea9;stroke:#165ea9;" x="173.474043" xlink:href="#m41b97e97b2" y="269.770391"/>
     <use style="fill:#165ea9;stroke:#165ea9;" x="175.373617" xlink:href="#m41b97e97b2" y="279.827175"/>
     <use style="fill:#165ea9;stroke:#165ea9;" x="177.273191" xlink:href="#m41b97e97b2" y="282.107723"/>
     <use style="fill:#165ea9;stroke:#165ea9;" x="179.172766" xlink:href="#m41b97e97b2" y="280.461314"/>
     <use style="fill:#165ea9;stroke:#165ea9;" x="181.07234" xlink:href="#m41b97e97b2" y="273.514214"/>
     <use style="fill:#165ea9;stroke:#165ea9;" x="182.971915" xlink:href="#m41b97e97b2" y="277.64891"/>
     <use style="fill:#165ea9;stroke:#165ea9;" x="184.871489" xlink:href="#m41b97e97b2" y="288.117032"/>
     <use style="fill:#165ea9;stroke:#165ea9;" x="186.771064" xlink:href="#m41b97e97b2" y="274.68436"/>
     <use style="fill:#165ea9;stroke:#165ea9;" x="188.670638" xlink:href="#m41b97e97b2" y="283.78165"/>
     <use style="fill:#165ea9;stroke:#165ea9;" x="190.570213" xlink:href="#m41b97e97b2" y="283.46099"/>
     <use style="fill:#165ea9;stroke:#165ea9;" x="192.469787" xlink:href="#m41b97e97b2" y="280.566558"/>
     <use style="fill:#165ea9;stroke:#165ea9;" x="194.369362" xlink:href="#m41b97e97b2" y="287.65179"/>
     <use style="fill:#165ea9;stroke:#165ea9;" x="196.268936" xlink:href="#m41b97e97b2" y="275.445665"/>
     <use style="fill:#165ea9;stroke:#165ea9;" x="198.168511" xlink:href="#m41b97e97b2" y="278.233436"/>
     <use style="fill:#165ea9;stroke:#165ea9;" x="200.068085" xlink:href="#m41b97e97b2" y="285.343958"/>
     <use style="fill:#165ea9;stroke:#165ea9;" x="201.96766" xlink:href="#m41b97e97b2" y="278.255574"/>
     <use style="fill:#165ea9;stroke:#165ea9;" x="203.867234" xlink:href="#m41b97e97b2" y="287.046953"/>
     <use style="fill:#165ea9;stroke:#165ea9;" x="205.766809" xlink:href="#m41b97e97b2" y="288.430524"/>
     <use style="fill:#165ea9;stroke:#165ea9;" x="207.666383" xlink:href="#m41b97e97b2" y="279.192565"/>
     <use style="fill:#165ea9;stroke:#165ea9;" x="209.565957" xlink:href="#m41b97e97b2" y="278.383631"/>
     <use style="fill:#165ea9;stroke:#165ea9;" x="211.465532" xlink:href="#m41b97e97b2" y="285.433145"/>
     <use style="fill:#165ea9;stroke:#165ea9;" x="213.365106" xlink:href="#m41b97e97b2" y="282.40244"/>
     <use style="fill:#165ea9;stroke:#165ea9;" x="215.264681" xlink:href="#m41b97e97b2" y="288.529214"/>
     <use style="fill:#165ea9;stroke:#165ea9;" x="217.164255" xlink:href="#m41b97e97b2" y="287.957066"/>
     <use style="fill:#165ea9;stroke:#165ea9;" x="219.06383" xlink:href="#m41b97e97b2" y="284.442559"/>
     <use style="fill:#165ea9;stroke:#165ea9;" x="220.963404" xlink:href="#m41b97e97b2" y="284.169797"/>
     <use style="fill:#165ea9;stroke:#165ea9;" x="222.862979" xlink:href="#m41b97e97b2" y="284.361709"/>
     <use style="fill:#165ea9;stroke:#165ea9;" x="224.762553" xlink:href="#m41b97e97b2" y="260.154819"/>
     <use style="fill:#165ea9;stroke:#165ea9;" x="226.662128" xlink:href="#m41b97e97b2" y="279.706788"/>
     <use style="fill:#165ea9;stroke:#165ea9;" x="228.561702" xlink:href="#m41b97e97b2" y="284.846409"/>
     <use style="fill:#165ea9;stroke:#165ea9;" x="230.461277" xlink:href="#m41b97e97b2" y="271.116987"/>
     <use style="fill:#165ea9;stroke:#165ea9;" x="232.360851" xlink:href="#m41b97e97b2" y="212.775086"/>
     <use style="fill:#165ea9;stroke:#165ea9;" x="234.260426" xlink:href="#m41b97e97b2" y="224.747359"/>
     <use style="fill:#165ea9;stroke:#165ea9;" x="236.16" xlink:href="#m41b97e97b2" y="276.809522"/>
     <use style="fill:#165ea9;stroke:#165ea9;" x="238.059574" xlink:href="#m41b97e97b2" y="271.076009"/>
     <use style="fill:#165ea9;stroke:#165ea9;" x="239.959149" xlink:href="#m41b97e97b2" y="266.312736"/>
     <use style="fill:#165ea9;stroke:#165ea9;" x="241.858723" xlink:href="#m41b97e97b2" y="279.063296"/>
     <use style="fill:#165ea9;stroke:#165ea9;" x="243.758298" xlink:href="#m41b97e97b2" y="285.657533"/>
     <use style="fill:#165ea9;stroke:#165ea9;" x="245.657872" xlink:href="#m41b97e97b2" y="286.76361"/>
     <use style="fill:#165ea9;stroke:#165ea9;" x="247.557447" xlink:href="#m41b97e97b2" y="241.659712"/>
     <use style="fill:#165ea9;stroke:#165ea9;" x="249.457021" xlink:href="#m41b97e97b2" y="46.678405"/>
     <use style="fill:#165ea9;stroke:#165ea9;" x="251.356596" xlink:href="#m41b97e97b2" y="209.869819"/>
     <use style="fill:#165ea9;stroke:#165ea9;" x="253.25617" xlink:href="#m41b97e97b2" y="286.567961"/>
     <use style="fill:#165ea9;stroke:#165ea9;" x="255.155745" xlink:href="#m41b97e97b2" y="270.620312"/>
     <use style="fill:#165ea9;stroke:#165ea9;" x="257.055319" xlink:href="#m41b97e97b2" y="271.841379"/>
     <use style="fill:#165ea9;stroke:#165ea9;" x="258.954894" xlink:href="#m41b97e97b2" y="287.861842"/>
     <use style="fill:#165ea9;stroke:#165ea9;" x="260.854468" xlink:href="#m41b97e97b2" y="196.404788"/>
     <use style="fill:#165ea9;stroke:#165ea9;" x="262.754043" xlink:href="#m41b97e97b2" y="118.878345"/>
     <use style="fill:#165ea9;stroke:#165ea9;" x="264.653617" xlink:href="#m41b97e97b2" y="230.35142"/>
     <use style="fill:#165ea9;stroke:#165ea9;" x="266.553191" xlink:href="#m41b97e97b2" y="275.378651"/>
     <use style="fill:#165ea9;stroke:#165ea9;" x="268.452766" xlink:href="#m41b97e97b2" y="257.2603"/>
     <use style="fill:#165ea9;stroke:#165ea9;" x="270.35234" xlink:href="#m41b97e97b2" y="259.869434"/>
     <use style="fill:#165ea9;stroke:#165ea9;" x="272.251915" xlink:href="#m41b97e97b2" y="261.896906"/>
     <use style="fill:#165ea9;stroke:#165ea9;" x="274.151489" xlink:href="#m41b97e97b2" y="287.517416"/>
     <use style="fill:#165ea9;stroke:#165ea9;" x="276.051064" xlink:href="#m41b97e97b2" y="274.633659"/>
     <use style="fill:#165ea9;stroke:#165ea9;" x="277.950638" xlink:href="#m41b97e97b2" y="257.952418"/>
     <use style="fill:#165ea9;stroke:#165ea9;" x="279.850213" xlink:href="#m41b97e97b2" y="238.32493"/>
     <use style="fill:#165ea9;stroke:#165ea9;" x="281.749787" xlink:href="#m41b97e97b2" y="283.616418"/>
     <use style="fill:#165ea9;stroke:#165ea9;" x="283.649362" xlink:href="#m41b97e97b2" y="280.92855"/>
     <use style="fill:#165ea9;stroke:#165ea9;" x="285.548936" xlink:href="#m41b97e97b2" y="276.400536"/>
     <use style="fill:#165ea9;stroke:#165ea9;" x="287.448511" xlink:href="#m41b97e97b2" y="279.691413"/>
     <use style="fill:#165ea9;stroke:#165ea9;" x="289.348085" xlink:href="#m41b97e97b2" y="287.529175"/>
     <use style="fill:#165ea9;stroke:#165ea9;" x="291.24766" xlink:href="#m41b97e97b2" y="284.260269"/>
     <use style="fill:#165ea9;stroke:#165ea9;" x="293.147234" xlink:href="#m41b97e97b2" y="177.232515"/>
     <use style="fill:#165ea9;stroke:#165ea9;" x="295.046809" xlink:href="#m41b97e97b2" y="111.766733"/>
     <use style="fill:#165ea9;stroke:#165ea9;" x="296.946383" xlink:href="#m41b97e97b2" y="247.953969"/>
     <use style="fill:#165ea9;stroke:#165ea9;" x="298.845957" xlink:href="#m41b97e97b2" y="275.419583"/>
     <use style="fill:#165ea9;stroke:#165ea9;" x="300.745532" xlink:href="#m41b97e97b2" y="269.122543"/>
     <use style="fill:#165ea9;stroke:#165ea9;" x="302.645106" xlink:href="#m41b97e97b2" y="283.590315"/>
     <use style="fill:#165ea9;stroke:#165ea9;" x="304.544681" xlink:href="#m41b97e97b2" y="274.765708"/>
     <use style="fill:#165ea9;stroke:#165ea9;" x="306.444255" xlink:href="#m41b97e97b2" y="283.844809"/>
     <use style="fill:#165ea9;stroke:#165ea9;" x="308.34383" xlink:href="#m41b97e97b2" y="261.834923"/>
     <use style="fill:#165ea9;stroke:#165ea9;" x="310.243404" xlink:href="#m41b97e97b2" y="241.785015"/>
     <use style="fill:#165ea9;stroke:#165ea9;" x="312.142979" xlink:href="#m41b97e97b2" y="235.912064"/>
     <use style="fill:#165ea9;stroke:#165ea9;" x="314.042553" xlink:href="#m41b97e97b2" y="243.438497"/>
     <use style="fill:#165ea9;stroke:#165ea9;" x="315.942128" xlink:href="#m41b97e97b2" y="277.64891"/>
     <use style="fill:#165ea9;stroke:#165ea9;" x="317.841702" xlink:href="#m41b97e97b2" y="282.40244"/>
     <use style="fill:#165ea9;stroke:#165ea9;" x="319.741277" xlink:href="#m41b97e97b2" y="280.961078"/>
     <use style="fill:#165ea9;stroke:#165ea9;" x="321.640851" xlink:href="#m41b97e97b2" y="279.423622"/>
     <use style="fill:#165ea9;stroke:#165ea9;" x="323.540426" xlink:href="#m41b97e97b2" y="287.205894"/>
     <use style="fill:#165ea9;stroke:#165ea9;" x="325.44" xlink:href="#m41b97e97b2" y="286.117696"/>
     <use style="fill:#165ea9;stroke:#165ea9;" x="327.339574" xlink:href="#m41b97e97b2" y="260.90516"/>
     <use style="fill:#165ea9;stroke:#165ea9;" x="329.239149" xlink:href="#m41b97e97b2" y="272.514996"/>
     <use style="fill:#165ea9;stroke:#165ea9;" x="331.138723" xlink:href="#m41b97e97b2" y="277.945097"/>
     <use style="fill:#165ea9;stroke:#165ea9;" x="333.038298" xlink:href="#m41b97e97b2" y="282.354306"/>
     <use style="fill:#165ea9;stroke:#165ea9;" x="334.937872" xlink:href="#m41b97e97b2" y="288.394662"/>
     <use style="fill:#165ea9;stroke:#165ea9;" x="336.837447" xlink:href="#m41b97e97b2" y="288.553595"/>
     <use style="fill:#165ea9;stroke:#165ea9;" x="338.737021" xlink:href="#m41b97e97b2" y="283.565648"/>
     <use style="fill:#165ea9;stroke:#165ea9;" x="340.636596" xlink:href="#m41b97e97b2" y="279.307383"/>
     <use style="fill:#165ea9;stroke:#165ea9;" x="342.53617" xlink:href="#m41b97e97b2" y="250.012035"/>
     <use style="fill:#165ea9;stroke:#165ea9;" x="344.435745" xlink:href="#m41b97e97b2" y="275.02717"/>
     <use style="fill:#165ea9;stroke:#165ea9;" x="346.335319" xlink:href="#m41b97e97b2" y="270.955862"/>
     <use style="fill:#165ea9;stroke:#165ea9;" x="348.234894" xlink:href="#m41b97e97b2" y="252.268062"/>
     <use style="fill:#165ea9;stroke:#165ea9;" x="350.134468" xlink:href="#m41b97e97b2" y="276.936598"/>
     <use style="fill:#165ea9;stroke:#165ea9;" x="352.034043" xlink:href="#m41b97e97b2" y="276.430229"/>
     <use style="fill:#165ea9;stroke:#165ea9;" x="353.933617" xlink:href="#m41b97e97b2" y="286.816167"/>
     <use style="fill:#165ea9;stroke:#165ea9;" x="355.833191" xlink:href="#m41b97e97b2" y="283.989575"/>
     <use style="fill:#165ea9;stroke:#165ea9;" x="357.732766" xlink:href="#m41b97e97b2" y="279.671997"/>
     <use style="fill:#165ea9;stroke:#165ea9;" x="359.63234" xlink:href="#m41b97e97b2" y="287.584613"/>
     <use style="fill:#165ea9;stroke:#165ea9;" x="361.531915" xlink:href="#m41b97e97b2" y="281.920032"/>
     <use style="fill:#165ea9;stroke:#165ea9;" x="363.431489" xlink:href="#m41b97e97b2" y="287.857622"/>
     <use style="fill:#165ea9;stroke:#165ea9;" x="365.331064" xlink:href="#m41b97e97b2" y="232.008702"/>
     <use style="fill:#165ea9;stroke:#165ea9;" x="367.230638" xlink:href="#m41b97e97b2" y="207.343286"/>
     <use style="fill:#165ea9;stroke:#165ea9;" x="369.130213" xlink:href="#m41b97e97b2" y="265.028549"/>
     <use style="fill:#165ea9;stroke:#165ea9;" x="371.029787" xlink:href="#m41b97e97b2" y="271.980016"/>
     <use style="fill:#165ea9;stroke:#165ea9;" x="372.929362" xlink:href="#m41b97e97b2" y="280.041004"/>
     <use style="fill:#165ea9;stroke:#165ea9;" x="374.828936" xlink:href="#m41b97e97b2" y="287.462097"/>
     <use style="fill:#165ea9;stroke:#165ea9;" x="376.728511" xlink:href="#m41b97e97b2" y="279.781433"/>
     <use style="fill:#165ea9;stroke:#165ea9;" x="378.628085" xlink:href="#m41b97e97b2" y="250.173245"/>
     <use style="fill:#165ea9;stroke:#165ea9;" x="380.52766" xlink:href="#m41b97e97b2" y="256.608782"/>
     <use style="fill:#165ea9;stroke:#165ea9;" x="382.427234" xlink:href="#m41b97e97b2" y="282.359498"/>
     <use style="fill:#165ea9;stroke:#165ea9;" x="384.326809" xlink:href="#m41b97e97b2" y="284.036612"/>
     <use style="fill:#165ea9;stroke:#165ea9;" x="386.226383" xlink:href="#m41b97e97b2" y="282.18796"/>
     <use style="fill:#165ea9;stroke:#165ea9;" x="388.125957" xlink:href="#m41b97e97b2" y="244.559844"/>
     <use style="fill:#165ea9;stroke:#165ea9;" x="390.025532" xlink:href="#m41b97e97b2" y="200.411144"/>
     <use style="fill:#165ea9;stroke:#165ea9;" x="391.925106" xlink:href="#m41b97e97b2" y="230.392003"/>
     <use style="fill:#165ea9;stroke:#165ea9;" x="393.824681" xlink:href="#m41b97e97b2" y="282.025911"/>
     <use style="fill:#165ea9;stroke:#165ea9;" x="395.724255" xlink:href="#m41b97e97b2" y="285.557786"/>
     <use style="fill:#165ea9;stroke:#165ea9;" x="397.62383" xlink:href="#m41b97e97b2" y="287.030322"/>
     <use style="fill:#165ea9;stroke:#165ea9;" x="399.523404" xlink:href="#m41b97e97b2" y="278.960804"/>
     <use style="fill:#165ea9;stroke:#165ea9;" x="401.422979" xlink:href="#m41b97e97b2" y="249.219144"/>
     <use style="fill:#165ea9;stroke:#165ea9;" x="403.322553" xlink:href="#m41b97e97b2" y="280.282158"/>
     <use style="fill:#165ea9;stroke:#165ea9;" x="405.222128" xlink:href="#m41b97e97b2" y="256.459871"/>
     <use style="fill:#165ea9;stroke:#165ea9;" x="407.121702" xlink:href="#m41b97e97b2" y="270.899945"/>
     <use style="fill:#165ea9;stroke:#165ea9;" x="409.021277" xlink:href="#m41b97e97b2" y="260.472919"/>
     <use style="fill:#165ea9;stroke:#165ea9;" x="410.920851" xlink:href="#m41b97e97b2" y="274.022752"/>
     <use style="fill:#165ea9;stroke:#165ea9;" x="412.820426" xlink:href="#m41b97e97b2" y="274.623343"/>
     <use style="fill:#165ea9;stroke:#165ea9;" x="414.72" xlink:href="#m41b97e97b2" y="280.47855"/>
    </g>
   </g>
   <g id="line2d_15">
    <path clip-path="url(#pa27365fa68)" d="M 57.6 263.098605 
L 414.72 263.098605 
L 414.72 263.098605 
" style="fill:none;stroke:#165ea9;stroke-linecap:square;stroke-width:2;"/>
   </g>
   <g id="patch_4">
    <path d="M 57.6 293.76 
L 57.6 41.472 
" style="fill:none;stroke:#000000;stroke-linecap:square;stroke-linejoin:miter;stroke-width:0.8;"/>
   </g>
   <g id="patch_5">
    <path d="M 414.72 293.76 
L 414.72 41.472 
" style="fill:none;stroke:#000000;stroke-linecap:square;stroke-linejoin:miter;stroke-width:0.8;"/>
   </g>
   <g id="patch_6">
    <path d="M 57.6 293.76 
L 414.72 293.76 
" style="fill:none;stroke:#000000;stroke-linecap:square;stroke-linejoin:miter;stroke-width:0.8;"/>
   </g>
   <g id="patch_7">
    <path d="M 57.6 41.472 
L 414.72 41.472 
" style="fill:none;stroke:#000000;stroke-linecap:square;stroke-linejoin:miter;stroke-width:0.8;"/>
   </g>
   <g id="text_16">
    <!-- Mouse speed chart -->
    <defs>
     <path d="M 87.796875 0 
L 72.21875 0 
L 72.21875 41.890625 
Q 72.21875 48.6875 72.796875 56.890625 
L 72.40625 56.890625 
Q 71.1875 50.4375 70.21875 47.609375 
L 53.8125 0 
L 40.921875 0 
L 24.21875 47.125 
Q 23.53125 49.03125 22.015625 56.890625 
L 21.578125 56.890625 
Q 22.21875 46.53125 22.21875 38.71875 
L 22.21875 0 
L 8.015625 0 
L 8.015625 70.015625 
L 31.109375 70.015625 
L 45.40625 28.515625 
Q 47.125 23.53125 47.90625 18.5 
L 48.1875 18.5 
Q 49.515625 24.3125 50.984375 28.609375 
L 65.28125 70.015625 
L 87.796875 70.015625 
z
" id="SegoeUI-Bold-4d"/>
     <path d="M 30.328125 -1.21875 
Q 17.828125 -1.21875 10.671875 5.78125 
Q 3.515625 12.796875 3.515625 24.8125 
Q 3.515625 37.203125 10.9375 44.203125 
Q 18.359375 51.21875 31 51.21875 
Q 43.453125 51.21875 50.53125 44.203125 
Q 57.625 37.203125 57.625 25.6875 
Q 57.625 13.234375 50.3125 6 
Q 43.015625 -1.21875 30.328125 -1.21875 
z
M 30.71875 39.40625 
Q 25.25 39.40625 22.21875 35.640625 
Q 19.1875 31.890625 19.1875 25 
Q 19.1875 10.59375 30.8125 10.59375 
Q 41.890625 10.59375 41.890625 25.390625 
Q 41.890625 39.40625 30.71875 39.40625 
z
" id="SegoeUI-Bold-6f"/>
     <path d="M 54 0 
L 38.625 0 
L 38.625 7.625 
L 38.375 7.625 
Q 32.671875 -1.21875 23.09375 -1.21875 
Q 5.71875 -1.21875 5.71875 19.828125 
L 5.71875 50 
L 21.09375 50 
L 21.09375 21.1875 
Q 21.09375 10.59375 29.5 10.59375 
Q 33.640625 10.59375 36.125 13.5 
Q 38.625 16.40625 38.625 21.390625 
L 38.625 50 
L 54 50 
z
" id="SegoeUI-Bold-75"/>
     <path d="M 3.21875 1.3125 
L 3.21875 13.8125 
Q 7.03125 11.53125 10.8125 10.40625 
Q 14.59375 9.28125 17.96875 9.28125 
Q 22.078125 9.28125 24.4375 10.40625 
Q 26.8125 11.53125 26.8125 13.8125 
Q 26.8125 15.28125 25.734375 16.25 
Q 24.65625 17.234375 22.96875 17.96875 
Q 21.296875 18.703125 19.28125 19.28125 
Q 17.28125 19.875 15.4375 20.609375 
Q 12.453125 21.734375 10.171875 23.015625 
Q 7.90625 24.3125 6.359375 26.015625 
Q 4.828125 27.734375 4.015625 29.984375 
Q 3.21875 32.234375 3.21875 35.296875 
Q 3.21875 39.5 5.046875 42.53125 
Q 6.890625 45.5625 9.9375 47.484375 
Q 12.984375 49.421875 16.90625 50.3125 
Q 20.84375 51.21875 25.09375 51.21875 
Q 28.421875 51.21875 31.828125 50.703125 
Q 35.25 50.203125 38.578125 49.21875 
L 38.578125 37.3125 
Q 35.640625 39.015625 32.296875 39.859375 
Q 28.953125 40.71875 25.734375 40.71875 
Q 24.21875 40.71875 22.875 40.453125 
Q 21.53125 40.1875 20.5 39.671875 
Q 19.484375 39.15625 18.890625 38.34375 
Q 18.3125 37.546875 18.3125 36.53125 
Q 18.3125 35.15625 19.1875 34.171875 
Q 20.0625 33.203125 21.484375 32.484375 
Q 22.90625 31.78125 24.640625 31.21875 
Q 26.375 30.671875 28.078125 30.078125 
Q 31.15625 29 33.640625 27.734375 
Q 36.140625 26.46875 37.921875 24.75 
Q 39.703125 23.046875 40.65625 20.75 
Q 41.609375 18.453125 41.609375 15.28125 
Q 41.609375 10.84375 39.671875 7.6875 
Q 37.75 4.546875 34.546875 2.5625 
Q 31.34375 0.59375 27.171875 -0.3125 
Q 23 -1.21875 18.5 -1.21875 
Q 10.25 -1.21875 3.21875 1.3125 
z
" id="SegoeUI-Bold-73"/>
     <path d="M 51.421875 20.609375 
L 18.796875 20.609375 
Q 19.578125 9.71875 32.515625 9.71875 
Q 40.765625 9.71875 47.015625 13.625 
L 47.015625 2.484375 
Q 40.09375 -1.21875 29 -1.21875 
Q 16.890625 -1.21875 10.203125 5.484375 
Q 3.515625 12.203125 3.515625 24.21875 
Q 3.515625 36.671875 10.734375 43.9375 
Q 17.96875 51.21875 28.515625 51.21875 
Q 39.453125 51.21875 45.4375 44.71875 
Q 51.421875 38.234375 51.421875 27.09375 
z
M 37.109375 30.078125 
Q 37.109375 40.828125 28.421875 40.828125 
Q 24.703125 40.828125 21.984375 37.75 
Q 19.28125 34.671875 18.703125 30.078125 
z
" id="SegoeUI-Bold-65"/>
     <path id="SegoeUI-Bold-20"/>
     <path d="M 22.125 5.8125 
L 21.921875 5.8125 
L 21.921875 -23 
L 6.5 -23 
L 6.5 50 
L 21.921875 50 
L 21.921875 42.484375 
L 22.125 42.484375 
Q 27.828125 51.21875 38.1875 51.21875 
Q 47.90625 51.21875 53.203125 44.546875 
Q 58.5 37.890625 58.5 26.421875 
Q 58.5 13.921875 52.3125 6.34375 
Q 46.140625 -1.21875 35.890625 -1.21875 
Q 26.859375 -1.21875 22.125 5.8125 
z
M 21.6875 26.3125 
L 21.6875 22.3125 
Q 21.6875 17.140625 24.421875 13.859375 
Q 27.15625 10.59375 31.59375 10.59375 
Q 36.859375 10.59375 39.765625 14.671875 
Q 42.671875 18.75 42.671875 26.21875 
Q 42.671875 39.40625 32.421875 39.40625 
Q 27.6875 39.40625 24.6875 35.8125 
Q 21.6875 32.234375 21.6875 26.3125 
z
" id="SegoeUI-Bold-70"/>
     <path d="M 55.421875 0 
L 39.984375 0 
L 39.984375 6.890625 
L 39.796875 6.890625 
Q 34.515625 -1.21875 24.3125 -1.21875 
Q 14.9375 -1.21875 9.21875 5.390625 
Q 3.515625 12.015625 3.515625 23.875 
Q 3.515625 36.28125 9.8125 43.75 
Q 16.109375 51.21875 26.3125 51.21875 
Q 35.984375 51.21875 39.796875 44.28125 
L 39.984375 44.28125 
L 39.984375 74.03125 
L 55.421875 74.03125 
z
M 40.28125 24.3125 
L 40.28125 28.078125 
Q 40.28125 32.953125 37.453125 36.171875 
Q 34.625 39.40625 30.078125 39.40625 
Q 24.953125 39.40625 22.0625 35.375 
Q 19.1875 31.34375 19.1875 24.3125 
Q 19.1875 17.71875 21.96875 14.15625 
Q 24.75 10.59375 29.6875 10.59375 
Q 34.375 10.59375 37.328125 14.34375 
Q 40.28125 18.109375 40.28125 24.3125 
z
" id="SegoeUI-Bold-64"/>
     <path d="M 44.390625 1.8125 
Q 39.15625 -1.21875 29.296875 -1.21875 
Q 17.78125 -1.21875 10.640625 5.765625 
Q 3.515625 12.75 3.515625 23.78125 
Q 3.515625 36.53125 11.15625 43.875 
Q 18.796875 51.21875 31.59375 51.21875 
Q 40.4375 51.21875 44.390625 48.875 
L 44.390625 35.796875 
Q 39.546875 39.40625 33.59375 39.40625 
Q 26.953125 39.40625 23.0625 35.515625 
Q 19.1875 31.640625 19.1875 24.8125 
Q 19.1875 18.171875 22.890625 14.375 
Q 26.609375 10.59375 33.109375 10.59375 
Q 38.875 10.59375 44.390625 14.203125 
z
" id="SegoeUI-Bold-63"/>
     <path d="M 54.5 0 
L 39.109375 0 
L 39.109375 28.421875 
Q 39.109375 39.40625 31.109375 39.40625 
Q 27 39.40625 24.453125 36.328125 
Q 21.921875 33.25 21.921875 28.515625 
L 21.921875 0 
L 6.5 0 
L 6.5 74.03125 
L 21.921875 74.03125 
L 21.921875 42.578125 
L 22.125 42.578125 
Q 27.78125 51.21875 37.5 51.21875 
Q 54.5 51.21875 54.5 30.71875 
z
" id="SegoeUI-Bold-68"/>
     <path d="M 48.09375 0 
L 33.5 0 
L 33.5 7.171875 
L 33.296875 7.171875 
Q 28.265625 -1.21875 18.40625 -1.21875 
Q 11.140625 -1.21875 6.953125 2.90625 
Q 2.78125 7.03125 2.78125 13.921875 
Q 2.78125 28.46875 20.015625 30.71875 
L 33.59375 32.515625 
Q 33.59375 40.71875 24.703125 40.71875 
Q 15.765625 40.71875 7.71875 35.40625 
L 7.71875 47.015625 
Q 10.9375 48.6875 16.53125 49.953125 
Q 22.125 51.21875 26.703125 51.21875 
Q 48.09375 51.21875 48.09375 29.890625 
z
M 33.59375 20.3125 
L 33.59375 23.6875 
L 24.515625 22.515625 
Q 17 21.53125 17 15.71875 
Q 17 13.09375 18.828125 11.40625 
Q 20.65625 9.71875 23.78125 9.71875 
Q 28.125 9.71875 30.859375 12.71875 
Q 33.59375 15.71875 33.59375 20.3125 
z
" id="SegoeUI-Bold-61"/>
     <path d="M 39.109375 36.078125 
Q 36.328125 37.59375 32.625 37.59375 
Q 27.59375 37.59375 24.75 33.90625 
Q 21.921875 30.21875 21.921875 23.875 
L 21.921875 0 
L 6.5 0 
L 6.5 50 
L 21.921875 50 
L 21.921875 40.71875 
L 22.125 40.71875 
Q 25.78125 50.875 35.296875 50.875 
Q 37.75 50.875 39.109375 50.296875 
z
" id="SegoeUI-Bold-72"/>
     <path d="M 36.71875 0.59375 
Q 33.296875 -1.21875 26.421875 -1.21875 
Q 10.109375 -1.21875 10.109375 15.71875 
L 10.109375 38.625 
L 2 38.625 
L 2 50 
L 10.109375 50 
L 10.109375 60.796875 
L 25.484375 65.1875 
L 25.484375 50 
L 36.71875 50 
L 36.71875 38.625 
L 25.484375 38.625 
L 25.484375 18.40625 
Q 25.484375 10.59375 31.6875 10.59375 
Q 34.125 10.59375 36.71875 12.015625 
z
" id="SegoeUI-Bold-74"/>
    </defs>
    <g transform="translate(191.781875 25.38048)scale(0.1 -0.1)">
     <use xlink:href="#SegoeUI-Bold-4d"/>
     <use x="95.703125" xlink:href="#SegoeUI-Bold-6f"/>
     <use x="156.835938" xlink:href="#SegoeUI-Bold-75"/>
     <use x="217.333984" xlink:href="#SegoeUI-Bold-73"/>
     <use x="261.328125" xlink:href="#SegoeUI-Bold-65"/>
     <use x="315.429688" xlink:href="#SegoeUI-Bold-20"/>
     <use x="343.017578" xlink:href="#SegoeUI-Bold-73"/>
     <use x="387.011719" xlink:href="#SegoeUI-Bold-70"/>
     <use x="449.023438" xlink:href="#SegoeUI-Bold-65"/>
     <use x="503.125" xlink:href="#SegoeUI-Bold-65"/>
     <use x="557.226562" xlink:href="#SegoeUI-Bold-64"/>
     <use x="619.140625" xlink:href="#SegoeUI-Bold-20"/>
     <use x="646.728516" xlink:href="#SegoeUI-Bold-63"/>
     <use x="694.726562" xlink:href="#SegoeUI-Bold-68"/>
     <use x="754.931641" xlink:href="#SegoeUI-Bold-61"/>
     <use x="808.740234" xlink:href="#SegoeUI-Bold-72"/>
     <use x="848.566406" xlink:href="#SegoeUI-Bold-74"/>
    </g>
   </g>
   <g id="legend_1">
    <g id="patch_8">
     <path d="M 306.259063 288.76 
L 407.72 288.76 
Q 409.72 288.76 409.72 286.76 
L 409.72 243.55375 
Q 409.72 241.55375 407.72 241.55375 
L 306.259063 241.55375 
Q 304.259063 241.55375 304.259063 243.55375 
L 304.259063 286.76 
Q 304.259063 288.76 306.259063 288.76 
z
" style="fill:#ffffff;opacity:0.5;stroke:#cccccc;stroke-linejoin:miter;"/>
    </g>
    <g id="line2d_16">
     <path d="M 308.259063 249.456875 
L 328.259063 249.456875 
" style="fill:none;stroke:#165ea9;stroke-linecap:square;stroke-width:1.5;"/>
    </g>
    <g id="line2d_17">
     <g>
      <use style="fill:#165ea9;stroke:#165ea9;" x="318.259063" xlink:href="#m41b97e97b2" y="249.456875"/>
     </g>
    </g>
    <g id="text_17">
     <!-- Parameter value -->
     <defs>
      <path d="M 15.578125 27.25 
L 15.578125 0 
L 9.078125 0 
L 9.078125 70.015625 
L 27.15625 70.015625 
Q 32.671875 70.015625 36.90625 68.640625 
Q 41.15625 67.28125 44.078125 64.6875 
Q 47.015625 62.109375 48.53125 58.34375 
Q 50.046875 54.59375 50.046875 49.75 
Q 50.046875 44.875 48.328125 40.75 
Q 46.625 36.625 43.421875 33.609375 
Q 40.234375 30.609375 35.640625 28.921875 
Q 31.0625 27.25 25.25 27.25 
z
M 15.578125 64.0625 
L 15.578125 33.203125 
L 24.859375 33.203125 
Q 33.890625 33.203125 38.578125 37.40625 
Q 43.265625 41.609375 43.265625 49.265625 
Q 43.265625 64.0625 25.984375 64.0625 
z
" id="SegoeUI-Semilight-50"/>
      <path d="M 36.859375 0 
L 36.859375 8.890625 
L 36.671875 8.890625 
Q 34.234375 4.109375 30 1.46875 
Q 25.78125 -1.171875 20.453125 -1.171875 
Q 16.84375 -1.171875 13.9375 -0.140625 
Q 11.03125 0.875 9 2.75 
Q 6.984375 4.640625 5.875 7.265625 
Q 4.78125 9.90625 4.78125 13.09375 
Q 4.78125 19.875 8.984375 23.90625 
Q 13.1875 27.9375 21.6875 29.15625 
L 36.859375 31.34375 
Q 36.859375 45.75 25.6875 45.75 
Q 16.9375 45.75 9.46875 39.359375 
L 9.46875 46.1875 
Q 11.03125 47.3125 13 48.21875 
Q 14.984375 49.125 17.1875 49.78125 
Q 19.390625 50.4375 21.703125 50.796875 
Q 24.03125 51.171875 26.21875 51.171875 
Q 34.578125 51.171875 38.84375 46.484375 
Q 43.109375 41.796875 43.109375 32.515625 
L 43.109375 0 
z
M 23.96875 24.265625 
Q 20.609375 23.78125 18.21875 23.046875 
Q 15.828125 22.3125 14.265625 21.0625 
Q 12.703125 19.828125 11.96875 17.984375 
Q 11.234375 16.15625 11.234375 13.484375 
Q 11.234375 11.46875 11.9375 9.765625 
Q 12.640625 8.0625 13.984375 6.8125 
Q 15.328125 5.5625 17.25 4.875 
Q 19.1875 4.203125 21.625 4.203125 
Q 24.953125 4.203125 27.734375 5.46875 
Q 30.515625 6.734375 32.546875 8.984375 
Q 34.578125 11.234375 35.71875 14.359375 
Q 36.859375 17.484375 36.859375 21.140625 
L 36.859375 26.078125 
z
" id="SegoeUI-Semilight-61"/>
      <path d="M 32.859375 43.609375 
Q 30.671875 45.21875 27.203125 45.21875 
Q 24.703125 45.21875 22.796875 44.265625 
Q 20.90625 43.3125 19.453125 41.703125 
Q 18.015625 40.09375 17.015625 37.96875 
Q 16.015625 35.84375 15.40625 33.546875 
Q 14.796875 31.25 14.53125 28.90625 
Q 14.265625 26.5625 14.265625 24.46875 
L 14.265625 0 
L 8.0625 0 
L 8.0625 50 
L 14.265625 50 
L 14.265625 39.3125 
L 14.453125 39.3125 
Q 15.328125 42.046875 16.671875 44.21875 
Q 18.015625 46.390625 19.765625 47.875 
Q 21.53125 49.359375 23.609375 50.140625 
Q 25.6875 50.921875 27.984375 50.921875 
Q 29.5 50.921875 30.6875 50.71875 
Q 31.890625 50.53125 32.859375 50.140625 
z
" id="SegoeUI-Semilight-72"/>
      <path d="M 70.90625 0 
L 70.90625 29.390625 
Q 70.90625 33.890625 70.21875 36.984375 
Q 69.53125 40.09375 68.09375 42.046875 
Q 66.65625 44 64.421875 44.875 
Q 62.203125 45.75 59.125 45.75 
Q 56.390625 45.75 53.953125 44.453125 
Q 51.515625 43.171875 49.6875 40.890625 
Q 47.859375 38.625 46.796875 35.546875 
Q 45.75 32.46875 45.75 28.90625 
L 45.75 0 
L 39.5 0 
L 39.5 30.03125 
Q 39.5 45.75 27.4375 45.75 
Q 24.65625 45.75 22.265625 44.5 
Q 19.875 43.265625 18.09375 41.015625 
Q 16.3125 38.765625 15.3125 35.609375 
Q 14.3125 32.46875 14.3125 28.65625 
L 14.3125 0 
L 8.0625 0 
L 8.0625 50 
L 14.3125 50 
L 14.3125 41.890625 
L 14.5 41.890625 
Q 19.78125 51.171875 29.890625 51.171875 
Q 32.515625 51.171875 34.859375 50.359375 
Q 37.203125 49.5625 39.0625 48.125 
Q 40.921875 46.6875 42.265625 44.671875 
Q 43.609375 42.671875 44.28125 40.28125 
Q 46.921875 45.609375 51.140625 48.390625 
Q 55.375 51.171875 60.6875 51.171875 
Q 77.15625 51.171875 77.15625 30.859375 
L 77.15625 0 
z
" id="SegoeUI-Semilight-6d"/>
      <path d="M 11.03125 23.875 
Q 11.078125 19.28125 12.25 15.625 
Q 13.421875 11.96875 15.625 9.421875 
Q 17.828125 6.890625 20.96875 5.546875 
Q 24.125 4.203125 28.078125 4.203125 
Q 36.53125 4.203125 44.046875 10.109375 
L 44.046875 3.953125 
Q 36.859375 -1.171875 26.65625 -1.171875 
Q 21.625 -1.171875 17.515625 0.578125 
Q 13.421875 2.34375 10.546875 5.6875 
Q 7.671875 9.03125 6.109375 13.90625 
Q 4.546875 18.796875 4.546875 25.046875 
Q 4.546875 30.671875 6.25 35.453125 
Q 7.953125 40.234375 10.984375 43.71875 
Q 14.015625 47.21875 18.15625 49.1875 
Q 22.3125 51.171875 27.25 51.171875 
Q 32.078125 51.171875 35.78125 49.484375 
Q 39.5 47.796875 42.015625 44.671875 
Q 44.53125 41.546875 45.84375 37.046875 
Q 47.171875 32.5625 47.171875 27 
L 47.171875 23.875 
z
M 40.71875 29.34375 
Q 40.578125 37.15625 37.015625 41.453125 
Q 33.453125 45.75 27.09375 45.75 
Q 23.921875 45.75 21.203125 44.625 
Q 18.5 43.5 16.453125 41.375 
Q 14.40625 39.265625 13.0625 36.203125 
Q 11.71875 33.15625 11.1875 29.34375 
z
" id="SegoeUI-Semilight-65"/>
      <path d="M 29.546875 0.59375 
Q 26.3125 -1.03125 22.515625 -1.03125 
Q 10.40625 -1.03125 10.40625 12.9375 
L 10.40625 44.53125 
L 1.609375 44.53125 
L 1.609375 50 
L 10.40625 50 
L 10.40625 62.59375 
L 16.65625 64.65625 
L 16.65625 50 
L 29.546875 50 
L 29.546875 44.53125 
L 16.65625 44.53125 
L 16.65625 13.921875 
Q 16.65625 8.84375 18.3125 6.59375 
Q 19.96875 4.34375 23.921875 4.34375 
Q 26.859375 4.34375 29.546875 6.109375 
z
" id="SegoeUI-Semilight-74"/>
      <path id="SegoeUI-Semilight-20"/>
      <path d="M 25.875 0 
L 19.921875 0 
L 0.78125 50 
L 7.671875 50 
L 21.484375 11.921875 
Q 22.75 8.453125 23.09375 5.8125 
L 23.296875 5.8125 
Q 23.875 9.328125 24.8125 11.71875 
L 39.109375 50 
L 45.796875 50 
z
" id="SegoeUI-Semilight-76"/>
      <path d="M 8.0625 0 
L 8.0625 74.03125 
L 14.3125 74.03125 
L 14.3125 0 
z
" id="SegoeUI-Semilight-6c"/>
      <path d="M 40.765625 0 
L 40.765625 8.5 
L 40.578125 8.5 
Q 35.5 -1.171875 24.8125 -1.171875 
Q 6.984375 -1.171875 6.984375 20.609375 
L 6.984375 50 
L 13.234375 50 
L 13.234375 21.78125 
Q 13.234375 12.796875 16.421875 8.5 
Q 19.625 4.203125 26.21875 4.203125 
Q 29.4375 4.203125 32.09375 5.4375 
Q 34.765625 6.6875 36.6875 8.953125 
Q 38.625 11.234375 39.6875 14.40625 
Q 40.765625 17.578125 40.765625 21.4375 
L 40.765625 50 
L 47.015625 50 
L 47.015625 0 
z
" id="SegoeUI-Semilight-75"/>
     </defs>
     <g transform="translate(336.259063 252.956875)scale(0.1 -0.1)">
      <use xlink:href="#SegoeUI-Semilight-50"/>
      <use x="55.128906" xlink:href="#SegoeUI-Semilight-61"/>
      <use x="105.226562" xlink:href="#SegoeUI-Semilight-72"/>
      <use x="139.113281" xlink:href="#SegoeUI-Semilight-61"/>
      <use x="189.210938" xlink:href="#SegoeUI-Semilight-6d"/>
      <use x="273.341797" xlink:href="#SegoeUI-Semilight-65"/>
      <use x="324.708984" xlink:href="#SegoeUI-Semilight-74"/>
      <use x="356.496094" xlink:href="#SegoeUI-Semilight-65"/>
      <use x="407.863281" xlink:href="#SegoeUI-Semilight-72"/>
      <use x="441.75" xlink:href="#SegoeUI-Semilight-20"/>
      <use x="469.142578" xlink:href="#SegoeUI-Semilight-76"/>
      <use x="515.708984" xlink:href="#SegoeUI-Semilight-61"/>
      <use x="565.806641" xlink:href="#SegoeUI-Semilight-6c"/>
      <use x="588.169922" xlink:href="#SegoeUI-Semilight-75"/>
      <use x="643.248047" xlink:href="#SegoeUI-Semilight-65"/>
     </g>
    </g>
    <g id="line2d_18">
     <path d="M 308.259063 264.16 
L 328.259063 264.16 
" style="fill:none;stroke:#165ea9;stroke-linecap:square;stroke-width:2;"/>
    </g>
    <g id="line2d_19"/>
    <g id="text_18">
     <!-- Average -->
     <defs>
      <path d="M 54.4375 0 
L 46.734375 20.703125 
L 16.703125 20.703125 
L 9.1875 0 
L 1.953125 0 
L 28.609375 70.015625 
L 35.15625 70.015625 
L 61.671875 0 
z
M 33.109375 57.765625 
Q 32.765625 58.6875 32.390625 59.90625 
Q 32.03125 61.140625 31.78125 62.703125 
L 31.59375 62.703125 
Q 31.296875 61.140625 30.921875 59.90625 
Q 30.5625 58.6875 30.21875 57.765625 
L 18.890625 26.609375 
L 44.53125 26.609375 
z
" id="SegoeUI-Semilight-41"/>
      <path d="M 49.359375 3.859375 
Q 49.359375 -10.0625 43.03125 -16.765625 
Q 36.71875 -23.484375 23.53125 -23.484375 
Q 15.328125 -23.484375 8.015625 -19.828125 
L 8.015625 -13.484375 
Q 16.15625 -18.015625 23.53125 -18.015625 
Q 43.109375 -18.015625 43.109375 2.6875 
L 43.109375 8.6875 
L 42.921875 8.6875 
Q 37.15625 -1.171875 25.34375 -1.171875 
Q 20.703125 -1.171875 16.859375 0.53125 
Q 13.03125 2.25 10.296875 5.46875 
Q 7.5625 8.6875 6.046875 13.296875 
Q 4.546875 17.921875 4.546875 23.734375 
Q 4.546875 29.890625 6.15625 34.9375 
Q 7.765625 39.984375 10.734375 43.59375 
Q 13.71875 47.21875 17.9375 49.1875 
Q 22.171875 51.171875 27.4375 51.171875 
Q 38.03125 51.171875 42.921875 42.578125 
L 43.109375 42.578125 
L 43.109375 50 
L 49.359375 50 
z
M 43.109375 30.375 
Q 43.109375 33.5 41.984375 36.28125 
Q 40.875 39.0625 38.859375 41.15625 
Q 36.859375 43.265625 34.09375 44.5 
Q 31.34375 45.75 28.03125 45.75 
Q 24.125 45.75 20.96875 44.234375 
Q 17.828125 42.71875 15.59375 39.9375 
Q 13.375 37.15625 12.171875 33.171875 
Q 10.984375 29.203125 10.984375 24.21875 
Q 10.984375 19.625 12.109375 15.90625 
Q 13.234375 12.203125 15.28125 9.609375 
Q 17.328125 7.03125 20.234375 5.609375 
Q 23.140625 4.203125 26.703125 4.203125 
Q 30.421875 4.203125 33.4375 5.546875 
Q 36.46875 6.890625 38.609375 9.25 
Q 40.765625 11.625 41.9375 14.8125 
Q 43.109375 18.015625 43.109375 21.734375 
z
" id="SegoeUI-Semilight-67"/>
     </defs>
     <g transform="translate(336.259063 267.66)scale(0.1 -0.1)">
      <use xlink:href="#SegoeUI-Semilight-41"/>
      <use x="63.591797" xlink:href="#SegoeUI-Semilight-76"/>
      <use x="110.173828" xlink:href="#SegoeUI-Semilight-65"/>
      <use x="161.541016" xlink:href="#SegoeUI-Semilight-72"/>
      <use x="195.427734" xlink:href="#SegoeUI-Semilight-61"/>
      <use x="245.525391" xlink:href="#SegoeUI-Semilight-67"/>
      <use x="302.947266" xlink:href="#SegoeUI-Semilight-65"/>
     </g>
    </g>
    <g id="patch_9">
     <path d="M 308.259063 282.411562 
L 328.259063 282.411562 
L 328.259063 275.411562 
L 308.259063 275.411562 
z
" style="fill:url(#h5a0b87b861);opacity:0.5;stroke:#1b8ece;stroke-linejoin:miter;"/>
    </g>
    <g id="text_19">
     <!-- Deviation range -->
     <defs>
      <path d="M 9.078125 0 
L 9.078125 70.015625 
L 27.484375 70.015625 
Q 45.453125 70.015625 54.625 61.390625 
Q 63.8125 52.78125 63.8125 35.9375 
Q 63.8125 27.828125 61.25 21.1875 
Q 58.6875 14.546875 53.859375 9.828125 
Q 49.03125 5.125 42.140625 2.5625 
Q 35.25 0 26.609375 0 
z
M 15.578125 64.0625 
L 15.578125 5.90625 
L 26.3125 5.90625 
Q 33.546875 5.90625 39.234375 7.859375 
Q 44.921875 9.8125 48.875 13.59375 
Q 52.828125 17.390625 54.90625 22.953125 
Q 56.984375 28.515625 56.984375 35.75 
Q 56.984375 64.0625 27.046875 64.0625 
z
" id="SegoeUI-Semilight-44"/>
      <path d="M 11.140625 62.640625 
Q 9.328125 62.640625 8 63.90625 
Q 6.6875 65.1875 6.6875 67.140625 
Q 6.6875 69.046875 8 70.28125 
Q 9.328125 71.53125 11.140625 71.53125 
Q 12.0625 71.53125 12.890625 71.21875 
Q 13.71875 70.90625 14.328125 70.3125 
Q 14.9375 69.734375 15.296875 68.921875 
Q 15.671875 68.109375 15.671875 67.140625 
Q 15.671875 66.21875 15.328125 65.375 
Q 14.984375 64.546875 14.34375 63.9375 
Q 13.71875 63.328125 12.90625 62.984375 
Q 12.109375 62.640625 11.140625 62.640625 
z
M 8.0625 0 
L 8.0625 50 
L 14.3125 50 
L 14.3125 0 
z
" id="SegoeUI-Semilight-69"/>
      <path d="M 28.515625 -1.171875 
Q 22.953125 -1.171875 18.53125 0.6875 
Q 14.109375 2.546875 10.984375 5.9375 
Q 7.859375 9.328125 6.203125 14.0625 
Q 4.546875 18.796875 4.546875 24.5625 
Q 4.546875 30.8125 6.296875 35.734375 
Q 8.0625 40.671875 11.296875 44.109375 
Q 14.546875 47.5625 19.140625 49.359375 
Q 23.734375 51.171875 29.390625 51.171875 
Q 34.8125 51.171875 39.15625 49.390625 
Q 43.5 47.609375 46.53125 44.234375 
Q 49.5625 40.875 51.171875 36.03125 
Q 52.78125 31.203125 52.78125 25.046875 
Q 52.78125 19.1875 51.09375 14.375 
Q 49.421875 9.578125 46.296875 6.109375 
Q 43.171875 2.640625 38.671875 0.734375 
Q 34.1875 -1.171875 28.515625 -1.171875 
z
M 29 45.75 
Q 24.90625 45.75 21.578125 44.328125 
Q 18.265625 42.921875 15.890625 40.203125 
Q 13.53125 37.5 12.25 33.5625 
Q 10.984375 29.640625 10.984375 24.65625 
Q 10.984375 19.96875 12.25 16.203125 
Q 13.53125 12.453125 15.84375 9.765625 
Q 18.171875 7.078125 21.484375 5.640625 
Q 24.8125 4.203125 28.90625 4.203125 
Q 33.109375 4.203125 36.328125 5.59375 
Q 39.546875 6.984375 41.796875 9.640625 
Q 44.046875 12.3125 45.1875 16.15625 
Q 46.34375 20.015625 46.34375 24.953125 
Q 46.34375 35.0625 41.84375 40.40625 
Q 37.359375 45.75 29 45.75 
z
" id="SegoeUI-Semilight-6f"/>
      <path d="M 41.796875 0 
L 41.796875 28.8125 
Q 41.796875 45.75 29.5 45.75 
Q 26.21875 45.75 23.4375 44.453125 
Q 20.65625 43.171875 18.625 40.875 
Q 16.609375 38.578125 15.453125 35.421875 
Q 14.3125 32.28125 14.3125 28.609375 
L 14.3125 0 
L 8.0625 0 
L 8.0625 50 
L 14.3125 50 
L 14.3125 41.3125 
L 14.5 41.3125 
Q 20.0625 51.171875 31.25 51.171875 
Q 39.453125 51.171875 43.75 45.84375 
Q 48.046875 40.53125 48.046875 30.46875 
L 48.046875 0 
z
" id="SegoeUI-Semilight-6e"/>
     </defs>
     <g transform="translate(336.259063 282.411562)scale(0.1 -0.1)">
      <use xlink:href="#SegoeUI-Semilight-44"/>
      <use x="68.75" xlink:href="#SegoeUI-Semilight-65"/>
      <use x="120.117188" xlink:href="#SegoeUI-Semilight-76"/>
      <use x="166.699219" xlink:href="#SegoeUI-Semilight-69"/>
      <use x="189.0625" xlink:href="#SegoeUI-Semilight-61"/>
      <use x="239.160156" xlink:href="#SegoeUI-Semilight-74"/>
      <use x="270.947266" xlink:href="#SegoeUI-Semilight-69"/>
      <use x="293.310547" xlink:href="#SegoeUI-Semilight-6f"/>
      <use x="350.634766" xlink:href="#SegoeUI-Semilight-6e"/>
      <use x="405.664062" xlink:href="#SegoeUI-Semilight-20"/>
      <use x="433.056641" xlink:href="#SegoeUI-Semilight-72"/>
      <use x="466.943359" xlink:href="#SegoeUI-Semilight-61"/>
      <use x="517.041016" xlink:href="#SegoeUI-Semilight-6e"/>
      <use x="572.070312" xlink:href="#SegoeUI-Semilight-67"/>
      <use x="629.492188" xlink:href="#SegoeUI-Semilight-65"/>
     </g>
    </g>
   </g>
  </g>
 </g>
 <defs>
  <clipPath id="pa27365fa68">
   <rect height="252.288" width="357.12" x="57.6" y="41.472"/>
  </clipPath>
 </defs>
 <defs>
  <pattern height="72" id="hb1ffae2679" patternUnits="userSpaceOnUse" width="72" x="0" y="0">
   <rect fill="#1b8ece" height="73" width="73" x="0" y="0"/>
   <path d="M -36 36 
L 36 108 
M -30 30 
L 42 102 
M -24 24 
L 48 96 
M -18 18 
L 54 90 
M -12 12 
L 60 84 
M -6 6 
L 66 78 
M 0 0 
L 72 72 
M 6 -6 
L 78 66 
M 12 -12 
L 84 60 
M 18 -18 
L 90 54 
M 24 -24 
L 96 48 
M 30 -30 
L 102 42 
M 36 -36 
L 108 36 
" style="fill:#1b8ece;stroke:#1b8ece;stroke-linecap:butt;stroke-linejoin:miter;stroke-width:1.0;"/>
  </pattern>
  <pattern height="72" id="h5a0b87b861" patternUnits="userSpaceOnUse" width="72" x="0" y="0">
   <rect fill="#1b8ece" height="73" width="73" x="0" y="0"/>
   <path d="M -36 36 
L 36 108 
M -30 30 
L 42 102 
M -24 24 
L 48 96 
M -18 18 
L 54 90 
M -12 12 
L 60 84 
M -6 6 
L 66 78 
M 0 0 
L 72 72 
M 6 -6 
L 78 66 
M 12 -12 
L 84 60 
M 18 -18 
L 90 54 
M 24 -24 
L 96 48 
M 30 -30 
L 102 42 
M 36 -36 
L 108 36 
" style="fill:#000000;stroke:#000000;stroke-linecap:butt;stroke-linejoin:miter;stroke-width:1.0;"/>
  </pattern>
 </defs>
</svg>
