<?xml version="1.0" encoding="utf-8" standalone="no"?>
<!DOCTYPE svg PUBLIC "-//W3C//DTD SVG 1.1//EN"
  "http://www.w3.org/Graphics/SVG/1.1/DTD/svg11.dtd">
<!-- Created with matplotlib (http://matplotlib.org/) -->
<svg height="216pt" version="1.1" viewBox="0 0 504 216" width="504pt" xmlns="http://www.w3.org/2000/svg" xmlns:xlink="http://www.w3.org/1999/xlink">
 <defs>
  <style type="text/css">
*{stroke-linecap:butt;stroke-linejoin:round;}
  </style>
 </defs>
 <g id="figure_1">
  <g id="patch_1">
   <path d="
M0 216
L504 216
L504 0
L0 0
z
" style="fill:#ffffff;"/>
  </g>
  <g id="axes_1">
   <g id="patch_2">
    <path d="
M63 183.6
L453.6 183.6
L453.6 21.6
L63 21.6
z
" style="fill:#ffffff;"/>
   </g>
   <g id="patch_3">
    <path clip-path="url(#p8dcc4a8cc7)" d="
M63 127.339
L517.728 127.339
L517.728 52.589
L63 52.589
z
" style="fill:url(#hf78fc4a0a7);opacity:0.5;stroke:#ff0000;"/>
   </g>
   <g id="line2d_1">
    <path clip-path="url(#p8dcc4a8cc7)" d="
M63 67.122
L68.8299 69.066
L74.6597 167.4
L80.4896 50.598
L86.3194 127.548
L92.1493 111.186
L97.9791 98.226
L103.809 132.57
L109.639 43.308
L115.469 105.03
L121.299 111.834
L127.128 102.924
L132.958 27.432
L138.788 116.208
L144.618 128.682
L150.448 120.258
L156.278 59.184
L162.107 93.852
L167.937 84.294
L173.767 62.586
L179.597 91.746
L185.427 99.522
L191.257 141.156
L197.087 54.162
L202.916 78.462
L208.746 167.562
L214.576 137.754
L220.406 91.746
L226.236 65.664
L232.066 72.63
L237.896 94.014
L243.725 43.146
L249.555 108.432
L255.385 122.688
L261.215 115.884
L267.045 24.354
L272.875 91.422
L278.704 137.916
L284.534 60.318
L290.364 167.562
L296.194 65.988
L302.024 123.336
L307.854 25.326
L313.684 111.51
L319.513 124.794
L325.343 43.308
L331.173 42.498
L337.003 124.308
L342.833 73.44
L348.663 31.32
L354.493 31.644
L360.322 134.19
L366.152 100.17
L371.982 124.308
L377.812 89.802
L383.642 98.388
L389.472 42.498
L395.301 28.242
L401.131 86.886
L406.961 104.544
L412.791 110.052
L418.621 37.8
L424.451 68.742
L430.281 96.93
L436.11 117.504
L441.94 133.38
L447.77 37.476
L453.6 59.67" style="fill:none;stroke:#7548fb;stroke-linecap:square;"/>
    <defs>
     <path d="
M0 3
C0.795609 3 1.55874 2.6839 2.12132 2.12132
C2.6839 1.55874 3 0.795609 3 0
C3 -0.795609 2.6839 -1.55874 2.12132 -2.12132
C1.55874 -2.6839 0.795609 -3 0 -3
C-0.795609 -3 -1.55874 -2.6839 -2.12132 -2.12132
C-2.6839 -1.55874 -3 -0.795609 -3 0
C-3 0.795609 -2.6839 1.55874 -2.12132 2.12132
C-1.55874 2.6839 -0.795609 3 0 3
z
" id="m98d2a13c80" style="stroke:#000000;stroke-width:0.5;"/>
    </defs>
    <g clip-path="url(#p8dcc4a8cc7)">
     <use style="fill:#7548fb;stroke:#000000;stroke-width:0.5;" x="63.0" xlink:href="#m98d2a13c80" y="67.122"/>
     <use style="fill:#7548fb;stroke:#000000;stroke-width:0.5;" x="68.8298507463" xlink:href="#m98d2a13c80" y="69.066"/>
     <use style="fill:#7548fb;stroke:#000000;stroke-width:0.5;" x="74.6597014925" xlink:href="#m98d2a13c80" y="167.4"/>
     <use style="fill:#7548fb;stroke:#000000;stroke-width:0.5;" x="80.4895522388" xlink:href="#m98d2a13c80" y="50.598"/>
     <use style="fill:#7548fb;stroke:#000000;stroke-width:0.5;" x="86.3194029851" xlink:href="#m98d2a13c80" y="127.548"/>
     <use style="fill:#7548fb;stroke:#000000;stroke-width:0.5;" x="92.1492537313" xlink:href="#m98d2a13c80" y="111.186"/>
     <use style="fill:#7548fb;stroke:#000000;stroke-width:0.5;" x="97.9791044776" xlink:href="#m98d2a13c80" y="98.226"/>
     <use style="fill:#7548fb;stroke:#000000;stroke-width:0.5;" x="103.808955224" xlink:href="#m98d2a13c80" y="132.57"/>
     <use style="fill:#7548fb;stroke:#000000;stroke-width:0.5;" x="109.63880597" xlink:href="#m98d2a13c80" y="43.308"/>
     <use style="fill:#7548fb;stroke:#000000;stroke-width:0.5;" x="115.468656716" xlink:href="#m98d2a13c80" y="105.03"/>
     <use style="fill:#7548fb;stroke:#000000;stroke-width:0.5;" x="121.298507463" xlink:href="#m98d2a13c80" y="111.834"/>
     <use style="fill:#7548fb;stroke:#000000;stroke-width:0.5;" x="127.128358209" xlink:href="#m98d2a13c80" y="102.924"/>
     <use style="fill:#7548fb;stroke:#000000;stroke-width:0.5;" x="132.958208955" xlink:href="#m98d2a13c80" y="27.432"/>
     <use style="fill:#7548fb;stroke:#000000;stroke-width:0.5;" x="138.788059701" xlink:href="#m98d2a13c80" y="116.208"/>
     <use style="fill:#7548fb;stroke:#000000;stroke-width:0.5;" x="144.617910448" xlink:href="#m98d2a13c80" y="128.682"/>
     <use style="fill:#7548fb;stroke:#000000;stroke-width:0.5;" x="150.447761194" xlink:href="#m98d2a13c80" y="120.258"/>
     <use style="fill:#7548fb;stroke:#000000;stroke-width:0.5;" x="156.27761194" xlink:href="#m98d2a13c80" y="59.184"/>
     <use style="fill:#7548fb;stroke:#000000;stroke-width:0.5;" x="162.107462687" xlink:href="#m98d2a13c80" y="93.852"/>
     <use style="fill:#7548fb;stroke:#000000;stroke-width:0.5;" x="167.937313433" xlink:href="#m98d2a13c80" y="84.294"/>
     <use style="fill:#7548fb;stroke:#000000;stroke-width:0.5;" x="173.767164179" xlink:href="#m98d2a13c80" y="62.586"/>
     <use style="fill:#7548fb;stroke:#000000;stroke-width:0.5;" x="179.597014925" xlink:href="#m98d2a13c80" y="91.746"/>
     <use style="fill:#7548fb;stroke:#000000;stroke-width:0.5;" x="185.426865672" xlink:href="#m98d2a13c80" y="99.522"/>
     <use style="fill:#7548fb;stroke:#000000;stroke-width:0.5;" x="191.256716418" xlink:href="#m98d2a13c80" y="141.156"/>
     <use style="fill:#7548fb;stroke:#000000;stroke-width:0.5;" x="197.086567164" xlink:href="#m98d2a13c80" y="54.162"/>
     <use style="fill:#7548fb;stroke:#000000;stroke-width:0.5;" x="202.91641791" xlink:href="#m98d2a13c80" y="78.462"/>
     <use style="fill:#7548fb;stroke:#000000;stroke-width:0.5;" x="208.746268657" xlink:href="#m98d2a13c80" y="167.562"/>
     <use style="fill:#7548fb;stroke:#000000;stroke-width:0.5;" x="214.576119403" xlink:href="#m98d2a13c80" y="137.754"/>
     <use style="fill:#7548fb;stroke:#000000;stroke-width:0.5;" x="220.405970149" xlink:href="#m98d2a13c80" y="91.746"/>
     <use style="fill:#7548fb;stroke:#000000;stroke-width:0.5;" x="226.235820896" xlink:href="#m98d2a13c80" y="65.664"/>
     <use style="fill:#7548fb;stroke:#000000;stroke-width:0.5;" x="232.065671642" xlink:href="#m98d2a13c80" y="72.63"/>
     <use style="fill:#7548fb;stroke:#000000;stroke-width:0.5;" x="237.895522388" xlink:href="#m98d2a13c80" y="94.014"/>
     <use style="fill:#7548fb;stroke:#000000;stroke-width:0.5;" x="243.725373134" xlink:href="#m98d2a13c80" y="43.146"/>
     <use style="fill:#7548fb;stroke:#000000;stroke-width:0.5;" x="249.555223881" xlink:href="#m98d2a13c80" y="108.432"/>
     <use style="fill:#7548fb;stroke:#000000;stroke-width:0.5;" x="255.385074627" xlink:href="#m98d2a13c80" y="122.688"/>
     <use style="fill:#7548fb;stroke:#000000;stroke-width:0.5;" x="261.214925373" xlink:href="#m98d2a13c80" y="115.884"/>
     <use style="fill:#7548fb;stroke:#000000;stroke-width:0.5;" x="267.044776119" xlink:href="#m98d2a13c80" y="24.354"/>
     <use style="fill:#7548fb;stroke:#000000;stroke-width:0.5;" x="272.874626866" xlink:href="#m98d2a13c80" y="91.422"/>
     <use style="fill:#7548fb;stroke:#000000;stroke-width:0.5;" x="278.704477612" xlink:href="#m98d2a13c80" y="137.916"/>
     <use style="fill:#7548fb;stroke:#000000;stroke-width:0.5;" x="284.534328358" xlink:href="#m98d2a13c80" y="60.318"/>
     <use style="fill:#7548fb;stroke:#000000;stroke-width:0.5;" x="290.364179104" xlink:href="#m98d2a13c80" y="167.562"/>
     <use style="fill:#7548fb;stroke:#000000;stroke-width:0.5;" x="296.194029851" xlink:href="#m98d2a13c80" y="65.988"/>
     <use style="fill:#7548fb;stroke:#000000;stroke-width:0.5;" x="302.023880597" xlink:href="#m98d2a13c80" y="123.336"/>
     <use style="fill:#7548fb;stroke:#000000;stroke-width:0.5;" x="307.853731343" xlink:href="#m98d2a13c80" y="25.326"/>
     <use style="fill:#7548fb;stroke:#000000;stroke-width:0.5;" x="313.68358209" xlink:href="#m98d2a13c80" y="111.51"/>
     <use style="fill:#7548fb;stroke:#000000;stroke-width:0.5;" x="319.513432836" xlink:href="#m98d2a13c80" y="124.794"/>
     <use style="fill:#7548fb;stroke:#000000;stroke-width:0.5;" x="325.343283582" xlink:href="#m98d2a13c80" y="43.308"/>
     <use style="fill:#7548fb;stroke:#000000;stroke-width:0.5;" x="331.173134328" xlink:href="#m98d2a13c80" y="42.498"/>
     <use style="fill:#7548fb;stroke:#000000;stroke-width:0.5;" x="337.002985075" xlink:href="#m98d2a13c80" y="124.308"/>
     <use style="fill:#7548fb;stroke:#000000;stroke-width:0.5;" x="342.832835821" xlink:href="#m98d2a13c80" y="73.44"/>
     <use style="fill:#7548fb;stroke:#000000;stroke-width:0.5;" x="348.662686567" xlink:href="#m98d2a13c80" y="31.32"/>
     <use style="fill:#7548fb;stroke:#000000;stroke-width:0.5;" x="354.492537313" xlink:href="#m98d2a13c80" y="31.644"/>
     <use style="fill:#7548fb;stroke:#000000;stroke-width:0.5;" x="360.32238806" xlink:href="#m98d2a13c80" y="134.19"/>
     <use style="fill:#7548fb;stroke:#000000;stroke-width:0.5;" x="366.152238806" xlink:href="#m98d2a13c80" y="100.17"/>
     <use style="fill:#7548fb;stroke:#000000;stroke-width:0.5;" x="371.982089552" xlink:href="#m98d2a13c80" y="124.308"/>
     <use style="fill:#7548fb;stroke:#000000;stroke-width:0.5;" x="377.811940299" xlink:href="#m98d2a13c80" y="89.802"/>
     <use style="fill:#7548fb;stroke:#000000;stroke-width:0.5;" x="383.641791045" xlink:href="#m98d2a13c80" y="98.388"/>
     <use style="fill:#7548fb;stroke:#000000;stroke-width:0.5;" x="389.471641791" xlink:href="#m98d2a13c80" y="42.498"/>
     <use style="fill:#7548fb;stroke:#000000;stroke-width:0.5;" x="395.301492537" xlink:href="#m98d2a13c80" y="28.242"/>
     <use style="fill:#7548fb;stroke:#000000;stroke-width:0.5;" x="401.131343284" xlink:href="#m98d2a13c80" y="86.886"/>
     <use style="fill:#7548fb;stroke:#000000;stroke-width:0.5;" x="406.96119403" xlink:href="#m98d2a13c80" y="104.544"/>
     <use style="fill:#7548fb;stroke:#000000;stroke-width:0.5;" x="412.791044776" xlink:href="#m98d2a13c80" y="110.052"/>
     <use style="fill:#7548fb;stroke:#000000;stroke-width:0.5;" x="418.620895522" xlink:href="#m98d2a13c80" y="37.8"/>
     <use style="fill:#7548fb;stroke:#000000;stroke-width:0.5;" x="424.450746269" xlink:href="#m98d2a13c80" y="68.742"/>
     <use style="fill:#7548fb;stroke:#000000;stroke-width:0.5;" x="430.280597015" xlink:href="#m98d2a13c80" y="96.93"/>
     <use style="fill:#7548fb;stroke:#000000;stroke-width:0.5;" x="436.110447761" xlink:href="#m98d2a13c80" y="117.504"/>
     <use style="fill:#7548fb;stroke:#000000;stroke-width:0.5;" x="441.940298507" xlink:href="#m98d2a13c80" y="133.38"/>
     <use style="fill:#7548fb;stroke:#000000;stroke-width:0.5;" x="447.770149254" xlink:href="#m98d2a13c80" y="37.476"/>
     <use style="fill:#7548fb;stroke:#000000;stroke-width:0.5;" x="453.6" xlink:href="#m98d2a13c80" y="59.67"/>
    </g>
   </g>
   <g id="line2d_2">
    <path clip-path="url(#p8dcc4a8cc7)" d="
M63 89.964
L68.8299 89.964
L74.6597 89.964
L80.4896 89.964
L86.3194 89.964
L92.1493 89.964
L97.9791 89.964
L103.809 89.964
L109.639 89.964
L115.469 89.964
L121.299 89.964
L127.128 89.964
L132.958 89.964
L138.788 89.964
L144.618 89.964
L150.448 89.964
L156.278 89.964
L162.107 89.964
L167.937 89.964
L173.767 89.964
L179.597 89.964
L185.427 89.964
L191.257 89.964
L197.087 89.964
L202.916 89.964
L208.746 89.964
L214.576 89.964
L220.406 89.964
L226.236 89.964
L232.066 89.964
L237.896 89.964
L243.725 89.964
L249.555 89.964
L255.385 89.964
L261.215 89.964
L267.045 89.964
L272.875 89.964
L278.704 89.964
L284.534 89.964
L290.364 89.964
L296.194 89.964
L302.024 89.964
L307.854 89.964
L313.684 89.964
L319.513 89.964
L325.343 89.964
L331.173 89.964
L337.003 89.964
L342.833 89.964
L348.663 89.964
L354.493 89.964
L360.322 89.964
L366.152 89.964
L371.982 89.964
L377.812 89.964
L383.642 89.964
L389.472 89.964
L395.301 89.964
L401.131 89.964
L406.961 89.964
L412.791 89.964
L418.621 89.964
L424.451 89.964
L430.281 89.964
L436.11 89.964
L441.94 89.964
L447.77 89.964
L453.6 89.964" style="fill:none;stroke:#7548fb;stroke-linecap:square;stroke-width:2;"/>
   </g>
   <g id="matplotlib.axis_1">
    <g id="xtick_1">
     <g id="line2d_3">
      <defs>
       <path d="
M0 0
L0 -4" id="m93b0483c22" style="stroke:#000000;stroke-width:0.5;"/>
      </defs>
      <g>
       <use style="stroke:#000000;stroke-width:0.5;" x="63.0" xlink:href="#m93b0483c22" y="183.6"/>
      </g>
     </g>
     <g id="line2d_4">
      <defs>
       <path d="
M0 0
L0 4" id="m741efc42ff" style="stroke:#000000;stroke-width:0.5;"/>
      </defs>
      <g>
       <use style="stroke:#000000;stroke-width:0.5;" x="63.0" xlink:href="#m741efc42ff" y="21.6"/>
      </g>
     </g>
     <g id="text_1">
      <!-- 0 -->
      <defs>
       <path d="
M31.7812 66.4062
Q24.1719 66.4062 20.3281 58.9062
Q16.5 51.4219 16.5 36.375
Q16.5 21.3906 20.3281 13.8906
Q24.1719 6.39062 31.7812 6.39062
Q39.4531 6.39062 43.2812 13.8906
Q47.125 21.3906 47.125 36.375
Q47.125 51.4219 43.2812 58.9062
Q39.4531 66.4062 31.7812 66.4062
M31.7812 74.2188
Q44.0469 74.2188 50.5156 64.5156
Q56.9844 54.8281 56.9844 36.375
Q56.9844 17.9688 50.5156 8.26562
Q44.0469 -1.42188 31.7812 -1.42188
Q19.5312 -1.42188 13.0625 8.26562
Q6.59375 17.9688 6.59375 36.375
Q6.59375 54.8281 13.0625 64.5156
Q19.5312 74.2188 31.7812 74.2188" id="BitstreamVeraSans-Roman-30"/>
      </defs>
      <g transform="translate(59.9765625 196.718125)scale(0.12 -0.12)">
       <use xlink:href="#BitstreamVeraSans-Roman-30"/>
      </g>
     </g>
    </g>
    <g id="xtick_2">
     <g id="line2d_5">
      <g>
       <use style="stroke:#000000;stroke-width:0.5;" x="121.298507463" xlink:href="#m93b0483c22" y="183.6"/>
      </g>
     </g>
     <g id="line2d_6">
      <g>
       <use style="stroke:#000000;stroke-width:0.5;" x="121.298507463" xlink:href="#m741efc42ff" y="21.6"/>
      </g>
     </g>
     <g id="text_2">
      <!-- 10 -->
      <defs>
       <path d="
M12.4062 8.29688
L28.5156 8.29688
L28.5156 63.9219
L10.9844 60.4062
L10.9844 69.3906
L28.4219 72.9062
L38.2812 72.9062
L38.2812 8.29688
L54.3906 8.29688
L54.3906 0
L12.4062 0
z
" id="BitstreamVeraSans-Roman-31"/>
      </defs>
      <g transform="translate(114.721007463 196.718125)scale(0.12 -0.12)">
       <use xlink:href="#BitstreamVeraSans-Roman-31"/>
       <use x="63.623046875" xlink:href="#BitstreamVeraSans-Roman-30"/>
      </g>
     </g>
    </g>
    <g id="xtick_3">
     <g id="line2d_7">
      <g>
       <use style="stroke:#000000;stroke-width:0.5;" x="179.597014925" xlink:href="#m93b0483c22" y="183.6"/>
      </g>
     </g>
     <g id="line2d_8">
      <g>
       <use style="stroke:#000000;stroke-width:0.5;" x="179.597014925" xlink:href="#m741efc42ff" y="21.6"/>
      </g>
     </g>
     <g id="text_3">
      <!-- 20 -->
      <defs>
       <path d="
M19.1875 8.29688
L53.6094 8.29688
L53.6094 0
L7.32812 0
L7.32812 8.29688
Q12.9375 14.1094 22.625 23.8906
Q32.3281 33.6875 34.8125 36.5312
Q39.5469 41.8438 41.4219 45.5312
Q43.3125 49.2188 43.3125 52.7812
Q43.3125 58.5938 39.2344 62.25
Q35.1562 65.9219 28.6094 65.9219
Q23.9688 65.9219 18.8125 64.3125
Q13.6719 62.7031 7.8125 59.4219
L7.8125 69.3906
Q13.7656 71.7812 18.9375 73
Q24.125 74.2188 28.4219 74.2188
Q39.75 74.2188 46.4844 68.5469
Q53.2188 62.8906 53.2188 53.4219
Q53.2188 48.9219 51.5312 44.8906
Q49.8594 40.875 45.4062 35.4062
Q44.1875 33.9844 37.6406 27.2188
Q31.1094 20.4531 19.1875 8.29688" id="BitstreamVeraSans-Roman-32"/>
      </defs>
      <g transform="translate(172.800139925 196.718125)scale(0.12 -0.12)">
       <use xlink:href="#BitstreamVeraSans-Roman-32"/>
       <use x="63.623046875" xlink:href="#BitstreamVeraSans-Roman-30"/>
      </g>
     </g>
    </g>
    <g id="xtick_4">
     <g id="line2d_9">
      <g>
       <use style="stroke:#000000;stroke-width:0.5;" x="237.895522388" xlink:href="#m93b0483c22" y="183.6"/>
      </g>
     </g>
     <g id="line2d_10">
      <g>
       <use style="stroke:#000000;stroke-width:0.5;" x="237.895522388" xlink:href="#m741efc42ff" y="21.6"/>
      </g>
     </g>
     <g id="text_4">
      <!-- 30 -->
      <defs>
       <path d="
M40.5781 39.3125
Q47.6562 37.7969 51.625 33
Q55.6094 28.2188 55.6094 21.1875
Q55.6094 10.4062 48.1875 4.48438
Q40.7656 -1.42188 27.0938 -1.42188
Q22.5156 -1.42188 17.6562 -0.515625
Q12.7969 0.390625 7.625 2.20312
L7.625 11.7188
Q11.7188 9.32812 16.5938 8.10938
Q21.4844 6.89062 26.8125 6.89062
Q36.0781 6.89062 40.9375 10.5469
Q45.7969 14.2031 45.7969 21.1875
Q45.7969 27.6406 41.2812 31.2656
Q36.7656 34.9062 28.7188 34.9062
L20.2188 34.9062
L20.2188 43.0156
L29.1094 43.0156
Q36.375 43.0156 40.2344 45.9219
Q44.0938 48.8281 44.0938 54.2969
Q44.0938 59.9062 40.1094 62.9062
Q36.1406 65.9219 28.7188 65.9219
Q24.6562 65.9219 20.0156 65.0312
Q15.375 64.1562 9.8125 62.3125
L9.8125 71.0938
Q15.4375 72.6562 20.3438 73.4375
Q25.25 74.2188 29.5938 74.2188
Q40.8281 74.2188 47.3594 69.1094
Q53.9062 64.0156 53.9062 55.3281
Q53.9062 49.2656 50.4375 45.0938
Q46.9688 40.9219 40.5781 39.3125" id="BitstreamVeraSans-Roman-33"/>
      </defs>
      <g transform="translate(231.116459888 196.718125)scale(0.12 -0.12)">
       <use xlink:href="#BitstreamVeraSans-Roman-33"/>
       <use x="63.623046875" xlink:href="#BitstreamVeraSans-Roman-30"/>
      </g>
     </g>
    </g>
    <g id="xtick_5">
     <g id="line2d_11">
      <g>
       <use style="stroke:#000000;stroke-width:0.5;" x="296.194029851" xlink:href="#m93b0483c22" y="183.6"/>
      </g>
     </g>
     <g id="line2d_12">
      <g>
       <use style="stroke:#000000;stroke-width:0.5;" x="296.194029851" xlink:href="#m741efc42ff" y="21.6"/>
      </g>
     </g>
     <g id="text_5">
      <!-- 40 -->
      <defs>
       <path d="
M37.7969 64.3125
L12.8906 25.3906
L37.7969 25.3906
z

M35.2031 72.9062
L47.6094 72.9062
L47.6094 25.3906
L58.0156 25.3906
L58.0156 17.1875
L47.6094 17.1875
L47.6094 0
L37.7969 0
L37.7969 17.1875
L4.89062 17.1875
L4.89062 26.7031
z
" id="BitstreamVeraSans-Roman-34"/>
      </defs>
      <g transform="translate(289.250904851 196.718125)scale(0.12 -0.12)">
       <use xlink:href="#BitstreamVeraSans-Roman-34"/>
       <use x="63.623046875" xlink:href="#BitstreamVeraSans-Roman-30"/>
      </g>
     </g>
    </g>
    <g id="xtick_6">
     <g id="line2d_13">
      <g>
       <use style="stroke:#000000;stroke-width:0.5;" x="354.492537313" xlink:href="#m93b0483c22" y="183.6"/>
      </g>
     </g>
     <g id="line2d_14">
      <g>
       <use style="stroke:#000000;stroke-width:0.5;" x="354.492537313" xlink:href="#m741efc42ff" y="21.6"/>
      </g>
     </g>
     <g id="text_6">
      <!-- 50 -->
      <defs>
       <path d="
M10.7969 72.9062
L49.5156 72.9062
L49.5156 64.5938
L19.8281 64.5938
L19.8281 46.7344
Q21.9688 47.4688 24.1094 47.8281
Q26.2656 48.1875 28.4219 48.1875
Q40.625 48.1875 47.75 41.5
Q54.8906 34.8125 54.8906 23.3906
Q54.8906 11.625 47.5625 5.09375
Q40.2344 -1.42188 26.9062 -1.42188
Q22.3125 -1.42188 17.5469 -0.640625
Q12.7969 0.140625 7.71875 1.70312
L7.71875 11.625
Q12.1094 9.23438 16.7969 8.0625
Q21.4844 6.89062 26.7031 6.89062
Q35.1562 6.89062 40.0781 11.3281
Q45.0156 15.7656 45.0156 23.3906
Q45.0156 31 40.0781 35.4375
Q35.1562 39.8906 26.7031 39.8906
Q22.75 39.8906 18.8125 39.0156
Q14.8906 38.1406 10.7969 36.2812
z
" id="BitstreamVeraSans-Roman-35"/>
      </defs>
      <g transform="translate(347.719099813 196.718125)scale(0.12 -0.12)">
       <use xlink:href="#BitstreamVeraSans-Roman-35"/>
       <use x="63.623046875" xlink:href="#BitstreamVeraSans-Roman-30"/>
      </g>
     </g>
    </g>
    <g id="xtick_7">
     <g id="line2d_15">
      <g>
       <use style="stroke:#000000;stroke-width:0.5;" x="412.791044776" xlink:href="#m93b0483c22" y="183.6"/>
      </g>
     </g>
     <g id="line2d_16">
      <g>
       <use style="stroke:#000000;stroke-width:0.5;" x="412.791044776" xlink:href="#m741efc42ff" y="21.6"/>
      </g>
     </g>
     <g id="text_7">
      <!-- 60 -->
      <defs>
       <path d="
M33.0156 40.375
Q26.375 40.375 22.4844 35.8281
Q18.6094 31.2969 18.6094 23.3906
Q18.6094 15.5312 22.4844 10.9531
Q26.375 6.39062 33.0156 6.39062
Q39.6562 6.39062 43.5312 10.9531
Q47.4062 15.5312 47.4062 23.3906
Q47.4062 31.2969 43.5312 35.8281
Q39.6562 40.375 33.0156 40.375
M52.5938 71.2969
L52.5938 62.3125
Q48.875 64.0625 45.0938 64.9844
Q41.3125 65.9219 37.5938 65.9219
Q27.8281 65.9219 22.6719 59.3281
Q17.5312 52.7344 16.7969 39.4062
Q19.6719 43.6562 24.0156 45.9219
Q28.375 48.1875 33.5938 48.1875
Q44.5781 48.1875 50.9531 41.5156
Q57.3281 34.8594 57.3281 23.3906
Q57.3281 12.1562 50.6875 5.35938
Q44.0469 -1.42188 33.0156 -1.42188
Q20.3594 -1.42188 13.6719 8.26562
Q6.98438 17.9688 6.98438 36.375
Q6.98438 53.6562 15.1875 63.9375
Q23.3906 74.2188 37.2031 74.2188
Q40.9219 74.2188 44.7031 73.4844
Q48.4844 72.75 52.5938 71.2969" id="BitstreamVeraSans-Roman-36"/>
      </defs>
      <g transform="translate(405.973544776 196.718125)scale(0.12 -0.12)">
       <use xlink:href="#BitstreamVeraSans-Roman-36"/>
       <use x="63.623046875" xlink:href="#BitstreamVeraSans-Roman-30"/>
      </g>
     </g>
    </g>
    <g id="text_8">
     <!-- Press count -->
     <defs>
      <path d="
M32.5938 51.2969
Q41.2031 51.2969 46.5 45.7969
Q51.7969 40.2969 51.7969 30.7031
L51.7969 0
L41 0
L41 29.5938
Q41 35.2031 38 38.2031
Q35 41.2031 29.7969 41.2031
Q24.0938 41.2031 20.5938 37.6406
Q17.0938 34.0938 17.0938 26.7969
L17.0938 0
L6.29688 0
L6.29688 50
L17.0938 50
L17.0938 43.5938
Q22 51.2969 32.5938 51.2969" id="Gilroy-SemiBold-6e"/>
      <path d="
M29.9062 -1.29688
Q18.9062 -1.29688 11.2031 6.29688
Q3.5 13.9062 3.5 25
Q3.5 36.0938 11.2031 43.6875
Q18.9062 51.2969 29.9062 51.2969
Q41 51.2969 48.6406 43.6875
Q56.2969 36.0938 56.2969 25
Q56.2969 13.9062 48.6406 6.29688
Q41 -1.29688 29.9062 -1.29688
M14.2969 18.2031
Q23.2969 9.20312 29.8906 9.20312
Q36.5 9.20312 41 13.7031
Q45.5 18.2031 45.5 25
Q45.5 31.7969 41 36.2969
Q36.5 40.7969 29.8906 40.7969
Q23.2969 40.7969 18.7969 36.2969
Q14.2969 31.7969 14.2969 25
Q14.2969 18.2031 23.2969 9.20312" id="Gilroy-SemiBold-6f"/>
      <path d="
M17.0938 41.5938
Q21.2031 50.9062 32.5 50.9062
L32.5 39.2031
Q26.2969 39.5938 21.6875 36.25
Q17.0938 32.9062 17.0938 25.2031
L17.0938 0
L6.29688 0
L6.29688 50
L17.0938 50
z
" id="Gilroy-SemiBold-72"/>
      <path d="
M16 36.2031
Q16 33.7031 18.75 32.25
Q21.5 30.7969 25.4531 29.75
Q29.4062 28.7031 33.4062 27.2969
Q37.4062 25.9062 40.1562 22.5469
Q42.9062 19.2031 42.9062 14.0938
Q42.9062 6.90625 37.3438 2.79688
Q31.7969 -1.29688 23.4062 -1.29688
Q16 -1.29688 10.7031 1.79688
Q5.40625 4.90625 3 10.4062
L12.2969 15.7969
Q14.9062 8.59375 23.4062 8.59375
Q31.9062 8.59375 31.9062 14.2031
Q31.9062 16.5938 29.1562 18.0938
Q26.4062 19.5938 22.4531 20.6406
Q18.5 21.7031 14.5 23.0938
Q10.5 24.5 7.75 27.75
Q5 31 5 36
Q5 42.9062 10.25 47.0938
Q15.5 51.2969 23.2969 51.2969
Q29.5 51.2969 34.3438 48.5469
Q39.2031 45.7969 41.7969 40.9062
L32.7031 35.7969
Q30.0938 41.5 23.2969 41.5
Q20.2031 41.5 18.0938 40.1406
Q16 38.7969 16 36.2031" id="Gilroy-SemiBold-73"/>
      <path d="
M29.9062 -1.29688
Q18.5938 -1.29688 11.0469 6.29688
Q3.5 13.9062 3.5 25
Q3.5 36.2031 11.0469 43.75
Q18.5938 51.2969 29.9062 51.2969
Q37.2031 51.2969 43.2031 47.7969
Q49.2031 44.2969 52.2031 38.4062
L42.9062 33
Q41.2031 36.5938 37.75 38.6406
Q34.2969 40.7031 29.7969 40.7031
Q23.2031 40.7031 18.75 36.2031
Q14.2969 31.7031 14.2969 25
Q14.2969 18.2969 18.75 13.7969
Q23.2031 9.29688 29.7969 9.29688
Q34.2031 9.29688 37.75 11.3906
Q41.2969 13.5 43.0938 17
L52.4062 11.7031
Q49.2031 5.70312 43.2031 2.20312
Q37.2031 -1.29688 29.9062 -1.29688" id="Gilroy-SemiBold-63"/>
      <path d="
M14.7969 20.4062
Q16 14.7031 20.2969 11.6406
Q24.5938 8.59375 30.7969 8.59375
Q39.4062 8.59375 43.7031 14.7969
L52.5938 9.59375
Q45.2031 -1.29688 30.7031 -1.29688
Q18.5 -1.29688 11 6.14062
Q3.5 13.5938 3.5 25
Q3.5 36.2031 10.8906 43.75
Q18.2969 51.2969 29.9062 51.2969
Q40.9062 51.2969 47.9531 43.5938
Q55 35.9062 55 24.9062
Q55 23.2031 54.5938 20.4062
z

M14.7031 29.2031
L44.0938 29.2031
Q43 35.2969 39.0469 38.3906
Q35.0938 41.5 29.7969 41.5
Q23.7969 41.5 19.7969 38.2031
Q15.7969 34.9062 14.7031 29.2031" id="Gilroy-SemiBold-65"/>
      <path d="
M34.2031 39.5938
L21.7969 39.5938
L21.7969 15.5938
Q21.7969 12.5 23.1875 11.1406
Q24.5938 9.79688 27.3438 9.64062
Q30.0938 9.5 34.2031 9.70312
L34.2031 0
Q21.7969 -1.5 16.3906 2.14062
Q11 5.79688 11 15.5938
L11 39.5938
L1.79688 39.5938
L1.79688 50
L11 50
L11 60.7969
L21.7969 64
L21.7969 50
L34.2031 50
z
" id="Gilroy-SemiBold-74"/>
      <path d="
M40 50
L50.7969 50
L50.7969 0
L40 0
L40 6.40625
Q35.0938 -1.29688 24.5 -1.29688
Q15.9062 -1.29688 10.5938 4.20312
Q5.29688 9.70312 5.29688 19.2969
L5.29688 50
L16.0938 50
L16.0938 20.4062
Q16.0938 14.7969 19.0938 11.7969
Q22.0938 8.79688 27.2969 8.79688
Q33 8.79688 36.5 12.3438
Q40 15.9062 40 23.2031
z
" id="Gilroy-SemiBold-75"/>
      <path d="
M32.7969 70
Q42.7031 70 49.3438 63.3906
Q56 56.7969 56 47
Q56 37.2969 49.3438 30.6406
Q42.7031 24 32.7969 24
L18.5 24
L18.5 0
L7 0
L7 70
z

M32.7969 34.7969
Q37.9062 34.7969 41.2031 38.25
Q44.5 41.7031 44.5 47
Q44.5 52.2969 41.2031 55.75
Q37.9062 59.2031 32.7969 59.2031
L18.5 59.2031
L18.5 34.7969
z
" id="Gilroy-SemiBold-50"/>
      <path id="Gilroy-SemiBold-20"/>
     </defs>
     <g transform="translate(226.4409375 212.97375)scale(0.12 -0.12)">
      <use xlink:href="#Gilroy-SemiBold-50"/>
      <use x="58.9999847412" xlink:href="#Gilroy-SemiBold-72"/>
      <use x="93.1999816895" xlink:href="#Gilroy-SemiBold-65"/>
      <use x="151.399978638" xlink:href="#Gilroy-SemiBold-73"/>
      <use x="197.499969482" xlink:href="#Gilroy-SemiBold-73"/>
      <use x="243.599960327" xlink:href="#Gilroy-SemiBold-20"/>
      <use x="268.599945068" xlink:href="#Gilroy-SemiBold-63"/>
      <use x="322.799942017" xlink:href="#Gilroy-SemiBold-6f"/>
      <use x="382.59992981" xlink:href="#Gilroy-SemiBold-75"/>
      <use x="439.699920654" xlink:href="#Gilroy-SemiBold-6e"/>
      <use x="496.799911499" xlink:href="#Gilroy-SemiBold-74"/>
     </g>
    </g>
   </g>
   <g id="matplotlib.axis_2">
    <g id="ytick_1">
     <g id="line2d_17">
      <defs>
       <path d="
M0 0
L4 0" id="m728421d6d4" style="stroke:#000000;stroke-width:0.5;"/>
      </defs>
      <g>
       <use style="stroke:#000000;stroke-width:0.5;" x="63.0" xlink:href="#m728421d6d4" y="167.4"/>
      </g>
     </g>
     <g id="line2d_18">
      <defs>
       <path d="
M0 0
L-4 0" id="mcb0005524f" style="stroke:#000000;stroke-width:0.5;"/>
      </defs>
      <g>
       <use style="stroke:#000000;stroke-width:0.5;" x="453.6" xlink:href="#mcb0005524f" y="167.4"/>
      </g>
     </g>
     <g id="text_9">
      <!-- 0 -->
      <g transform="translate(52.953125 170.71125)scale(0.12 -0.12)">
       <use xlink:href="#BitstreamVeraSans-Roman-30"/>
      </g>
     </g>
    </g>
    <g id="ytick_2">
     <g id="line2d_19">
      <g>
       <use style="stroke:#000000;stroke-width:0.5;" x="63.0" xlink:href="#m728421d6d4" y="135.0"/>
      </g>
     </g>
     <g id="line2d_20">
      <g>
       <use style="stroke:#000000;stroke-width:0.5;" x="453.6" xlink:href="#mcb0005524f" y="135.0"/>
      </g>
     </g>
     <g id="text_10">
      <!-- 200 -->
      <g transform="translate(37.77125 138.31125)scale(0.12 -0.12)">
       <use xlink:href="#BitstreamVeraSans-Roman-32"/>
       <use x="63.623046875" xlink:href="#BitstreamVeraSans-Roman-30"/>
       <use x="127.24609375" xlink:href="#BitstreamVeraSans-Roman-30"/>
      </g>
     </g>
    </g>
    <g id="ytick_3">
     <g id="line2d_21">
      <g>
       <use style="stroke:#000000;stroke-width:0.5;" x="63.0" xlink:href="#m728421d6d4" y="102.6"/>
      </g>
     </g>
     <g id="line2d_22">
      <g>
       <use style="stroke:#000000;stroke-width:0.5;" x="453.6" xlink:href="#mcb0005524f" y="102.6"/>
      </g>
     </g>
     <g id="text_11">
      <!-- 400 -->
      <g transform="translate(37.47875 105.91125)scale(0.12 -0.12)">
       <use xlink:href="#BitstreamVeraSans-Roman-34"/>
       <use x="63.623046875" xlink:href="#BitstreamVeraSans-Roman-30"/>
       <use x="127.24609375" xlink:href="#BitstreamVeraSans-Roman-30"/>
      </g>
     </g>
    </g>
    <g id="ytick_4">
     <g id="line2d_23">
      <g>
       <use style="stroke:#000000;stroke-width:0.5;" x="63.0" xlink:href="#m728421d6d4" y="70.2"/>
      </g>
     </g>
     <g id="line2d_24">
      <g>
       <use style="stroke:#000000;stroke-width:0.5;" x="453.6" xlink:href="#mcb0005524f" y="70.2"/>
      </g>
     </g>
     <g id="text_12">
      <!-- 600 -->
      <g transform="translate(37.73 73.51125)scale(0.12 -0.12)">
       <use xlink:href="#BitstreamVeraSans-Roman-36"/>
       <use x="63.623046875" xlink:href="#BitstreamVeraSans-Roman-30"/>
       <use x="127.24609375" xlink:href="#BitstreamVeraSans-Roman-30"/>
      </g>
     </g>
    </g>
    <g id="ytick_5">
     <g id="line2d_25">
      <g>
       <use style="stroke:#000000;stroke-width:0.5;" x="63.0" xlink:href="#m728421d6d4" y="37.8"/>
      </g>
     </g>
     <g id="line2d_26">
      <g>
       <use style="stroke:#000000;stroke-width:0.5;" x="453.6" xlink:href="#mcb0005524f" y="37.8"/>
      </g>
     </g>
     <g id="text_13">
      <!-- 800 -->
      <defs>
       <path d="
M31.7812 34.625
Q24.75 34.625 20.7188 30.8594
Q16.7031 27.0938 16.7031 20.5156
Q16.7031 13.9219 20.7188 10.1562
Q24.75 6.39062 31.7812 6.39062
Q38.8125 6.39062 42.8594 10.1719
Q46.9219 13.9688 46.9219 20.5156
Q46.9219 27.0938 42.8906 30.8594
Q38.875 34.625 31.7812 34.625
M21.9219 38.8125
Q15.5781 40.375 12.0312 44.7188
Q8.5 49.0781 8.5 55.3281
Q8.5 64.0625 14.7188 69.1406
Q20.9531 74.2188 31.7812 74.2188
Q42.6719 74.2188 48.875 69.1406
Q55.0781 64.0625 55.0781 55.3281
Q55.0781 49.0781 51.5312 44.7188
Q48 40.375 41.7031 38.8125
Q48.8281 37.1562 52.7969 32.3125
Q56.7812 27.4844 56.7812 20.5156
Q56.7812 9.90625 50.3125 4.23438
Q43.8438 -1.42188 31.7812 -1.42188
Q19.7344 -1.42188 13.25 4.23438
Q6.78125 9.90625 6.78125 20.5156
Q6.78125 27.4844 10.7812 32.3125
Q14.7969 37.1562 21.9219 38.8125
M18.3125 54.3906
Q18.3125 48.7344 21.8438 45.5625
Q25.3906 42.3906 31.7812 42.3906
Q38.1406 42.3906 41.7188 45.5625
Q45.3125 48.7344 45.3125 54.3906
Q45.3125 60.0625 41.7188 63.2344
Q38.1406 66.4062 31.7812 66.4062
Q25.3906 66.4062 21.8438 63.2344
Q18.3125 60.0625 18.3125 54.3906" id="BitstreamVeraSans-Roman-38"/>
      </defs>
      <g transform="translate(37.705625 41.11125)scale(0.12 -0.12)">
       <use xlink:href="#BitstreamVeraSans-Roman-38"/>
       <use x="63.623046875" xlink:href="#BitstreamVeraSans-Roman-30"/>
       <use x="127.24609375" xlink:href="#BitstreamVeraSans-Roman-30"/>
      </g>
     </g>
    </g>
    <g id="text_14">
     <!-- Press-to-Press time -->
     <defs>
      <path d="
M18.5938 61.5938
Q14.5 57.5 11.7031 57.5
Q8.90625 57.5 6.84375 59.5469
Q4.79688 61.5938 4.79688 64.3906
Q4.79688 67.2031 6.79688 69.25
Q8.79688 71.2969 11.6875 71.2969
Q14.5938 71.2969 16.5938 69.25
Q18.5938 67.2031 18.5938 64.3906
Q18.5938 61.5938 14.5 57.5
M6.29688 0
L6.29688 50
L17.0938 50
L17.0938 0
z
" id="Gilroy-SemiBold-69"/>
      <path d="
M7 25.2031
L7 35.5938
L44 35.5938
L44 25.2031
z
" id="Gilroy-SemiBold-2d"/>
      <path d="
M60.9062 51.2969
Q69.4062 51.2969 74.5938 45.7969
Q79.7969 40.2969 79.7969 31
L79.7969 0
L69 0
L69 30.2969
Q69 35.5 66.3906 38.3438
Q63.7969 41.2031 59.2969 41.2031
Q54.2969 41.2031 51.3438 37.8906
Q48.4062 34.5938 48.4062 28
L48.4062 0
L37.5938 0
L37.5938 30.2969
Q37.5938 35.5 35.1406 38.3438
Q32.7031 41.2031 28.2031 41.2031
Q23.2969 41.2031 20.1875 37.8438
Q17.0938 34.5 17.0938 28
L17.0938 0
L6.29688 0
L6.29688 50
L17.0938 50
L17.0938 44
Q21.9062 51.2969 31.4062 51.2969
Q41 51.2969 45.5938 43.4062
Q50.5938 51.2969 60.9062 51.2969" id="Gilroy-SemiBold-6d"/>
     </defs>
     <g transform="translate(30.07875 157.426875)rotate(-90.0)scale(0.12 -0.12)">
      <use xlink:href="#Gilroy-SemiBold-50"/>
      <use x="58.9999847412" xlink:href="#Gilroy-SemiBold-72"/>
      <use x="93.1999816895" xlink:href="#Gilroy-SemiBold-65"/>
      <use x="151.399978638" xlink:href="#Gilroy-SemiBold-73"/>
      <use x="197.499969482" xlink:href="#Gilroy-SemiBold-73"/>
      <use x="243.599960327" xlink:href="#Gilroy-SemiBold-2d"/>
      <use x="294.599945068" xlink:href="#Gilroy-SemiBold-74"/>
      <use x="332.799942017" xlink:href="#Gilroy-SemiBold-6f"/>
      <use x="392.59992981" xlink:href="#Gilroy-SemiBold-2d"/>
      <use x="443.599914551" xlink:href="#Gilroy-SemiBold-50"/>
      <use x="502.599899292" xlink:href="#Gilroy-SemiBold-72"/>
      <use x="536.79989624" xlink:href="#Gilroy-SemiBold-65"/>
      <use x="594.999893188" xlink:href="#Gilroy-SemiBold-73"/>
      <use x="641.099884033" xlink:href="#Gilroy-SemiBold-73"/>
      <use x="687.199874878" xlink:href="#Gilroy-SemiBold-20"/>
      <use x="712.199859619" xlink:href="#Gilroy-SemiBold-74"/>
      <use x="750.399856567" xlink:href="#Gilroy-SemiBold-69"/>
      <use x="773.69984436" xlink:href="#Gilroy-SemiBold-6d"/>
      <use x="858.799835205" xlink:href="#Gilroy-SemiBold-65"/>
     </g>
    </g>
   </g>
   <g id="patch_4">
    <path d="
M63 21.6
L453.6 21.6" style="fill:none;stroke:#000000;"/>
   </g>
   <g id="patch_5">
    <path d="
M453.6 183.6
L453.6 21.6" style="fill:none;stroke:#000000;"/>
   </g>
   <g id="patch_6">
    <path d="
M63 183.6
L453.6 183.6" style="fill:none;stroke:#000000;"/>
   </g>
   <g id="patch_7">
    <path d="
M63 183.6
L63 21.6" style="fill:none;stroke:#000000;"/>
   </g>
   <g id="text_15">
    <!-- Press-to-Press time chart -->
    <defs>
     <path d="
M62.2031 51.4062
Q70.9062 51.4062 75.9531 45.8438
Q81 40.2969 81 30.5938
L81 0
L64.2969 0
L64.2969 28.7031
Q64.2969 35.7031 58.0938 35.7031
Q54.7031 35.7031 52.9531 33.4531
Q51.2031 31.2031 51.2031 27.2969
L51.2031 0
L34.5938 0
L34.5938 28.7031
Q34.5938 35.7031 28.2969 35.7031
Q24.9062 35.7031 23.1562 33.4531
Q21.4062 31.2031 21.4062 27.2969
L21.4062 0
L4.79688 0
L4.79688 50
L21.4062 50
L21.4062 45.2969
Q26 51.4062 34.9062 51.4062
Q43.5 51.4062 47.7031 45
Q52.9062 51.4062 62.2031 51.4062" id="Gilroy-Black-6d"/>
     <path d="
M29.0938 -1.40625
Q18 -1.40625 10.2031 6.25
Q2.40625 13.9062 2.40625 25
Q2.40625 36.0938 10.2031 43.75
Q18 51.4062 29.0938 51.4062
Q40.2969 51.4062 48.0469 43.75
Q55.7969 36.0938 55.7969 25
Q55.7969 13.9062 48.0469 6.25
Q40.2969 -1.40625 29.0938 -1.40625
M29.0938 14.5938
Q33.5 14.5938 36.3438 17.5
Q39.2031 20.4062 39.2031 25
Q39.2031 29.5938 36.3438 32.5
Q33.5 35.4062 29.0938 35.4062
Q24.7969 35.4062 21.9375 32.5
Q19.0938 29.5938 19.0938 25
Q19.0938 20.4062 21.9375 17.5
Q24.7969 14.5938 29.0938 14.5938" id="Gilroy-Black-6f"/>
     <path d="
M19.5938 18.9062
Q22.0938 12.7969 30.7969 12.7969
Q36.2031 12.7969 39.9062 16.2969
L51.9062 7.90625
Q44.5 -1.40625 30.4062 -1.40625
Q17.7031 -1.40625 10.0469 6.04688
Q2.40625 13.5 2.40625 24.9062
Q2.40625 36.2031 9.90625 43.7969
Q17.4062 51.4062 29 51.4062
Q40.2031 51.4062 47.5 43.9062
Q54.7969 36.4062 54.7969 25.0938
Q54.7969 21.7969 54.0938 18.9062
z

M19.4062 30.4062
L38.5938 30.4062
Q36.5938 37.4062 29.2031 37.4062
Q21.5 37.4062 19.4062 30.4062" id="Gilroy-Black-65"/>
     <path id="Gilroy-Black-20"/>
     <path d="
M35.2969 51.4062
Q43.4062 51.4062 48.5469 45.8438
Q53.7031 40.2969 53.7031 29.9062
L53.7031 0
L37.0938 0
L37.0938 27.7969
Q37.0938 31.7031 35.0469 33.7031
Q33 35.7031 29.5938 35.7031
Q25.7031 35.7031 23.5469 33.3438
Q21.4062 31 21.4062 26.5938
L21.4062 0
L4.79688 0
L4.79688 70
L21.4062 70
L21.4062 45
Q25.9062 51.4062 35.2969 51.4062" id="Gilroy-Black-68"/>
     <path d="
M32.7031 70
Q43.2969 70 50.5 63.0938
Q57.7031 56.2031 57.7031 45.5
Q57.7031 34.7969 50.5 27.8906
Q43.2969 21 32.7031 21
L23.4062 21
L23.4062 0
L5.5 0
L5.5 70
z

M32.7031 38
Q35.7031 38 37.75 40.0938
Q39.7969 42.2031 39.7969 45.5
Q39.7969 48.7969 37.75 50.8438
Q35.7031 52.9062 32.7031 52.9062
L23.4062 52.9062
L23.4062 38
z
" id="Gilroy-Black-50"/>
     <path d="
M35.7969 34.0938
L25.4062 34.0938
L25.4062 19.5938
Q25.4062 16.2969 27.7969 15.5
Q30.2031 14.7031 35.7969 15
L35.7969 0
Q20.9062 -1.79688 14.8438 2.75
Q8.79688 7.29688 8.79688 19.2031
L8.79688 34.0938
L1.29688 34.0938
L1.29688 50
L8.79688 50
L8.79688 59
L25.4062 64
L25.4062 50
L35.7969 50
z
" id="Gilroy-Black-74"/>
     <path d="
M20.7031 35.4062
Q20.7031 34 23.25 33.0938
Q25.7969 32.2031 29.4375 31.3906
Q33.0938 30.5938 36.75 29.1406
Q40.4062 27.7031 42.9531 24.2031
Q45.5 20.7031 45.5 15.4062
Q45.5 6.79688 39.0938 2.6875
Q32.7031 -1.40625 23.9062 -1.40625
Q7.09375 -1.40625 1.5 10.5
L16 17.7969
Q17.9062 12.2969 23.7969 12.2969
Q28.2969 12.2969 28.2969 15
Q28.2969 16.4062 25.7969 17.2969
Q23.2969 18.2031 19.6875 19.0938
Q16.0938 20 12.5 21.5
Q8.90625 23 6.40625 26.3438
Q3.90625 29.7031 3.90625 34.5938
Q3.90625 42.5938 9.79688 47
Q15.7031 51.4062 24 51.4062
Q38.7969 51.4062 44.5938 39.7969
L30.5938 33.5
Q28.4062 37.7969 24.4062 37.7969
Q20.7031 37.7969 20.7031 35.4062" id="Gilroy-Black-73"/>
     <path d="
M21.4062 40.7031
Q22.7969 45.5938 27 48.2969
Q31.2031 51 36.4062 51
L36.4062 32.5938
Q30.7031 33.5 26.0469 30.5
Q21.4062 27.5 21.4062 20.7031
L21.4062 0
L4.79688 0
L4.79688 50
L21.4062 50
z
" id="Gilroy-Black-72"/>
     <path d="
M29 -1.40625
Q17.5938 -1.40625 10 6.1875
Q2.40625 13.7969 2.40625 25
Q2.40625 36.2031 10 43.7969
Q17.5938 51.4062 29 51.4062
Q36.4062 51.4062 42.4531 47.9062
Q48.5 44.4062 51.7969 38.5
L37.5938 30.2969
Q34.9062 35.2031 28.9062 35.2031
Q24.7031 35.2031 21.8906 32.3438
Q19.0938 29.5 19.0938 25
Q19.0938 20.5 21.8906 17.6406
Q24.7031 14.7969 28.9062 14.7969
Q35.0938 14.7969 37.5938 19.7969
L51.7969 11.5938
Q48.5 5.59375 42.4531 2.09375
Q36.4062 -1.40625 29 -1.40625" id="Gilroy-Black-63"/>
     <path d="
M5.5 22.2031
L5.5 38
L44.5 38
L44.5 22.2031
z
" id="Gilroy-Black-2d"/>
     <path d="
M22.7031 59.7969
Q17 54.0938 13.0938 54.0938
Q9.20312 54.0938 6.34375 56.9375
Q3.5 59.7969 3.5 63.6875
Q3.5 67.5938 6.34375 70.3906
Q9.20312 73.2031 13.0938 73.2031
Q17 73.2031 19.8438 70.3906
Q22.7031 67.5938 22.7031 63.6875
Q22.7031 59.7969 17 54.0938
M4.79688 0
L4.79688 50
L21.4062 50
L21.4062 0
z
" id="Gilroy-Black-69"/>
     <path d="
M40.0938 50
L56.7031 50
L56.7031 0
L40.0938 0
L40.0938 4.59375
Q35 -1.40625 25.9062 -1.40625
Q15.9062 -1.40625 9.15625 6.14062
Q2.40625 13.7031 2.40625 25
Q2.40625 36.2969 9.15625 43.8438
Q15.9062 51.4062 25.9062 51.4062
Q35 51.4062 40.0938 45.4062
z

M19.0938 20.0938
Q24.9062 14.0938 29.5938 14.0938
Q34.2969 14.0938 37.1875 17.0938
Q40.0938 20.0938 40.0938 25
Q40.0938 29.9062 37.1875 32.9062
Q34.2969 35.9062 29.5938 35.9062
Q24.9062 35.9062 22 32.9062
Q19.0938 29.9062 19.0938 25
Q19.0938 20.0938 24.9062 14.0938" id="Gilroy-Black-61"/>
    </defs>
    <g transform="translate(186.5803125 10.12)scale(0.12 -0.12)">
     <use xlink:href="#Gilroy-Black-50"/>
     <use x="59.1999969482" xlink:href="#Gilroy-Black-72"/>
     <use x="97.0999908447" xlink:href="#Gilroy-Black-65"/>
     <use x="154.199981689" xlink:href="#Gilroy-Black-73"/>
     <use x="201.699966431" xlink:href="#Gilroy-Black-73"/>
     <use x="249.199951172" xlink:href="#Gilroy-Black-2d"/>
     <use x="299.199935913" xlink:href="#Gilroy-Black-74"/>
     <use x="338.59992981" xlink:href="#Gilroy-Black-6f"/>
     <use x="396.899917603" xlink:href="#Gilroy-Black-2d"/>
     <use x="446.899902344" xlink:href="#Gilroy-Black-50"/>
     <use x="506.099899292" xlink:href="#Gilroy-Black-72"/>
     <use x="543.999893188" xlink:href="#Gilroy-Black-65"/>
     <use x="601.099884033" xlink:href="#Gilroy-Black-73"/>
     <use x="648.599868774" xlink:href="#Gilroy-Black-73"/>
     <use x="696.099853516" xlink:href="#Gilroy-Black-20"/>
     <use x="718.799850464" xlink:href="#Gilroy-Black-74"/>
     <use x="758.19984436" xlink:href="#Gilroy-Black-69"/>
     <use x="784.399841309" xlink:href="#Gilroy-Black-6d"/>
     <use x="869.599822998" xlink:href="#Gilroy-Black-65"/>
     <use x="926.699813843" xlink:href="#Gilroy-Black-20"/>
     <use x="949.399810791" xlink:href="#Gilroy-Black-63"/>
     <use x="1002.19979858" xlink:href="#Gilroy-Black-68"/>
     <use x="1060.09979248" xlink:href="#Gilroy-Black-61"/>
     <use x="1121.59977722" xlink:href="#Gilroy-Black-72"/>
     <use x="1159.49977112" xlink:href="#Gilroy-Black-74"/>
    </g>
   </g>
   <g id="legend_1">
    <g id="patch_8">
     <path d="
M313.32 177.6
L447.6 177.6
L447.6 122.231
L313.32 122.231
L313.32 177.6
z
" style="fill:#ffffff;opacity:0.5;stroke:#000000;"/>
    </g>
    <g id="line2d_27">
     <path d="
M321.72 131.591
L338.52 131.591" style="fill:none;stroke:#7548fb;stroke-linecap:square;"/>
    </g>
    <g id="line2d_28">
     <g>
      <use style="fill:#7548fb;stroke:#000000;stroke-width:0.5;" x="321.72" xlink:href="#m98d2a13c80" y="131.59125"/>
      <use style="fill:#7548fb;stroke:#000000;stroke-width:0.5;" x="338.52" xlink:href="#m98d2a13c80" y="131.59125"/>
     </g>
    </g>
    <g id="text_16">
     <!-- Parameter value -->
     <defs>
      <path d="
M30.0938 51.2031
Q41.2031 51.2031 48.0469 43.3438
Q54.9062 35.5 54.9062 24.7969
Q54.9062 23.7031 54.7031 21.7031
L10.7969 21.7031
Q11.7969 14.0938 17.25 9.64062
Q22.7031 5.20312 30.7031 5.20312
Q36.4062 5.20312 40.5469 7.54688
Q44.7031 9.90625 46.7969 13.7031
L52.5938 10.2969
Q49.2969 5 43.5938 1.89062
Q37.9062 -1.20312 30.5938 -1.20312
Q18.7969 -1.20312 11.3906 6.1875
Q4 13.5938 4 25
Q4 36.2031 11.2969 43.7031
Q18.5938 51.2031 30.0938 51.2031
M30.0938 44.7969
Q22.2969 44.7969 17.0469 40.1406
Q11.7969 35.5 10.7969 28.0938
L48.0938 28.0938
Q47.0938 36 42 40.3906
Q36.9062 44.7969 30.0938 44.7969" id="Gilroy-Regular-65"/>
      <path d="
M43 50
L50 50
L29.5 0
L21.5 0
L1 50
L8 50
L25.5 6.90625
z
" id="Gilroy-Regular-76"/>
      <path d="
M33.5 43.5938
L19.0938 43.5938
L19.0938 13.2969
Q19.0938 9.20312 20.6875 7.45312
Q22.2969 5.70312 25.5 5.64062
Q28.7031 5.59375 33.5 5.79688
L33.5 0
Q23 -1.59375 17.75 1.5
Q12.5 4.59375 12.5 13.2969
L12.5 43.5938
L2 43.5938
L2 50
L12.5 50
L12.5 62
L19.0938 64
L19.0938 50
L33.5 50
z
" id="Gilroy-Regular-74"/>
      <path d="
M42.2031 50
L48.7969 50
L48.7969 0
L42.2031 0
L42.2031 7.79688
Q36.5938 -1.20312 25.4062 -1.20312
Q16.2969 -1.20312 11.0469 4.34375
Q5.79688 9.90625 5.79688 19.2969
L5.79688 50
L12.4062 50
L12.4062 19.2969
Q12.4062 12.5938 15.9531 8.89062
Q19.5 5.20312 26 5.20312
Q33.2031 5.20312 37.7031 9.75
Q42.2031 14.2969 42.2031 23.7969
z
" id="Gilroy-Regular-75"/>
      <path d="
M50 50
L56.5938 50
L56.5938 0
L50 0
L50 9.79688
Q43.0938 -1.20312 29.7969 -1.20312
Q19.0938 -1.20312 11.5469 6.39062
Q4 14 4 25
Q4 36 11.5469 43.5938
Q19.0938 51.2031 29.7969 51.2031
Q43.0938 51.2031 50 40.2031
z

M10.5938 16.7031
Q22 5.20312 30.2969 5.20312
Q38.5938 5.20312 44.2969 10.9531
Q50 16.7031 50 25
Q50 33.2969 44.2969 39.0469
Q38.5938 44.7969 30.2969 44.7969
Q22 44.7969 16.2969 39.0469
Q10.5938 33.2969 10.5938 25
Q10.5938 16.7031 22 5.20312" id="Gilroy-Regular-61"/>
      <path d="
M33 70
Q42.4062 70 48.7031 63.7031
Q55 57.4062 55 48
Q55 38.5938 48.7031 32.2969
Q42.4062 26 33 26
L15 26
L15 0
L8 0
L8 70
z

M33 32.5938
Q39.5 32.5938 43.75 36.9375
Q48 41.2969 48 48
Q48 54.7031 43.75 59.0469
Q39.5 63.4062 33 63.4062
L15 63.4062
L15 32.5938
z
" id="Gilroy-Regular-50"/>
      <path d="
M60.2969 51.2031
Q68.7031 51.2031 73.8438 45.7969
Q79 40.4062 79 31.2031
L79 0
L72.4062 0
L72.4062 31.2031
Q72.4062 37.7031 69.0469 41.25
Q65.7031 44.7969 60.2031 44.7969
Q54 44.7969 50.1406 40.6406
Q46.2969 36.5 46.2969 27.7031
L46.2969 0
L39.7031 0
L39.7031 31.2031
Q39.7031 37.7969 36.5469 41.2969
Q33.4062 44.7969 28 44.7969
Q22 44.7969 17.7969 40.5938
Q13.5938 36.4062 13.5938 27.7031
L13.5938 0
L7 0
L7 50
L13.5938 50
L13.5938 42.7031
Q19 51.2031 28.9062 51.2031
Q39.7031 51.2031 44.0938 42.0938
Q49.5 51.2031 60.2969 51.2031" id="Gilroy-Regular-6d"/>
      <path d="
M7 0
L7 73
L13.5938 73
L13.5938 0
z
" id="Gilroy-Regular-6c"/>
      <path id="Gilroy-Regular-20"/>
      <path d="
M13.5938 41.7031
Q18.2031 50.7969 29.4062 50.7969
L29.4062 44.4062
Q22.5938 44.4062 18.0938 40.4062
Q13.5938 36.4062 13.5938 27.7969
L13.5938 0
L7 0
L7 50
L13.5938 50
z
" id="Gilroy-Regular-72"/>
     </defs>
     <g transform="translate(351.72 135.79125)scale(0.12 -0.12)">
      <use xlink:href="#Gilroy-Regular-50"/>
      <use x="58.9999847412" xlink:href="#Gilroy-Regular-61"/>
      <use x="122.599975586" xlink:href="#Gilroy-Regular-72"/>
      <use x="153.999969482" xlink:href="#Gilroy-Regular-61"/>
      <use x="217.599960327" xlink:href="#Gilroy-Regular-6d"/>
      <use x="302.39994812" xlink:href="#Gilroy-Regular-65"/>
      <use x="360.799942017" xlink:href="#Gilroy-Regular-74"/>
      <use x="398.299926758" xlink:href="#Gilroy-Regular-65"/>
      <use x="456.699920654" xlink:href="#Gilroy-Regular-72"/>
      <use x="488.099914551" xlink:href="#Gilroy-Regular-20"/>
      <use x="513.099899292" xlink:href="#Gilroy-Regular-76"/>
      <use x="564.099884033" xlink:href="#Gilroy-Regular-61"/>
      <use x="627.699874878" xlink:href="#Gilroy-Regular-6c"/>
      <use x="648.299865723" xlink:href="#Gilroy-Regular-75"/>
      <use x="704.099853516" xlink:href="#Gilroy-Regular-65"/>
     </g>
    </g>
    <g id="line2d_29">
     <path d="
M321.72 148.751
L338.52 148.751" style="fill:none;stroke:#7548fb;stroke-linecap:square;stroke-width:2;"/>
    </g>
    <g id="line2d_30"/>
    <g id="text_17">
     <!-- Average -->
     <defs>
      <path d="
M54.5938 0
L48.0938 17.2031
L14.9062 17.2031
L8.40625 0
L1 0
L27.9062 70
L35.0938 70
L62 0
z

M17.4062 23.7969
L45.5938 23.7969
L31.5 61.2969
z
" id="Gilroy-Regular-41"/>
      <path d="
M50 50
L56.5938 50
L56.5938 2
Q56.5938 -8.79688 49.1875 -15
Q41.7969 -21.2031 31.5 -21.2031
Q13.9062 -21.2031 7.79688 -9
L13.5938 -5.70312
Q18.0938 -14.7969 31.5 -14.7969
Q40.0938 -14.7969 45.0469 -10.25
Q50 -5.70312 50 2
L50 9.79688
Q43.0938 -1.20312 29.7969 -1.20312
Q19.0938 -1.20312 11.5469 6.39062
Q4 14 4 25
Q4 36 11.5469 43.5938
Q19.0938 51.2031 29.7969 51.2031
Q43.0938 51.2031 50 40.2031
z

M10.5938 16.7031
Q22 5.20312 30.2969 5.20312
Q38.5938 5.20312 44.2969 10.9531
Q50 16.7031 50 25
Q50 33.2969 44.2969 39.0469
Q38.5938 44.7969 30.2969 44.7969
Q22 44.7969 16.2969 39.0469
Q10.5938 33.2969 10.5938 25
Q10.5938 16.7031 22 5.20312" id="Gilroy-Regular-67"/>
     </defs>
     <g transform="translate(351.72 152.95125)scale(0.12 -0.12)">
      <use xlink:href="#Gilroy-Regular-41"/>
      <use x="62.9999847412" xlink:href="#Gilroy-Regular-76"/>
      <use x="113.999969482" xlink:href="#Gilroy-Regular-65"/>
      <use x="172.399963379" xlink:href="#Gilroy-Regular-72"/>
      <use x="203.799957275" xlink:href="#Gilroy-Regular-61"/>
      <use x="267.39994812" xlink:href="#Gilroy-Regular-67"/>
      <use x="330.999938965" xlink:href="#Gilroy-Regular-65"/>
     </g>
    </g>
    <g id="patch_9">
     <path d="
M318.12 170.256
L342.12 170.256
L342.12 161.856
L318.12 161.856
z
" style="fill:url(#hf78fc4a0a7);opacity:0.5;stroke:#ff0000;"/>
    </g>
    <g id="text_18">
     <!-- Deviation range -->
     <defs>
      <path d="
M30.4062 51.2031
Q39.5 51.2031 44.75 45.6406
Q50 40.0938 50 30.7031
L50 0
L43.4062 0
L43.4062 30.7031
Q43.4062 37.4062 39.8438 41.0938
Q36.2969 44.7969 29.7969 44.7969
Q22.5938 44.7969 18.0938 40.25
Q13.5938 35.7031 13.5938 26.2031
L13.5938 0
L7 0
L7 50
L13.5938 50
L13.5938 42.2031
Q19.2031 51.2031 30.4062 51.2031" id="Gilroy-Regular-6e"/>
      <path d="
M56.5938 13.9062
Q41.2969 -1.20312 30.2969 -1.20312
Q19.2969 -1.20312 11.6406 6.34375
Q4 13.9062 4 25
Q4 36.0938 11.6406 43.6406
Q19.2969 51.2031 30.2969 51.2031
Q41.2969 51.2031 48.9375 43.6406
Q56.5938 36.0938 56.5938 25
Q56.5938 13.9062 41.2969 -1.20312
M10.5938 16.7031
Q22 5.20312 30.2969 5.20312
Q38.5938 5.20312 44.2969 10.9531
Q50 16.7031 50 25
Q50 33.2969 44.2969 39.0469
Q38.5938 44.7969 30.2969 44.7969
Q22 44.7969 16.2969 39.0469
Q10.5938 33.2969 10.5938 25
Q10.5938 16.7031 22 5.20312" id="Gilroy-Regular-6f"/>
      <path d="
M15.0938 63.4062
Q12.2969 60.5938 10.2969 60.5938
Q8.29688 60.5938 6.89062 62
Q5.5 63.4062 5.5 65.4062
Q5.5 67.4062 6.89062 68.7969
Q8.29688 70.2031 10.2969 70.2031
Q12.2969 70.2031 13.6875 68.7969
Q15.0938 67.4062 15.0938 65.4062
Q15.0938 63.4062 12.2969 60.5938
M7 0
L7 50
L13.5938 50
L13.5938 0
z
" id="Gilroy-Regular-69"/>
      <path d="
M35 70
Q49.2969 70 58.6406 59.8438
Q68 49.7031 68 35
Q68 20.2969 58.6406 10.1406
Q49.2969 0 35 0
L8 0
L8 70
z

M35 6.59375
Q46.5 6.59375 53.8438 14.7969
Q61.2031 23 61.2031 35
Q61.2031 47 53.8438 55.2031
Q46.5 63.4062 35 63.4062
L15 63.4062
L15 6.59375
z
" id="Gilroy-Regular-44"/>
     </defs>
     <g transform="translate(351.72 170.255625)scale(0.12 -0.12)">
      <use xlink:href="#Gilroy-Regular-44"/>
      <use x="71.9999847412" xlink:href="#Gilroy-Regular-65"/>
      <use x="130.399978638" xlink:href="#Gilroy-Regular-76"/>
      <use x="181.399963379" xlink:href="#Gilroy-Regular-69"/>
      <use x="201.999954224" xlink:href="#Gilroy-Regular-61"/>
      <use x="265.599945068" xlink:href="#Gilroy-Regular-74"/>
      <use x="303.09992981" xlink:href="#Gilroy-Regular-69"/>
      <use x="323.699920654" xlink:href="#Gilroy-Regular-6f"/>
      <use x="384.299911499" xlink:href="#Gilroy-Regular-6e"/>
      <use x="440.099899292" xlink:href="#Gilroy-Regular-20"/>
      <use x="465.099884033" xlink:href="#Gilroy-Regular-72"/>
      <use x="496.49987793" xlink:href="#Gilroy-Regular-61"/>
      <use x="560.099868774" xlink:href="#Gilroy-Regular-6e"/>
      <use x="615.899856567" xlink:href="#Gilroy-Regular-67"/>
      <use x="679.499847412" xlink:href="#Gilroy-Regular-65"/>
     </g>
    </g>
   </g>
  </g>
 </g>
 <defs>
  <clipPath id="p8dcc4a8cc7">
   <rect height="162.0" width="390.6" x="63.0" y="21.6"/>
  </clipPath>
 </defs>
 <defs>
  <pattern height="72" id="hf78fc4a0a7" patternUnits="userSpaceOnUse" width="72" x="0" y="0">
   <rect fill="#fb7548" height="73" width="73" x="0" y="0"/>
   <path d="
M-36 36
L36 108
M-30 30
L42 102
M-24 24
L48 96
M-18 18
L54 90
M-12 12
L60 84
M-6 6
L66 78
M0 0
L72 72
M6 -6
L78 66
M12 -12
L84 60
M18 -18
L90 54
M24 -24
L96 48
M30 -30
L102 42
M36 -36
L108 36" style="fill:#ff0000;stroke:#ff0000;stroke-linecap:butt;stroke-linejoin:miter;stroke-width:1.0;"/>
  </pattern>
 </defs>
</svg>
