<?xml version="1.0" encoding="utf-8" standalone="no"?>
<!DOCTYPE svg PUBLIC "-//W3C//DTD SVG 1.1//EN"
  "http://www.w3.org/Graphics/SVG/1.1/DTD/svg11.dtd">
<!-- Created with matplotlib (http://matplotlib.org/) -->
<svg height="288pt" version="1.1" viewBox="0 0 504 288" width="504pt" xmlns="http://www.w3.org/2000/svg" xmlns:xlink="http://www.w3.org/1999/xlink">
 <defs>
  <style type="text/css">
*{stroke-linecap:butt;stroke-linejoin:round;}
  </style>
 </defs>
 <g id="figure_1">
  <g id="patch_1">
   <path d="
M0 288
L504 288
L504 0
L0 0
z
" style="fill:#ffffff;"/>
  </g>
  <g id="axes_1">
   <g id="patch_2">
    <path d="
M63 244.8
L453.6 244.8
L453.6 28.8
L63 28.8
z
" style="fill:#ffffff;"/>
   </g>
   <g id="LineCollection_1">
    <defs>
     <path d="
M95.55 -241.2
L95.55 -61.2" id="C0_0_a3ee70771e"/>
     <path d="
M95.55 -61.2
L100.725 -61.2" id="C0_1_f61e9f56d5"/>
     <path d="
M100.725 -61.2
L100.725 -241.2" id="C0_2_24c0e02e6b"/>
     <path d="
M100.725 -241.2
L135.568 -241.2" id="C0_3_e8a8b331a1"/>
     <path d="
M135.568 -241.2
L135.568 -61.2" id="C0_4_3e2d5034bc"/>
     <path d="
M135.568 -61.2
L139.841 -61.2" id="C0_5_a965a7d721"/>
     <path d="
M139.841 -61.2
L139.841 -241.2" id="C0_6_fd9249f342"/>
     <path d="
M139.841 -241.2
L173.841 -241.2" id="C0_7_c9eac3c0af"/>
     <path d="
M173.841 -241.2
L173.841 -61.2" id="C0_8_aa3beaf674"/>
     <path d="
M173.841 -61.2
L177.151 -61.2" id="C0_9_c2663fdd65"/>
     <path d="
M177.151 -61.2
L177.151 -241.2" id="C0_a_635946a8c6"/>
     <path d="
M177.151 -241.2
L216.507 -241.2" id="C0_b_c6cff81bf9"/>
     <path d="
M216.507 -241.2
L216.507 -61.2" id="C0_c_8a171d934d"/>
     <path d="
M216.507 -61.2
L222.404 -61.2" id="C0_d_fba100df16"/>
     <path d="
M222.404 -61.2
L222.404 -241.2" id="C0_e_e906906c0d"/>
     <path d="
M222.404 -241.2
L246.896 -241.2" id="C0_f_c56ac52f95"/>
     <path d="
M246.896 -241.2
L246.896 -61.2" id="C0_10_eab18204ff"/>
     <path d="
M246.896 -61.2
L252.373 -61.2" id="C0_11_708d4925a2"/>
     <path d="
M252.373 -61.2
L252.373 -241.2" id="C0_12_7f42551f5f"/>
     <path d="
M252.373 -241.2
L277.467 -241.2" id="C0_13_77e776ef81"/>
     <path d="
M277.467 -241.2
L277.467 -61.2" id="C0_14_6866f9a94e"/>
     <path d="
M277.467 -61.2
L282.281 -61.2" id="C0_15_29b20d6ba8"/>
     <path d="
M282.281 -61.2
L282.281 -241.2" id="C0_16_ad7e3c383f"/>
     <path d="
M282.281 -241.2
L337.042 -241.2" id="C0_17_074ee35c0a"/>
     <path d="
M337.042 -241.2
L337.042 -61.2" id="C0_18_01a1fad10f"/>
     <path d="
M337.042 -61.2
L343.241 -61.2" id="C0_19_a616bb5b5b"/>
     <path d="
M343.241 -61.2
L343.241 -241.2" id="C0_1a_7caa91cffd"/>
     <path d="
M343.241 -241.2
L372.727 -241.2" id="C0_1b_9b9e227fd0"/>
     <path d="
M372.727 -241.2
L372.727 -61.2" id="C0_1c_f6608fbd27"/>
     <path d="
M372.727 -61.2
L377.963 -61.2" id="C0_1d_79916ebfb4"/>
     <path d="
M377.963 -61.2
L377.963 -241.2" id="C0_1e_ef773c35ec"/>
     <path d="
M377.963 -241.2
L421.05 -241.2" id="C0_1f_516eace046"/>
     <path d="
M421.05 -241.2
L421.05 -61.2" id="C0_20_f1aed4ba62"/>
    </defs>
    <g clip-path="url(#p32204b1505)">
     <use style="fill:none;stroke:#0000ff;" x="0.0" xlink:href="#C0_0_a3ee70771e" y="288.0"/>
    </g>
    <g clip-path="url(#p32204b1505)">
     <use style="fill:none;stroke:#ff0000;" x="0.0" xlink:href="#C0_1_f61e9f56d5" y="288.0"/>
    </g>
    <g clip-path="url(#p32204b1505)">
     <use style="fill:none;stroke:#0000ff;" x="0.0" xlink:href="#C0_2_24c0e02e6b" y="288.0"/>
    </g>
    <g clip-path="url(#p32204b1505)">
     <use style="fill:none;stroke:#00ff00;" x="0.0" xlink:href="#C0_3_e8a8b331a1" y="288.0"/>
    </g>
    <g clip-path="url(#p32204b1505)">
     <use style="fill:none;stroke:#0000ff;" x="0.0" xlink:href="#C0_4_3e2d5034bc" y="288.0"/>
    </g>
    <g clip-path="url(#p32204b1505)">
     <use style="fill:none;stroke:#ff0000;" x="0.0" xlink:href="#C0_5_a965a7d721" y="288.0"/>
    </g>
    <g clip-path="url(#p32204b1505)">
     <use style="fill:none;stroke:#0000ff;" x="0.0" xlink:href="#C0_6_fd9249f342" y="288.0"/>
    </g>
    <g clip-path="url(#p32204b1505)">
     <use style="fill:none;stroke:#00ff00;" x="0.0" xlink:href="#C0_7_c9eac3c0af" y="288.0"/>
    </g>
    <g clip-path="url(#p32204b1505)">
     <use style="fill:none;stroke:#0000ff;" x="0.0" xlink:href="#C0_8_aa3beaf674" y="288.0"/>
    </g>
    <g clip-path="url(#p32204b1505)">
     <use style="fill:none;stroke:#ff0000;" x="0.0" xlink:href="#C0_9_c2663fdd65" y="288.0"/>
    </g>
    <g clip-path="url(#p32204b1505)">
     <use style="fill:none;stroke:#0000ff;" x="0.0" xlink:href="#C0_a_635946a8c6" y="288.0"/>
    </g>
    <g clip-path="url(#p32204b1505)">
     <use style="fill:none;stroke:#00ff00;" x="0.0" xlink:href="#C0_b_c6cff81bf9" y="288.0"/>
    </g>
    <g clip-path="url(#p32204b1505)">
     <use style="fill:none;stroke:#0000ff;" x="0.0" xlink:href="#C0_c_8a171d934d" y="288.0"/>
    </g>
    <g clip-path="url(#p32204b1505)">
     <use style="fill:none;stroke:#ff0000;" x="0.0" xlink:href="#C0_d_fba100df16" y="288.0"/>
    </g>
    <g clip-path="url(#p32204b1505)">
     <use style="fill:none;stroke:#0000ff;" x="0.0" xlink:href="#C0_e_e906906c0d" y="288.0"/>
    </g>
    <g clip-path="url(#p32204b1505)">
     <use style="fill:none;stroke:#00ff00;" x="0.0" xlink:href="#C0_f_c56ac52f95" y="288.0"/>
    </g>
    <g clip-path="url(#p32204b1505)">
     <use style="fill:none;stroke:#0000ff;" x="0.0" xlink:href="#C0_10_eab18204ff" y="288.0"/>
    </g>
    <g clip-path="url(#p32204b1505)">
     <use style="fill:none;stroke:#ff0000;" x="0.0" xlink:href="#C0_11_708d4925a2" y="288.0"/>
    </g>
    <g clip-path="url(#p32204b1505)">
     <use style="fill:none;stroke:#0000ff;" x="0.0" xlink:href="#C0_12_7f42551f5f" y="288.0"/>
    </g>
    <g clip-path="url(#p32204b1505)">
     <use style="fill:none;stroke:#00ff00;" x="0.0" xlink:href="#C0_13_77e776ef81" y="288.0"/>
    </g>
    <g clip-path="url(#p32204b1505)">
     <use style="fill:none;stroke:#0000ff;" x="0.0" xlink:href="#C0_14_6866f9a94e" y="288.0"/>
    </g>
    <g clip-path="url(#p32204b1505)">
     <use style="fill:none;stroke:#ff0000;" x="0.0" xlink:href="#C0_15_29b20d6ba8" y="288.0"/>
    </g>
    <g clip-path="url(#p32204b1505)">
     <use style="fill:none;stroke:#0000ff;" x="0.0" xlink:href="#C0_16_ad7e3c383f" y="288.0"/>
    </g>
    <g clip-path="url(#p32204b1505)">
     <use style="fill:none;stroke:#00ff00;" x="0.0" xlink:href="#C0_17_074ee35c0a" y="288.0"/>
    </g>
    <g clip-path="url(#p32204b1505)">
     <use style="fill:none;stroke:#0000ff;" x="0.0" xlink:href="#C0_18_01a1fad10f" y="288.0"/>
    </g>
    <g clip-path="url(#p32204b1505)">
     <use style="fill:none;stroke:#ff0000;" x="0.0" xlink:href="#C0_19_a616bb5b5b" y="288.0"/>
    </g>
    <g clip-path="url(#p32204b1505)">
     <use style="fill:none;stroke:#0000ff;" x="0.0" xlink:href="#C0_1a_7caa91cffd" y="288.0"/>
    </g>
    <g clip-path="url(#p32204b1505)">
     <use style="fill:none;stroke:#00ff00;" x="0.0" xlink:href="#C0_1b_9b9e227fd0" y="288.0"/>
    </g>
    <g clip-path="url(#p32204b1505)">
     <use style="fill:none;stroke:#0000ff;" x="0.0" xlink:href="#C0_1c_f6608fbd27" y="288.0"/>
    </g>
    <g clip-path="url(#p32204b1505)">
     <use style="fill:none;stroke:#ff0000;" x="0.0" xlink:href="#C0_1d_79916ebfb4" y="288.0"/>
    </g>
    <g clip-path="url(#p32204b1505)">
     <use style="fill:none;stroke:#0000ff;" x="0.0" xlink:href="#C0_1e_ef773c35ec" y="288.0"/>
    </g>
    <g clip-path="url(#p32204b1505)">
     <use style="fill:none;stroke:#00ff00;" x="0.0" xlink:href="#C0_1f_516eace046" y="288.0"/>
    </g>
    <g clip-path="url(#p32204b1505)">
     <use style="fill:none;stroke:#0000ff;" x="0.0" xlink:href="#C0_20_f1aed4ba62" y="288.0"/>
    </g>
   </g>
   <g id="matplotlib.axis_1">
    <g id="xtick_1">
     <g id="line2d_1">
      <defs>
       <path d="
M0 0
L0 -4" id="m93b0483c22" style="stroke:#000000;stroke-width:0.5;"/>
      </defs>
      <g>
       <use style="stroke:#000000;stroke-width:0.5;" x="73.7657470703" xlink:href="#m93b0483c22" y="244.8"/>
      </g>
     </g>
     <g id="line2d_2">
      <defs>
       <path d="
M0 0
L0 4" id="m741efc42ff" style="stroke:#000000;stroke-width:0.5;"/>
      </defs>
      <g>
       <use style="stroke:#000000;stroke-width:0.5;" x="73.7657470703" xlink:href="#m741efc42ff" y="28.8"/>
      </g>
     </g>
     <g id="text_1">
      <!-- 1 second -->
      <defs>
       <path id="BitstreamVeraSans-Roman-20"/>
       <path d="
M12.4062 8.29688
L28.5156 8.29688
L28.5156 63.9219
L10.9844 60.4062
L10.9844 69.3906
L28.4219 72.9062
L38.2812 72.9062
L38.2812 8.29688
L54.3906 8.29688
L54.3906 0
L12.4062 0
z
" id="BitstreamVeraSans-Roman-31"/>
       <path d="
M54.8906 33.0156
L54.8906 0
L45.9062 0
L45.9062 32.7188
Q45.9062 40.4844 42.875 44.3281
Q39.8438 48.1875 33.7969 48.1875
Q26.5156 48.1875 22.3125 43.5469
Q18.1094 38.9219 18.1094 30.9062
L18.1094 0
L9.07812 0
L9.07812 54.6875
L18.1094 54.6875
L18.1094 46.1875
Q21.3438 51.125 25.7031 53.5625
Q30.0781 56 35.7969 56
Q45.2188 56 50.0469 50.1719
Q54.8906 44.3438 54.8906 33.0156" id="BitstreamVeraSans-Roman-6e"/>
       <path d="
M30.6094 48.3906
Q23.3906 48.3906 19.1875 42.75
Q14.9844 37.1094 14.9844 27.2969
Q14.9844 17.4844 19.1562 11.8438
Q23.3438 6.20312 30.6094 6.20312
Q37.7969 6.20312 41.9844 11.8594
Q46.1875 17.5312 46.1875 27.2969
Q46.1875 37.0156 41.9844 42.7031
Q37.7969 48.3906 30.6094 48.3906
M30.6094 56
Q42.3281 56 49.0156 48.375
Q55.7188 40.7656 55.7188 27.2969
Q55.7188 13.875 49.0156 6.21875
Q42.3281 -1.42188 30.6094 -1.42188
Q18.8438 -1.42188 12.1719 6.21875
Q5.51562 13.875 5.51562 27.2969
Q5.51562 40.7656 12.1719 48.375
Q18.8438 56 30.6094 56" id="BitstreamVeraSans-Roman-6f"/>
       <path d="
M56.2031 29.5938
L56.2031 25.2031
L14.8906 25.2031
Q15.4844 15.9219 20.4844 11.0625
Q25.4844 6.20312 34.4219 6.20312
Q39.5938 6.20312 44.4531 7.46875
Q49.3125 8.73438 54.1094 11.2812
L54.1094 2.78125
Q49.2656 0.734375 44.1875 -0.34375
Q39.1094 -1.42188 33.8906 -1.42188
Q20.7969 -1.42188 13.1562 6.1875
Q5.51562 13.8125 5.51562 26.8125
Q5.51562 40.2344 12.7656 48.1094
Q20.0156 56 32.3281 56
Q43.3594 56 49.7812 48.8906
Q56.2031 41.7969 56.2031 29.5938
M47.2188 32.2344
Q47.125 39.5938 43.0938 43.9844
Q39.0625 48.3906 32.4219 48.3906
Q24.9062 48.3906 20.3906 44.1406
Q15.875 39.8906 15.1875 32.1719
z
" id="BitstreamVeraSans-Roman-65"/>
       <path d="
M45.4062 46.3906
L45.4062 75.9844
L54.3906 75.9844
L54.3906 0
L45.4062 0
L45.4062 8.20312
Q42.5781 3.32812 38.25 0.953125
Q33.9375 -1.42188 27.875 -1.42188
Q17.9688 -1.42188 11.7344 6.48438
Q5.51562 14.4062 5.51562 27.2969
Q5.51562 40.1875 11.7344 48.0938
Q17.9688 56 27.875 56
Q33.9375 56 38.25 53.625
Q42.5781 51.2656 45.4062 46.3906
M14.7969 27.2969
Q14.7969 17.3906 18.875 11.75
Q22.9531 6.10938 30.0781 6.10938
Q37.2031 6.10938 41.2969 11.75
Q45.4062 17.3906 45.4062 27.2969
Q45.4062 37.2031 41.2969 42.8438
Q37.2031 48.4844 30.0781 48.4844
Q22.9531 48.4844 18.875 42.8438
Q14.7969 37.2031 14.7969 27.2969" id="BitstreamVeraSans-Roman-64"/>
       <path d="
M44.2812 53.0781
L44.2812 44.5781
Q40.4844 46.5312 36.375 47.5
Q32.2812 48.4844 27.875 48.4844
Q21.1875 48.4844 17.8438 46.4375
Q14.5 44.3906 14.5 40.2812
Q14.5 37.1562 16.8906 35.375
Q19.2812 33.5938 26.5156 31.9844
L29.5938 31.2969
Q39.1562 29.25 43.1875 25.5156
Q47.2188 21.7812 47.2188 15.0938
Q47.2188 7.46875 41.1875 3.01562
Q35.1562 -1.42188 24.6094 -1.42188
Q20.2188 -1.42188 15.4531 -0.5625
Q10.6875 0.296875 5.42188 2
L5.42188 11.2812
Q10.4062 8.6875 15.2344 7.39062
Q20.0625 6.10938 24.8125 6.10938
Q31.1562 6.10938 34.5625 8.28125
Q37.9844 10.4531 37.9844 14.4062
Q37.9844 18.0625 35.5156 20.0156
Q33.0625 21.9688 24.7031 23.7812
L21.5781 24.5156
Q13.2344 26.2656 9.51562 29.9062
Q5.8125 33.5469 5.8125 39.8906
Q5.8125 47.6094 11.2812 51.7969
Q16.75 56 26.8125 56
Q31.7812 56 36.1719 55.2656
Q40.5781 54.5469 44.2812 53.0781" id="BitstreamVeraSans-Roman-73"/>
       <path d="
M48.7812 52.5938
L48.7812 44.1875
Q44.9688 46.2969 41.1406 47.3438
Q37.3125 48.3906 33.4062 48.3906
Q24.6562 48.3906 19.8125 42.8438
Q14.9844 37.3125 14.9844 27.2969
Q14.9844 17.2812 19.8125 11.7344
Q24.6562 6.20312 33.4062 6.20312
Q37.3125 6.20312 41.1406 7.25
Q44.9688 8.29688 48.7812 10.4062
L48.7812 2.09375
Q45.0156 0.34375 40.9844 -0.53125
Q36.9688 -1.42188 32.4219 -1.42188
Q20.0625 -1.42188 12.7812 6.34375
Q5.51562 14.1094 5.51562 27.2969
Q5.51562 40.6719 12.8594 48.3281
Q20.2188 56 33.0156 56
Q37.1562 56 41.1094 55.1406
Q45.0625 54.2969 48.7812 52.5938" id="BitstreamVeraSans-Roman-63"/>
      </defs>
      <g transform="translate(56.0469970703 254.87875)scale(0.08 -0.08)">
       <use xlink:href="#BitstreamVeraSans-Roman-31"/>
       <use x="63.623046875" xlink:href="#BitstreamVeraSans-Roman-20"/>
       <use x="95.41015625" xlink:href="#BitstreamVeraSans-Roman-73"/>
       <use x="147.509765625" xlink:href="#BitstreamVeraSans-Roman-65"/>
       <use x="209.033203125" xlink:href="#BitstreamVeraSans-Roman-63"/>
       <use x="264.013671875" xlink:href="#BitstreamVeraSans-Roman-6f"/>
       <use x="325.1953125" xlink:href="#BitstreamVeraSans-Roman-6e"/>
       <use x="388.57421875" xlink:href="#BitstreamVeraSans-Roman-64"/>
      </g>
     </g>
    </g>
    <g id="xtick_2">
     <g id="line2d_3">
      <g>
       <use style="stroke:#000000;stroke-width:0.5;" x="133.943237305" xlink:href="#m93b0483c22" y="244.8"/>
      </g>
     </g>
     <g id="line2d_4">
      <g>
       <use style="stroke:#000000;stroke-width:0.5;" x="133.943237305" xlink:href="#m741efc42ff" y="28.8"/>
      </g>
     </g>
     <g id="text_2">
      <!-- 2 second -->
      <defs>
       <path d="
M19.1875 8.29688
L53.6094 8.29688
L53.6094 0
L7.32812 0
L7.32812 8.29688
Q12.9375 14.1094 22.625 23.8906
Q32.3281 33.6875 34.8125 36.5312
Q39.5469 41.8438 41.4219 45.5312
Q43.3125 49.2188 43.3125 52.7812
Q43.3125 58.5938 39.2344 62.25
Q35.1562 65.9219 28.6094 65.9219
Q23.9688 65.9219 18.8125 64.3125
Q13.6719 62.7031 7.8125 59.4219
L7.8125 69.3906
Q13.7656 71.7812 18.9375 73
Q24.125 74.2188 28.4219 74.2188
Q39.75 74.2188 46.4844 68.5469
Q53.2188 62.8906 53.2188 53.4219
Q53.2188 48.9219 51.5312 44.8906
Q49.8594 40.875 45.4062 35.4062
Q44.1875 33.9844 37.6406 27.2188
Q31.1094 20.4531 19.1875 8.29688" id="BitstreamVeraSans-Roman-32"/>
      </defs>
      <g transform="translate(116.224487305 254.87875)scale(0.08 -0.08)">
       <use xlink:href="#BitstreamVeraSans-Roman-32"/>
       <use x="63.623046875" xlink:href="#BitstreamVeraSans-Roman-20"/>
       <use x="95.41015625" xlink:href="#BitstreamVeraSans-Roman-73"/>
       <use x="147.509765625" xlink:href="#BitstreamVeraSans-Roman-65"/>
       <use x="209.033203125" xlink:href="#BitstreamVeraSans-Roman-63"/>
       <use x="264.013671875" xlink:href="#BitstreamVeraSans-Roman-6f"/>
       <use x="325.1953125" xlink:href="#BitstreamVeraSans-Roman-6e"/>
       <use x="388.57421875" xlink:href="#BitstreamVeraSans-Roman-64"/>
      </g>
     </g>
    </g>
    <g id="xtick_3">
     <g id="line2d_5">
      <g>
       <use style="stroke:#000000;stroke-width:0.5;" x="194.12071228" xlink:href="#m93b0483c22" y="244.8"/>
      </g>
     </g>
     <g id="line2d_6">
      <g>
       <use style="stroke:#000000;stroke-width:0.5;" x="194.12071228" xlink:href="#m741efc42ff" y="28.8"/>
      </g>
     </g>
     <g id="text_3">
      <!-- 3 second -->
      <defs>
       <path d="
M40.5781 39.3125
Q47.6562 37.7969 51.625 33
Q55.6094 28.2188 55.6094 21.1875
Q55.6094 10.4062 48.1875 4.48438
Q40.7656 -1.42188 27.0938 -1.42188
Q22.5156 -1.42188 17.6562 -0.515625
Q12.7969 0.390625 7.625 2.20312
L7.625 11.7188
Q11.7188 9.32812 16.5938 8.10938
Q21.4844 6.89062 26.8125 6.89062
Q36.0781 6.89062 40.9375 10.5469
Q45.7969 14.2031 45.7969 21.1875
Q45.7969 27.6406 41.2812 31.2656
Q36.7656 34.9062 28.7188 34.9062
L20.2188 34.9062
L20.2188 43.0156
L29.1094 43.0156
Q36.375 43.0156 40.2344 45.9219
Q44.0938 48.8281 44.0938 54.2969
Q44.0938 59.9062 40.1094 62.9062
Q36.1406 65.9219 28.7188 65.9219
Q24.6562 65.9219 20.0156 65.0312
Q15.375 64.1562 9.8125 62.3125
L9.8125 71.0938
Q15.4375 72.6562 20.3438 73.4375
Q25.25 74.2188 29.5938 74.2188
Q40.8281 74.2188 47.3594 69.1094
Q53.9062 64.0156 53.9062 55.3281
Q53.9062 49.2656 50.4375 45.0938
Q46.9688 40.9219 40.5781 39.3125" id="BitstreamVeraSans-Roman-33"/>
      </defs>
      <g transform="translate(176.40196228 254.87875)scale(0.08 -0.08)">
       <use xlink:href="#BitstreamVeraSans-Roman-33"/>
       <use x="63.623046875" xlink:href="#BitstreamVeraSans-Roman-20"/>
       <use x="95.41015625" xlink:href="#BitstreamVeraSans-Roman-73"/>
       <use x="147.509765625" xlink:href="#BitstreamVeraSans-Roman-65"/>
       <use x="209.033203125" xlink:href="#BitstreamVeraSans-Roman-63"/>
       <use x="264.013671875" xlink:href="#BitstreamVeraSans-Roman-6f"/>
       <use x="325.1953125" xlink:href="#BitstreamVeraSans-Roman-6e"/>
       <use x="388.57421875" xlink:href="#BitstreamVeraSans-Roman-64"/>
      </g>
     </g>
    </g>
    <g id="xtick_4">
     <g id="line2d_7">
      <g>
       <use style="stroke:#000000;stroke-width:0.5;" x="254.298202515" xlink:href="#m93b0483c22" y="244.8"/>
      </g>
     </g>
     <g id="line2d_8">
      <g>
       <use style="stroke:#000000;stroke-width:0.5;" x="254.298202515" xlink:href="#m741efc42ff" y="28.8"/>
      </g>
     </g>
     <g id="text_4">
      <!-- 4 second -->
      <defs>
       <path d="
M37.7969 64.3125
L12.8906 25.3906
L37.7969 25.3906
z

M35.2031 72.9062
L47.6094 72.9062
L47.6094 25.3906
L58.0156 25.3906
L58.0156 17.1875
L47.6094 17.1875
L47.6094 0
L37.7969 0
L37.7969 17.1875
L4.89062 17.1875
L4.89062 26.7031
z
" id="BitstreamVeraSans-Roman-34"/>
      </defs>
      <g transform="translate(236.579452515 254.87875)scale(0.08 -0.08)">
       <use xlink:href="#BitstreamVeraSans-Roman-34"/>
       <use x="63.623046875" xlink:href="#BitstreamVeraSans-Roman-20"/>
       <use x="95.41015625" xlink:href="#BitstreamVeraSans-Roman-73"/>
       <use x="147.509765625" xlink:href="#BitstreamVeraSans-Roman-65"/>
       <use x="209.033203125" xlink:href="#BitstreamVeraSans-Roman-63"/>
       <use x="264.013671875" xlink:href="#BitstreamVeraSans-Roman-6f"/>
       <use x="325.1953125" xlink:href="#BitstreamVeraSans-Roman-6e"/>
       <use x="388.57421875" xlink:href="#BitstreamVeraSans-Roman-64"/>
      </g>
     </g>
    </g>
    <g id="xtick_5">
     <g id="line2d_9">
      <g>
       <use style="stroke:#000000;stroke-width:0.5;" x="314.47567749" xlink:href="#m93b0483c22" y="244.8"/>
      </g>
     </g>
     <g id="line2d_10">
      <g>
       <use style="stroke:#000000;stroke-width:0.5;" x="314.47567749" xlink:href="#m741efc42ff" y="28.8"/>
      </g>
     </g>
     <g id="text_5">
      <!-- 5 second -->
      <defs>
       <path d="
M10.7969 72.9062
L49.5156 72.9062
L49.5156 64.5938
L19.8281 64.5938
L19.8281 46.7344
Q21.9688 47.4688 24.1094 47.8281
Q26.2656 48.1875 28.4219 48.1875
Q40.625 48.1875 47.75 41.5
Q54.8906 34.8125 54.8906 23.3906
Q54.8906 11.625 47.5625 5.09375
Q40.2344 -1.42188 26.9062 -1.42188
Q22.3125 -1.42188 17.5469 -0.640625
Q12.7969 0.140625 7.71875 1.70312
L7.71875 11.625
Q12.1094 9.23438 16.7969 8.0625
Q21.4844 6.89062 26.7031 6.89062
Q35.1562 6.89062 40.0781 11.3281
Q45.0156 15.7656 45.0156 23.3906
Q45.0156 31 40.0781 35.4375
Q35.1562 39.8906 26.7031 39.8906
Q22.75 39.8906 18.8125 39.0156
Q14.8906 38.1406 10.7969 36.2812
z
" id="BitstreamVeraSans-Roman-35"/>
      </defs>
      <g transform="translate(296.75692749 254.87875)scale(0.08 -0.08)">
       <use xlink:href="#BitstreamVeraSans-Roman-35"/>
       <use x="63.623046875" xlink:href="#BitstreamVeraSans-Roman-20"/>
       <use x="95.41015625" xlink:href="#BitstreamVeraSans-Roman-73"/>
       <use x="147.509765625" xlink:href="#BitstreamVeraSans-Roman-65"/>
       <use x="209.033203125" xlink:href="#BitstreamVeraSans-Roman-63"/>
       <use x="264.013671875" xlink:href="#BitstreamVeraSans-Roman-6f"/>
       <use x="325.1953125" xlink:href="#BitstreamVeraSans-Roman-6e"/>
       <use x="388.57421875" xlink:href="#BitstreamVeraSans-Roman-64"/>
      </g>
     </g>
    </g>
    <g id="xtick_6">
     <g id="line2d_11">
      <g>
       <use style="stroke:#000000;stroke-width:0.5;" x="374.653167725" xlink:href="#m93b0483c22" y="244.8"/>
      </g>
     </g>
     <g id="line2d_12">
      <g>
       <use style="stroke:#000000;stroke-width:0.5;" x="374.653167725" xlink:href="#m741efc42ff" y="28.8"/>
      </g>
     </g>
     <g id="text_6">
      <!-- 6 second -->
      <defs>
       <path d="
M33.0156 40.375
Q26.375 40.375 22.4844 35.8281
Q18.6094 31.2969 18.6094 23.3906
Q18.6094 15.5312 22.4844 10.9531
Q26.375 6.39062 33.0156 6.39062
Q39.6562 6.39062 43.5312 10.9531
Q47.4062 15.5312 47.4062 23.3906
Q47.4062 31.2969 43.5312 35.8281
Q39.6562 40.375 33.0156 40.375
M52.5938 71.2969
L52.5938 62.3125
Q48.875 64.0625 45.0938 64.9844
Q41.3125 65.9219 37.5938 65.9219
Q27.8281 65.9219 22.6719 59.3281
Q17.5312 52.7344 16.7969 39.4062
Q19.6719 43.6562 24.0156 45.9219
Q28.375 48.1875 33.5938 48.1875
Q44.5781 48.1875 50.9531 41.5156
Q57.3281 34.8594 57.3281 23.3906
Q57.3281 12.1562 50.6875 5.35938
Q44.0469 -1.42188 33.0156 -1.42188
Q20.3594 -1.42188 13.6719 8.26562
Q6.98438 17.9688 6.98438 36.375
Q6.98438 53.6562 15.1875 63.9375
Q23.3906 74.2188 37.2031 74.2188
Q40.9219 74.2188 44.7031 73.4844
Q48.4844 72.75 52.5938 71.2969" id="BitstreamVeraSans-Roman-36"/>
      </defs>
      <g transform="translate(356.934417725 254.87875)scale(0.08 -0.08)">
       <use xlink:href="#BitstreamVeraSans-Roman-36"/>
       <use x="63.623046875" xlink:href="#BitstreamVeraSans-Roman-20"/>
       <use x="95.41015625" xlink:href="#BitstreamVeraSans-Roman-73"/>
       <use x="147.509765625" xlink:href="#BitstreamVeraSans-Roman-65"/>
       <use x="209.033203125" xlink:href="#BitstreamVeraSans-Roman-63"/>
       <use x="264.013671875" xlink:href="#BitstreamVeraSans-Roman-6f"/>
       <use x="325.1953125" xlink:href="#BitstreamVeraSans-Roman-6e"/>
       <use x="388.57421875" xlink:href="#BitstreamVeraSans-Roman-64"/>
      </g>
     </g>
    </g>
    <g id="xtick_7">
     <g id="line2d_13">
      <g>
       <use style="stroke:#000000;stroke-width:0.5;" x="434.830657959" xlink:href="#m93b0483c22" y="244.8"/>
      </g>
     </g>
     <g id="line2d_14">
      <g>
       <use style="stroke:#000000;stroke-width:0.5;" x="434.830657959" xlink:href="#m741efc42ff" y="28.8"/>
      </g>
     </g>
     <g id="text_7">
      <!-- 7 second -->
      <defs>
       <path d="
M8.20312 72.9062
L55.0781 72.9062
L55.0781 68.7031
L28.6094 0
L18.3125 0
L43.2188 64.5938
L8.20312 64.5938
z
" id="BitstreamVeraSans-Roman-37"/>
      </defs>
      <g transform="translate(417.111907959 254.87875)scale(0.08 -0.08)">
       <use xlink:href="#BitstreamVeraSans-Roman-37"/>
       <use x="63.623046875" xlink:href="#BitstreamVeraSans-Roman-20"/>
       <use x="95.41015625" xlink:href="#BitstreamVeraSans-Roman-73"/>
       <use x="147.509765625" xlink:href="#BitstreamVeraSans-Roman-65"/>
       <use x="209.033203125" xlink:href="#BitstreamVeraSans-Roman-63"/>
       <use x="264.013671875" xlink:href="#BitstreamVeraSans-Roman-6f"/>
       <use x="325.1953125" xlink:href="#BitstreamVeraSans-Roman-6e"/>
       <use x="388.57421875" xlink:href="#BitstreamVeraSans-Roman-64"/>
      </g>
     </g>
    </g>
    <g id="text_8">
     <!-- Time passed -->
     <defs>
      <path d="
M45.9062 50
L56.7031 50
L56.7031 0
L45.9062 0
L45.9062 7.20312
Q39.7969 -1.29688 28.4062 -1.29688
Q18.0938 -1.29688 10.7969 6.34375
Q3.5 14 3.5 25
Q3.5 36.0938 10.7969 43.6875
Q18.0938 51.2969 28.4062 51.2969
Q39.7969 51.2969 45.9062 42.9062
z

M14.2969 18.0938
Q23.2969 9 30.0938 9
Q36.9062 9 41.4062 13.5469
Q45.9062 18.0938 45.9062 25
Q45.9062 31.9062 41.4062 36.4531
Q36.9062 41 30.0938 41
Q23.2969 41 18.7969 36.4531
Q14.2969 31.9062 14.2969 25
Q14.2969 18.0938 23.2969 9" id="Gilroy-SemiBold-61"/>
      <path d="
M60.9062 51.2969
Q69.4062 51.2969 74.5938 45.7969
Q79.7969 40.2969 79.7969 31
L79.7969 0
L69 0
L69 30.2969
Q69 35.5 66.3906 38.3438
Q63.7969 41.2031 59.2969 41.2031
Q54.2969 41.2031 51.3438 37.8906
Q48.4062 34.5938 48.4062 28
L48.4062 0
L37.5938 0
L37.5938 30.2969
Q37.5938 35.5 35.1406 38.3438
Q32.7031 41.2031 28.2031 41.2031
Q23.2969 41.2031 20.1875 37.8438
Q17.0938 34.5 17.0938 28
L17.0938 0
L6.29688 0
L6.29688 50
L17.0938 50
L17.0938 44
Q21.9062 51.2969 31.4062 51.2969
Q41 51.2969 45.5938 43.4062
Q50.5938 51.2969 60.9062 51.2969" id="Gilroy-SemiBold-6d"/>
      <path d="
M52.5 70
L52.5 59
L32.7969 59
L32.7969 0
L21.2969 0
L21.2969 59
L1.5 59
L1.5 70
z
" id="Gilroy-SemiBold-54"/>
      <path d="
M16 36.2031
Q16 33.7031 18.75 32.25
Q21.5 30.7969 25.4531 29.75
Q29.4062 28.7031 33.4062 27.2969
Q37.4062 25.9062 40.1562 22.5469
Q42.9062 19.2031 42.9062 14.0938
Q42.9062 6.90625 37.3438 2.79688
Q31.7969 -1.29688 23.4062 -1.29688
Q16 -1.29688 10.7031 1.79688
Q5.40625 4.90625 3 10.4062
L12.2969 15.7969
Q14.9062 8.59375 23.4062 8.59375
Q31.9062 8.59375 31.9062 14.2031
Q31.9062 16.5938 29.1562 18.0938
Q26.4062 19.5938 22.4531 20.6406
Q18.5 21.7031 14.5 23.0938
Q10.5 24.5 7.75 27.75
Q5 31 5 36
Q5 42.9062 10.25 47.0938
Q15.5 51.2969 23.2969 51.2969
Q29.5 51.2969 34.3438 48.5469
Q39.2031 45.7969 41.7969 40.9062
L32.7031 35.7969
Q30.0938 41.5 23.2969 41.5
Q20.2031 41.5 18.0938 40.1406
Q16 38.7969 16 36.2031" id="Gilroy-SemiBold-73"/>
      <path d="
M34.5938 51.2969
Q44.9062 51.2969 52.2031 43.6406
Q59.5 36 59.5 25
Q59.5 13.9062 52.2031 6.29688
Q44.9062 -1.29688 34.5938 -1.29688
Q23.2031 -1.29688 17.0938 7.09375
L17.0938 -20
L6.29688 -20
L6.29688 50
L17.0938 50
L17.0938 42.7969
Q23.2031 51.2969 34.5938 51.2969
M17.0938 18.0938
Q26.0938 9 32.8906 9
Q39.7031 9 44.2031 13.5469
Q48.7031 18.0938 48.7031 25
Q48.7031 31.9062 44.2031 36.4531
Q39.7031 41 32.8906 41
Q26.0938 41 21.5938 36.4531
Q17.0938 31.9062 17.0938 25
Q17.0938 18.0938 26.0938 9" id="Gilroy-SemiBold-70"/>
      <path d="
M14.7969 20.4062
Q16 14.7031 20.2969 11.6406
Q24.5938 8.59375 30.7969 8.59375
Q39.4062 8.59375 43.7031 14.7969
L52.5938 9.59375
Q45.2031 -1.29688 30.7031 -1.29688
Q18.5 -1.29688 11 6.14062
Q3.5 13.5938 3.5 25
Q3.5 36.2031 10.8906 43.75
Q18.2969 51.2969 29.9062 51.2969
Q40.9062 51.2969 47.9531 43.5938
Q55 35.9062 55 24.9062
Q55 23.2031 54.5938 20.4062
z

M14.7031 29.2031
L44.0938 29.2031
Q43 35.2969 39.0469 38.3906
Q35.0938 41.5 29.7969 41.5
Q23.7969 41.5 19.7969 38.2031
Q15.7969 34.9062 14.7031 29.2031" id="Gilroy-SemiBold-65"/>
      <path d="
M45.9062 70
L56.7031 70
L56.7031 0
L45.9062 0
L45.9062 7.20312
Q39.7969 -1.29688 28.4062 -1.29688
Q18.0938 -1.29688 10.7969 6.34375
Q3.5 14 3.5 25
Q3.5 36.0938 10.7969 43.6875
Q18.0938 51.2969 28.4062 51.2969
Q39.7969 51.2969 45.9062 42.9062
z

M14.2969 18.0938
Q23.2969 9 30.0938 9
Q36.9062 9 41.4062 13.5469
Q45.9062 18.0938 45.9062 25
Q45.9062 31.9062 41.4062 36.4531
Q36.9062 41 30.0938 41
Q23.2969 41 18.7969 36.4531
Q14.2969 31.9062 14.2969 25
Q14.2969 18.0938 23.2969 9" id="Gilroy-SemiBold-64"/>
      <path d="
M18.5938 61.5938
Q14.5 57.5 11.7031 57.5
Q8.90625 57.5 6.84375 59.5469
Q4.79688 61.5938 4.79688 64.3906
Q4.79688 67.2031 6.79688 69.25
Q8.79688 71.2969 11.6875 71.2969
Q14.5938 71.2969 16.5938 69.25
Q18.5938 67.2031 18.5938 64.3906
Q18.5938 61.5938 14.5 57.5
M6.29688 0
L6.29688 50
L17.0938 50
L17.0938 0
z
" id="Gilroy-SemiBold-69"/>
      <path id="Gilroy-SemiBold-20"/>
     </defs>
     <g transform="translate(223.57875 270.3025)scale(0.12 -0.12)">
      <use xlink:href="#Gilroy-SemiBold-54"/>
      <use x="53.9999847412" xlink:href="#Gilroy-SemiBold-69"/>
      <use x="77.2999725342" xlink:href="#Gilroy-SemiBold-6d"/>
      <use x="162.399963379" xlink:href="#Gilroy-SemiBold-65"/>
      <use x="220.599960327" xlink:href="#Gilroy-SemiBold-20"/>
      <use x="245.599945068" xlink:href="#Gilroy-SemiBold-70"/>
      <use x="308.59992981" xlink:href="#Gilroy-SemiBold-61"/>
      <use x="371.599914551" xlink:href="#Gilroy-SemiBold-73"/>
      <use x="417.699905396" xlink:href="#Gilroy-SemiBold-73"/>
      <use x="463.79989624" xlink:href="#Gilroy-SemiBold-65"/>
      <use x="521.999893188" xlink:href="#Gilroy-SemiBold-64"/>
     </g>
    </g>
   </g>
   <g id="matplotlib.axis_2">
    <g id="ytick_1">
     <g id="line2d_15">
      <defs>
       <path d="
M0 0
L4 0" id="m728421d6d4" style="stroke:#000000;stroke-width:0.5;"/>
      </defs>
      <g>
       <use style="stroke:#000000;stroke-width:0.5;" x="63.0" xlink:href="#m728421d6d4" y="226.8"/>
      </g>
     </g>
     <g id="line2d_16">
      <defs>
       <path d="
M0 0
L-4 0" id="mcb0005524f" style="stroke:#000000;stroke-width:0.5;"/>
      </defs>
      <g>
       <use style="stroke:#000000;stroke-width:0.5;" x="453.6" xlink:href="#mcb0005524f" y="226.8"/>
      </g>
     </g>
     <g id="text_9">
      <!-- down -->
      <defs>
       <path d="
M4.20312 54.6875
L13.1875 54.6875
L24.4219 12.0156
L35.5938 54.6875
L46.1875 54.6875
L57.4219 12.0156
L68.6094 54.6875
L77.5938 54.6875
L63.2812 0
L52.6875 0
L40.9219 44.8281
L29.1094 0
L18.5 0
z
" id="BitstreamVeraSans-Roman-77"/>
      </defs>
      <g transform="translate(28.300625 230.11125)scale(0.12 -0.12)">
       <use xlink:href="#BitstreamVeraSans-Roman-64"/>
       <use x="63.4765625" xlink:href="#BitstreamVeraSans-Roman-6f"/>
       <use x="124.658203125" xlink:href="#BitstreamVeraSans-Roman-77"/>
       <use x="206.4453125" xlink:href="#BitstreamVeraSans-Roman-6e"/>
      </g>
     </g>
    </g>
    <g id="ytick_2">
     <g id="line2d_17">
      <g>
       <use style="stroke:#000000;stroke-width:0.5;" x="63.0" xlink:href="#m728421d6d4" y="190.8"/>
      </g>
     </g>
     <g id="line2d_18">
      <g>
       <use style="stroke:#000000;stroke-width:0.5;" x="453.6" xlink:href="#mcb0005524f" y="190.8"/>
      </g>
     </g>
    </g>
    <g id="ytick_3">
     <g id="line2d_19">
      <g>
       <use style="stroke:#000000;stroke-width:0.5;" x="63.0" xlink:href="#m728421d6d4" y="154.8"/>
      </g>
     </g>
     <g id="line2d_20">
      <g>
       <use style="stroke:#000000;stroke-width:0.5;" x="453.6" xlink:href="#mcb0005524f" y="154.8"/>
      </g>
     </g>
    </g>
    <g id="ytick_4">
     <g id="line2d_21">
      <g>
       <use style="stroke:#000000;stroke-width:0.5;" x="63.0" xlink:href="#m728421d6d4" y="118.8"/>
      </g>
     </g>
     <g id="line2d_22">
      <g>
       <use style="stroke:#000000;stroke-width:0.5;" x="453.6" xlink:href="#mcb0005524f" y="118.8"/>
      </g>
     </g>
    </g>
    <g id="ytick_5">
     <g id="line2d_23">
      <g>
       <use style="stroke:#000000;stroke-width:0.5;" x="63.0" xlink:href="#m728421d6d4" y="82.8"/>
      </g>
     </g>
     <g id="line2d_24">
      <g>
       <use style="stroke:#000000;stroke-width:0.5;" x="453.6" xlink:href="#mcb0005524f" y="82.8"/>
      </g>
     </g>
    </g>
    <g id="ytick_6">
     <g id="line2d_25">
      <g>
       <use style="stroke:#000000;stroke-width:0.5;" x="63.0" xlink:href="#m728421d6d4" y="46.8"/>
      </g>
     </g>
     <g id="line2d_26">
      <g>
       <use style="stroke:#000000;stroke-width:0.5;" x="453.6" xlink:href="#mcb0005524f" y="46.8"/>
      </g>
     </g>
     <g id="text_10">
      <!-- up -->
      <defs>
       <path d="
M8.5 21.5781
L8.5 54.6875
L17.4844 54.6875
L17.4844 21.9219
Q17.4844 14.1562 20.5 10.2656
Q23.5312 6.39062 29.5938 6.39062
Q36.8594 6.39062 41.0781 11.0312
Q45.3125 15.6719 45.3125 23.6875
L45.3125 54.6875
L54.2969 54.6875
L54.2969 0
L45.3125 0
L45.3125 8.40625
Q42.0469 3.42188 37.7188 1
Q33.4062 -1.42188 27.6875 -1.42188
Q18.2656 -1.42188 13.375 4.4375
Q8.5 10.2969 8.5 21.5781" id="BitstreamVeraSans-Roman-75"/>
       <path d="
M18.1094 8.20312
L18.1094 -20.7969
L9.07812 -20.7969
L9.07812 54.6875
L18.1094 54.6875
L18.1094 46.3906
Q20.9531 51.2656 25.2656 53.625
Q29.5938 56 35.5938 56
Q45.5625 56 51.7812 48.0938
Q58.0156 40.1875 58.0156 27.2969
Q58.0156 14.4062 51.7812 6.48438
Q45.5625 -1.42188 35.5938 -1.42188
Q29.5938 -1.42188 25.2656 0.953125
Q20.9531 3.32812 18.1094 8.20312
M48.6875 27.2969
Q48.6875 37.2031 44.6094 42.8438
Q40.5312 48.4844 33.4062 48.4844
Q26.2656 48.4844 22.1875 42.8438
Q18.1094 37.2031 18.1094 27.2969
Q18.1094 17.3906 22.1875 11.75
Q26.2656 6.10938 33.4062 6.10938
Q40.5312 6.10938 44.6094 11.75
Q48.6875 17.3906 48.6875 27.2969" id="BitstreamVeraSans-Roman-70"/>
      </defs>
      <g transform="translate(45.453125 50.11125)scale(0.12 -0.12)">
       <use xlink:href="#BitstreamVeraSans-Roman-75"/>
       <use x="63.37890625" xlink:href="#BitstreamVeraSans-Roman-70"/>
      </g>
     </g>
    </g>
    <g id="text_11">
     <!-- Button state -->
     <defs>
      <path d="
M48.2031 36.2969
Q52.7969 33.9062 55.3906 29.7031
Q58 25.5 58 20
Q58 11.4062 51.8906 5.70312
Q45.7969 0 37 0
L7 0
L7 70
L34.7969 70
Q43.4062 70 49.3438 64.4531
Q55.2969 58.9062 55.2969 50.5938
Q55.2969 41.5 48.2031 36.2969
M34.7969 59.2031
L18.5 59.2031
L18.5 40.7969
L34.7969 40.7969
Q38.5938 40.7969 41.1875 43.4375
Q43.7969 46.0938 43.7969 50
Q43.7969 53.9062 41.1875 56.5469
Q38.5938 59.2031 34.7969 59.2031
M37 10.7969
Q41 10.7969 43.75 13.6406
Q46.5 16.5 46.5 20.5938
Q46.5 24.7031 43.75 27.5469
Q41 30.4062 37 30.4062
L18.5 30.4062
L18.5 10.7969
z
" id="Gilroy-SemiBold-42"/>
      <path d="
M29.9062 -1.29688
Q18.9062 -1.29688 11.2031 6.29688
Q3.5 13.9062 3.5 25
Q3.5 36.0938 11.2031 43.6875
Q18.9062 51.2969 29.9062 51.2969
Q41 51.2969 48.6406 43.6875
Q56.2969 36.0938 56.2969 25
Q56.2969 13.9062 48.6406 6.29688
Q41 -1.29688 29.9062 -1.29688
M14.2969 18.2031
Q23.2969 9.20312 29.8906 9.20312
Q36.5 9.20312 41 13.7031
Q45.5 18.2031 45.5 25
Q45.5 31.7969 41 36.2969
Q36.5 40.7969 29.8906 40.7969
Q23.2969 40.7969 18.7969 36.2969
Q14.2969 31.7969 14.2969 25
Q14.2969 18.2031 23.2969 9.20312" id="Gilroy-SemiBold-6f"/>
      <path d="
M32.5938 51.2969
Q41.2031 51.2969 46.5 45.7969
Q51.7969 40.2969 51.7969 30.7031
L51.7969 0
L41 0
L41 29.5938
Q41 35.2031 38 38.2031
Q35 41.2031 29.7969 41.2031
Q24.0938 41.2031 20.5938 37.6406
Q17.0938 34.0938 17.0938 26.7969
L17.0938 0
L6.29688 0
L6.29688 50
L17.0938 50
L17.0938 43.5938
Q22 51.2969 32.5938 51.2969" id="Gilroy-SemiBold-6e"/>
      <path d="
M34.2031 39.5938
L21.7969 39.5938
L21.7969 15.5938
Q21.7969 12.5 23.1875 11.1406
Q24.5938 9.79688 27.3438 9.64062
Q30.0938 9.5 34.2031 9.70312
L34.2031 0
Q21.7969 -1.5 16.3906 2.14062
Q11 5.79688 11 15.5938
L11 39.5938
L1.79688 39.5938
L1.79688 50
L11 50
L11 60.7969
L21.7969 64
L21.7969 50
L34.2031 50
z
" id="Gilroy-SemiBold-74"/>
      <path d="
M40 50
L50.7969 50
L50.7969 0
L40 0
L40 6.40625
Q35.0938 -1.29688 24.5 -1.29688
Q15.9062 -1.29688 10.5938 4.20312
Q5.29688 9.70312 5.29688 19.2969
L5.29688 50
L16.0938 50
L16.0938 20.4062
Q16.0938 14.7969 19.0938 11.7969
Q22.0938 8.79688 27.2969 8.79688
Q33 8.79688 36.5 12.3438
Q40 15.9062 40 23.2031
z
" id="Gilroy-SemiBold-75"/>
     </defs>
     <g transform="translate(20.900625 171.4134375)rotate(-90.0)scale(0.12 -0.12)">
      <use xlink:href="#Gilroy-SemiBold-42"/>
      <use x="60.9999847412" xlink:href="#Gilroy-SemiBold-75"/>
      <use x="118.099975586" xlink:href="#Gilroy-SemiBold-74"/>
      <use x="156.299972534" xlink:href="#Gilroy-SemiBold-74"/>
      <use x="194.499969482" xlink:href="#Gilroy-SemiBold-6f"/>
      <use x="254.299957275" xlink:href="#Gilroy-SemiBold-6e"/>
      <use x="311.39994812" xlink:href="#Gilroy-SemiBold-20"/>
      <use x="336.399932861" xlink:href="#Gilroy-SemiBold-73"/>
      <use x="382.499923706" xlink:href="#Gilroy-SemiBold-74"/>
      <use x="420.699920654" xlink:href="#Gilroy-SemiBold-61"/>
      <use x="483.699905396" xlink:href="#Gilroy-SemiBold-74"/>
      <use x="521.899902344" xlink:href="#Gilroy-SemiBold-65"/>
     </g>
    </g>
   </g>
   <g id="patch_3">
    <path d="
M63 28.8
L453.6 28.8" style="fill:none;stroke:#000000;"/>
   </g>
   <g id="patch_4">
    <path d="
M453.6 244.8
L453.6 28.8" style="fill:none;stroke:#000000;"/>
   </g>
   <g id="patch_5">
    <path d="
M63 244.8
L453.6 244.8" style="fill:none;stroke:#000000;"/>
   </g>
   <g id="patch_6">
    <path d="
M63 244.8
L63 28.8" style="fill:none;stroke:#000000;"/>
   </g>
   <g id="patch_7">
    <path d="
M95.55 224.8
L95.55 228.8
L95.55 228.8
L95.55 232.8
L95.55 226.8
L95.55 220.8
L95.55 224.8
z
" style="stroke:#000000;"/>
   </g>
   <g id="text_12">
    <!-- $x_0$ -->
    <defs>
     <path d="
M7.8125 2.875
Q9.57812 1.51562 12.7969 1.51562
Q15.9219 1.51562 18.3125 4.51562
Q20.7031 7.51562 21.5781 11.0781
L26.125 28.8125
Q27.2031 33.6406 27.2031 35.4062
Q27.2031 37.8906 25.8125 39.75
Q24.4219 41.6094 21.9219 41.6094
Q18.75 41.6094 15.9688 39.625
Q13.1875 37.6406 11.2812 34.5938
Q9.375 31.5469 8.59375 28.4219
Q8.40625 27.7812 7.8125 27.7812
L6.59375 27.7812
Q5.8125 27.7812 5.8125 28.7188
L5.8125 29
Q6.78125 32.7188 9.125 36.25
Q11.4688 39.7969 14.8594 41.9844
Q18.2656 44.1875 22.125 44.1875
Q25.7812 44.1875 28.7344 42.2344
Q31.6875 40.2812 32.9062 36.9219
Q34.625 39.9844 37.2812 42.0781
Q39.9375 44.1875 43.1094 44.1875
Q45.2656 44.1875 47.5 43.4219
Q49.75 42.6719 51.1719 41.1094
Q52.5938 39.5469 52.5938 37.2031
Q52.5938 34.6719 50.9531 32.8281
Q49.3125 31 46.7812 31
Q45.1719 31 44.0938 32.0312
Q43.0156 33.0625 43.0156 34.625
Q43.0156 36.7188 44.4531 38.2969
Q45.9062 39.8906 47.9062 40.1875
Q46.0938 41.6094 42.9219 41.6094
Q39.7031 41.6094 37.3281 38.625
Q34.9688 35.6406 33.9844 31.9844
L29.5938 14.3125
Q28.5156 10.2969 28.5156 7.71875
Q28.5156 5.17188 29.9531 3.34375
Q31.3906 1.51562 33.7969 1.51562
Q38.4844 1.51562 42.1562 5.64062
Q45.8438 9.76562 47.0156 14.7031
Q47.2188 15.2812 47.7969 15.2812
L49.0312 15.2812
Q49.4219 15.2812 49.6562 15.0156
Q49.9062 14.75 49.9062 14.4062
Q49.9062 14.3125 49.8125 14.1094
Q48.3906 8.15625 43.8438 3.51562
Q39.3125 -1.125 33.5938 -1.125
Q29.9375 -1.125 26.9844 0.84375
Q24.0312 2.82812 22.7969 6.20312
Q21.2344 3.26562 18.4688 1.0625
Q15.7188 -1.125 12.5938 -1.125
Q10.4531 -1.125 8.17188 -0.359375
Q5.90625 0.390625 4.48438 1.95312
Q3.07812 3.51562 3.07812 5.90625
Q3.07812 8.25 4.70312 10.1719
Q6.34375 12.1094 8.79688 12.1094
Q10.4531 12.1094 11.5781 11.1094
Q12.7031 10.1094 12.7031 8.5
Q12.7031 6.39062 11.2969 4.82812
Q9.90625 3.26562 7.8125 2.875" id="Cmmi10-78"/>
     <path d="
M25 -2.20312
Q12.75 -2.20312 8.32812 7.875
Q3.90625 17.9688 3.90625 31.8906
Q3.90625 40.5781 5.48438 48.2344
Q7.07812 55.9062 11.7812 61.25
Q16.5 66.6094 25 66.6094
Q31.5938 66.6094 35.7812 63.375
Q39.9844 60.1562 42.1875 55.0469
Q44.3906 49.9531 45.1875 44.1094
Q46 38.2812 46 31.8906
Q46 23.2969 44.4062 15.7969
Q42.8281 8.29688 38.1875 3.04688
Q33.5469 -2.20312 25 -2.20312
M25 0.390625
Q30.5625 0.390625 33.2969 6.09375
Q36.0312 11.8125 36.6719 18.75
Q37.3125 25.6875 37.3125 33.5
Q37.3125 41.0156 36.6719 47.3594
Q36.0312 53.7188 33.3125 58.8594
Q30.6094 64.0156 25 64.0156
Q19.3438 64.0156 16.6094 58.8281
Q13.875 53.6562 13.2344 47.3281
Q12.5938 41.0156 12.5938 33.5
Q12.5938 27.9375 12.8594 23
Q13.1406 18.0625 14.3125 12.8125
Q15.4844 7.5625 18.0938 3.96875
Q20.7031 0.390625 25 0.390625" id="Cmr10-30"/>
    </defs>
    <g transform="translate(80.4300030518 236.429375)scale(0.14 -0.14)">
     <use transform="translate(0.0 0.8125)" xlink:href="#Cmmi10-78"/>
     <use transform="translate(57.080078125 -24.696875)scale(0.7)" xlink:href="#Cmr10-30"/>
    </g>
   </g>
   <g id="patch_8">
    <path d="
M100.725 224.8
L100.725 228.8
L100.725 228.8
L100.725 232.8
L100.725 226.8
L100.725 220.8
L100.725 224.8
z
" style="stroke:#000000;"/>
   </g>
   <g id="text_13">
    <!-- $y_0$ -->
    <defs>
     <path d="
M8.40625 -14.3125
Q10.5 -17.9219 15.7188 -17.9219
Q20.4531 -17.9219 23.9219 -14.5938
Q27.3906 -11.2812 29.5156 -6.5625
Q31.6406 -1.85938 32.8125 3.07812
Q28.375 -1.125 23.1875 -1.125
Q19.2344 -1.125 16.4531 0.234375
Q13.6719 1.60938 12.125 4.3125
Q10.5938 7.03125 10.5938 10.8906
Q10.5938 14.1562 11.4688 17.5938
Q12.3594 21.0469 13.9375 25.2656
Q15.5312 29.5 16.7031 32.625
Q18.0156 36.2812 18.0156 38.625
Q18.0156 41.6094 15.8281 41.6094
Q11.8594 41.6094 9.29688 37.5312
Q6.73438 33.4531 5.51562 28.4219
Q5.32812 27.7812 4.6875 27.7812
L3.51562 27.7812
Q2.6875 27.7812 2.6875 28.7188
L2.6875 29
Q4.29688 34.9688 7.60938 39.5781
Q10.9375 44.1875 16.0156 44.1875
Q19.5781 44.1875 22.0469 41.8438
Q24.5156 39.5 24.5156 35.8906
Q24.5156 34.0312 23.6875 31.9844
Q23.25 30.7656 21.6875 26.6562
Q20.125 22.5625 19.2812 19.875
Q18.4531 17.1875 17.9219 14.5938
Q17.3906 12.0156 17.3906 9.42188
Q17.3906 6.10938 18.7969 3.8125
Q20.2188 1.51562 23.2969 1.51562
Q29.5 1.51562 34.4219 9.07812
L42 39.8906
Q42.3281 41.2188 43.5469 42.1562
Q44.7812 43.1094 46.1875 43.1094
Q47.4062 43.1094 48.3125 42.3281
Q49.2188 41.5469 49.2188 40.2812
Q49.2188 39.7031 49.125 39.5
L39.2031 -0.296875
Q37.8906 -5.42188 34.375 -10.1094
Q30.8594 -14.7969 25.9062 -17.6562
Q20.9531 -20.5156 15.5781 -20.5156
Q12.9844 -20.5156 10.4375 -19.5
Q7.90625 -18.5 6.34375 -16.5
Q4.78125 -14.5 4.78125 -11.8125
Q4.78125 -9.07812 6.39062 -7.07812
Q8.01562 -5.07812 10.6875 -5.07812
Q12.3125 -5.07812 13.4062 -6.07812
Q14.5 -7.07812 14.5 -8.6875
Q14.5 -10.9844 12.7812 -12.6875
Q11.0781 -14.4062 8.79688 -14.4062
Q8.6875 -14.3594 8.59375 -14.3281
Q8.5 -14.3125 8.40625 -14.3125" id="Cmmi10-79"/>
    </defs>
    <g transform="translate(100.725265503 236.429375)scale(0.14 -0.14)">
     <use transform="translate(0.0 0.8125)" xlink:href="#Cmmi10-79"/>
     <use transform="translate(49.0234375 -24.696875)scale(0.7)" xlink:href="#Cmr10-30"/>
    </g>
   </g>
   <g id="text_14">
    <!-- $x_1$ -->
    <defs>
     <path d="
M9.28125 0
L9.28125 3.51562
Q21.7812 3.51562 21.7812 6.6875
L21.7812 59.1875
Q16.6094 56.6875 8.6875 56.6875
L8.6875 60.2031
Q20.9531 60.2031 27.2031 66.6094
L28.6094 66.6094
Q28.9531 66.6094 29.2656 66.3281
Q29.5938 66.0625 29.5938 65.7188
L29.5938 6.6875
Q29.5938 3.51562 42.0938 3.51562
L42.0938 0
z
" id="Cmr10-31"/>
    </defs>
    <g transform="translate(120.448023682 236.709375)scale(0.14 -0.14)">
     <use transform="translate(0.0 0.8125)" xlink:href="#Cmmi10-78"/>
     <use transform="translate(57.080078125 -24.696875)scale(0.7)" xlink:href="#Cmr10-31"/>
    </g>
   </g>
   <g id="patch_9">
    <path d="
M139.841 224.8
L139.841 228.8
L139.841 228.8
L139.841 232.8
L139.841 226.8
L139.841 220.8
L139.841 224.8
z
" style="stroke:#000000;"/>
   </g>
   <g id="text_15">
    <!-- $y_1$ -->
    <g transform="translate(139.840621948 236.709375)scale(0.14 -0.14)">
     <use transform="translate(0.0 0.8125)" xlink:href="#Cmmi10-79"/>
     <use transform="translate(49.0234375 -24.696875)scale(0.7)" xlink:href="#Cmr10-31"/>
    </g>
   </g>
   <g id="text_16">
    <!-- $x_2$ -->
    <defs>
     <path d="
M4.98438 0
L4.98438 2.6875
Q4.98438 2.9375 5.17188 3.21875
L20.7031 20.4062
Q24.2188 24.2188 26.4062 26.7969
Q28.6094 29.3906 30.75 32.7656
Q32.9062 36.1406 34.1562 39.625
Q35.4062 43.1094 35.4062 47.0156
Q35.4062 51.125 33.8906 54.8594
Q32.375 58.5938 29.375 60.8438
Q26.375 63.0938 22.125 63.0938
Q17.7812 63.0938 14.3125 60.4688
Q10.8438 57.8594 9.42188 53.7188
Q9.8125 53.8125 10.5 53.8125
Q12.75 53.8125 14.3281 52.2969
Q15.9219 50.7812 15.9219 48.3906
Q15.9219 46.0938 14.3281 44.5
Q12.75 42.9219 10.5 42.9219
Q8.15625 42.9219 6.5625 44.5469
Q4.98438 46.1875 4.98438 48.3906
Q4.98438 52.1562 6.39062 55.4375
Q7.8125 58.7344 10.4688 61.2969
Q13.1406 63.875 16.4844 65.2344
Q19.8281 66.6094 23.5781 66.6094
Q29.2969 66.6094 34.2188 64.1875
Q39.1562 61.7656 42.0312 57.3438
Q44.9219 52.9375 44.9219 47.0156
Q44.9219 42.6719 43.0156 38.7656
Q41.1094 34.8594 38.125 31.6562
Q35.1562 28.4688 30.5156 24.4062
Q25.875 20.3594 24.4219 19
L13.0938 8.10938
L22.7031 8.10938
Q29.7812 8.10938 34.5469 8.21875
Q39.3125 8.34375 39.5938 8.59375
Q40.7656 9.85938 42 17.8281
L44.9219 17.8281
L42.0938 0
z
" id="Cmr10-32"/>
    </defs>
    <g transform="translate(158.720896606 236.709375)scale(0.14 -0.14)">
     <use transform="translate(0.0 0.8125)" xlink:href="#Cmmi10-78"/>
     <use transform="translate(57.080078125 -24.696875)scale(0.7)" xlink:href="#Cmr10-32"/>
    </g>
   </g>
   <g id="patch_10">
    <path d="
M177.151 224.8
L177.151 228.8
L177.151 228.8
L177.151 232.8
L177.151 226.8
L177.151 220.8
L177.151 224.8
z
" style="stroke:#000000;"/>
   </g>
   <g id="text_17">
    <!-- $y_2$ -->
    <g transform="translate(177.150665283 236.709375)scale(0.14 -0.14)">
     <use transform="translate(0.0 0.8125)" xlink:href="#Cmmi10-79"/>
     <use transform="translate(49.0234375 -24.696875)scale(0.7)" xlink:href="#Cmr10-32"/>
    </g>
   </g>
   <g id="text_18">
    <!-- $x_3$ -->
    <defs>
     <path d="
M9.51562 7.71875
Q11.8594 4.29688 15.8125 2.64062
Q19.7812 0.984375 24.3125 0.984375
Q30.125 0.984375 32.5625 5.9375
Q35.0156 10.8906 35.0156 17.1875
Q35.0156 20.0156 34.5 22.8438
Q33.9844 25.6875 32.7656 28.125
Q31.5469 30.5625 29.4219 32.0312
Q27.2969 33.5 24.2188 33.5
L17.5781 33.5
Q16.7031 33.5 16.7031 34.4219
L16.7031 35.2969
Q16.7031 36.0781 17.5781 36.0781
L23.0938 36.5312
Q26.6094 36.5312 28.9219 39.1562
Q31.25 41.7969 32.3281 45.5781
Q33.4062 49.3594 33.4062 52.7812
Q33.4062 57.5625 31.1562 60.6406
Q28.9062 63.7188 24.3125 63.7188
Q20.5156 63.7188 17.0469 62.2812
Q13.5781 60.8438 11.5312 57.9062
Q11.7188 57.9531 11.8594 57.9844
Q12.0156 58.0156 12.2031 58.0156
Q14.4531 58.0156 15.9688 56.4531
Q17.4844 54.8906 17.4844 52.6875
Q17.4844 50.5312 15.9688 48.9688
Q14.4531 47.4062 12.2031 47.4062
Q10.0156 47.4062 8.45312 48.9688
Q6.89062 50.5312 6.89062 52.6875
Q6.89062 56.9844 9.46875 60.1562
Q12.0625 63.3281 16.1406 64.9688
Q20.2188 66.6094 24.3125 66.6094
Q27.3438 66.6094 30.7031 65.7031
Q34.0781 64.7969 36.8125 63.1094
Q39.5469 61.4219 41.2812 58.7812
Q43.0156 56.1562 43.0156 52.7812
Q43.0156 48.5781 41.1406 45.0156
Q39.2656 41.4531 35.9844 38.8594
Q32.7188 36.2812 28.8125 35.0156
Q33.1562 34.1875 37.0625 31.7344
Q40.9688 29.2969 43.3281 25.4844
Q45.7031 21.6875 45.7031 17.2812
Q45.7031 11.7656 42.6719 7.29688
Q39.6562 2.82812 34.7188 0.3125
Q29.7812 -2.20312 24.3125 -2.20312
Q19.625 -2.20312 14.9062 -0.40625
Q10.2031 1.375 7.20312 4.9375
Q4.20312 8.5 4.20312 13.4844
Q4.20312 15.9688 5.85938 17.625
Q7.51562 19.2812 10.0156 19.2812
Q11.625 19.2812 12.9688 18.5312
Q14.3125 17.7812 15.0625 16.4062
Q15.8281 15.0469 15.8281 13.4844
Q15.8281 11.0312 14.1094 9.375
Q12.4062 7.71875 10.0156 7.71875
z
" id="Cmr10-33"/>
    </defs>
    <g transform="translate(201.386744385 236.429375)scale(0.14 -0.14)">
     <use transform="translate(0.0 0.8125)" xlink:href="#Cmmi10-78"/>
     <use transform="translate(57.080078125 -24.696875)scale(0.7)" xlink:href="#Cmr10-33"/>
    </g>
   </g>
   <g id="patch_11">
    <path d="
M222.404 224.8
L222.404 228.8
L222.404 228.8
L222.404 232.8
L222.404 226.8
L222.404 220.8
L222.404 224.8
z
" style="stroke:#000000;"/>
   </g>
   <g id="text_19">
    <!-- $y_3$ -->
    <g transform="translate(222.404129028 236.429375)scale(0.14 -0.14)">
     <use transform="translate(0.0 0.8125)" xlink:href="#Cmmi10-79"/>
     <use transform="translate(49.0234375 -24.696875)scale(0.7)" xlink:href="#Cmr10-33"/>
    </g>
   </g>
   <g id="text_20">
    <!-- $x_4$ -->
    <defs>
     <path d="
M2.78125 16.5
L2.78125 20.0156
L33.6875 66.1094
Q34.0312 66.6094 34.7188 66.6094
L36.1875 66.6094
Q37.3125 66.6094 37.3125 65.4844
L37.3125 20.0156
L47.125 20.0156
L47.125 16.5
L37.3125 16.5
L37.3125 6.6875
Q37.3125 4.64062 40.2344 4.07812
Q43.1719 3.51562 47.0156 3.51562
L47.0156 0
L19.4844 0
L19.4844 3.51562
Q23.3438 3.51562 26.2656 4.07812
Q29.2031 4.64062 29.2031 6.6875
L29.2031 16.5
z

M6.10938 20.0156
L29.7812 20.0156
L29.7812 55.4219
z
" id="Cmr10-34"/>
    </defs>
    <g transform="translate(231.776362305 236.709375)scale(0.14 -0.14)">
     <use transform="translate(0.0 0.8125)" xlink:href="#Cmmi10-78"/>
     <use transform="translate(57.080078125 -24.696875)scale(0.7)" xlink:href="#Cmr10-34"/>
    </g>
   </g>
   <g id="patch_12">
    <path d="
M252.373 224.8
L252.373 228.8
L252.373 228.8
L252.373 232.8
L252.373 226.8
L252.373 220.8
L252.373 224.8
z
" style="stroke:#000000;"/>
   </g>
   <g id="text_21">
    <!-- $y_4$ -->
    <g transform="translate(252.372512817 236.709375)scale(0.14 -0.14)">
     <use transform="translate(0.0 0.8125)" xlink:href="#Cmmi10-79"/>
     <use transform="translate(49.0234375 -24.696875)scale(0.7)" xlink:href="#Cmr10-34"/>
    </g>
   </g>
   <g id="text_22">
    <!-- $x_5$ -->
    <defs>
     <path d="
M8.6875 11.375
Q9.71875 8.45312 11.8438 6.04688
Q13.9688 3.65625 16.875 2.3125
Q19.7812 0.984375 22.9062 0.984375
Q30.125 0.984375 32.8594 6.59375
Q35.5938 12.2031 35.5938 20.2188
Q35.5938 23.6875 35.4688 26.0469
Q35.3594 28.4219 34.8125 30.6094
Q33.8906 34.125 31.5625 36.7656
Q29.25 39.4062 25.875 39.4062
Q22.5156 39.4062 20.0938 38.375
Q17.6719 37.3594 16.1562 35.9844
Q14.6562 34.625 13.4844 33.1094
Q12.3125 31.5938 12.0156 31.5
L10.8906 31.5
Q10.6406 31.5 10.2656 31.8125
Q9.90625 32.125 9.90625 32.4219
L9.90625 65.8281
Q9.90625 66.0625 10.2188 66.3281
Q10.5469 66.6094 10.8906 66.6094
L11.1875 66.6094
Q17.9219 63.375 25.4844 63.375
Q32.9062 63.375 39.7969 66.6094
L40.0938 66.6094
Q40.4375 66.6094 40.7188 66.3594
Q41.0156 66.1094 41.0156 65.8281
L41.0156 64.8906
Q41.0156 64.4062 40.8281 64.4062
Q37.4062 59.8594 32.25 57.3125
Q27.0938 54.7812 21.5781 54.7812
Q17.5781 54.7812 13.375 55.9062
L13.375 37.0156
Q16.7031 39.7031 19.3125 40.8438
Q21.9219 42 25.9844 42
Q31.5 42 35.8594 38.8125
Q40.2344 35.6406 42.5781 30.5312
Q44.9219 25.4375 44.9219 20.125
Q44.9219 14.1094 41.9688 8.98438
Q39.0156 3.85938 33.9375 0.828125
Q28.8594 -2.20312 22.9062 -2.20312
Q17.9688 -2.20312 13.8438 0.328125
Q9.71875 2.875 7.34375 7.17188
Q4.98438 11.4688 4.98438 16.3125
Q4.98438 18.5625 6.4375 19.9688
Q7.90625 21.3906 10.1094 21.3906
Q12.3125 21.3906 13.7969 19.9375
Q15.2812 18.5 15.2812 16.3125
Q15.2812 14.1562 13.7969 12.6719
Q12.3125 11.1875 10.1094 11.1875
Q9.76562 11.1875 9.32812 11.25
Q8.89062 11.3281 8.6875 11.375" id="Cmr10-35"/>
    </defs>
    <g transform="translate(262.346537476 236.429375)scale(0.14 -0.14)">
     <use transform="translate(0.0 0.8125)" xlink:href="#Cmmi10-78"/>
     <use transform="translate(57.080078125 -24.696875)scale(0.7)" xlink:href="#Cmr10-35"/>
    </g>
   </g>
   <g id="patch_13">
    <path d="
M282.281 224.8
L282.281 228.8
L282.281 228.8
L282.281 232.8
L282.281 226.8
L282.281 220.8
L282.281 224.8
z
" style="stroke:#000000;"/>
   </g>
   <g id="text_23">
    <!-- $y_5$ -->
    <g transform="translate(282.280731201 236.429375)scale(0.14 -0.14)">
     <use transform="translate(0.0 0.8125)" xlink:href="#Cmmi10-79"/>
     <use transform="translate(49.0234375 -24.696875)scale(0.7)" xlink:href="#Cmr10-35"/>
    </g>
   </g>
   <g id="text_24">
    <!-- $x_6$ -->
    <defs>
     <path d="
M25 -2.20312
Q18.7969 -2.20312 14.6406 1.09375
Q10.5 4.39062 8.21875 9.64062
Q5.95312 14.8906 5.07812 20.6562
Q4.20312 26.4219 4.20312 32.3281
Q4.20312 40.2344 7.28125 48.1875
Q10.3594 56.1562 16.3281 61.375
Q22.3125 66.6094 30.5156 66.6094
Q33.9375 66.6094 36.8906 65.3125
Q39.8438 64.0156 41.5312 61.5
Q43.2188 58.9844 43.2188 55.4219
Q43.2188 53.375 41.8281 51.9844
Q40.4375 50.5938 38.375 50.5938
Q36.4219 50.5938 35 52
Q33.5938 53.4219 33.5938 55.4219
Q33.5938 57.375 35 58.7812
Q36.4219 60.2031 38.375 60.2031
L38.9219 60.2031
Q37.6406 62.0156 35.3281 62.8594
Q33.0156 63.7188 30.5156 63.7188
Q27.4844 63.7188 24.9219 62.3906
Q22.3594 61.0781 20.3125 58.8281
Q18.2656 56.5938 16.8906 53.875
Q15.5312 51.1719 14.7656 47.7031
Q14.0156 44.2344 13.8125 41.2031
Q13.625 38.1875 13.625 33.5938
Q15.375 37.7031 18.5938 40.3125
Q21.8281 42.9219 25.875 42.9219
Q30.3281 42.9219 33.9844 41.1094
Q37.6406 39.3125 40.2812 36.1094
Q42.9219 32.9062 44.3125 28.7969
Q45.7031 24.7031 45.7031 20.5156
Q45.7031 14.6562 43.0938 9.34375
Q40.4844 4.04688 35.7344 0.921875
Q31 -2.20312 25 -2.20312
M25 0.984375
Q28.8594 0.984375 31.2031 2.73438
Q33.5469 4.5 34.6406 7.39062
Q35.75 10.2969 36.0156 13.25
Q36.2812 16.2188 36.2812 20.5156
Q36.2812 26.1719 35.7344 30.1719
Q35.2031 34.1875 32.8125 37.2344
Q30.4219 40.2812 25.4844 40.2812
Q21.4375 40.2812 18.8281 37.5469
Q16.2188 34.8125 15.0156 30.6406
Q13.8125 26.4688 13.8125 22.6094
Q13.8125 21.2969 13.9219 20.6094
Q13.9219 20.4531 13.8906 20.3594
Q13.875 20.2656 13.8125 20.125
Q13.8125 15.8281 14.6875 11.4219
Q15.5781 7.03125 18.0625 4
Q20.5625 0.984375 25 0.984375" id="Cmr10-36"/>
    </defs>
    <g transform="translate(321.922236328 236.429375)scale(0.14 -0.14)">
     <use transform="translate(0.0 0.8125)" xlink:href="#Cmmi10-78"/>
     <use transform="translate(57.080078125 -24.696875)scale(0.7)" xlink:href="#Cmr10-36"/>
    </g>
   </g>
   <g id="patch_14">
    <path d="
M343.241 224.8
L343.241 228.8
L343.241 228.8
L343.241 232.8
L343.241 226.8
L343.241 220.8
L343.241 224.8
z
" style="stroke:#000000;"/>
   </g>
   <g id="text_25">
    <!-- $y_6$ -->
    <g transform="translate(343.240524292 236.429375)scale(0.14 -0.14)">
     <use transform="translate(0.0 0.8125)" xlink:href="#Cmmi10-79"/>
     <use transform="translate(49.0234375 -24.696875)scale(0.7)" xlink:href="#Cmr10-36"/>
    </g>
   </g>
   <g id="text_26">
    <!-- $x_7$ -->
    <defs>
     <path d="
M17.3906 2.59375
Q17.3906 8.15625 18.3594 13.4688
Q19.3438 18.7969 21.2188 24
Q23.0938 29.2031 25.75 34.2031
Q28.4219 39.2031 31.5938 43.6094
L40.7188 56.2969
L29.2969 56.2969
Q11.5312 56.2969 10.9844 55.8125
Q9.67188 54.2031 8.5 46.5781
L5.60938 46.5781
L8.89062 67.5781
L11.8125 67.5781
L11.8125 67.2812
Q11.8125 65.4844 17.9219 64.9375
Q24.0312 64.4062 29.8906 64.4062
L48.4844 64.4062
L48.4844 61.8125
Q48.4844 61.7188 48.4531 61.6719
Q48.4375 61.625 48.3906 61.5312
L34.625 42.1875
Q29.5469 34.6719 28.2656 25.4844
Q27 16.3125 27 2.59375
Q27 0.640625 25.5781 -0.78125
Q24.1719 -2.20312 22.2188 -2.20312
Q20.2188 -2.20312 18.7969 -0.78125
Q17.3906 0.640625 17.3906 2.59375" id="Cmr10-37"/>
    </defs>
    <g transform="translate(357.607493286 236.429375)scale(0.14 -0.14)">
     <use transform="translate(0.0 0.8125)" xlink:href="#Cmmi10-78"/>
     <use transform="translate(57.080078125 -24.696875)scale(0.7)" xlink:href="#Cmr10-37"/>
    </g>
   </g>
   <g id="patch_15">
    <path d="
M377.963 224.8
L377.963 228.8
L377.963 228.8
L377.963 232.8
L377.963 226.8
L377.963 220.8
L377.963 224.8
z
" style="stroke:#000000;"/>
   </g>
   <g id="text_27">
    <!-- $y_7$ -->
    <g transform="translate(377.962921143 236.429375)scale(0.14 -0.14)">
     <use transform="translate(0.0 0.8125)" xlink:href="#Cmmi10-79"/>
     <use transform="translate(49.0234375 -24.696875)scale(0.7)" xlink:href="#Cmr10-37"/>
    </g>
   </g>
   <g id="text_28">
    <!-- $x_8$ -->
    <defs>
     <path d="
M4.20312 15.1875
Q4.20312 21.1875 8.15625 25.7969
Q12.1094 30.4219 18.3125 33.5
L14.5938 35.8906
Q11.1875 38.1406 9.03125 41.875
Q6.89062 45.6094 6.89062 49.7031
Q6.89062 54.5 9.40625 58.3438
Q11.9219 62.2031 16.0938 64.4062
Q20.2656 66.6094 25 66.6094
Q29.4375 66.6094 33.5625 64.7969
Q37.7031 62.9844 40.3594 59.6094
Q43.0156 56.25 43.0156 51.6094
Q43.0156 48.25 41.4219 45.3594
Q39.8438 42.4844 37.0781 40.1875
Q34.3281 37.8906 31.2031 36.2812
L36.9219 32.625
Q40.875 30.0312 43.2812 25.8281
Q45.7031 21.625 45.7031 17
Q45.7031 11.5781 42.7969 7.125
Q39.8906 2.6875 35.1094 0.234375
Q30.3281 -2.20312 25 -2.20312
Q19.8281 -2.20312 15.0156 -0.09375
Q10.2031 2 7.20312 5.98438
Q4.20312 9.96875 4.20312 15.1875
M9.625 15.1875
Q9.625 11.2344 11.7969 7.95312
Q13.9688 4.6875 17.5312 2.82812
Q21.0938 0.984375 25 0.984375
Q30.8125 0.984375 35.5469 4.375
Q40.2812 7.76562 40.2812 13.375
Q40.2812 15.2812 39.5156 17.1562
Q38.7656 19.0469 37.4219 20.5781
Q36.0781 22.125 34.4219 23.0938
L21 31.7812
Q17.875 30.125 15.25 27.5781
Q12.6406 25.0469 11.125 21.875
Q9.625 18.7031 9.625 15.1875
M16.5 45.7031
L28.6094 37.8906
Q32.8125 40.3281 35.5 43.7969
Q38.1875 47.2656 38.1875 51.6094
Q38.1875 54.9844 36.2969 57.7812
Q34.4219 60.5938 31.3906 62.1562
Q28.375 63.7188 24.9062 63.7188
Q21.875 63.7188 18.7969 62.5469
Q15.7188 61.375 13.7188 59.0469
Q11.7188 56.7344 11.7188 53.6094
Q11.7188 48.9219 16.5 45.7031" id="Cmr10-38"/>
    </defs>
    <g transform="translate(405.930003052 236.429375)scale(0.14 -0.14)">
     <use transform="translate(0.0 0.8125)" xlink:href="#Cmmi10-78"/>
     <use transform="translate(57.080078125 -24.696875)scale(0.7)" xlink:href="#Cmr10-38"/>
    </g>
   </g>
   <g id="text_29">
    <!-- Dwell &amp; Flight time chart -->
    <defs>
     <path d="
M62.2031 51.4062
Q70.9062 51.4062 75.9531 45.8438
Q81 40.2969 81 30.5938
L81 0
L64.2969 0
L64.2969 28.7031
Q64.2969 35.7031 58.0938 35.7031
Q54.7031 35.7031 52.9531 33.4531
Q51.2031 31.2031 51.2031 27.2969
L51.2031 0
L34.5938 0
L34.5938 28.7031
Q34.5938 35.7031 28.2969 35.7031
Q24.9062 35.7031 23.1562 33.4531
Q21.4062 31.2031 21.4062 27.2969
L21.4062 0
L4.79688 0
L4.79688 50
L21.4062 50
L21.4062 45.2969
Q26 51.4062 34.9062 51.4062
Q43.5 51.4062 47.7031 45
Q52.9062 51.4062 62.2031 51.4062" id="Gilroy-Black-6d"/>
     <path d="
M4.79688 0
L4.79688 73
L21.4062 73
L21.4062 0
z
" id="Gilroy-Black-6c"/>
     <path id="Gilroy-Black-20"/>
     <path d="
M34 70
Q48.5 70 58.25 59.9531
Q68 49.9062 68 35
Q68 20.0938 58.25 10.0469
Q48.5 0 34 0
L5.5 0
L5.5 70
z

M34 17.2969
Q41.2969 17.2969 45.8906 22.1406
Q50.5 27 50.5 35
Q50.5 43 45.8906 47.8438
Q41.2969 52.7031 34 52.7031
L23.9062 52.7031
L23.9062 17.2969
z
" id="Gilroy-Black-44"/>
     <path d="
M48.5 52.7031
L23.4062 52.7031
L23.4062 41.2969
L48 41.2969
L48 24
L23.4062 24
L23.4062 0
L5.5 0
L5.5 70
L48.5 70
z
" id="Gilroy-Black-46"/>
     <path d="
M66.5 5.20312
L52.7969 -2.70312
L46.9062 3.70312
Q38.7969 -1.5 28.7031 -1.5
Q17.2969 -1.5 10.3906 4.45312
Q3.5 10.4062 3.5 19.9062
Q3.5 32.2969 14.7969 39.4062
Q11.5938 44.7969 11.5938 50.7969
Q11.5938 59.7969 18.0469 65.6406
Q24.5 71.5 34.5938 71.5
Q51.7031 71.5 58.7031 55.7969
L43.5938 47
Q40.7969 54.5 35.2031 54.5
Q32.5938 54.5 31.1406 53.0469
Q29.7031 51.5938 29.7031 49.4062
Q29.7031 47.9062 30.5469 46.25
Q31.4062 44.5938 32.2031 43.6406
Q33 42.7031 35.2031 40.2031
L47 27.0938
Q49.0938 32.0938 50.0938 37.2969
L64.5 29
Q62.5 21.5938 58 14.7031
z

M30.5 14
Q33.7031 14 36.4062 15.2031
L24.5938 28
Q21.5938 25.2969 21.5938 21.2969
Q21.5938 18.0938 23.8438 16.0469
Q26.0938 14 30.5 14" id="Gilroy-Black-26"/>
     <path d="
M61 50
L78.5938 50
L63.2969 0
L47.0938 0
L39.9062 25.4062
L32.7031 0
L16.5 0
L1.20312 50
L18.7969 50
L25.4062 22.7969
L32.9062 50
L46.9062 50
L54.4062 22.7969
z
" id="Gilroy-Black-77"/>
     <path d="
M19.5938 18.9062
Q22.0938 12.7969 30.7969 12.7969
Q36.2031 12.7969 39.9062 16.2969
L51.9062 7.90625
Q44.5 -1.40625 30.4062 -1.40625
Q17.7031 -1.40625 10.0469 6.04688
Q2.40625 13.5 2.40625 24.9062
Q2.40625 36.2031 9.90625 43.7969
Q17.4062 51.4062 29 51.4062
Q40.2031 51.4062 47.5 43.9062
Q54.7969 36.4062 54.7969 25.0938
Q54.7969 21.7969 54.0938 18.9062
z

M19.4062 30.4062
L38.5938 30.4062
Q36.5938 37.4062 29.2031 37.4062
Q21.5 37.4062 19.4062 30.4062" id="Gilroy-Black-65"/>
     <path d="
M40.5938 50
L57 50
L57 2
Q57 -4 54.75 -8.64062
Q52.5 -13.2969 48.7031 -16.0469
Q44.9062 -18.7969 40.3438 -20.1406
Q35.7969 -21.5 30.7031 -21.5
Q22.4062 -21.5 15.9062 -18.3906
Q9.40625 -15.2969 6.09375 -9.29688
L19.9062 -1.29688
Q23.5 -7 30.5 -7
Q35 -7 37.7969 -4.70312
Q40.5938 -2.40625 40.5938 2
L40.5938 6.79688
Q35.5 0.59375 26.5938 0.59375
Q16.2969 0.59375 9.54688 8
Q2.79688 15.4062 2.79688 26
Q2.79688 36.5938 9.54688 44
Q16.2969 51.4062 26.5938 51.4062
Q35.5 51.4062 40.5938 45.2031
z

M19.4062 21.5
Q25.2969 15.5938 30 15.5938
Q34.7031 15.5938 37.6406 18.5469
Q40.5938 21.5 40.5938 26
Q40.5938 30.5 37.6406 33.4531
Q34.7031 36.4062 30 36.4062
Q25.2969 36.4062 22.3438 33.4531
Q19.4062 30.5 19.4062 26
Q19.4062 21.5 25.2969 15.5938" id="Gilroy-Black-67"/>
     <path d="
M40.0938 50
L56.7031 50
L56.7031 0
L40.0938 0
L40.0938 4.59375
Q35 -1.40625 25.9062 -1.40625
Q15.9062 -1.40625 9.15625 6.14062
Q2.40625 13.7031 2.40625 25
Q2.40625 36.2969 9.15625 43.8438
Q15.9062 51.4062 25.9062 51.4062
Q35 51.4062 40.0938 45.4062
z

M19.0938 20.0938
Q24.9062 14.0938 29.5938 14.0938
Q34.2969 14.0938 37.1875 17.0938
Q40.0938 20.0938 40.0938 25
Q40.0938 29.9062 37.1875 32.9062
Q34.2969 35.9062 29.5938 35.9062
Q24.9062 35.9062 22 32.9062
Q19.0938 29.9062 19.0938 25
Q19.0938 20.0938 24.9062 14.0938" id="Gilroy-Black-61"/>
     <path d="
M29 -1.40625
Q17.5938 -1.40625 10 6.1875
Q2.40625 13.7969 2.40625 25
Q2.40625 36.2031 10 43.7969
Q17.5938 51.4062 29 51.4062
Q36.4062 51.4062 42.4531 47.9062
Q48.5 44.4062 51.7969 38.5
L37.5938 30.2969
Q34.9062 35.2031 28.9062 35.2031
Q24.7031 35.2031 21.8906 32.3438
Q19.0938 29.5 19.0938 25
Q19.0938 20.5 21.8906 17.6406
Q24.7031 14.7969 28.9062 14.7969
Q35.0938 14.7969 37.5938 19.7969
L51.7969 11.5938
Q48.5 5.59375 42.4531 2.09375
Q36.4062 -1.40625 29 -1.40625" id="Gilroy-Black-63"/>
     <path d="
M35.2969 51.4062
Q43.4062 51.4062 48.5469 45.8438
Q53.7031 40.2969 53.7031 29.9062
L53.7031 0
L37.0938 0
L37.0938 27.7969
Q37.0938 31.7031 35.0469 33.7031
Q33 35.7031 29.5938 35.7031
Q25.7031 35.7031 23.5469 33.3438
Q21.4062 31 21.4062 26.5938
L21.4062 0
L4.79688 0
L4.79688 70
L21.4062 70
L21.4062 45
Q25.9062 51.4062 35.2969 51.4062" id="Gilroy-Black-68"/>
     <path d="
M22.7031 59.7969
Q17 54.0938 13.0938 54.0938
Q9.20312 54.0938 6.34375 56.9375
Q3.5 59.7969 3.5 63.6875
Q3.5 67.5938 6.34375 70.3906
Q9.20312 73.2031 13.0938 73.2031
Q17 73.2031 19.8438 70.3906
Q22.7031 67.5938 22.7031 63.6875
Q22.7031 59.7969 17 54.0938
M4.79688 0
L4.79688 50
L21.4062 50
L21.4062 0
z
" id="Gilroy-Black-69"/>
     <path d="
M35.7969 34.0938
L25.4062 34.0938
L25.4062 19.5938
Q25.4062 16.2969 27.7969 15.5
Q30.2031 14.7031 35.7969 15
L35.7969 0
Q20.9062 -1.79688 14.8438 2.75
Q8.79688 7.29688 8.79688 19.2031
L8.79688 34.0938
L1.29688 34.0938
L1.29688 50
L8.79688 50
L8.79688 59
L25.4062 64
L25.4062 50
L35.7969 50
z
" id="Gilroy-Black-74"/>
     <path d="
M21.4062 40.7031
Q22.7969 45.5938 27 48.2969
Q31.2031 51 36.4062 51
L36.4062 32.5938
Q30.7031 33.5 26.0469 30.5
Q21.4062 27.5 21.4062 20.7031
L21.4062 0
L4.79688 0
L4.79688 50
L21.4062 50
z
" id="Gilroy-Black-72"/>
    </defs>
    <g transform="translate(190.138125 15.16)scale(0.12 -0.12)">
     <use xlink:href="#Gilroy-Black-44"/>
     <use x="70.799987793" xlink:href="#Gilroy-Black-77"/>
     <use x="150.599975586" xlink:href="#Gilroy-Black-65"/>
     <use x="207.699966431" xlink:href="#Gilroy-Black-6c"/>
     <use x="233.899963379" xlink:href="#Gilroy-Black-6c"/>
     <use x="260.099960327" xlink:href="#Gilroy-Black-20"/>
     <use x="282.799957275" xlink:href="#Gilroy-Black-26"/>
     <use x="350.799942017" xlink:href="#Gilroy-Black-20"/>
     <use x="373.499938965" xlink:href="#Gilroy-Black-46"/>
     <use x="425.299926758" xlink:href="#Gilroy-Black-6c"/>
     <use x="451.499923706" xlink:href="#Gilroy-Black-69"/>
     <use x="477.699920654" xlink:href="#Gilroy-Black-67"/>
     <use x="539.499908447" xlink:href="#Gilroy-Black-68"/>
     <use x="597.399902344" xlink:href="#Gilroy-Black-74"/>
     <use x="636.79989624" xlink:href="#Gilroy-Black-20"/>
     <use x="659.499893188" xlink:href="#Gilroy-Black-74"/>
     <use x="698.899887085" xlink:href="#Gilroy-Black-69"/>
     <use x="725.099884033" xlink:href="#Gilroy-Black-6d"/>
     <use x="810.299865723" xlink:href="#Gilroy-Black-65"/>
     <use x="867.399856567" xlink:href="#Gilroy-Black-20"/>
     <use x="890.099853516" xlink:href="#Gilroy-Black-63"/>
     <use x="942.899841309" xlink:href="#Gilroy-Black-68"/>
     <use x="1000.79983521" xlink:href="#Gilroy-Black-61"/>
     <use x="1062.29981995" xlink:href="#Gilroy-Black-72"/>
     <use x="1100.19981384" xlink:href="#Gilroy-Black-74"/>
    </g>
   </g>
  </g>
 </g>
 <defs>
  <clipPath id="p32204b1505">
   <rect height="216.0" width="390.6" x="63.0" y="28.8"/>
  </clipPath>
 </defs>
</svg>
