<?xml version="1.0" encoding="utf-8" standalone="no"?>
<!DOCTYPE svg PUBLIC "-//W3C//DTD SVG 1.1//EN"
  "http://www.w3.org/Graphics/SVG/1.1/DTD/svg11.dtd">
<!-- Created with matplotlib (http://matplotlib.org/) -->
<svg height="345pt" version="1.1" viewBox="0 0 460 345" width="460pt" xmlns="http://www.w3.org/2000/svg" xmlns:xlink="http://www.w3.org/1999/xlink">
 <defs>
  <style type="text/css">
*{stroke-linecap:butt;stroke-linejoin:round;}
  </style>
 </defs>
 <g id="figure_1">
  <g id="patch_1">
   <path d="M 0 345.6 
L 460.8 345.6 
L 460.8 0 
L 0 0 
z
" style="fill:#ffffff;"/>
  </g>
  <g id="axes_1">
   <g id="patch_2">
    <path d="M 57.6 293.76 
L 414.72 293.76 
L 414.72 41.472 
L 57.6 41.472 
z
" style="fill:#ffffff;"/>
   </g>
   <g id="patch_3">
    <path clip-path="url(#pc6dae71031)" d="M 57.6 218.334268 
L 472.489412 218.334268 
L 472.489412 95.029216 
L 57.6 95.029216 
z
" style="fill:url(#h2e323b40e2);opacity:0.5;"/>
   </g>
   <g id="matplotlib.axis_1">
    <g id="xtick_1">
     <g id="line2d_1">
      <defs>
       <path d="M 0 0 
L 0 3.5 
" id="m3f966138f2" style="stroke:#000000;stroke-width:0.8;"/>
      </defs>
      <g>
       <use style="stroke:#000000;stroke-width:0.8;" x="57.6" xlink:href="#m3f966138f2" y="293.76"/>
      </g>
     </g>
     <g id="text_1">
      <!-- 0 -->
      <defs>
       <path d="M 31.78125 66.40625 
Q 24.171875 66.40625 20.328125 58.90625 
Q 16.5 51.421875 16.5 36.375 
Q 16.5 21.390625 20.328125 13.890625 
Q 24.171875 6.390625 31.78125 6.390625 
Q 39.453125 6.390625 43.28125 13.890625 
Q 47.125 21.390625 47.125 36.375 
Q 47.125 51.421875 43.28125 58.90625 
Q 39.453125 66.40625 31.78125 66.40625 
z
M 31.78125 74.21875 
Q 44.046875 74.21875 50.515625 64.515625 
Q 56.984375 54.828125 56.984375 36.375 
Q 56.984375 17.96875 50.515625 8.265625 
Q 44.046875 -1.421875 31.78125 -1.421875 
Q 19.53125 -1.421875 13.0625 8.265625 
Q 6.59375 17.96875 6.59375 36.375 
Q 6.59375 54.828125 13.0625 64.515625 
Q 19.53125 74.21875 31.78125 74.21875 
z
" id="DejaVuSans-30"/>
      </defs>
      <g transform="translate(54.41875 308.358437)scale(0.1 -0.1)">
       <use xlink:href="#DejaVuSans-30"/>
      </g>
     </g>
    </g>
    <g id="xtick_2">
     <g id="line2d_2">
      <g>
       <use style="stroke:#000000;stroke-width:0.8;" x="110.117647" xlink:href="#m3f966138f2" y="293.76"/>
      </g>
     </g>
     <g id="text_2">
      <!-- 10 -->
      <defs>
       <path d="M 12.40625 8.296875 
L 28.515625 8.296875 
L 28.515625 63.921875 
L 10.984375 60.40625 
L 10.984375 69.390625 
L 28.421875 72.90625 
L 38.28125 72.90625 
L 38.28125 8.296875 
L 54.390625 8.296875 
L 54.390625 0 
L 12.40625 0 
z
" id="DejaVuSans-31"/>
      </defs>
      <g transform="translate(103.755147 308.358437)scale(0.1 -0.1)">
       <use xlink:href="#DejaVuSans-31"/>
       <use x="63.623047" xlink:href="#DejaVuSans-30"/>
      </g>
     </g>
    </g>
    <g id="xtick_3">
     <g id="line2d_3">
      <g>
       <use style="stroke:#000000;stroke-width:0.8;" x="162.635294" xlink:href="#m3f966138f2" y="293.76"/>
      </g>
     </g>
     <g id="text_3">
      <!-- 20 -->
      <defs>
       <path d="M 19.1875 8.296875 
L 53.609375 8.296875 
L 53.609375 0 
L 7.328125 0 
L 7.328125 8.296875 
Q 12.9375 14.109375 22.625 23.890625 
Q 32.328125 33.6875 34.8125 36.53125 
Q 39.546875 41.84375 41.421875 45.53125 
Q 43.3125 49.21875 43.3125 52.78125 
Q 43.3125 58.59375 39.234375 62.25 
Q 35.15625 65.921875 28.609375 65.921875 
Q 23.96875 65.921875 18.8125 64.3125 
Q 13.671875 62.703125 7.8125 59.421875 
L 7.8125 69.390625 
Q 13.765625 71.78125 18.9375 73 
Q 24.125 74.21875 28.421875 74.21875 
Q 39.75 74.21875 46.484375 68.546875 
Q 53.21875 62.890625 53.21875 53.421875 
Q 53.21875 48.921875 51.53125 44.890625 
Q 49.859375 40.875 45.40625 35.40625 
Q 44.1875 33.984375 37.640625 27.21875 
Q 31.109375 20.453125 19.1875 8.296875 
z
" id="DejaVuSans-32"/>
      </defs>
      <g transform="translate(156.272794 308.358437)scale(0.1 -0.1)">
       <use xlink:href="#DejaVuSans-32"/>
       <use x="63.623047" xlink:href="#DejaVuSans-30"/>
      </g>
     </g>
    </g>
    <g id="xtick_4">
     <g id="line2d_4">
      <g>
       <use style="stroke:#000000;stroke-width:0.8;" x="215.152941" xlink:href="#m3f966138f2" y="293.76"/>
      </g>
     </g>
     <g id="text_4">
      <!-- 30 -->
      <defs>
       <path d="M 40.578125 39.3125 
Q 47.65625 37.796875 51.625 33 
Q 55.609375 28.21875 55.609375 21.1875 
Q 55.609375 10.40625 48.1875 4.484375 
Q 40.765625 -1.421875 27.09375 -1.421875 
Q 22.515625 -1.421875 17.65625 -0.515625 
Q 12.796875 0.390625 7.625 2.203125 
L 7.625 11.71875 
Q 11.71875 9.328125 16.59375 8.109375 
Q 21.484375 6.890625 26.8125 6.890625 
Q 36.078125 6.890625 40.9375 10.546875 
Q 45.796875 14.203125 45.796875 21.1875 
Q 45.796875 27.640625 41.28125 31.265625 
Q 36.765625 34.90625 28.71875 34.90625 
L 20.21875 34.90625 
L 20.21875 43.015625 
L 29.109375 43.015625 
Q 36.375 43.015625 40.234375 45.921875 
Q 44.09375 48.828125 44.09375 54.296875 
Q 44.09375 59.90625 40.109375 62.90625 
Q 36.140625 65.921875 28.71875 65.921875 
Q 24.65625 65.921875 20.015625 65.03125 
Q 15.375 64.15625 9.8125 62.3125 
L 9.8125 71.09375 
Q 15.4375 72.65625 20.34375 73.4375 
Q 25.25 74.21875 29.59375 74.21875 
Q 40.828125 74.21875 47.359375 69.109375 
Q 53.90625 64.015625 53.90625 55.328125 
Q 53.90625 49.265625 50.4375 45.09375 
Q 46.96875 40.921875 40.578125 39.3125 
z
" id="DejaVuSans-33"/>
      </defs>
      <g transform="translate(208.790441 308.358437)scale(0.1 -0.1)">
       <use xlink:href="#DejaVuSans-33"/>
       <use x="63.623047" xlink:href="#DejaVuSans-30"/>
      </g>
     </g>
    </g>
    <g id="xtick_5">
     <g id="line2d_5">
      <g>
       <use style="stroke:#000000;stroke-width:0.8;" x="267.670588" xlink:href="#m3f966138f2" y="293.76"/>
      </g>
     </g>
     <g id="text_5">
      <!-- 40 -->
      <defs>
       <path d="M 37.796875 64.3125 
L 12.890625 25.390625 
L 37.796875 25.390625 
z
M 35.203125 72.90625 
L 47.609375 72.90625 
L 47.609375 25.390625 
L 58.015625 25.390625 
L 58.015625 17.1875 
L 47.609375 17.1875 
L 47.609375 0 
L 37.796875 0 
L 37.796875 17.1875 
L 4.890625 17.1875 
L 4.890625 26.703125 
z
" id="DejaVuSans-34"/>
      </defs>
      <g transform="translate(261.308088 308.358437)scale(0.1 -0.1)">
       <use xlink:href="#DejaVuSans-34"/>
       <use x="63.623047" xlink:href="#DejaVuSans-30"/>
      </g>
     </g>
    </g>
    <g id="xtick_6">
     <g id="line2d_6">
      <g>
       <use style="stroke:#000000;stroke-width:0.8;" x="320.188235" xlink:href="#m3f966138f2" y="293.76"/>
      </g>
     </g>
     <g id="text_6">
      <!-- 50 -->
      <defs>
       <path d="M 10.796875 72.90625 
L 49.515625 72.90625 
L 49.515625 64.59375 
L 19.828125 64.59375 
L 19.828125 46.734375 
Q 21.96875 47.46875 24.109375 47.828125 
Q 26.265625 48.1875 28.421875 48.1875 
Q 40.625 48.1875 47.75 41.5 
Q 54.890625 34.8125 54.890625 23.390625 
Q 54.890625 11.625 47.5625 5.09375 
Q 40.234375 -1.421875 26.90625 -1.421875 
Q 22.3125 -1.421875 17.546875 -0.640625 
Q 12.796875 0.140625 7.71875 1.703125 
L 7.71875 11.625 
Q 12.109375 9.234375 16.796875 8.0625 
Q 21.484375 6.890625 26.703125 6.890625 
Q 35.15625 6.890625 40.078125 11.328125 
Q 45.015625 15.765625 45.015625 23.390625 
Q 45.015625 31 40.078125 35.4375 
Q 35.15625 39.890625 26.703125 39.890625 
Q 22.75 39.890625 18.8125 39.015625 
Q 14.890625 38.140625 10.796875 36.28125 
z
" id="DejaVuSans-35"/>
      </defs>
      <g transform="translate(313.825735 308.358437)scale(0.1 -0.1)">
       <use xlink:href="#DejaVuSans-35"/>
       <use x="63.623047" xlink:href="#DejaVuSans-30"/>
      </g>
     </g>
    </g>
    <g id="xtick_7">
     <g id="line2d_7">
      <g>
       <use style="stroke:#000000;stroke-width:0.8;" x="372.705882" xlink:href="#m3f966138f2" y="293.76"/>
      </g>
     </g>
     <g id="text_7">
      <!-- 60 -->
      <defs>
       <path d="M 33.015625 40.375 
Q 26.375 40.375 22.484375 35.828125 
Q 18.609375 31.296875 18.609375 23.390625 
Q 18.609375 15.53125 22.484375 10.953125 
Q 26.375 6.390625 33.015625 6.390625 
Q 39.65625 6.390625 43.53125 10.953125 
Q 47.40625 15.53125 47.40625 23.390625 
Q 47.40625 31.296875 43.53125 35.828125 
Q 39.65625 40.375 33.015625 40.375 
z
M 52.59375 71.296875 
L 52.59375 62.3125 
Q 48.875 64.0625 45.09375 64.984375 
Q 41.3125 65.921875 37.59375 65.921875 
Q 27.828125 65.921875 22.671875 59.328125 
Q 17.53125 52.734375 16.796875 39.40625 
Q 19.671875 43.65625 24.015625 45.921875 
Q 28.375 48.1875 33.59375 48.1875 
Q 44.578125 48.1875 50.953125 41.515625 
Q 57.328125 34.859375 57.328125 23.390625 
Q 57.328125 12.15625 50.6875 5.359375 
Q 44.046875 -1.421875 33.015625 -1.421875 
Q 20.359375 -1.421875 13.671875 8.265625 
Q 6.984375 17.96875 6.984375 36.375 
Q 6.984375 53.65625 15.1875 63.9375 
Q 23.390625 74.21875 37.203125 74.21875 
Q 40.921875 74.21875 44.703125 73.484375 
Q 48.484375 72.75 52.59375 71.296875 
z
" id="DejaVuSans-36"/>
      </defs>
      <g transform="translate(366.343382 308.358437)scale(0.1 -0.1)">
       <use xlink:href="#DejaVuSans-36"/>
       <use x="63.623047" xlink:href="#DejaVuSans-30"/>
      </g>
     </g>
    </g>
    <g id="text_8">
     <!-- Press count -->
     <defs>
      <path d="M 13.8125 28.078125 
L 13.8125 0 
L 8.984375 0 
L 8.984375 70.015625 
L 25.875 70.015625 
Q 36.671875 70.015625 42.375 65.015625 
Q 48.09375 60.015625 48.09375 50.390625 
Q 48.09375 40.625 41.71875 34.34375 
Q 35.359375 28.078125 23.875 28.078125 
z
M 13.8125 65.578125 
L 13.8125 32.515625 
L 23.78125 32.515625 
Q 33.25 32.515625 38.171875 37.03125 
Q 43.109375 41.546875 43.109375 49.8125 
Q 43.109375 65.578125 25 65.578125 
z
" id="SegoeUI-Light-50"/>
      <path d="M 31.59375 45.3125 
Q 29.34375 46.921875 26.3125 46.921875 
Q 20.40625 46.921875 16.40625 40.8125 
Q 12.40625 34.71875 12.40625 23.484375 
L 12.40625 0 
L 8.015625 0 
L 8.015625 50 
L 12.40625 50 
L 12.40625 38.921875 
L 12.59375 38.921875 
Q 14.3125 44.625 18.015625 47.796875 
Q 21.734375 50.984375 26.609375 50.984375 
Q 29.390625 50.984375 31.59375 50.09375 
z
" id="SegoeUI-Light-72"/>
      <path d="M 9.078125 24.8125 
Q 9.078125 14.5 13.84375 8.6875 
Q 18.609375 2.875 26.90625 2.875 
Q 35.296875 2.875 43.3125 9.078125 
L 43.3125 4.296875 
Q 35.546875 -1.21875 25.984375 -1.21875 
Q 16.3125 -1.21875 10.34375 5.703125 
Q 4.390625 12.640625 4.390625 25.296875 
Q 4.390625 36.234375 10.609375 43.71875 
Q 16.84375 51.21875 26.8125 51.21875 
Q 36.140625 51.21875 41.109375 44.671875 
Q 46.09375 38.140625 46.09375 26.8125 
L 46.09375 24.8125 
z
M 41.40625 28.90625 
Q 41.109375 37.546875 37.25 42.328125 
Q 33.40625 47.125 26.609375 47.125 
Q 19.578125 47.125 14.96875 42.40625 
Q 10.359375 37.703125 9.28125 28.90625 
z
" id="SegoeUI-Light-65"/>
      <path d="M 5.421875 2.203125 
L 5.421875 7.625 
Q 7.953125 5.421875 11.5625 4.140625 
Q 15.1875 2.875 17.828125 2.875 
Q 29.59375 2.875 29.59375 12.5 
Q 29.59375 15.828125 27 18.171875 
Q 24.421875 20.515625 18.609375 23 
Q 11.421875 26.125 8.515625 29.46875 
Q 5.609375 32.8125 5.609375 37.59375 
Q 5.609375 43.703125 10.265625 47.453125 
Q 14.9375 51.21875 21.78125 51.21875 
Q 28.21875 51.21875 32.8125 48.578125 
L 32.8125 43.5 
Q 27.25 47.125 21.296875 47.125 
Q 16.359375 47.125 13.328125 44.5625 
Q 10.296875 42 10.296875 37.890625 
Q 10.296875 34.328125 12.203125 32.109375 
Q 14.109375 29.890625 20.609375 27 
Q 28.421875 23.484375 31.34375 20.484375 
Q 34.28125 17.484375 34.28125 12.5 
Q 34.28125 6.546875 29.8125 2.65625 
Q 25.34375 -1.21875 17.484375 -1.21875 
Q 10.25 -1.21875 5.421875 2.203125 
z
" id="SegoeUI-Light-73"/>
      <path id="SegoeUI-Light-20"/>
      <path d="M 40.375 2.203125 
Q 34.8125 -1.21875 27.09375 -1.21875 
Q 16.890625 -1.21875 10.640625 5.78125 
Q 4.390625 12.796875 4.390625 24.125 
Q 4.390625 36.03125 11.421875 43.625 
Q 18.453125 51.21875 29.5 51.21875 
Q 35.203125 51.21875 40.578125 48.875 
L 40.578125 43.796875 
Q 35.203125 47.125 28.8125 47.125 
Q 20.015625 47.125 14.546875 40.796875 
Q 9.078125 34.46875 9.078125 24.421875 
Q 9.078125 14.703125 14.078125 8.78125 
Q 19.09375 2.875 27.296875 2.875 
Q 34.8125 2.875 40.375 6.890625 
z
" id="SegoeUI-Light-63"/>
      <path d="M 28.078125 -1.21875 
Q 17.140625 -1.21875 10.765625 5.984375 
Q 4.390625 13.1875 4.390625 24.703125 
Q 4.390625 37.15625 11.046875 44.1875 
Q 17.71875 51.21875 28.609375 51.21875 
Q 39.3125 51.21875 45.5 44.234375 
Q 51.703125 37.25 51.703125 24.90625 
Q 51.703125 13.234375 45.375 6 
Q 39.0625 -1.21875 28.078125 -1.21875 
z
M 28.421875 47.125 
Q 19.578125 47.125 14.328125 41.15625 
Q 9.078125 35.203125 9.078125 24.609375 
Q 9.078125 14.796875 14.203125 8.828125 
Q 19.34375 2.875 28.21875 2.875 
Q 37.25 2.875 42.125 8.734375 
Q 47.015625 14.59375 47.015625 25 
Q 47.015625 35.6875 42.15625 41.40625 
Q 37.3125 47.125 28.421875 47.125 
z
" id="SegoeUI-Light-6f"/>
      <path d="M 41.015625 0 
L 41.015625 9.078125 
L 40.828125 9.078125 
Q 35.59375 -1.21875 24.703125 -1.21875 
Q 6.984375 -1.21875 6.984375 21.09375 
L 6.984375 50 
L 11.53125 50 
L 11.53125 22.21875 
Q 11.53125 12.0625 14.875 7.46875 
Q 18.21875 2.875 25.390625 2.875 
Q 32.375 2.875 36.6875 8 
Q 41.015625 13.140625 41.015625 21.6875 
L 41.015625 50 
L 45.515625 50 
L 45.515625 0 
z
" id="SegoeUI-Light-75"/>
      <path d="M 42 0 
L 42 29.109375 
Q 42 47.125 29 47.125 
Q 21.78125 47.125 17.140625 41.828125 
Q 12.5 36.53125 12.5 28.71875 
L 12.5 0 
L 8.015625 0 
L 8.015625 50 
L 12.5 50 
L 12.5 40.921875 
L 12.703125 40.921875 
Q 18.171875 51.21875 29.78125 51.21875 
Q 37.890625 51.21875 42.1875 45.828125 
Q 46.484375 40.4375 46.484375 30.421875 
L 46.484375 0 
z
" id="SegoeUI-Light-6e"/>
      <path d="M 27.78125 0.6875 
Q 24.265625 -0.984375 21.1875 -0.984375 
Q 10.109375 -0.984375 10.109375 12.3125 
L 10.109375 45.90625 
L 1.125 45.90625 
L 1.125 50 
L 10.109375 50 
L 10.109375 62.984375 
Q 11.1875 63.375 12.359375 63.765625 
Q 13.53125 64.109375 14.59375 64.5 
L 14.59375 50 
L 27.78125 50 
L 27.78125 45.90625 
L 14.59375 45.90625 
L 14.59375 12.890625 
Q 14.59375 7.71875 16.234375 5.390625 
Q 17.875 3.078125 21.78125 3.078125 
Q 24.5625 3.078125 27.78125 4.890625 
z
" id="SegoeUI-Light-74"/>
     </defs>
     <g transform="translate(212.155312 321.84125)scale(0.1 -0.1)">
      <use xlink:href="#SegoeUI-Light-50"/>
      <use x="54.394531" xlink:href="#SegoeUI-Light-72"/>
      <use x="87.371094" xlink:href="#SegoeUI-Light-65"/>
      <use x="137.859375" xlink:href="#SegoeUI-Light-73"/>
      <use x="176.677734" xlink:href="#SegoeUI-Light-73"/>
      <use x="215.496094" xlink:href="#SegoeUI-Light-20"/>
      <use x="242.888672" xlink:href="#SegoeUI-Light-63"/>
      <use x="287.273438" xlink:href="#SegoeUI-Light-6f"/>
      <use x="343.376953" xlink:href="#SegoeUI-Light-75"/>
      <use x="396.892578" xlink:href="#SegoeUI-Light-6e"/>
      <use x="450.408203" xlink:href="#SegoeUI-Light-74"/>
     </g>
    </g>
   </g>
   <g id="matplotlib.axis_2">
    <g id="ytick_1">
     <g id="line2d_8">
      <defs>
       <path d="M 0 0 
L -3.5 0 
" id="m2271290763" style="stroke:#000000;stroke-width:0.8;"/>
      </defs>
      <g>
       <use style="stroke:#000000;stroke-width:0.8;" x="57.6" xlink:href="#m2271290763" y="286.82608"/>
      </g>
     </g>
     <g id="text_9">
      <!-- 0 -->
      <g transform="translate(44.2375 290.625299)scale(0.1 -0.1)">
       <use xlink:href="#DejaVuSans-30"/>
      </g>
     </g>
    </g>
    <g id="ytick_2">
     <g id="line2d_9">
      <g>
       <use style="stroke:#000000;stroke-width:0.8;" x="57.6" xlink:href="#m2271290763" y="233.488237"/>
      </g>
     </g>
     <g id="text_10">
      <!-- 200 -->
      <g transform="translate(31.5125 237.287456)scale(0.1 -0.1)">
       <use xlink:href="#DejaVuSans-32"/>
       <use x="63.623047" xlink:href="#DejaVuSans-30"/>
       <use x="127.246094" xlink:href="#DejaVuSans-30"/>
      </g>
     </g>
    </g>
    <g id="ytick_3">
     <g id="line2d_10">
      <g>
       <use style="stroke:#000000;stroke-width:0.8;" x="57.6" xlink:href="#m2271290763" y="180.150393"/>
      </g>
     </g>
     <g id="text_11">
      <!-- 400 -->
      <g transform="translate(31.5125 183.949612)scale(0.1 -0.1)">
       <use xlink:href="#DejaVuSans-34"/>
       <use x="63.623047" xlink:href="#DejaVuSans-30"/>
       <use x="127.246094" xlink:href="#DejaVuSans-30"/>
      </g>
     </g>
    </g>
    <g id="ytick_4">
     <g id="line2d_11">
      <g>
       <use style="stroke:#000000;stroke-width:0.8;" x="57.6" xlink:href="#m2271290763" y="126.81255"/>
      </g>
     </g>
     <g id="text_12">
      <!-- 600 -->
      <g transform="translate(31.5125 130.611768)scale(0.1 -0.1)">
       <use xlink:href="#DejaVuSans-36"/>
       <use x="63.623047" xlink:href="#DejaVuSans-30"/>
       <use x="127.246094" xlink:href="#DejaVuSans-30"/>
      </g>
     </g>
    </g>
    <g id="ytick_5">
     <g id="line2d_12">
      <g>
       <use style="stroke:#000000;stroke-width:0.8;" x="57.6" xlink:href="#m2271290763" y="73.474706"/>
      </g>
     </g>
     <g id="text_13">
      <!-- 800 -->
      <defs>
       <path d="M 31.78125 34.625 
Q 24.75 34.625 20.71875 30.859375 
Q 16.703125 27.09375 16.703125 20.515625 
Q 16.703125 13.921875 20.71875 10.15625 
Q 24.75 6.390625 31.78125 6.390625 
Q 38.8125 6.390625 42.859375 10.171875 
Q 46.921875 13.96875 46.921875 20.515625 
Q 46.921875 27.09375 42.890625 30.859375 
Q 38.875 34.625 31.78125 34.625 
z
M 21.921875 38.8125 
Q 15.578125 40.375 12.03125 44.71875 
Q 8.5 49.078125 8.5 55.328125 
Q 8.5 64.0625 14.71875 69.140625 
Q 20.953125 74.21875 31.78125 74.21875 
Q 42.671875 74.21875 48.875 69.140625 
Q 55.078125 64.0625 55.078125 55.328125 
Q 55.078125 49.078125 51.53125 44.71875 
Q 48 40.375 41.703125 38.8125 
Q 48.828125 37.15625 52.796875 32.3125 
Q 56.78125 27.484375 56.78125 20.515625 
Q 56.78125 9.90625 50.3125 4.234375 
Q 43.84375 -1.421875 31.78125 -1.421875 
Q 19.734375 -1.421875 13.25 4.234375 
Q 6.78125 9.90625 6.78125 20.515625 
Q 6.78125 27.484375 10.78125 32.3125 
Q 14.796875 37.15625 21.921875 38.8125 
z
M 18.3125 54.390625 
Q 18.3125 48.734375 21.84375 45.5625 
Q 25.390625 42.390625 31.78125 42.390625 
Q 38.140625 42.390625 41.71875 45.5625 
Q 45.3125 48.734375 45.3125 54.390625 
Q 45.3125 60.0625 41.71875 63.234375 
Q 38.140625 66.40625 31.78125 66.40625 
Q 25.390625 66.40625 21.84375 63.234375 
Q 18.3125 60.0625 18.3125 54.390625 
z
" id="DejaVuSans-38"/>
      </defs>
      <g transform="translate(31.5125 77.273925)scale(0.1 -0.1)">
       <use xlink:href="#DejaVuSans-38"/>
       <use x="63.623047" xlink:href="#DejaVuSans-30"/>
       <use x="127.246094" xlink:href="#DejaVuSans-30"/>
      </g>
     </g>
    </g>
    <g id="text_14">
     <!-- Release-to-Release time -->
     <defs>
      <path d="M 44.828125 0 
L 35.5 20.515625 
Q 32.625 26.859375 29.734375 29.03125 
Q 26.859375 31.203125 22.515625 31.203125 
L 13.8125 31.203125 
L 13.8125 0 
L 8.984375 0 
L 8.984375 70.015625 
L 28.421875 70.015625 
Q 37.703125 70.015625 43 65.015625 
Q 48.296875 60.015625 48.296875 51.8125 
Q 48.296875 44.234375 43.9375 39.15625 
Q 39.59375 34.078125 31.78125 32.625 
L 31.78125 32.421875 
Q 35.9375 30.765625 39.890625 22.3125 
L 50.296875 0 
z
M 13.8125 65.578125 
L 13.8125 35.59375 
L 25.875 35.59375 
Q 33.890625 35.59375 38.59375 39.796875 
Q 43.3125 44 43.3125 51.3125 
Q 43.3125 58.015625 39.0625 61.796875 
Q 34.8125 65.578125 26.90625 65.578125 
z
" id="SegoeUI-Light-52"/>
      <path d="M 8.015625 0 
L 8.015625 74.03125 
L 12.5 74.03125 
L 12.5 0 
z
" id="SegoeUI-Light-6c"/>
      <path d="M 37.890625 0 
L 37.890625 10.015625 
L 37.703125 10.015625 
Q 35.296875 4.890625 30.734375 1.828125 
Q 26.171875 -1.21875 20.609375 -1.21875 
Q 13.484375 -1.21875 9.328125 2.78125 
Q 5.171875 6.78125 5.171875 12.890625 
Q 5.171875 25.984375 22.515625 28.71875 
L 37.890625 31 
Q 37.890625 47.125 25.78125 47.125 
Q 17.53125 47.125 9.71875 40.484375 
L 9.71875 45.90625 
Q 12.5 48.09375 17.25 49.65625 
Q 22.015625 51.21875 26.21875 51.21875 
Q 33.9375 51.21875 38.15625 46.4375 
Q 42.390625 41.65625 42.390625 32.515625 
L 42.390625 0 
z
M 24.125 24.90625 
Q 16.265625 23.78125 13.078125 21.265625 
Q 9.90625 18.75 9.90625 13.09375 
Q 9.90625 8.640625 12.859375 5.75 
Q 15.828125 2.875 21.09375 2.875 
Q 28.328125 2.875 33.109375 8.21875 
Q 37.890625 13.578125 37.890625 22.015625 
L 37.890625 26.90625 
z
" id="SegoeUI-Light-61"/>
      <path d="M 7.078125 27.09375 
L 7.078125 31.5 
L 33.796875 31.5 
L 33.796875 27.09375 
z
" id="SegoeUI-Light-2d"/>
      <path d="M 10.203125 62.59375 
Q 8.734375 62.59375 7.609375 63.671875 
Q 6.5 64.75 6.5 66.40625 
Q 6.5 68.015625 7.640625 69.015625 
Q 8.796875 70.015625 10.203125 70.015625 
Q 11.71875 70.015625 12.859375 69.03125 
Q 14.015625 68.0625 14.015625 66.40625 
Q 14.015625 64.84375 12.890625 63.71875 
Q 11.765625 62.59375 10.203125 62.59375 
z
M 8.015625 0 
L 8.015625 50 
L 12.5 50 
L 12.5 0 
z
" id="SegoeUI-Light-69"/>
      <path d="M 70.703125 0 
L 70.703125 30.078125 
Q 70.703125 39.5 67.75 43.3125 
Q 64.796875 47.125 58.40625 47.125 
Q 52.484375 47.125 48.1875 42.046875 
Q 43.890625 36.96875 43.890625 29.296875 
L 43.890625 0 
L 39.40625 0 
L 39.40625 30.421875 
Q 39.40625 47.125 26.703125 47.125 
Q 20.609375 47.125 16.546875 42.015625 
Q 12.5 36.921875 12.5 28.8125 
L 12.5 0 
L 8.015625 0 
L 8.015625 50 
L 12.5 50 
L 12.5 41.703125 
L 12.703125 41.703125 
Q 17.921875 51.21875 27.984375 51.21875 
Q 33.453125 51.21875 37.328125 48.0625 
Q 41.21875 44.921875 42.578125 39.796875 
Q 44.921875 45.21875 49.28125 48.21875 
Q 53.65625 51.21875 58.796875 51.21875 
Q 75.203125 51.21875 75.203125 30.90625 
L 75.203125 0 
z
" id="SegoeUI-Light-6d"/>
     </defs>
     <g transform="translate(25.2125 217.969906)rotate(-90)scale(0.1 -0.1)">
      <use xlink:href="#SegoeUI-Light-52"/>
      <use x="55.517578" xlink:href="#SegoeUI-Light-65"/>
      <use x="106.005859" xlink:href="#SegoeUI-Light-6c"/>
      <use x="126.513672" xlink:href="#SegoeUI-Light-65"/>
      <use x="177.001953" xlink:href="#SegoeUI-Light-61"/>
      <use x="226.416016" xlink:href="#SegoeUI-Light-73"/>
      <use x="265.234375" xlink:href="#SegoeUI-Light-65"/>
      <use x="315.722656" xlink:href="#SegoeUI-Light-2d"/>
      <use x="355.517578" xlink:href="#SegoeUI-Light-74"/>
      <use x="385.205078" xlink:href="#SegoeUI-Light-6f"/>
      <use x="441.308594" xlink:href="#SegoeUI-Light-2d"/>
      <use x="481.103516" xlink:href="#SegoeUI-Light-52"/>
      <use x="536.621094" xlink:href="#SegoeUI-Light-65"/>
      <use x="587.109375" xlink:href="#SegoeUI-Light-6c"/>
      <use x="607.617188" xlink:href="#SegoeUI-Light-65"/>
      <use x="658.105469" xlink:href="#SegoeUI-Light-61"/>
      <use x="707.519531" xlink:href="#SegoeUI-Light-73"/>
      <use x="746.337891" xlink:href="#SegoeUI-Light-65"/>
      <use x="796.826172" xlink:href="#SegoeUI-Light-20"/>
      <use x="824.21875" xlink:href="#SegoeUI-Light-74"/>
      <use x="853.90625" xlink:href="#SegoeUI-Light-69"/>
      <use x="874.414062" xlink:href="#SegoeUI-Light-6d"/>
      <use x="956.591797" xlink:href="#SegoeUI-Light-65"/>
     </g>
    </g>
   </g>
   <g id="line2d_13">
    <path clip-path="url(#pc6dae71031)" d="M 57.6 105.210723 
L 62.851765 139.880321 
L 68.103529 279.358782 
L 73.355294 89.742748 
L 78.607059 228.687831 
L 83.858824 189.751205 
L 89.110588 52.939636 
L 94.362353 182.817285 
L 99.614118 216.153438 
L 104.865882 75.074841 
L 110.117647 188.417759 
L 115.369412 189.217827 
L 120.621176 179.883704 
L 125.872941 58.006732 
L 131.124706 200.685463 
L 136.376471 217.220195 
L 141.628235 210.019586 
L 146.88 105.210723 
L 152.131765 170.549581 
L 157.383529 159.882013 
L 162.635294 105.210723 
L 167.887059 150.814579 
L 173.138824 192.418097 
L 178.390588 244.422495 
L 183.642353 94.809844 
L 188.894118 142.547214 
L 194.145882 282.292364 
L 199.397647 240.422156 
L 204.649412 159.081945 
L 209.901176 118.545184 
L 215.152941 111.077886 
L 220.404706 165.749175 
L 225.656471 84.142275 
L 230.908235 178.283569 
L 236.16 209.219518 
L 241.411765 207.886072 
L 246.663529 174.28323 
L 251.915294 242.288981 
L 257.167059 110.811197 
L 262.418824 276.958579 
L 267.670588 117.211738 
L 272.922353 208.152761 
L 278.174118 71.341192 
L 283.425882 191.084651 
L 288.677647 203.085666 
L 293.929412 91.609573 
L 299.181176 71.074503 
L 304.432941 220.953844 
L 309.684706 131.346266 
L 314.936471 59.340178 
L 320.188235 54.806461 
L 325.44 227.621074 
L 330.691765 61.473691 
L 335.943529 169.482825 
L 341.195294 218.286951 
L 346.447059 156.681742 
L 351.698824 170.016203 
L 356.950588 87.875924 
L 362.202353 56.406596 
L 367.454118 148.147687 
L 372.705882 173.483163 
L 377.957647 196.685125 
L 383.209412 71.341192 
L 388.461176 115.078224 
L 393.712941 175.616677 
L 398.964706 191.35134 
L 404.216471 234.288304 
L 409.468235 72.674638 
L 414.72 122.278833 
" style="fill:none;stroke:#165ea9;stroke-linecap:square;stroke-width:1.5;"/>
    <defs>
     <path d="M 0 3 
C 0.795609 3 1.55874 2.683901 2.12132 2.12132 
C 2.683901 1.55874 3 0.795609 3 0 
C 3 -0.795609 2.683901 -1.55874 2.12132 -2.12132 
C 1.55874 -2.683901 0.795609 -3 0 -3 
C -0.795609 -3 -1.55874 -2.683901 -2.12132 -2.12132 
C -2.683901 -1.55874 -3 -0.795609 -3 0 
C -3 0.795609 -2.683901 1.55874 -2.12132 2.12132 
C -1.55874 2.683901 -0.795609 3 0 3 
z
" id="mb759b495cc" style="stroke:#165ea9;"/>
    </defs>
    <g clip-path="url(#pc6dae71031)">
     <use style="fill:#165ea9;stroke:#165ea9;" x="57.6" xlink:href="#mb759b495cc" y="105.210723"/>
     <use style="fill:#165ea9;stroke:#165ea9;" x="62.851765" xlink:href="#mb759b495cc" y="139.880321"/>
     <use style="fill:#165ea9;stroke:#165ea9;" x="68.103529" xlink:href="#mb759b495cc" y="279.358782"/>
     <use style="fill:#165ea9;stroke:#165ea9;" x="73.355294" xlink:href="#mb759b495cc" y="89.742748"/>
     <use style="fill:#165ea9;stroke:#165ea9;" x="78.607059" xlink:href="#mb759b495cc" y="228.687831"/>
     <use style="fill:#165ea9;stroke:#165ea9;" x="83.858824" xlink:href="#mb759b495cc" y="189.751205"/>
     <use style="fill:#165ea9;stroke:#165ea9;" x="89.110588" xlink:href="#mb759b495cc" y="52.939636"/>
     <use style="fill:#165ea9;stroke:#165ea9;" x="94.362353" xlink:href="#mb759b495cc" y="182.817285"/>
     <use style="fill:#165ea9;stroke:#165ea9;" x="99.614118" xlink:href="#mb759b495cc" y="216.153438"/>
     <use style="fill:#165ea9;stroke:#165ea9;" x="104.865882" xlink:href="#mb759b495cc" y="75.074841"/>
     <use style="fill:#165ea9;stroke:#165ea9;" x="110.117647" xlink:href="#mb759b495cc" y="188.417759"/>
     <use style="fill:#165ea9;stroke:#165ea9;" x="115.369412" xlink:href="#mb759b495cc" y="189.217827"/>
     <use style="fill:#165ea9;stroke:#165ea9;" x="120.621176" xlink:href="#mb759b495cc" y="179.883704"/>
     <use style="fill:#165ea9;stroke:#165ea9;" x="125.872941" xlink:href="#mb759b495cc" y="58.006732"/>
     <use style="fill:#165ea9;stroke:#165ea9;" x="131.124706" xlink:href="#mb759b495cc" y="200.685463"/>
     <use style="fill:#165ea9;stroke:#165ea9;" x="136.376471" xlink:href="#mb759b495cc" y="217.220195"/>
     <use style="fill:#165ea9;stroke:#165ea9;" x="141.628235" xlink:href="#mb759b495cc" y="210.019586"/>
     <use style="fill:#165ea9;stroke:#165ea9;" x="146.88" xlink:href="#mb759b495cc" y="105.210723"/>
     <use style="fill:#165ea9;stroke:#165ea9;" x="152.131765" xlink:href="#mb759b495cc" y="170.549581"/>
     <use style="fill:#165ea9;stroke:#165ea9;" x="157.383529" xlink:href="#mb759b495cc" y="159.882013"/>
     <use style="fill:#165ea9;stroke:#165ea9;" x="162.635294" xlink:href="#mb759b495cc" y="105.210723"/>
     <use style="fill:#165ea9;stroke:#165ea9;" x="167.887059" xlink:href="#mb759b495cc" y="150.814579"/>
     <use style="fill:#165ea9;stroke:#165ea9;" x="173.138824" xlink:href="#mb759b495cc" y="192.418097"/>
     <use style="fill:#165ea9;stroke:#165ea9;" x="178.390588" xlink:href="#mb759b495cc" y="244.422495"/>
     <use style="fill:#165ea9;stroke:#165ea9;" x="183.642353" xlink:href="#mb759b495cc" y="94.809844"/>
     <use style="fill:#165ea9;stroke:#165ea9;" x="188.894118" xlink:href="#mb759b495cc" y="142.547214"/>
     <use style="fill:#165ea9;stroke:#165ea9;" x="194.145882" xlink:href="#mb759b495cc" y="282.292364"/>
     <use style="fill:#165ea9;stroke:#165ea9;" x="199.397647" xlink:href="#mb759b495cc" y="240.422156"/>
     <use style="fill:#165ea9;stroke:#165ea9;" x="204.649412" xlink:href="#mb759b495cc" y="159.081945"/>
     <use style="fill:#165ea9;stroke:#165ea9;" x="209.901176" xlink:href="#mb759b495cc" y="118.545184"/>
     <use style="fill:#165ea9;stroke:#165ea9;" x="215.152941" xlink:href="#mb759b495cc" y="111.077886"/>
     <use style="fill:#165ea9;stroke:#165ea9;" x="220.404706" xlink:href="#mb759b495cc" y="165.749175"/>
     <use style="fill:#165ea9;stroke:#165ea9;" x="225.656471" xlink:href="#mb759b495cc" y="84.142275"/>
     <use style="fill:#165ea9;stroke:#165ea9;" x="230.908235" xlink:href="#mb759b495cc" y="178.283569"/>
     <use style="fill:#165ea9;stroke:#165ea9;" x="236.16" xlink:href="#mb759b495cc" y="209.219518"/>
     <use style="fill:#165ea9;stroke:#165ea9;" x="241.411765" xlink:href="#mb759b495cc" y="207.886072"/>
     <use style="fill:#165ea9;stroke:#165ea9;" x="246.663529" xlink:href="#mb759b495cc" y="174.28323"/>
     <use style="fill:#165ea9;stroke:#165ea9;" x="251.915294" xlink:href="#mb759b495cc" y="242.288981"/>
     <use style="fill:#165ea9;stroke:#165ea9;" x="257.167059" xlink:href="#mb759b495cc" y="110.811197"/>
     <use style="fill:#165ea9;stroke:#165ea9;" x="262.418824" xlink:href="#mb759b495cc" y="276.958579"/>
     <use style="fill:#165ea9;stroke:#165ea9;" x="267.670588" xlink:href="#mb759b495cc" y="117.211738"/>
     <use style="fill:#165ea9;stroke:#165ea9;" x="272.922353" xlink:href="#mb759b495cc" y="208.152761"/>
     <use style="fill:#165ea9;stroke:#165ea9;" x="278.174118" xlink:href="#mb759b495cc" y="71.341192"/>
     <use style="fill:#165ea9;stroke:#165ea9;" x="283.425882" xlink:href="#mb759b495cc" y="191.084651"/>
     <use style="fill:#165ea9;stroke:#165ea9;" x="288.677647" xlink:href="#mb759b495cc" y="203.085666"/>
     <use style="fill:#165ea9;stroke:#165ea9;" x="293.929412" xlink:href="#mb759b495cc" y="91.609573"/>
     <use style="fill:#165ea9;stroke:#165ea9;" x="299.181176" xlink:href="#mb759b495cc" y="71.074503"/>
     <use style="fill:#165ea9;stroke:#165ea9;" x="304.432941" xlink:href="#mb759b495cc" y="220.953844"/>
     <use style="fill:#165ea9;stroke:#165ea9;" x="309.684706" xlink:href="#mb759b495cc" y="131.346266"/>
     <use style="fill:#165ea9;stroke:#165ea9;" x="314.936471" xlink:href="#mb759b495cc" y="59.340178"/>
     <use style="fill:#165ea9;stroke:#165ea9;" x="320.188235" xlink:href="#mb759b495cc" y="54.806461"/>
     <use style="fill:#165ea9;stroke:#165ea9;" x="325.44" xlink:href="#mb759b495cc" y="227.621074"/>
     <use style="fill:#165ea9;stroke:#165ea9;" x="330.691765" xlink:href="#mb759b495cc" y="61.473691"/>
     <use style="fill:#165ea9;stroke:#165ea9;" x="335.943529" xlink:href="#mb759b495cc" y="169.482825"/>
     <use style="fill:#165ea9;stroke:#165ea9;" x="341.195294" xlink:href="#mb759b495cc" y="218.286951"/>
     <use style="fill:#165ea9;stroke:#165ea9;" x="346.447059" xlink:href="#mb759b495cc" y="156.681742"/>
     <use style="fill:#165ea9;stroke:#165ea9;" x="351.698824" xlink:href="#mb759b495cc" y="170.016203"/>
     <use style="fill:#165ea9;stroke:#165ea9;" x="356.950588" xlink:href="#mb759b495cc" y="87.875924"/>
     <use style="fill:#165ea9;stroke:#165ea9;" x="362.202353" xlink:href="#mb759b495cc" y="56.406596"/>
     <use style="fill:#165ea9;stroke:#165ea9;" x="367.454118" xlink:href="#mb759b495cc" y="148.147687"/>
     <use style="fill:#165ea9;stroke:#165ea9;" x="372.705882" xlink:href="#mb759b495cc" y="173.483163"/>
     <use style="fill:#165ea9;stroke:#165ea9;" x="377.957647" xlink:href="#mb759b495cc" y="196.685125"/>
     <use style="fill:#165ea9;stroke:#165ea9;" x="383.209412" xlink:href="#mb759b495cc" y="71.341192"/>
     <use style="fill:#165ea9;stroke:#165ea9;" x="388.461176" xlink:href="#mb759b495cc" y="115.078224"/>
     <use style="fill:#165ea9;stroke:#165ea9;" x="393.712941" xlink:href="#mb759b495cc" y="175.616677"/>
     <use style="fill:#165ea9;stroke:#165ea9;" x="398.964706" xlink:href="#mb759b495cc" y="191.35134"/>
     <use style="fill:#165ea9;stroke:#165ea9;" x="404.216471" xlink:href="#mb759b495cc" y="234.288304"/>
     <use style="fill:#165ea9;stroke:#165ea9;" x="409.468235" xlink:href="#mb759b495cc" y="72.674638"/>
     <use style="fill:#165ea9;stroke:#165ea9;" x="414.72" xlink:href="#mb759b495cc" y="122.278833"/>
    </g>
   </g>
   <g id="line2d_14">
    <path clip-path="url(#pc6dae71031)" d="M 57.6 156.681742 
L 62.851765 156.681742 
L 68.103529 156.681742 
L 73.355294 156.681742 
L 78.607059 156.681742 
L 83.858824 156.681742 
L 89.110588 156.681742 
L 94.362353 156.681742 
L 99.614118 156.681742 
L 104.865882 156.681742 
L 110.117647 156.681742 
L 115.369412 156.681742 
L 120.621176 156.681742 
L 125.872941 156.681742 
L 131.124706 156.681742 
L 136.376471 156.681742 
L 141.628235 156.681742 
L 146.88 156.681742 
L 152.131765 156.681742 
L 157.383529 156.681742 
L 162.635294 156.681742 
L 167.887059 156.681742 
L 173.138824 156.681742 
L 178.390588 156.681742 
L 183.642353 156.681742 
L 188.894118 156.681742 
L 194.145882 156.681742 
L 199.397647 156.681742 
L 204.649412 156.681742 
L 209.901176 156.681742 
L 215.152941 156.681742 
L 220.404706 156.681742 
L 225.656471 156.681742 
L 230.908235 156.681742 
L 236.16 156.681742 
L 241.411765 156.681742 
L 246.663529 156.681742 
L 251.915294 156.681742 
L 257.167059 156.681742 
L 262.418824 156.681742 
L 267.670588 156.681742 
L 272.922353 156.681742 
L 278.174118 156.681742 
L 283.425882 156.681742 
L 288.677647 156.681742 
L 293.929412 156.681742 
L 299.181176 156.681742 
L 304.432941 156.681742 
L 309.684706 156.681742 
L 314.936471 156.681742 
L 320.188235 156.681742 
L 325.44 156.681742 
L 330.691765 156.681742 
L 335.943529 156.681742 
L 341.195294 156.681742 
L 346.447059 156.681742 
L 351.698824 156.681742 
L 356.950588 156.681742 
L 362.202353 156.681742 
L 367.454118 156.681742 
L 372.705882 156.681742 
L 377.957647 156.681742 
L 383.209412 156.681742 
L 388.461176 156.681742 
L 393.712941 156.681742 
L 398.964706 156.681742 
L 404.216471 156.681742 
L 409.468235 156.681742 
L 414.72 156.681742 
" style="fill:none;stroke:#165ea9;stroke-linecap:square;stroke-width:2;"/>
   </g>
   <g id="patch_4">
    <path d="M 57.6 293.76 
L 57.6 41.472 
" style="fill:none;stroke:#000000;stroke-linecap:square;stroke-linejoin:miter;stroke-width:0.8;"/>
   </g>
   <g id="patch_5">
    <path d="M 414.72 293.76 
L 414.72 41.472 
" style="fill:none;stroke:#000000;stroke-linecap:square;stroke-linejoin:miter;stroke-width:0.8;"/>
   </g>
   <g id="patch_6">
    <path d="M 57.6 293.76 
L 414.72 293.76 
" style="fill:none;stroke:#000000;stroke-linecap:square;stroke-linejoin:miter;stroke-width:0.8;"/>
   </g>
   <g id="patch_7">
    <path d="M 57.6 41.472 
L 414.72 41.472 
" style="fill:none;stroke:#000000;stroke-linecap:square;stroke-linejoin:miter;stroke-width:0.8;"/>
   </g>
   <g id="text_15">
    <!-- Release-to-Release time chart -->
    <defs>
     <path d="M 66.75 0 
L 48.640625 0 
L 37.75 18.015625 
Q 36.53125 20.0625 35.40625 21.671875 
Q 34.28125 23.296875 33.125 24.4375 
Q 31.984375 25.59375 30.734375 26.203125 
Q 29.5 26.8125 28.03125 26.8125 
L 23.78125 26.8125 
L 23.78125 0 
L 8.015625 0 
L 8.015625 70.015625 
L 33.015625 70.015625 
Q 58.5 70.015625 58.5 50.984375 
Q 58.5 47.3125 57.375 44.203125 
Q 56.25 41.109375 54.203125 38.625 
Q 52.15625 36.140625 49.25 34.328125 
Q 46.34375 32.515625 42.78125 31.5 
L 42.78125 31.296875 
Q 44.34375 30.8125 45.796875 29.703125 
Q 47.265625 28.609375 48.625 27.140625 
Q 50 25.6875 51.234375 24 
Q 52.484375 22.3125 53.515625 20.703125 
z
M 23.78125 58.203125 
L 23.78125 38.71875 
L 30.609375 38.71875 
Q 35.6875 38.71875 38.765625 41.65625 
Q 41.890625 44.625 41.890625 49.03125 
Q 41.890625 58.203125 30.90625 58.203125 
z
" id="SegoeUI-Bold-52"/>
     <path d="M 51.421875 20.609375 
L 18.796875 20.609375 
Q 19.578125 9.71875 32.515625 9.71875 
Q 40.765625 9.71875 47.015625 13.625 
L 47.015625 2.484375 
Q 40.09375 -1.21875 29 -1.21875 
Q 16.890625 -1.21875 10.203125 5.484375 
Q 3.515625 12.203125 3.515625 24.21875 
Q 3.515625 36.671875 10.734375 43.9375 
Q 17.96875 51.21875 28.515625 51.21875 
Q 39.453125 51.21875 45.4375 44.71875 
Q 51.421875 38.234375 51.421875 27.09375 
z
M 37.109375 30.078125 
Q 37.109375 40.828125 28.421875 40.828125 
Q 24.703125 40.828125 21.984375 37.75 
Q 19.28125 34.671875 18.703125 30.078125 
z
" id="SegoeUI-Bold-65"/>
     <path d="M 21.921875 0 
L 6.5 0 
L 6.5 74.03125 
L 21.921875 74.03125 
z
" id="SegoeUI-Bold-6c"/>
     <path d="M 48.09375 0 
L 33.5 0 
L 33.5 7.171875 
L 33.296875 7.171875 
Q 28.265625 -1.21875 18.40625 -1.21875 
Q 11.140625 -1.21875 6.953125 2.90625 
Q 2.78125 7.03125 2.78125 13.921875 
Q 2.78125 28.46875 20.015625 30.71875 
L 33.59375 32.515625 
Q 33.59375 40.71875 24.703125 40.71875 
Q 15.765625 40.71875 7.71875 35.40625 
L 7.71875 47.015625 
Q 10.9375 48.6875 16.53125 49.953125 
Q 22.125 51.21875 26.703125 51.21875 
Q 48.09375 51.21875 48.09375 29.890625 
z
M 33.59375 20.3125 
L 33.59375 23.6875 
L 24.515625 22.515625 
Q 17 21.53125 17 15.71875 
Q 17 13.09375 18.828125 11.40625 
Q 20.65625 9.71875 23.78125 9.71875 
Q 28.125 9.71875 30.859375 12.71875 
Q 33.59375 15.71875 33.59375 20.3125 
z
" id="SegoeUI-Bold-61"/>
     <path d="M 3.21875 1.3125 
L 3.21875 13.8125 
Q 7.03125 11.53125 10.8125 10.40625 
Q 14.59375 9.28125 17.96875 9.28125 
Q 22.078125 9.28125 24.4375 10.40625 
Q 26.8125 11.53125 26.8125 13.8125 
Q 26.8125 15.28125 25.734375 16.25 
Q 24.65625 17.234375 22.96875 17.96875 
Q 21.296875 18.703125 19.28125 19.28125 
Q 17.28125 19.875 15.4375 20.609375 
Q 12.453125 21.734375 10.171875 23.015625 
Q 7.90625 24.3125 6.359375 26.015625 
Q 4.828125 27.734375 4.015625 29.984375 
Q 3.21875 32.234375 3.21875 35.296875 
Q 3.21875 39.5 5.046875 42.53125 
Q 6.890625 45.5625 9.9375 47.484375 
Q 12.984375 49.421875 16.90625 50.3125 
Q 20.84375 51.21875 25.09375 51.21875 
Q 28.421875 51.21875 31.828125 50.703125 
Q 35.25 50.203125 38.578125 49.21875 
L 38.578125 37.3125 
Q 35.640625 39.015625 32.296875 39.859375 
Q 28.953125 40.71875 25.734375 40.71875 
Q 24.21875 40.71875 22.875 40.453125 
Q 21.53125 40.1875 20.5 39.671875 
Q 19.484375 39.15625 18.890625 38.34375 
Q 18.3125 37.546875 18.3125 36.53125 
Q 18.3125 35.15625 19.1875 34.171875 
Q 20.0625 33.203125 21.484375 32.484375 
Q 22.90625 31.78125 24.640625 31.21875 
Q 26.375 30.671875 28.078125 30.078125 
Q 31.15625 29 33.640625 27.734375 
Q 36.140625 26.46875 37.921875 24.75 
Q 39.703125 23.046875 40.65625 20.75 
Q 41.609375 18.453125 41.609375 15.28125 
Q 41.609375 10.84375 39.671875 7.6875 
Q 37.75 4.546875 34.546875 2.5625 
Q 31.34375 0.59375 27.171875 -0.3125 
Q 23 -1.21875 18.5 -1.21875 
Q 10.25 -1.21875 3.21875 1.3125 
z
" id="SegoeUI-Bold-73"/>
     <path d="M 33.6875 21.296875 
L 6.984375 21.296875 
L 6.984375 32.078125 
L 33.6875 32.078125 
z
" id="SegoeUI-Bold-2d"/>
     <path d="M 36.71875 0.59375 
Q 33.296875 -1.21875 26.421875 -1.21875 
Q 10.109375 -1.21875 10.109375 15.71875 
L 10.109375 38.625 
L 2 38.625 
L 2 50 
L 10.109375 50 
L 10.109375 60.796875 
L 25.484375 65.1875 
L 25.484375 50 
L 36.71875 50 
L 36.71875 38.625 
L 25.484375 38.625 
L 25.484375 18.40625 
Q 25.484375 10.59375 31.6875 10.59375 
Q 34.125 10.59375 36.71875 12.015625 
z
" id="SegoeUI-Bold-74"/>
     <path d="M 30.328125 -1.21875 
Q 17.828125 -1.21875 10.671875 5.78125 
Q 3.515625 12.796875 3.515625 24.8125 
Q 3.515625 37.203125 10.9375 44.203125 
Q 18.359375 51.21875 31 51.21875 
Q 43.453125 51.21875 50.53125 44.203125 
Q 57.625 37.203125 57.625 25.6875 
Q 57.625 13.234375 50.3125 6 
Q 43.015625 -1.21875 30.328125 -1.21875 
z
M 30.71875 39.40625 
Q 25.25 39.40625 22.21875 35.640625 
Q 19.1875 31.890625 19.1875 25 
Q 19.1875 10.59375 30.8125 10.59375 
Q 41.890625 10.59375 41.890625 25.390625 
Q 41.890625 39.40625 30.71875 39.40625 
z
" id="SegoeUI-Bold-6f"/>
     <path id="SegoeUI-Bold-20"/>
     <path d="M 14.3125 57.90625 
Q 10.40625 57.90625 7.90625 60.21875 
Q 5.421875 62.546875 5.421875 65.921875 
Q 5.421875 69.390625 7.90625 71.578125 
Q 10.40625 73.78125 14.3125 73.78125 
Q 18.265625 73.78125 20.71875 71.578125 
Q 23.1875 69.390625 23.1875 65.921875 
Q 23.1875 62.40625 20.71875 60.15625 
Q 18.265625 57.90625 14.3125 57.90625 
z
M 21.921875 0 
L 6.5 0 
L 6.5 50 
L 21.921875 50 
z
" id="SegoeUI-Bold-69"/>
     <path d="M 85.890625 0 
L 70.515625 0 
L 70.515625 28.515625 
Q 70.515625 39.40625 62.5 39.40625 
Q 58.6875 39.40625 56.296875 36.125 
Q 53.90625 32.859375 53.90625 27.984375 
L 53.90625 0 
L 38.484375 0 
L 38.484375 28.8125 
Q 38.484375 39.40625 30.609375 39.40625 
Q 26.65625 39.40625 24.28125 36.28125 
Q 21.921875 33.15625 21.921875 27.78125 
L 21.921875 0 
L 6.5 0 
L 6.5 50 
L 21.921875 50 
L 21.921875 42.1875 
L 22.125 42.1875 
Q 24.515625 46.1875 28.828125 48.703125 
Q 33.15625 51.21875 38.28125 51.21875 
Q 48.875 51.21875 52.78125 41.890625 
Q 58.5 51.21875 69.578125 51.21875 
Q 85.890625 51.21875 85.890625 31.109375 
z
" id="SegoeUI-Bold-6d"/>
     <path d="M 44.390625 1.8125 
Q 39.15625 -1.21875 29.296875 -1.21875 
Q 17.78125 -1.21875 10.640625 5.765625 
Q 3.515625 12.75 3.515625 23.78125 
Q 3.515625 36.53125 11.15625 43.875 
Q 18.796875 51.21875 31.59375 51.21875 
Q 40.4375 51.21875 44.390625 48.875 
L 44.390625 35.796875 
Q 39.546875 39.40625 33.59375 39.40625 
Q 26.953125 39.40625 23.0625 35.515625 
Q 19.1875 31.640625 19.1875 24.8125 
Q 19.1875 18.171875 22.890625 14.375 
Q 26.609375 10.59375 33.109375 10.59375 
Q 38.875 10.59375 44.390625 14.203125 
z
" id="SegoeUI-Bold-63"/>
     <path d="M 54.5 0 
L 39.109375 0 
L 39.109375 28.421875 
Q 39.109375 39.40625 31.109375 39.40625 
Q 27 39.40625 24.453125 36.328125 
Q 21.921875 33.25 21.921875 28.515625 
L 21.921875 0 
L 6.5 0 
L 6.5 74.03125 
L 21.921875 74.03125 
L 21.921875 42.578125 
L 22.125 42.578125 
Q 27.78125 51.21875 37.5 51.21875 
Q 54.5 51.21875 54.5 30.71875 
z
" id="SegoeUI-Bold-68"/>
     <path d="M 39.109375 36.078125 
Q 36.328125 37.59375 32.625 37.59375 
Q 27.59375 37.59375 24.75 33.90625 
Q 21.921875 30.21875 21.921875 23.875 
L 21.921875 0 
L 6.5 0 
L 6.5 50 
L 21.921875 50 
L 21.921875 40.71875 
L 22.125 40.71875 
Q 25.78125 50.875 35.296875 50.875 
Q 37.75 50.875 39.109375 50.296875 
z
" id="SegoeUI-Bold-72"/>
    </defs>
    <g transform="translate(166.281094 25.38048)scale(0.1 -0.1)">
     <use xlink:href="#SegoeUI-Bold-52"/>
     <use x="65.251953" xlink:href="#SegoeUI-Bold-65"/>
     <use x="119.353516" xlink:href="#SegoeUI-Bold-6c"/>
     <use x="147.771484" xlink:href="#SegoeUI-Bold-65"/>
     <use x="201.873047" xlink:href="#SegoeUI-Bold-61"/>
     <use x="255.681641" xlink:href="#SegoeUI-Bold-73"/>
     <use x="299.675781" xlink:href="#SegoeUI-Bold-65"/>
     <use x="353.777344" xlink:href="#SegoeUI-Bold-2d"/>
     <use x="394.207031" xlink:href="#SegoeUI-Bold-74"/>
     <use x="433.123047" xlink:href="#SegoeUI-Bold-6f"/>
     <use x="494.255859" xlink:href="#SegoeUI-Bold-2d"/>
     <use x="534.685547" xlink:href="#SegoeUI-Bold-52"/>
     <use x="599.9375" xlink:href="#SegoeUI-Bold-65"/>
     <use x="654.039062" xlink:href="#SegoeUI-Bold-6c"/>
     <use x="682.457031" xlink:href="#SegoeUI-Bold-65"/>
     <use x="736.558594" xlink:href="#SegoeUI-Bold-61"/>
     <use x="790.367188" xlink:href="#SegoeUI-Bold-73"/>
     <use x="834.361328" xlink:href="#SegoeUI-Bold-65"/>
     <use x="888.462891" xlink:href="#SegoeUI-Bold-20"/>
     <use x="916.050781" xlink:href="#SegoeUI-Bold-74"/>
     <use x="954.966797" xlink:href="#SegoeUI-Bold-69"/>
     <use x="983.384766" xlink:href="#SegoeUI-Bold-6d"/>
     <use x="1074.986328" xlink:href="#SegoeUI-Bold-65"/>
     <use x="1129.087891" xlink:href="#SegoeUI-Bold-20"/>
     <use x="1156.675781" xlink:href="#SegoeUI-Bold-63"/>
     <use x="1204.673828" xlink:href="#SegoeUI-Bold-68"/>
     <use x="1264.878906" xlink:href="#SegoeUI-Bold-61"/>
     <use x="1318.6875" xlink:href="#SegoeUI-Bold-72"/>
     <use x="1358.513672" xlink:href="#SegoeUI-Bold-74"/>
    </g>
   </g>
   <g id="legend_1">
    <g id="patch_8">
     <path d="M 306.259063 288.76 
L 407.72 288.76 
Q 409.72 288.76 409.72 286.76 
L 409.72 243.55375 
Q 409.72 241.55375 407.72 241.55375 
L 306.259063 241.55375 
Q 304.259063 241.55375 304.259063 243.55375 
L 304.259063 286.76 
Q 304.259063 288.76 306.259063 288.76 
z
" style="fill:#ffffff;opacity:0.5;stroke:#cccccc;stroke-linejoin:miter;"/>
    </g>
    <g id="line2d_15">
     <path d="M 308.259063 249.456875 
L 328.259063 249.456875 
" style="fill:none;stroke:#165ea9;stroke-linecap:square;stroke-width:1.5;"/>
    </g>
    <g id="line2d_16">
     <g>
      <use style="fill:#165ea9;stroke:#165ea9;" x="318.259063" xlink:href="#mb759b495cc" y="249.456875"/>
     </g>
    </g>
    <g id="text_16">
     <!-- Parameter value -->
     <defs>
      <path d="M 15.578125 27.25 
L 15.578125 0 
L 9.078125 0 
L 9.078125 70.015625 
L 27.15625 70.015625 
Q 32.671875 70.015625 36.90625 68.640625 
Q 41.15625 67.28125 44.078125 64.6875 
Q 47.015625 62.109375 48.53125 58.34375 
Q 50.046875 54.59375 50.046875 49.75 
Q 50.046875 44.875 48.328125 40.75 
Q 46.625 36.625 43.421875 33.609375 
Q 40.234375 30.609375 35.640625 28.921875 
Q 31.0625 27.25 25.25 27.25 
z
M 15.578125 64.0625 
L 15.578125 33.203125 
L 24.859375 33.203125 
Q 33.890625 33.203125 38.578125 37.40625 
Q 43.265625 41.609375 43.265625 49.265625 
Q 43.265625 64.0625 25.984375 64.0625 
z
" id="SegoeUI-Semilight-50"/>
      <path d="M 36.859375 0 
L 36.859375 8.890625 
L 36.671875 8.890625 
Q 34.234375 4.109375 30 1.46875 
Q 25.78125 -1.171875 20.453125 -1.171875 
Q 16.84375 -1.171875 13.9375 -0.140625 
Q 11.03125 0.875 9 2.75 
Q 6.984375 4.640625 5.875 7.265625 
Q 4.78125 9.90625 4.78125 13.09375 
Q 4.78125 19.875 8.984375 23.90625 
Q 13.1875 27.9375 21.6875 29.15625 
L 36.859375 31.34375 
Q 36.859375 45.75 25.6875 45.75 
Q 16.9375 45.75 9.46875 39.359375 
L 9.46875 46.1875 
Q 11.03125 47.3125 13 48.21875 
Q 14.984375 49.125 17.1875 49.78125 
Q 19.390625 50.4375 21.703125 50.796875 
Q 24.03125 51.171875 26.21875 51.171875 
Q 34.578125 51.171875 38.84375 46.484375 
Q 43.109375 41.796875 43.109375 32.515625 
L 43.109375 0 
z
M 23.96875 24.265625 
Q 20.609375 23.78125 18.21875 23.046875 
Q 15.828125 22.3125 14.265625 21.0625 
Q 12.703125 19.828125 11.96875 17.984375 
Q 11.234375 16.15625 11.234375 13.484375 
Q 11.234375 11.46875 11.9375 9.765625 
Q 12.640625 8.0625 13.984375 6.8125 
Q 15.328125 5.5625 17.25 4.875 
Q 19.1875 4.203125 21.625 4.203125 
Q 24.953125 4.203125 27.734375 5.46875 
Q 30.515625 6.734375 32.546875 8.984375 
Q 34.578125 11.234375 35.71875 14.359375 
Q 36.859375 17.484375 36.859375 21.140625 
L 36.859375 26.078125 
z
" id="SegoeUI-Semilight-61"/>
      <path d="M 32.859375 43.609375 
Q 30.671875 45.21875 27.203125 45.21875 
Q 24.703125 45.21875 22.796875 44.265625 
Q 20.90625 43.3125 19.453125 41.703125 
Q 18.015625 40.09375 17.015625 37.96875 
Q 16.015625 35.84375 15.40625 33.546875 
Q 14.796875 31.25 14.53125 28.90625 
Q 14.265625 26.5625 14.265625 24.46875 
L 14.265625 0 
L 8.0625 0 
L 8.0625 50 
L 14.265625 50 
L 14.265625 39.3125 
L 14.453125 39.3125 
Q 15.328125 42.046875 16.671875 44.21875 
Q 18.015625 46.390625 19.765625 47.875 
Q 21.53125 49.359375 23.609375 50.140625 
Q 25.6875 50.921875 27.984375 50.921875 
Q 29.5 50.921875 30.6875 50.71875 
Q 31.890625 50.53125 32.859375 50.140625 
z
" id="SegoeUI-Semilight-72"/>
      <path d="M 70.90625 0 
L 70.90625 29.390625 
Q 70.90625 33.890625 70.21875 36.984375 
Q 69.53125 40.09375 68.09375 42.046875 
Q 66.65625 44 64.421875 44.875 
Q 62.203125 45.75 59.125 45.75 
Q 56.390625 45.75 53.953125 44.453125 
Q 51.515625 43.171875 49.6875 40.890625 
Q 47.859375 38.625 46.796875 35.546875 
Q 45.75 32.46875 45.75 28.90625 
L 45.75 0 
L 39.5 0 
L 39.5 30.03125 
Q 39.5 45.75 27.4375 45.75 
Q 24.65625 45.75 22.265625 44.5 
Q 19.875 43.265625 18.09375 41.015625 
Q 16.3125 38.765625 15.3125 35.609375 
Q 14.3125 32.46875 14.3125 28.65625 
L 14.3125 0 
L 8.0625 0 
L 8.0625 50 
L 14.3125 50 
L 14.3125 41.890625 
L 14.5 41.890625 
Q 19.78125 51.171875 29.890625 51.171875 
Q 32.515625 51.171875 34.859375 50.359375 
Q 37.203125 49.5625 39.0625 48.125 
Q 40.921875 46.6875 42.265625 44.671875 
Q 43.609375 42.671875 44.28125 40.28125 
Q 46.921875 45.609375 51.140625 48.390625 
Q 55.375 51.171875 60.6875 51.171875 
Q 77.15625 51.171875 77.15625 30.859375 
L 77.15625 0 
z
" id="SegoeUI-Semilight-6d"/>
      <path d="M 11.03125 23.875 
Q 11.078125 19.28125 12.25 15.625 
Q 13.421875 11.96875 15.625 9.421875 
Q 17.828125 6.890625 20.96875 5.546875 
Q 24.125 4.203125 28.078125 4.203125 
Q 36.53125 4.203125 44.046875 10.109375 
L 44.046875 3.953125 
Q 36.859375 -1.171875 26.65625 -1.171875 
Q 21.625 -1.171875 17.515625 0.578125 
Q 13.421875 2.34375 10.546875 5.6875 
Q 7.671875 9.03125 6.109375 13.90625 
Q 4.546875 18.796875 4.546875 25.046875 
Q 4.546875 30.671875 6.25 35.453125 
Q 7.953125 40.234375 10.984375 43.71875 
Q 14.015625 47.21875 18.15625 49.1875 
Q 22.3125 51.171875 27.25 51.171875 
Q 32.078125 51.171875 35.78125 49.484375 
Q 39.5 47.796875 42.015625 44.671875 
Q 44.53125 41.546875 45.84375 37.046875 
Q 47.171875 32.5625 47.171875 27 
L 47.171875 23.875 
z
M 40.71875 29.34375 
Q 40.578125 37.15625 37.015625 41.453125 
Q 33.453125 45.75 27.09375 45.75 
Q 23.921875 45.75 21.203125 44.625 
Q 18.5 43.5 16.453125 41.375 
Q 14.40625 39.265625 13.0625 36.203125 
Q 11.71875 33.15625 11.1875 29.34375 
z
" id="SegoeUI-Semilight-65"/>
      <path d="M 29.546875 0.59375 
Q 26.3125 -1.03125 22.515625 -1.03125 
Q 10.40625 -1.03125 10.40625 12.9375 
L 10.40625 44.53125 
L 1.609375 44.53125 
L 1.609375 50 
L 10.40625 50 
L 10.40625 62.59375 
L 16.65625 64.65625 
L 16.65625 50 
L 29.546875 50 
L 29.546875 44.53125 
L 16.65625 44.53125 
L 16.65625 13.921875 
Q 16.65625 8.84375 18.3125 6.59375 
Q 19.96875 4.34375 23.921875 4.34375 
Q 26.859375 4.34375 29.546875 6.109375 
z
" id="SegoeUI-Semilight-74"/>
      <path id="SegoeUI-Semilight-20"/>
      <path d="M 25.875 0 
L 19.921875 0 
L 0.78125 50 
L 7.671875 50 
L 21.484375 11.921875 
Q 22.75 8.453125 23.09375 5.8125 
L 23.296875 5.8125 
Q 23.875 9.328125 24.8125 11.71875 
L 39.109375 50 
L 45.796875 50 
z
" id="SegoeUI-Semilight-76"/>
      <path d="M 8.0625 0 
L 8.0625 74.03125 
L 14.3125 74.03125 
L 14.3125 0 
z
" id="SegoeUI-Semilight-6c"/>
      <path d="M 40.765625 0 
L 40.765625 8.5 
L 40.578125 8.5 
Q 35.5 -1.171875 24.8125 -1.171875 
Q 6.984375 -1.171875 6.984375 20.609375 
L 6.984375 50 
L 13.234375 50 
L 13.234375 21.78125 
Q 13.234375 12.796875 16.421875 8.5 
Q 19.625 4.203125 26.21875 4.203125 
Q 29.4375 4.203125 32.09375 5.4375 
Q 34.765625 6.6875 36.6875 8.953125 
Q 38.625 11.234375 39.6875 14.40625 
Q 40.765625 17.578125 40.765625 21.4375 
L 40.765625 50 
L 47.015625 50 
L 47.015625 0 
z
" id="SegoeUI-Semilight-75"/>
     </defs>
     <g transform="translate(336.259063 252.956875)scale(0.1 -0.1)">
      <use xlink:href="#SegoeUI-Semilight-50"/>
      <use x="55.128906" xlink:href="#SegoeUI-Semilight-61"/>
      <use x="105.226562" xlink:href="#SegoeUI-Semilight-72"/>
      <use x="139.113281" xlink:href="#SegoeUI-Semilight-61"/>
      <use x="189.210938" xlink:href="#SegoeUI-Semilight-6d"/>
      <use x="273.341797" xlink:href="#SegoeUI-Semilight-65"/>
      <use x="324.708984" xlink:href="#SegoeUI-Semilight-74"/>
      <use x="356.496094" xlink:href="#SegoeUI-Semilight-65"/>
      <use x="407.863281" xlink:href="#SegoeUI-Semilight-72"/>
      <use x="441.75" xlink:href="#SegoeUI-Semilight-20"/>
      <use x="469.142578" xlink:href="#SegoeUI-Semilight-76"/>
      <use x="515.708984" xlink:href="#SegoeUI-Semilight-61"/>
      <use x="565.806641" xlink:href="#SegoeUI-Semilight-6c"/>
      <use x="588.169922" xlink:href="#SegoeUI-Semilight-75"/>
      <use x="643.248047" xlink:href="#SegoeUI-Semilight-65"/>
     </g>
    </g>
    <g id="line2d_17">
     <path d="M 308.259063 264.16 
L 328.259063 264.16 
" style="fill:none;stroke:#165ea9;stroke-linecap:square;stroke-width:2;"/>
    </g>
    <g id="line2d_18"/>
    <g id="text_17">
     <!-- Average -->
     <defs>
      <path d="M 54.4375 0 
L 46.734375 20.703125 
L 16.703125 20.703125 
L 9.1875 0 
L 1.953125 0 
L 28.609375 70.015625 
L 35.15625 70.015625 
L 61.671875 0 
z
M 33.109375 57.765625 
Q 32.765625 58.6875 32.390625 59.90625 
Q 32.03125 61.140625 31.78125 62.703125 
L 31.59375 62.703125 
Q 31.296875 61.140625 30.921875 59.90625 
Q 30.5625 58.6875 30.21875 57.765625 
L 18.890625 26.609375 
L 44.53125 26.609375 
z
" id="SegoeUI-Semilight-41"/>
      <path d="M 49.359375 3.859375 
Q 49.359375 -10.0625 43.03125 -16.765625 
Q 36.71875 -23.484375 23.53125 -23.484375 
Q 15.328125 -23.484375 8.015625 -19.828125 
L 8.015625 -13.484375 
Q 16.15625 -18.015625 23.53125 -18.015625 
Q 43.109375 -18.015625 43.109375 2.6875 
L 43.109375 8.6875 
L 42.921875 8.6875 
Q 37.15625 -1.171875 25.34375 -1.171875 
Q 20.703125 -1.171875 16.859375 0.53125 
Q 13.03125 2.25 10.296875 5.46875 
Q 7.5625 8.6875 6.046875 13.296875 
Q 4.546875 17.921875 4.546875 23.734375 
Q 4.546875 29.890625 6.15625 34.9375 
Q 7.765625 39.984375 10.734375 43.59375 
Q 13.71875 47.21875 17.9375 49.1875 
Q 22.171875 51.171875 27.4375 51.171875 
Q 38.03125 51.171875 42.921875 42.578125 
L 43.109375 42.578125 
L 43.109375 50 
L 49.359375 50 
z
M 43.109375 30.375 
Q 43.109375 33.5 41.984375 36.28125 
Q 40.875 39.0625 38.859375 41.15625 
Q 36.859375 43.265625 34.09375 44.5 
Q 31.34375 45.75 28.03125 45.75 
Q 24.125 45.75 20.96875 44.234375 
Q 17.828125 42.71875 15.59375 39.9375 
Q 13.375 37.15625 12.171875 33.171875 
Q 10.984375 29.203125 10.984375 24.21875 
Q 10.984375 19.625 12.109375 15.90625 
Q 13.234375 12.203125 15.28125 9.609375 
Q 17.328125 7.03125 20.234375 5.609375 
Q 23.140625 4.203125 26.703125 4.203125 
Q 30.421875 4.203125 33.4375 5.546875 
Q 36.46875 6.890625 38.609375 9.25 
Q 40.765625 11.625 41.9375 14.8125 
Q 43.109375 18.015625 43.109375 21.734375 
z
" id="SegoeUI-Semilight-67"/>
     </defs>
     <g transform="translate(336.259063 267.66)scale(0.1 -0.1)">
      <use xlink:href="#SegoeUI-Semilight-41"/>
      <use x="63.591797" xlink:href="#SegoeUI-Semilight-76"/>
      <use x="110.173828" xlink:href="#SegoeUI-Semilight-65"/>
      <use x="161.541016" xlink:href="#SegoeUI-Semilight-72"/>
      <use x="195.427734" xlink:href="#SegoeUI-Semilight-61"/>
      <use x="245.525391" xlink:href="#SegoeUI-Semilight-67"/>
      <use x="302.947266" xlink:href="#SegoeUI-Semilight-65"/>
     </g>
    </g>
    <g id="patch_9">
     <path d="M 308.259063 282.411562 
L 328.259063 282.411562 
L 328.259063 275.411562 
L 308.259063 275.411562 
z
" style="fill:url(#h2e323b40e2);opacity:0.5;"/>
    </g>
    <g id="text_18">
     <!-- Deviation range -->
     <defs>
      <path d="M 9.078125 0 
L 9.078125 70.015625 
L 27.484375 70.015625 
Q 45.453125 70.015625 54.625 61.390625 
Q 63.8125 52.78125 63.8125 35.9375 
Q 63.8125 27.828125 61.25 21.1875 
Q 58.6875 14.546875 53.859375 9.828125 
Q 49.03125 5.125 42.140625 2.5625 
Q 35.25 0 26.609375 0 
z
M 15.578125 64.0625 
L 15.578125 5.90625 
L 26.3125 5.90625 
Q 33.546875 5.90625 39.234375 7.859375 
Q 44.921875 9.8125 48.875 13.59375 
Q 52.828125 17.390625 54.90625 22.953125 
Q 56.984375 28.515625 56.984375 35.75 
Q 56.984375 64.0625 27.046875 64.0625 
z
" id="SegoeUI-Semilight-44"/>
      <path d="M 11.140625 62.640625 
Q 9.328125 62.640625 8 63.90625 
Q 6.6875 65.1875 6.6875 67.140625 
Q 6.6875 69.046875 8 70.28125 
Q 9.328125 71.53125 11.140625 71.53125 
Q 12.0625 71.53125 12.890625 71.21875 
Q 13.71875 70.90625 14.328125 70.3125 
Q 14.9375 69.734375 15.296875 68.921875 
Q 15.671875 68.109375 15.671875 67.140625 
Q 15.671875 66.21875 15.328125 65.375 
Q 14.984375 64.546875 14.34375 63.9375 
Q 13.71875 63.328125 12.90625 62.984375 
Q 12.109375 62.640625 11.140625 62.640625 
z
M 8.0625 0 
L 8.0625 50 
L 14.3125 50 
L 14.3125 0 
z
" id="SegoeUI-Semilight-69"/>
      <path d="M 28.515625 -1.171875 
Q 22.953125 -1.171875 18.53125 0.6875 
Q 14.109375 2.546875 10.984375 5.9375 
Q 7.859375 9.328125 6.203125 14.0625 
Q 4.546875 18.796875 4.546875 24.5625 
Q 4.546875 30.8125 6.296875 35.734375 
Q 8.0625 40.671875 11.296875 44.109375 
Q 14.546875 47.5625 19.140625 49.359375 
Q 23.734375 51.171875 29.390625 51.171875 
Q 34.8125 51.171875 39.15625 49.390625 
Q 43.5 47.609375 46.53125 44.234375 
Q 49.5625 40.875 51.171875 36.03125 
Q 52.78125 31.203125 52.78125 25.046875 
Q 52.78125 19.1875 51.09375 14.375 
Q 49.421875 9.578125 46.296875 6.109375 
Q 43.171875 2.640625 38.671875 0.734375 
Q 34.1875 -1.171875 28.515625 -1.171875 
z
M 29 45.75 
Q 24.90625 45.75 21.578125 44.328125 
Q 18.265625 42.921875 15.890625 40.203125 
Q 13.53125 37.5 12.25 33.5625 
Q 10.984375 29.640625 10.984375 24.65625 
Q 10.984375 19.96875 12.25 16.203125 
Q 13.53125 12.453125 15.84375 9.765625 
Q 18.171875 7.078125 21.484375 5.640625 
Q 24.8125 4.203125 28.90625 4.203125 
Q 33.109375 4.203125 36.328125 5.59375 
Q 39.546875 6.984375 41.796875 9.640625 
Q 44.046875 12.3125 45.1875 16.15625 
Q 46.34375 20.015625 46.34375 24.953125 
Q 46.34375 35.0625 41.84375 40.40625 
Q 37.359375 45.75 29 45.75 
z
" id="SegoeUI-Semilight-6f"/>
      <path d="M 41.796875 0 
L 41.796875 28.8125 
Q 41.796875 45.75 29.5 45.75 
Q 26.21875 45.75 23.4375 44.453125 
Q 20.65625 43.171875 18.625 40.875 
Q 16.609375 38.578125 15.453125 35.421875 
Q 14.3125 32.28125 14.3125 28.609375 
L 14.3125 0 
L 8.0625 0 
L 8.0625 50 
L 14.3125 50 
L 14.3125 41.3125 
L 14.5 41.3125 
Q 20.0625 51.171875 31.25 51.171875 
Q 39.453125 51.171875 43.75 45.84375 
Q 48.046875 40.53125 48.046875 30.46875 
L 48.046875 0 
z
" id="SegoeUI-Semilight-6e"/>
     </defs>
     <g transform="translate(336.259063 282.411562)scale(0.1 -0.1)">
      <use xlink:href="#SegoeUI-Semilight-44"/>
      <use x="68.75" xlink:href="#SegoeUI-Semilight-65"/>
      <use x="120.117188" xlink:href="#SegoeUI-Semilight-76"/>
      <use x="166.699219" xlink:href="#SegoeUI-Semilight-69"/>
      <use x="189.0625" xlink:href="#SegoeUI-Semilight-61"/>
      <use x="239.160156" xlink:href="#SegoeUI-Semilight-74"/>
      <use x="270.947266" xlink:href="#SegoeUI-Semilight-69"/>
      <use x="293.310547" xlink:href="#SegoeUI-Semilight-6f"/>
      <use x="350.634766" xlink:href="#SegoeUI-Semilight-6e"/>
      <use x="405.664062" xlink:href="#SegoeUI-Semilight-20"/>
      <use x="433.056641" xlink:href="#SegoeUI-Semilight-72"/>
      <use x="466.943359" xlink:href="#SegoeUI-Semilight-61"/>
      <use x="517.041016" xlink:href="#SegoeUI-Semilight-6e"/>
      <use x="572.070312" xlink:href="#SegoeUI-Semilight-67"/>
      <use x="629.492188" xlink:href="#SegoeUI-Semilight-65"/>
     </g>
    </g>
   </g>
  </g>
 </g>
 <defs>
  <clipPath id="pc6dae71031">
   <rect height="252.288" width="357.12" x="57.6" y="41.472"/>
  </clipPath>
 </defs>
 <defs>
  <pattern height="72" id="h2e323b40e2" patternUnits="userSpaceOnUse" width="72" x="0" y="0">
   <rect fill="#1b8ece" height="73" width="73" x="0" y="0"/>
   <path d="M -36 36 
L 36 108 
M -30 30 
L 42 102 
M -24 24 
L 48 96 
M -18 18 
L 54 90 
M -12 12 
L 60 84 
M -6 6 
L 66 78 
M 0 0 
L 72 72 
M 6 -6 
L 78 66 
M 12 -12 
L 84 60 
M 18 -18 
L 90 54 
M 24 -24 
L 96 48 
M 30 -30 
L 102 42 
M 36 -36 
L 108 36 
" style="fill:#000000;stroke:#000000;stroke-linecap:butt;stroke-linejoin:miter;stroke-width:1.0;"/>
  </pattern>
 </defs>
</svg>
